<svg width="21" height="17" viewBox="0 0 21 17" fill="none" xmlns="http://www.w3.org/2000/svg">
<path d="M20.5614 7.34362L13.4035 0.455823C12.772 -0.151941 11.7193 -0.151941 11.0878 0.455823L9.61407 1.8739C9.33336 2.14402 9.12286 2.54915 9.12286 2.95433C9.12286 3.35951 9.26322 3.76464 9.61407 4.03476L11.579 5.9255H1.68423C0.771955 5.9255 0 6.66833 0 7.54617V9.50444C0 10.3148 0.771914 10.99 1.68423 10.99H11.5088L9.61403 12.8133C9.33331 13.0834 9.12282 13.4886 9.12282 13.9613C9.12282 14.3664 9.26318 14.7716 9.61403 15.1092L11.0877 16.5273C11.3684 16.7974 11.7895 17 12.2105 17C12.6316 17 13.0526 16.8649 13.3333 16.5273L20.4912 9.6395C20.8421 9.30185 20.9825 8.89668 20.9825 8.49154C21.0526 8.0864 20.9123 7.68127 20.5614 7.34362ZM19.5789 8.69413L12.4211 15.5819C12.2807 15.717 12.2106 15.717 12.0702 15.5819L10.5965 14.1638C10.5263 14.0963 10.5263 14.0288 10.5263 13.9613C10.5263 13.8938 10.5263 13.8262 10.5965 13.7587L13.6842 10.7876C13.8947 10.585 13.9649 10.3149 13.8245 10.0448C13.6842 9.77464 13.4736 9.63958 13.193 9.63958H1.68423C1.54387 9.63958 1.40351 9.57205 1.40351 9.50452V7.54625C1.40351 7.41119 1.54387 7.27613 1.68423 7.27613H13.3334C13.6141 7.27613 13.8948 7.14107 13.9649 6.87095C14.0351 6.60084 14.0351 6.33072 13.8246 6.12813L10.6667 3.08943C10.5965 3.0219 10.5965 2.95437 10.5965 2.95437C10.5965 2.88684 10.5965 2.88684 10.6667 2.81931L12.1404 1.40127C12.2106 1.33374 12.3509 1.26621 12.4913 1.40127L19.6491 8.28899C19.7193 8.35652 19.7193 8.42405 19.7193 8.49154C19.6491 8.55911 19.6491 8.62664 19.5789 8.69413Z" fill="white"/>
</svg>
