<svg width="16" height="25" viewBox="0 0 16 25" fill="none" xmlns="http://www.w3.org/2000/svg">
<path d="M15.3967 11.0558L4.77431 0.609688C4.38312 0.203173 3.89463 0 3.30787 0C2.72111 0 2.23262 0.203398 1.84143 0.609688L0.603194 1.81333C0.201217 2.20916 0.000228141 2.69031 0.000228141 3.25729C0.000228141 3.81353 0.20116 4.30041 0.603194 4.71749L8.52136 12.5001L0.602852 20.2986C0.200989 20.6945 0 21.1756 0 21.7427C0 22.2988 0.200932 22.7859 0.602852 23.2028L1.8412 24.4063C2.24312 24.8021 2.73212 25 3.30764 25C3.88338 25 4.37227 24.8021 4.77408 24.4063L15.3967 13.9602C15.7988 13.543 16 13.0562 16 12.5C16.0001 11.933 15.7988 11.4516 15.3967 11.0558Z" fill="url(#paint0_linear_0_88)"/>
<defs>
<linearGradient id="paint0_linear_0_88" x1="5.84915" y1="-0.403485" x2="21.5315" y2="7.52247" gradientUnits="userSpaceOnUse">
<stop stop-color="#A068F8"/>
<stop offset="0.6891" stop-color="#3F55C3"/>
<stop offset="1" stop-color="#184EAE"/>
</linearGradient>
</defs>
</svg>
