<svg width="15" height="12" viewBox="0 0 15 12" fill="none" xmlns="http://www.w3.org/2000/svg">
<path d="M5.63951 11.7318C6.01642 12.0894 6.62753 12.0893 7.00432 11.7318C7.38136 11.374 7.38136 10.7941 7.00419 10.4362L3.29556 6.9164L14.035 6.91543C14.568 6.91531 15 6.5053 15 5.99917C14.9999 5.49328 14.5679 5.0834 14.0349 5.0834L3.29504 5.08437L7.00457 1.56382C7.38148 1.20609 7.38148 0.625944 7.00457 0.268331C6.81605 0.0895251 6.56911 0 6.32204 0C6.0751 0 5.82816 0.0895251 5.63964 0.268209L0.282716 5.35246C0.101659 5.52418 0 5.7571 0 6.00014C0.000128682 6.24319 0.101788 6.47598 0.282844 6.64807L5.63951 11.7318Z" fill="#F5F2F6"/>
</svg>
