<svg width="24" height="24" viewBox="0 0 24 24" fill="none" xmlns="http://www.w3.org/2000/svg">
<path d="M20.4854 3.51479C18.2188 1.24833 15.2054 0 12.0001 0C8.79476 0 5.78126 1.24833 3.51472 3.51479C1.24825 5.78126 0 8.79476 0 12.0001C0 15.2053 1.24825 18.2188 3.51472 20.4853C5.78126 22.7518 8.79468 24 12 24C15.2053 24 18.2187 22.7517 20.4853 20.4853C22.7517 18.2188 24 15.2053 24 12.0001C24.0001 8.79476 22.7518 5.78126 20.4854 3.51479ZM18.7586 9.40975L11.9614 16.992C11.7714 17.2039 11.4983 17.3254 11.2121 17.3254H11.212C10.9636 17.3254 10.7255 17.2345 10.5414 17.0695L5.47349 12.5264C5.0606 12.1562 5.02587 11.5192 5.39599 11.1065L6.49874 9.87632C6.68871 9.66446 6.96183 9.54287 7.2481 9.54287C7.49646 9.54287 7.73462 9.63375 7.91863 9.79874L10.6045 12.2067C10.7033 12.2952 10.8314 12.344 10.9652 12.344C11.1199 12.344 11.267 12.2786 11.3691 12.1648L16.0309 6.96461C16.2208 6.75276 16.4939 6.63116 16.7802 6.63116C17.0286 6.63116 17.2667 6.72205 17.4507 6.88711L18.6809 7.98994C19.094 8.35998 19.1288 8.99694 18.7586 9.40975Z" fill="url(#paint0_linear_0_5582)"/>
<defs>
<linearGradient id="paint0_linear_0_5582" x1="-3.46654" y1="1.05887" x2="18.8706" y2="39.7425" gradientUnits="userSpaceOnUse">
<stop stop-color="white"/>
<stop offset="1" stop-color="#D1D1D1"/>
</linearGradient>
</defs>
</svg>
