<svg width="51" height="44" viewBox="0 0 51 44" fill="none" xmlns="http://www.w3.org/2000/svg">
<path d="M49.4363 25.7236C49.0304 25.7236 48.7014 26.0526 48.7014 26.4586C48.7014 29.0925 46.5662 31.2278 43.9322 31.2278H30.9651C30.5591 31.2278 30.2301 31.5567 30.2301 31.9627C30.2301 32.3687 30.5591 32.6977 30.9651 32.6977H47.3912C48.1148 32.6977 48.7014 33.2843 48.7014 34.0079C48.7014 34.6833 48.152 35.2328 47.4765 35.2328C35.1911 35.2328 14.9607 35.2328 2.69475 35.2328C2.0193 35.2328 1.46986 34.6833 1.46986 34.0079C1.46986 33.2843 2.05647 32.6977 2.78009 32.6977H27.5354C27.9414 32.6977 28.2703 32.3687 28.2703 31.9627C28.2703 31.5567 27.9414 31.2278 27.5354 31.2278H23.4699C11.3196 31.2278 1.46986 21.378 1.46986 9.22779V2.69475C1.46986 2.0193 2.0193 1.46986 2.69475 1.46986H6.76136C7.16734 1.46986 7.49629 1.14091 7.49629 0.73493C7.49629 0.328955 7.16734 0 6.76136 0H2.69475C1.20881 0 0 1.20891 0 2.69475V34.0079C0 35.4937 1.20881 36.7026 2.69475 36.7026H20.2344C20.9498 36.7026 21.4578 37.3995 21.2388 38.0806C21.0985 38.5168 20.6927 38.8127 20.2344 38.8127H19.9172C18.0026 38.8127 16.4448 40.3703 16.4448 42.2852C16.4448 43.2307 17.2141 44 18.1596 44H32.0117C32.9572 44 33.7266 43.2307 33.7266 42.2852C33.7266 40.3704 32.1689 38.8127 30.2542 38.8127H29.9369C29.4787 38.8127 29.0728 38.5168 28.9326 38.0806C28.7136 37.3995 29.2216 36.7026 29.9369 36.7026H47.4765C48.9625 36.7026 50.1713 35.4937 50.1713 34.0079V26.4586C50.1713 26.0526 49.8423 25.7236 49.4363 25.7236ZM32.2567 42.2852C32.2567 42.4203 32.1468 42.5301 32.0117 42.5301H18.1595C18.0244 42.5301 17.9146 42.4203 17.9146 42.2852C17.9146 41.1809 18.8129 40.2825 19.9171 40.2825H30.2542C31.3584 40.2825 32.2567 41.1809 32.2567 42.2852ZM27.1809 37.4347C27.3999 38.1157 26.8919 38.8127 26.1765 38.8127H23.9946C23.2792 38.8127 22.7712 38.1158 22.9902 37.4347C23.1305 36.9985 23.5363 36.7026 23.9946 36.7026H26.1765C26.6348 36.7026 27.0406 36.9984 27.1809 37.4347Z" fill="url(#paint0_linear_0_6461)"/>
<path d="M47.4765 0H10.191C9.78506 0 9.45611 0.328955 9.45611 0.734931C9.45611 1.14091 9.78506 1.46986 10.191 1.46986H47.4765C48.152 1.46986 48.7014 2.0193 48.7014 2.69475V23.0289C48.7014 23.4349 49.0304 23.7639 49.4363 23.7639C49.8423 23.7639 50.1713 23.4349 50.1713 23.0289V2.69475C50.1713 1.20881 48.9624 0 47.4765 0Z" fill="url(#paint1_linear_0_6461)"/>
<path d="M43.9489 8.96727C44.3548 8.96727 44.6838 8.63831 44.6838 8.23234V6.5665C44.6838 5.08066 43.4749 3.87175 41.989 3.87175H8.18223C6.69639 3.87175 5.48748 5.08066 5.48748 6.5665V12.9359C5.48748 14.4217 6.69639 15.6306 8.18223 15.6306H41.989C43.4749 15.6306 44.6838 14.4217 44.6838 12.9359V11.662C44.6838 11.256 44.3548 10.9271 43.9489 10.9271C43.5429 10.9271 43.2139 11.256 43.2139 11.662V12.9359C43.2139 13.6113 42.6645 14.1608 41.989 14.1608H22.6359C20.2005 14.1608 18.2263 12.1865 18.2263 9.7512C18.2263 7.31585 20.2005 5.34161 22.6359 5.34161H41.989C42.6645 5.34161 43.2139 5.89105 43.2139 6.5665V8.23234C43.2139 8.63831 43.5429 8.96727 43.9489 8.96727ZM16.7564 9.7512C16.7564 12.1865 14.7822 14.1608 12.3468 14.1608H8.18223C7.50678 14.1608 6.95734 13.6113 6.95734 12.9359V6.5665C6.95734 5.89105 7.50678 5.34161 8.18223 5.34161H12.3468C14.7822 5.34161 16.7564 7.31585 16.7564 9.7512Z" fill="url(#paint2_linear_0_6461)"/>
<path d="M27.1434 8.96727H21.215C20.809 8.96727 20.4801 8.63831 20.4801 8.23234C20.4801 7.82636 20.809 7.49741 21.215 7.49741H27.1434C27.5494 7.49741 27.8784 7.82636 27.8784 8.23234C27.8784 8.63831 27.5494 8.96727 27.1434 8.96727Z" fill="url(#paint3_linear_0_6461)"/>
<path d="M21.166 12.005H37.3345C37.7405 12.005 38.0694 11.676 38.0694 11.2701C38.0694 10.8641 37.7405 10.5351 37.3345 10.5351H21.166C20.76 10.5351 20.4311 10.8641 20.4311 11.2701C20.4311 11.676 20.76 12.005 21.166 12.005Z" fill="url(#paint4_linear_0_6461)"/>
<path d="M41.0091 8.23234C41.0091 7.82636 40.6802 7.49741 40.2742 7.49741H30.0832C29.6772 7.49741 29.3482 7.82636 29.3482 8.23234C29.3482 8.63831 29.6772 8.96727 30.0832 8.96727H40.2742C40.6802 8.96727 41.0091 8.63831 41.0091 8.23234Z" fill="url(#paint5_linear_0_6461)"/>
<path d="M11.0778 7.5464C11.5323 7.5464 11.9007 7.91484 11.9007 8.36933V12.6909C11.9007 13.0969 12.2297 13.4258 12.6356 13.4258C13.0416 13.4258 13.3706 13.0969 13.3706 12.6909V6.81147C13.3706 6.4055 13.0416 6.07654 12.6356 6.07654H11.0778C10.6718 6.07654 10.3429 6.4055 10.3429 6.81147C10.3429 7.21745 10.6718 7.5464 11.0778 7.5464Z" fill="url(#paint6_linear_0_6461)"/>
<path d="M22.248 18.8643C22.248 17.9188 21.4787 17.1495 20.5332 17.1495H18.5733C17.6278 17.1495 16.8585 17.9188 16.8585 18.8643V20.8242C16.8585 21.7697 17.6278 22.539 18.5733 22.539H20.5332C21.4787 22.539 22.248 21.7697 22.248 20.8242V18.8643ZM20.7781 20.8242C20.7781 20.9593 20.6683 21.0691 20.5332 21.0691H18.5733C18.4382 21.0691 18.3284 20.9593 18.3284 20.8242V18.8643C18.3284 18.7292 18.4382 18.6194 18.5733 18.6194H20.5332C20.6683 18.6194 20.7781 18.7292 20.7781 18.8643V20.8242Z" fill="url(#paint7_linear_0_6461)"/>
<path d="M20.5332 24.0089H18.5733C17.6278 24.0089 16.8585 24.7782 16.8585 25.7237V27.6835C16.8585 28.629 17.6278 29.3983 18.5733 29.3983H20.5332C21.4787 29.3983 22.248 28.629 22.248 27.6835V25.7237C22.248 24.7782 21.4787 24.0089 20.5332 24.0089ZM20.7781 27.6835C20.7781 27.8186 20.6683 27.9285 20.5332 27.9285H18.5733C18.4382 27.9285 18.3284 27.8186 18.3284 27.6835V25.7237C18.3284 25.5886 18.4382 25.4787 18.5733 25.4787H20.5332C20.6683 25.4787 20.7781 25.5886 20.7781 25.7237V27.6835Z" fill="url(#paint8_linear_0_6461)"/>
<path d="M15.7417 21.6429L14.2099 17.5839C14.2075 17.5773 14.2047 17.5705 14.202 17.5638C14.0737 17.252 13.7732 17.0508 13.4362 17.0508C13.4359 17.0508 13.4355 17.0508 13.4352 17.0508C13.0978 17.051 12.7972 17.2531 12.6695 17.5655C12.6673 17.5711 12.6651 17.5765 12.663 17.5822L11.1172 21.6409C10.9727 22.0202 11.1632 22.4448 11.5425 22.5893C11.9213 22.7338 12.3463 22.5434 12.4909 22.1641C12.6141 21.8405 12.9244 21.6266 13.2707 21.6266H13.6702C13.9677 21.6266 14.2342 21.8109 14.3392 22.0892C14.3575 22.1376 14.3806 22.1841 14.4097 22.2269C14.5789 22.476 14.8208 22.7455 15.3138 22.5901C15.6933 22.4468 15.885 22.0227 15.7417 21.6429ZM13.4328 20.1567C13.3471 20.1567 13.2879 20.0708 13.3184 19.9907C13.3585 19.8854 13.5075 19.8857 13.5473 19.9911C13.5775 20.0711 13.5184 20.1567 13.4328 20.1567Z" fill="url(#paint9_linear_0_6461)"/>
<path d="M13.3686 23.9101H12.1727C11.7668 23.9101 11.4378 24.2391 11.4378 24.6451V28.7618C11.4378 28.9573 11.5157 29.1447 11.6542 29.2827C11.7919 29.4198 11.9784 29.4968 12.1727 29.4968H12.176C12.176 29.4968 13.2745 29.4919 13.5774 29.4919C14.5937 29.4919 15.4205 28.665 15.4205 27.6488C15.4205 27.4142 15.3764 27.1898 15.2961 26.9834C15.1283 26.5521 15.0509 26.055 15.0509 25.5922C15.0508 24.6648 14.2962 23.9101 13.3686 23.9101ZM13.3686 25.38C13.4857 25.38 13.581 25.4752 13.581 25.5923C13.581 25.7094 13.4857 25.8047 13.3686 25.8047C13.3206 25.8047 13.2658 25.8049 13.1209 25.8053C13.0032 25.8056 12.9077 25.7103 12.9077 25.5927C12.9077 25.4752 13.0029 25.38 13.1203 25.38H13.3686ZM13.5774 28.022C13.5111 28.022 13.4067 28.0223 13.284 28.0226C13.0764 28.0233 12.9077 27.8553 12.9077 27.6477C12.9077 27.4419 13.0737 27.2757 13.2796 27.2757C13.4038 27.2757 13.524 27.2758 13.5774 27.2757C13.7832 27.2757 13.9507 27.4431 13.9507 27.6489C13.9507 27.8546 13.7831 28.022 13.5774 28.022Z" fill="url(#paint10_linear_0_6461)"/>
<path d="M39.1024 18.8643C39.1024 17.9188 38.3331 17.1495 37.3876 17.1495H35.4277C34.4822 17.1495 33.7129 17.9188 33.7129 18.8643V20.8242C33.7129 21.7697 34.4822 22.539 35.4277 22.539H37.3876C38.3331 22.539 39.1024 21.7697 39.1024 20.8242V18.8643ZM37.6325 20.8242C37.6325 20.9593 37.5227 21.0691 37.3876 21.0691H35.4277C35.2926 21.0691 35.1828 20.9593 35.1828 20.8242V18.8643C35.1828 18.7292 35.2926 18.6194 35.4277 18.6194H37.3876C37.5227 18.6194 37.6325 18.7292 37.6325 18.8643V20.8242Z" fill="url(#paint11_linear_0_6461)"/>
<path d="M37.3876 24.0089H35.4277C34.4822 24.0089 33.7129 24.7782 33.7129 25.7237V27.6835C33.7129 28.629 34.4822 29.3983 35.4277 29.3983H37.3876C38.3331 29.3983 39.1024 28.629 39.1024 27.6835V25.7237C39.1024 24.7782 38.3331 24.0089 37.3876 24.0089ZM37.6325 27.6835C37.6325 27.8186 37.5227 27.9285 37.3876 27.9285H35.4277C35.2926 27.9285 35.1828 27.8186 35.1828 27.6835V25.7237C35.1828 25.5886 35.2926 25.4787 35.4277 25.4787H37.3876C37.5227 25.4787 37.6325 25.5886 37.6325 25.7237V27.6835Z" fill="url(#paint12_linear_0_6461)"/>
<path d="M27.98 28.6361C27.9698 28.9132 28.1936 29.4274 28.7259 29.4359C28.7602 29.4359 29.5685 29.4327 29.8923 29.427C31.2264 29.4037 32.1946 28.2583 32.1946 26.7035C32.1946 25.0947 31.229 23.971 29.8464 23.971H28.7149C28.4113 23.9784 28.0037 24.2112 27.9799 24.7101L27.98 28.6361ZM29.8465 25.4409C30.6615 25.4409 30.7249 26.4073 30.7249 26.7035C30.7249 27.3201 30.4595 27.947 29.8668 27.9574C29.64 27.9614 29.455 27.7774 29.4544 27.5507C29.4535 27.2238 29.4528 26.9018 29.4528 26.6991C29.4528 26.5228 29.4524 26.1846 29.4518 25.8362C29.4515 25.618 29.6283 25.4409 29.8465 25.4409Z" fill="url(#paint13_linear_0_6461)"/>
<path d="M32.3278 21.7936C32.5885 21.4825 32.5479 21.019 32.2369 20.7583C31.9256 20.4975 31.4622 20.5383 31.2015 20.8492C31.0457 21.0198 30.8905 21.1273 30.4679 21.1676C29.7382 21.1676 29.1445 20.5738 29.1445 19.8441C29.1445 19.1144 29.7382 18.5206 30.4679 18.5206C30.7333 18.5206 30.9889 18.5986 31.2075 18.7462C31.5438 18.9733 32.0007 18.8851 32.2278 18.5486C32.455 18.2122 32.3666 17.7553 32.0302 17.5282C31.5678 17.2158 31.0276 17.0508 30.4679 17.0508C28.9277 17.0508 27.6746 18.3039 27.6746 19.8441C27.6746 21.3843 28.9277 22.6374 30.4679 22.6374C31.1153 22.6244 31.8483 22.3776 32.3278 21.7936Z" fill="url(#paint14_linear_0_6461)"/>
<defs>
<linearGradient id="paint0_linear_0_6461" x1="18.3412" y1="-0.710134" x2="52.434" y2="29.9891" gradientUnits="userSpaceOnUse">
<stop stop-color="#A068F8"/>
<stop offset="0.6891" stop-color="#3F55C3"/>
<stop offset="1" stop-color="#184EAE"/>
</linearGradient>
<linearGradient id="paint1_linear_0_6461" x1="18.3412" y1="-0.710134" x2="52.434" y2="29.9891" gradientUnits="userSpaceOnUse">
<stop stop-color="#A068F8"/>
<stop offset="0.6891" stop-color="#3F55C3"/>
<stop offset="1" stop-color="#184EAE"/>
</linearGradient>
<linearGradient id="paint2_linear_0_6461" x1="18.3412" y1="-0.710134" x2="52.434" y2="29.9891" gradientUnits="userSpaceOnUse">
<stop stop-color="#A068F8"/>
<stop offset="0.6891" stop-color="#3F55C3"/>
<stop offset="1" stop-color="#184EAE"/>
</linearGradient>
<linearGradient id="paint3_linear_0_6461" x1="18.3412" y1="-0.710134" x2="52.434" y2="29.9891" gradientUnits="userSpaceOnUse">
<stop stop-color="#A068F8"/>
<stop offset="0.6891" stop-color="#3F55C3"/>
<stop offset="1" stop-color="#184EAE"/>
</linearGradient>
<linearGradient id="paint4_linear_0_6461" x1="18.3412" y1="-0.710134" x2="52.434" y2="29.9891" gradientUnits="userSpaceOnUse">
<stop stop-color="#A068F8"/>
<stop offset="0.6891" stop-color="#3F55C3"/>
<stop offset="1" stop-color="#184EAE"/>
</linearGradient>
<linearGradient id="paint5_linear_0_6461" x1="18.3412" y1="-0.710134" x2="52.434" y2="29.9891" gradientUnits="userSpaceOnUse">
<stop stop-color="#A068F8"/>
<stop offset="0.6891" stop-color="#3F55C3"/>
<stop offset="1" stop-color="#184EAE"/>
</linearGradient>
<linearGradient id="paint6_linear_0_6461" x1="18.3412" y1="-0.710134" x2="52.434" y2="29.9891" gradientUnits="userSpaceOnUse">
<stop stop-color="#A068F8"/>
<stop offset="0.6891" stop-color="#3F55C3"/>
<stop offset="1" stop-color="#184EAE"/>
</linearGradient>
<linearGradient id="paint7_linear_0_6461" x1="18.3412" y1="-0.710134" x2="52.434" y2="29.9891" gradientUnits="userSpaceOnUse">
<stop stop-color="#A068F8"/>
<stop offset="0.6891" stop-color="#3F55C3"/>
<stop offset="1" stop-color="#184EAE"/>
</linearGradient>
<linearGradient id="paint8_linear_0_6461" x1="18.3412" y1="-0.710134" x2="52.434" y2="29.9891" gradientUnits="userSpaceOnUse">
<stop stop-color="#A068F8"/>
<stop offset="0.6891" stop-color="#3F55C3"/>
<stop offset="1" stop-color="#184EAE"/>
</linearGradient>
<linearGradient id="paint9_linear_0_6461" x1="18.3412" y1="-0.710134" x2="52.434" y2="29.9891" gradientUnits="userSpaceOnUse">
<stop stop-color="#A068F8"/>
<stop offset="0.6891" stop-color="#3F55C3"/>
<stop offset="1" stop-color="#184EAE"/>
</linearGradient>
<linearGradient id="paint10_linear_0_6461" x1="18.3412" y1="-0.710134" x2="52.434" y2="29.9891" gradientUnits="userSpaceOnUse">
<stop stop-color="#A068F8"/>
<stop offset="0.6891" stop-color="#3F55C3"/>
<stop offset="1" stop-color="#184EAE"/>
</linearGradient>
<linearGradient id="paint11_linear_0_6461" x1="18.3412" y1="-0.710134" x2="52.434" y2="29.9891" gradientUnits="userSpaceOnUse">
<stop stop-color="#A068F8"/>
<stop offset="0.6891" stop-color="#3F55C3"/>
<stop offset="1" stop-color="#184EAE"/>
</linearGradient>
<linearGradient id="paint12_linear_0_6461" x1="18.3412" y1="-0.710134" x2="52.434" y2="29.9891" gradientUnits="userSpaceOnUse">
<stop stop-color="#A068F8"/>
<stop offset="0.6891" stop-color="#3F55C3"/>
<stop offset="1" stop-color="#184EAE"/>
</linearGradient>
<linearGradient id="paint13_linear_0_6461" x1="18.3412" y1="-0.710134" x2="52.434" y2="29.9891" gradientUnits="userSpaceOnUse">
<stop stop-color="#A068F8"/>
<stop offset="0.6891" stop-color="#3F55C3"/>
<stop offset="1" stop-color="#184EAE"/>
</linearGradient>
<linearGradient id="paint14_linear_0_6461" x1="18.3412" y1="-0.710134" x2="52.434" y2="29.9891" gradientUnits="userSpaceOnUse">
<stop stop-color="#A068F8"/>
<stop offset="0.6891" stop-color="#3F55C3"/>
<stop offset="1" stop-color="#184EAE"/>
</linearGradient>
</defs>
</svg>
