<svg width="48" height="44" viewBox="0 0 48 44" fill="none" xmlns="http://www.w3.org/2000/svg">
<path d="M38.9333 15.0244C37.562 15.0244 36.2216 15.4335 35.0814 16.2C33.9412 16.9665 33.0525 18.0559 32.5278 19.3306C32.003 20.6052 31.8657 22.0077 32.1332 23.3609C32.4007 24.714 33.0611 25.9569 34.0307 26.9325C35.0004 27.9081 36.2358 28.5724 37.5807 28.8416C38.9256 29.1107 40.3197 28.9726 41.5866 28.4446C42.8535 27.9167 43.9363 27.0226 44.6982 25.8754C45.46 24.7283 45.8667 23.3796 45.8667 22C45.8645 20.1506 45.1334 18.3776 43.8336 17.0699C42.5338 15.7622 40.7715 15.0266 38.9333 15.0244ZM38.9333 27.9024C37.9622 27.9016 37.0065 27.6579 36.1521 27.1933C34.5963 26.3473 34.5912 24.1137 36.1414 23.2573C36.9969 22.7846 37.9572 22.5367 38.9333 22.5367C39.9094 22.5367 40.8697 22.7846 41.7253 23.2573C43.2754 24.1137 43.2704 26.3473 41.7145 27.1933C40.8602 27.6579 39.9045 27.9016 38.9333 27.9024ZM37.3333 19.8537C37.3333 19.5353 37.4272 19.2241 37.603 18.9593C37.7788 18.6946 38.0287 18.4883 38.321 18.3664C38.6134 18.2446 38.9351 18.2127 39.2455 18.2748C39.5559 18.3369 39.8409 18.4903 40.0647 18.7154C40.2885 18.9405 40.4409 19.2274 40.5026 19.5396C40.5643 19.8519 40.5326 20.1755 40.4115 20.4697C40.2904 20.7638 40.0854 21.0152 39.8222 21.1921C39.5591 21.369 39.2498 21.4634 38.9333 21.4634C38.5092 21.4628 38.1026 21.293 37.8027 20.9912C37.5027 20.6895 37.334 20.2804 37.3333 19.8537ZM44.8 21.9642C44.7996 22.948 43.5823 23.177 42.7635 22.6317C42.6063 22.5271 42.445 22.4288 42.2798 22.3373C41.6588 21.993 41.4154 21.0588 41.5506 20.3617C41.6514 19.842 41.5971 19.3039 41.3946 18.8151C41.192 18.3264 40.8502 17.9089 40.4122 17.6152C39.9742 17.3215 39.4597 17.1648 38.9333 17.1648C38.407 17.1648 37.8924 17.3215 37.4545 17.6152C37.0165 17.9089 36.6747 18.3264 36.4721 18.8151C36.2695 19.3039 36.2152 19.842 36.3161 20.3617C36.4513 21.0588 36.2079 21.993 35.5868 22.3373C35.4217 22.4288 35.2603 22.5271 35.1032 22.6317C34.2844 23.177 33.067 22.948 33.0667 21.9642C33.0666 21.7478 33.0783 21.531 33.1021 21.3148C33.207 20.3577 33.5431 19.441 34.081 18.6446C34.6189 17.8483 35.3423 17.1964 36.188 16.7458C37.0338 16.2952 37.9763 16.0597 38.9333 16.0597C39.8904 16.0597 40.8329 16.2952 41.6786 16.7458C42.5244 17.1964 43.2478 17.8483 43.7857 18.6446C44.3236 19.441 44.6597 20.3577 44.7646 21.3148C44.7883 21.531 44.8001 21.7478 44.8 21.9642Z" fill="url(#paint0_linear_0_6749)"/>
<path d="M43.2 0H4.8C3.52745 0.00159031 2.30747 0.510898 1.40763 1.41622C0.507801 2.32154 0.00158067 3.54895 0 4.82927V39.1707C0.00158067 40.451 0.507801 41.6785 1.40763 42.5838C2.30747 43.4891 3.52745 43.9984 4.8 44H43.2C44.4726 43.9984 45.6925 43.4891 46.5924 42.5838C47.4922 41.6785 47.9984 40.451 48 39.1707V4.82927C47.9984 3.54895 47.4922 2.32154 46.5924 1.41622C45.6925 0.510898 44.4726 0.00159031 43.2 0ZM46.9333 39.1707C46.9321 40.1665 46.5384 41.1212 45.8385 41.8253C45.1386 42.5294 44.1898 42.9256 43.2 42.9268H4.8C3.81024 42.9256 2.86137 42.5294 2.16151 41.8253C1.46164 41.1212 1.06791 40.1665 1.06667 39.1707V14.1717C1.06667 13.1681 2.70018 12.5751 3.575 13.067C4.60152 13.6442 5.75737 13.9485 6.93333 13.9512H22.2334C23.5056 13.9474 24.725 13.439 25.6271 12.5364L27.3937 10.759C28.0954 10.057 29.0438 9.66162 30.0333 9.65854H36.8C36.9414 9.65854 37.0771 9.60201 37.1771 9.50138C37.2771 9.40075 37.3333 9.26426 37.3333 9.12195C37.3333 8.97964 37.2771 8.84316 37.1771 8.74253C37.0771 8.6419 36.9414 8.58537 36.8 8.58537H30.0333C28.7611 8.58925 27.5417 9.09764 26.6396 10.0002L24.873 11.7776C24.1713 12.4796 23.2229 12.875 22.2334 12.878H6.93333C5.37788 12.8765 3.88659 12.2541 2.78672 11.1475C1.68685 10.0409 1.06825 8.54055 1.06667 6.97561V4.82927C1.06791 3.83347 1.46164 2.87882 2.16151 2.17469C2.86137 1.47055 3.81024 1.07442 4.8 1.07317H43.2C44.1901 1.07317 45.1397 1.4689 45.8399 2.17331C46.54 2.87771 46.9333 3.83309 46.9333 4.82927C46.9333 5.82545 46.54 6.78083 45.8399 7.48523C45.1397 8.18964 44.1901 8.58537 43.2 8.58537H38.9333C38.7919 8.58537 38.6562 8.6419 38.5562 8.74253C38.4562 8.84316 38.4 8.97964 38.4 9.12195C38.4 9.26426 38.4562 9.40075 38.5562 9.50138C38.6562 9.60201 38.7919 9.65854 38.9333 9.65854H43.2C43.9193 9.65591 44.6286 9.48978 45.2751 9.17256C45.9088 8.86161 46.9333 9.27462 46.9333 9.98051V39.1707Z" fill="url(#paint1_linear_0_6749)"/>
<path d="M6.93333 4.29268C6.40592 4.29268 5.89034 4.45003 5.45181 4.74484C5.01328 5.03964 4.67149 5.45866 4.46965 5.9489C4.26782 6.43914 4.21501 6.97859 4.31791 7.49902C4.4208 8.01946 4.67478 8.49751 5.04772 8.87273C5.42066 9.24794 5.89581 9.50346 6.41309 9.60699C6.93038 9.71051 7.46655 9.65738 7.95382 9.45431C8.44109 9.25125 8.85757 8.90737 9.15059 8.46616C9.4436 8.02496 9.6 7.50624 9.6 6.97561C9.59938 6.26424 9.31823 5.5822 8.81826 5.07918C8.3183 4.57617 7.64039 4.29331 6.93333 4.29268ZM6.93333 8.58537C6.61688 8.58537 6.30754 8.49096 6.04442 8.31407C5.7813 8.13719 5.57623 7.88578 5.45513 7.59164C5.33403 7.29749 5.30234 6.97382 5.36408 6.66156C5.42581 6.3493 5.5782 6.06247 5.80196 5.83734C6.02573 5.61221 6.31082 5.4589 6.62119 5.39678C6.93156 5.33467 7.25327 5.36655 7.54563 5.48839C7.83799 5.61023 8.08788 5.81655 8.26369 6.08128C8.4395 6.346 8.53333 6.65723 8.53333 6.97561C8.53271 7.40235 8.36394 7.81144 8.06402 8.11319C7.7641 8.41494 7.35749 8.58474 6.93333 8.58537Z" fill="url(#paint2_linear_0_6749)"/>
<path d="M13.3333 4.29268C12.8059 4.29268 12.2903 4.45003 11.8518 4.74484C11.4133 5.03964 11.0715 5.45866 10.8697 5.9489C10.6678 6.43914 10.615 6.97859 10.7179 7.49902C10.8208 8.01946 11.0748 8.49751 11.4477 8.87273C11.8207 9.24794 12.2958 9.50346 12.8131 9.60699C13.3304 9.71051 13.8666 9.65738 14.3538 9.45431C14.8411 9.25125 15.2576 8.90737 15.5506 8.46616C15.8436 8.02496 16 7.50624 16 6.97561C15.9994 6.26424 15.7182 5.5822 15.2183 5.07918C14.7183 4.57617 14.0404 4.29331 13.3333 4.29268ZM13.3333 8.58537C13.0169 8.58537 12.7075 8.49096 12.4444 8.31407C12.1813 8.13719 11.9762 7.88578 11.8551 7.59164C11.734 7.29749 11.7023 6.97382 11.7641 6.66156C11.8258 6.3493 11.9782 6.06247 12.202 5.83734C12.4257 5.61221 12.7108 5.4589 13.0212 5.39678C13.3316 5.33467 13.6533 5.36655 13.9456 5.48839C14.238 5.61023 14.4879 5.81655 14.6637 6.08128C14.8395 6.346 14.9333 6.65723 14.9333 6.97561C14.9327 7.40235 14.7639 7.81144 14.464 8.11319C14.1641 8.41494 13.7575 8.58474 13.3333 8.58537Z" fill="url(#paint3_linear_0_6749)"/>
<path d="M19.7333 4.29268C19.2059 4.29268 18.6903 4.45003 18.2518 4.74484C17.8133 5.03964 17.4715 5.45866 17.2697 5.9489C17.0678 6.43914 17.015 6.97859 17.1179 7.49902C17.2208 8.01946 17.4748 8.49751 17.8477 8.87273C18.2207 9.24794 18.6958 9.50346 19.2131 9.60699C19.7304 9.71051 20.2666 9.65738 20.7538 9.45431C21.2411 9.25125 21.6576 8.90737 21.9506 8.46616C22.2436 8.02496 22.4 7.50624 22.4 6.97561C22.3994 6.26424 22.1182 5.5822 21.6183 5.07918C21.1183 4.57617 20.4404 4.29331 19.7333 4.29268ZM19.7333 8.58537C19.4169 8.58537 19.1075 8.49096 18.8444 8.31407C18.5813 8.13719 18.3762 7.88578 18.2551 7.59164C18.134 7.29749 18.1023 6.97382 18.1641 6.66156C18.2258 6.3493 18.3782 6.06247 18.602 5.83734C18.8257 5.61221 19.1108 5.4589 19.4212 5.39678C19.7316 5.33467 20.0533 5.36655 20.3456 5.48839C20.638 5.61023 20.8879 5.81655 21.0637 6.08128C21.2395 6.346 21.3333 6.65723 21.3333 6.97561C21.3327 7.40235 21.1639 7.81144 20.864 8.11319C20.5641 8.41494 20.1575 8.58474 19.7333 8.58537Z" fill="url(#paint4_linear_0_6749)"/>
<path d="M28.2667 15.0244H4.8C4.09276 15.0244 3.41448 15.3071 2.91438 15.8102C2.41429 16.3133 2.13333 16.9958 2.13333 17.7073C2.13333 18.4189 2.41429 19.1013 2.91438 19.6044C3.41448 20.1076 4.09276 20.3902 4.8 20.3902H6.93333C7.07478 20.3902 7.21044 20.3337 7.31046 20.2331C7.41048 20.1325 7.46667 19.996 7.46667 19.8537C7.46667 19.7113 7.41048 19.5749 7.31046 19.4742C7.21044 19.3736 7.07478 19.3171 6.93333 19.3171H4.8C4.37565 19.3171 3.96869 19.1475 3.66863 18.8456C3.36857 18.5437 3.2 18.1343 3.2 17.7073C3.2 17.2804 3.36857 16.8709 3.66863 16.569C3.96869 16.2672 4.37565 16.0976 4.8 16.0976H23.9902C24.8793 16.0976 25.6 16.8183 25.6 17.7073C25.6 18.5964 24.8793 19.3171 23.9902 19.3171H9.06667C8.92522 19.3171 8.78956 19.3736 8.68954 19.4742C8.58952 19.5749 8.53333 19.7113 8.53333 19.8537C8.53333 19.996 8.58952 20.1325 8.68954 20.2331C8.78956 20.3337 8.92522 20.3902 9.06667 20.3902H28.2667C28.9739 20.3902 29.6522 20.1076 30.1523 19.6044C30.6524 19.1013 30.9333 18.4189 30.9333 17.7073C30.9333 16.9958 30.6524 16.3133 30.1523 15.8102C29.6522 15.3071 28.9739 15.0244 28.2667 15.0244ZM28.2667 19.3171C27.383 19.3171 26.6667 18.591 26.6667 17.7073C26.6667 16.8237 27.383 16.0976 28.2667 16.0976C28.691 16.0976 29.098 16.2672 29.398 16.569C29.6981 16.8709 29.8667 17.2804 29.8667 17.7073C29.8667 18.1343 29.6981 18.5437 29.398 18.8456C29.098 19.1475 28.691 19.3171 28.2667 19.3171Z" fill="url(#paint5_linear_0_6749)"/>
<path d="M17.6 23.6098H4.8C4.09295 23.6104 3.41503 23.8932 2.91507 24.3963C2.41511 24.8993 2.13396 25.5813 2.13333 26.2927V39.1707C2.13396 39.8821 2.41511 40.5641 2.91507 41.0672C3.41503 41.5702 4.09295 41.853 4.8 41.8537H15.4667C15.6081 41.8537 15.7438 41.7971 15.8438 41.6965C15.9438 41.5959 16 41.4594 16 41.3171C16 41.1748 15.9438 41.0383 15.8438 40.9377C15.7438 40.837 15.6081 40.7805 15.4667 40.7805H4.8C4.37584 40.7799 3.96924 40.6101 3.66932 40.3083C3.36939 40.0066 3.20062 39.5975 3.2 39.1707C3.2 36.5636 4.23161 34.0623 6.06954 32.2132L7.92917 30.3422C8.23644 30.0495 8.64351 29.8863 9.06667 29.8863C9.48982 29.8863 9.89689 30.0495 10.2042 30.3422L18.3456 38.5335C18.8625 39.0536 19.1929 39.8733 18.651 40.3674C18.3629 40.6301 17.9888 40.7771 17.6 40.7805C17.4586 40.7805 17.3229 40.837 17.2229 40.9377C17.1229 41.0383 17.0667 41.1748 17.0667 41.3171C17.0667 41.4594 17.1229 41.5959 17.2229 41.6965C17.3229 41.7971 17.4586 41.8537 17.6 41.8537C18.3071 41.853 18.985 41.5702 19.4849 41.0672C19.9849 40.5641 20.266 39.8821 20.2667 39.1707V26.2927C20.266 25.5813 19.9849 24.8993 19.4849 24.3963C18.985 23.8932 18.3071 23.6104 17.6 23.6098ZM19.2 32.7317C19.2 34.6248 16.9085 35.5699 15.5739 34.2272C14.7515 33.3998 14.7515 32.0636 15.5739 31.2362L16.4625 30.3422C16.7698 30.0495 17.1768 29.8863 17.6 29.8863C18.0232 29.8863 18.4302 30.0495 18.7375 30.3422C19.0337 30.6402 19.2 31.0434 19.2 31.4636V32.7317ZM7.17504 29.5835C5.71205 31.0554 3.2 30.0193 3.2 27.944V26.2927C3.20062 25.8659 3.36939 25.4569 3.66932 25.1551C3.96924 24.8534 4.37584 24.6836 4.8 24.6829H17.6C18.0242 24.6836 18.4308 24.8534 18.7307 25.1551C19.0306 25.4569 19.1994 25.8659 19.2 26.2927V27.4936C19.2 28.2751 18.2002 28.8078 17.4199 28.8503C16.7815 28.885 16.1757 29.1446 15.7084 29.5835C14.399 30.9008 12.2677 30.9008 10.9583 29.5835C10.4477 29.0959 9.7706 28.8241 9.06667 28.8241C8.36273 28.8241 7.68564 29.0959 7.17504 29.5835Z" fill="url(#paint6_linear_0_6749)"/>
<path d="M28.2667 23.6098H24C23.2929 23.6104 22.615 23.8932 22.1151 24.3963C21.6151 24.8993 21.334 25.5813 21.3333 26.2927V30.5854C21.334 31.2967 21.6151 31.9788 22.1151 32.4818C22.615 32.9848 23.2929 33.2677 24 33.2683H28.2667C28.9737 33.2677 29.6516 32.9848 30.1516 32.4818C30.6516 31.9788 30.9327 31.2967 30.9333 30.5854V26.2927C30.9327 25.5813 30.6516 24.8993 30.1516 24.3963C29.6516 23.8932 28.9737 23.6104 28.2667 23.6098ZM24 24.6829H28.2667C28.6908 24.6836 29.0974 24.8534 29.3974 25.1551C29.6973 25.4569 29.866 25.8659 29.8667 26.2927V26.6688C29.8667 27.6335 28.6989 28.1151 28.0188 27.4309C27.5183 26.9286 26.8403 26.6465 26.1333 26.6465C25.4264 26.6465 24.7484 26.9286 24.2479 27.4309C23.5678 28.1151 22.4 27.6335 22.4 26.6688V26.2927C22.4006 25.8659 22.5694 25.4569 22.8693 25.1551C23.1692 24.8534 23.5758 24.6836 24 24.6829ZM28.2667 32.1951H24C23.6112 32.1918 23.2371 32.0447 22.949 31.782C22.4071 31.2879 22.7375 30.4682 23.2545 29.9482L25.0027 28.1896C25.3032 27.8886 25.7099 27.7196 26.134 27.7196C26.558 27.7196 26.9648 27.8886 27.2653 28.1896L29.0127 29.9478C29.5298 30.4681 29.8602 31.2881 29.3181 31.7822C29.0298 32.045 28.6556 32.1919 28.2667 32.1951Z" fill="url(#paint7_linear_0_6749)"/>
<path d="M34.6667 35.4146H38.9333C39.0748 35.4146 39.2104 35.3581 39.3105 35.2575C39.4105 35.1568 39.4667 35.0204 39.4667 34.878C39.4667 34.7357 39.4105 34.5993 39.3105 34.4986C39.2104 34.398 39.0748 34.3415 38.9333 34.3415H34.6667C34.5252 34.3415 34.3896 34.398 34.2895 34.4986C34.1895 34.5993 34.1333 34.7357 34.1333 34.878C34.1333 35.0204 34.1895 35.1568 34.2895 35.2575C34.3896 35.3581 34.5252 35.4146 34.6667 35.4146Z" fill="url(#paint8_linear_0_6749)"/>
<path d="M43.2 38.6341H34.6667C34.5252 38.6341 34.3896 38.6907 34.2895 38.7913C34.1895 38.8919 34.1333 39.0284 34.1333 39.1707C34.1333 39.313 34.1895 39.4495 34.2895 39.5502C34.3896 39.6508 34.5252 39.7073 34.6667 39.7073H43.2C43.3415 39.7073 43.4771 39.6508 43.5771 39.5502C43.6771 39.4495 43.7333 39.313 43.7333 39.1707C43.7333 39.0284 43.6771 38.8919 43.5771 38.7913C43.4771 38.6907 43.3415 38.6341 43.2 38.6341Z" fill="url(#paint9_linear_0_6749)"/>
<defs>
<linearGradient id="paint0_linear_0_6749" x1="17.5474" y1="-0.710134" x2="51.4504" y2="28.4969" gradientUnits="userSpaceOnUse">
<stop stop-color="#C4CAE4"/>
<stop offset="1" stop-color="#9CA9C0"/>
</linearGradient>
<linearGradient id="paint1_linear_0_6749" x1="17.5474" y1="-0.710134" x2="51.4504" y2="28.4969" gradientUnits="userSpaceOnUse">
<stop stop-color="#C4CAE4"/>
<stop offset="1" stop-color="#9CA9C0"/>
</linearGradient>
<linearGradient id="paint2_linear_0_6749" x1="17.5474" y1="-0.710134" x2="51.4504" y2="28.4969" gradientUnits="userSpaceOnUse">
<stop stop-color="#C4CAE4"/>
<stop offset="1" stop-color="#9CA9C0"/>
</linearGradient>
<linearGradient id="paint3_linear_0_6749" x1="17.5474" y1="-0.710134" x2="51.4504" y2="28.4969" gradientUnits="userSpaceOnUse">
<stop stop-color="#C4CAE4"/>
<stop offset="1" stop-color="#9CA9C0"/>
</linearGradient>
<linearGradient id="paint4_linear_0_6749" x1="17.5474" y1="-0.710134" x2="51.4504" y2="28.4969" gradientUnits="userSpaceOnUse">
<stop stop-color="#C4CAE4"/>
<stop offset="1" stop-color="#9CA9C0"/>
</linearGradient>
<linearGradient id="paint5_linear_0_6749" x1="17.5474" y1="-0.710134" x2="51.4504" y2="28.4969" gradientUnits="userSpaceOnUse">
<stop stop-color="#C4CAE4"/>
<stop offset="1" stop-color="#9CA9C0"/>
</linearGradient>
<linearGradient id="paint6_linear_0_6749" x1="17.5474" y1="-0.710134" x2="51.4504" y2="28.4969" gradientUnits="userSpaceOnUse">
<stop stop-color="#C4CAE4"/>
<stop offset="1" stop-color="#9CA9C0"/>
</linearGradient>
<linearGradient id="paint7_linear_0_6749" x1="17.5474" y1="-0.710134" x2="51.4504" y2="28.4969" gradientUnits="userSpaceOnUse">
<stop stop-color="#C4CAE4"/>
<stop offset="1" stop-color="#9CA9C0"/>
</linearGradient>
<linearGradient id="paint8_linear_0_6749" x1="17.5474" y1="-0.710134" x2="51.4504" y2="28.4969" gradientUnits="userSpaceOnUse">
<stop stop-color="#C4CAE4"/>
<stop offset="1" stop-color="#9CA9C0"/>
</linearGradient>
<linearGradient id="paint9_linear_0_6749" x1="17.5474" y1="-0.710134" x2="51.4504" y2="28.4969" gradientUnits="userSpaceOnUse">
<stop stop-color="#C4CAE4"/>
<stop offset="1" stop-color="#9CA9C0"/>
</linearGradient>
</defs>
</svg>
