<svg width="66" height="66" viewBox="0 0 66 66" fill="none" xmlns="http://www.w3.org/2000/svg">
<path d="M40.9288 44.5134C43.3585 46.0648 46.0692 45.2617 48.3313 43.9827C49.1381 43.5715 51.0346 42.3202 51.774 41.0644C52.9723 39.1707 53.3848 36.8342 52.9075 34.6451C52.7405 33.5199 52.3783 31.9448 51.1942 31.0853C50.4851 30.5707 49.6076 30.3988 48.5861 30.574C47.4126 30.8627 46.4573 31.9428 45.8327 32.8296C44.9762 33.9754 44.0908 35.1602 41.6423 35.6852C40.6567 35.8899 39.5492 36.6527 38.999 37.599C37.7352 39.8274 38.637 43.0584 40.9288 44.5134ZM40.6538 38.602C40.8818 38.2044 41.3996 37.7346 42.0569 37.5738C45.2053 36.8989 46.4631 35.2159 47.3815 33.9871C47.6348 33.6481 47.8569 33.351 48.0862 33.1053C48.5918 32.5636 49.4589 32.2148 50.0584 32.6503C50.4406 32.8952 50.8499 33.8237 51.0122 35.0297C51.3924 36.7383 51.0717 38.5653 50.1322 40.0425C49.765 40.7177 48.3085 41.8256 47.4559 42.2584C45.6338 43.1987 43.9812 44.0413 41.9466 42.869C40.7 42.0629 39.8788 40.0464 40.6538 38.602Z" fill="url(#paint0_linear_0_6528)"/>
<path d="M6.22535 38.7692C7.76642 45.9209 12.0002 52.0446 18.1469 56.0122C22.6287 58.9048 27.7352 60.3988 32.9456 60.3987C48.9025 60.3588 60.7939 47.2324 60.3814 32.2382C60.2262 26.8278 58.5036 21.6369 55.3999 17.2263C55.0926 16.7897 54.4895 16.6851 54.0529 16.9921C53.6163 17.2994 53.5113 17.9026 53.8187 18.3392C55.4712 20.6875 53.5265 23.9954 51.0028 22.6256C50.7329 22.4792 50.4649 22.3103 50.1981 22.1165C49.123 21.445 47.7856 20.6098 46.304 20.8643C44.4493 21.183 43.5391 23.2389 42.0716 24.4171C41.3094 25.0291 40.403 25.4553 39.3422 25.4511C37.6565 25.5136 35.9122 24.5182 35.1031 22.9536C34.1966 21.4476 34.0302 19.4663 34.6984 18.1354C35.1711 17.1937 36.0019 16.658 37.1678 16.5429C38.5132 16.3944 39.5969 15.6306 40.3682 14.5615C41.8862 12.4576 44.6251 10.2057 46.8049 11.6125C48.3304 12.5972 49.7487 13.7411 51.0204 15.0124C51.3981 15.39 52.0102 15.39 52.3875 15.0123C52.7651 14.6347 52.765 14.0225 52.3874 13.6451C39.7044 1.07136 19.2707 3.75827 9.98811 18.1467C6.02065 24.2935 4.68428 31.6173 6.22535 38.7692ZM27.6383 8.11542C29.1402 7.79173 30.6503 7.60483 32.154 7.55192C36.7766 7.38925 41.5293 13.8557 36.9674 14.6197C35.1559 14.8016 33.7367 15.7417 32.9703 17.2679C32.0079 19.1848 32.1959 21.8622 33.4374 23.9359C34.5655 26.0585 36.9444 27.469 39.3976 27.384C40.8872 27.361 42.1955 26.804 43.3055 25.9141C44.9396 24.604 46.3455 22.173 48.1879 23.1693C48.4826 23.3287 48.8069 23.5275 49.1738 23.7566C52.9964 26.74 58.5718 28.6484 58.4746 33.4965C58.382 38.1149 57.0232 42.7214 54.3876 46.8047C50.7003 52.5175 45.009 56.4525 38.3619 57.8847C36.6592 58.2517 34.946 58.4423 33.2434 58.4616C32.0063 58.4756 31.0155 57.4824 30.8745 56.2534C30.5354 53.3006 30.1849 50.2474 31.7104 48.1315C33.1279 46.0987 34.0361 43.8642 33.6894 41.2388C33.6547 40.7058 33.1937 40.3017 32.6619 40.3367C32.1291 40.3714 31.7252 40.8315 31.7598 41.3642C32.0832 43.1889 31.354 45.3579 30.142 47.0008C28.1785 49.724 28.5901 53.3101 28.9534 56.4739C29.0525 57.3377 28.302 58.047 27.4535 57.8573C24.5555 57.2092 21.7647 56.046 19.1953 54.3874C13.4825 50.7002 9.54751 45.0088 8.11537 38.3619C7.93797 37.5387 7.80168 36.7131 7.70599 35.8874C7.41001 33.3335 9.92184 30.2387 11.9067 31.8729C12.2764 32.1772 12.4797 32.6444 12.5286 33.3016C12.6605 35.0694 14.0158 36.2708 15.0237 37.0209C18.619 39.056 21.8137 36.7361 24.0956 34.7186C25.2979 33.5368 26.9696 32.4402 28.8787 33.1229C29.8485 33.4395 30.6035 34.089 31.0047 34.9518C31.1385 35.2104 31.258 35.3172 31.4611 36.9047C31.5213 37.4354 32.0001 37.8163 32.5308 37.7563C33.0613 37.6961 33.4425 37.2171 33.3823 36.6866C33.2358 35.3954 33.034 34.5855 32.7319 34.0813C32.0965 32.7547 30.9436 31.7629 29.4789 31.2847C26.9984 30.4658 24.7772 31.3607 22.8472 33.2417C21.5052 34.3763 20.2742 35.4168 18.9079 35.7569C17.0485 36.2198 14.5991 35.0689 14.4568 33.1581C14.3681 31.9634 13.9237 31.0288 13.1357 30.38C10.9468 28.5775 8.14994 26.7405 9.14727 24.0862C9.78401 22.3915 10.6071 20.7528 11.6123 19.1954C15.3001 13.4825 20.9914 9.54756 27.6383 8.11542Z" fill="url(#paint1_linear_0_6528)"/>
<path d="M17.0538 6.33272C21.8558 3.4549 27.3698 1.93368 32.9997 1.93368C49.9375 1.93368 63.8728 15.7091 64.064 32.6414C64.1187 37.4809 63.0899 42.129 61.0064 46.4565C60.5367 47.4316 60.406 48.5481 60.6381 49.5996C60.6413 49.6145 60.645 49.6293 60.6489 49.6442L61.6368 53.29C61.7535 53.7208 62.1436 54.0043 62.5693 54.0043C62.653 54.0043 62.7381 53.9933 62.8228 53.9704C63.3381 53.8308 63.6427 53.2998 63.5031 52.7844L62.5218 49.1623C62.3889 48.5378 62.4692 47.8756 62.7486 47.2953C64.9625 42.6971 66.0556 37.7594 65.9976 32.6194C65.7983 14.1886 50.7716 -0.0427005 32.9997 9.62689e-05C27.0198 9.62689e-05 21.1622 1.61632 16.0598 4.67409C15.6018 4.94866 15.4531 5.5424 15.7275 6.0004C16.0019 6.45841 16.5957 6.60665 17.0538 6.33272Z" fill="url(#paint2_linear_0_6528)"/>
<path d="M65.9039 61.6456L64.6842 57.1433C64.5444 56.6279 64.0136 56.3228 63.4981 56.4629C62.9827 56.6025 62.6781 57.1335 62.8179 57.6489L64.031 62.1265C64.1406 62.6529 63.9908 63.1766 63.6186 63.5664C63.2452 63.9576 62.7265 64.131 62.1934 64.044C62.1791 64.0417 48.2164 61.1503 48.1858 61.1458C47.2494 60.9843 46.3049 61.0958 45.4541 61.4689C41.5195 63.1927 37.3313 64.0662 33.0023 64.0662C15.9271 64.0787 1.92018 50.1016 1.93359 32.9999C1.93359 23.6061 6.11865 14.8159 13.4156 8.8829C13.8299 8.54607 13.8927 7.93712 13.5559 7.52282C13.219 7.10851 12.6101 7.04548 12.1958 7.38257C4.44506 13.6844 3.27844e-06 23.0215 3.27844e-06 32.9999C-0.00811779 51.5726 15.0724 66.0448 33.0026 65.9999C37.5999 65.9998 42.0496 65.0715 46.2301 63.2399C46.7285 63.0217 47.2858 62.9558 47.8422 63.0489L61.8191 65.9413C62.8513 66.155 64.215 65.7493 65.0174 64.9018C65.7618 64.1531 66.1811 62.7843 65.9039 61.6456Z" fill="url(#paint3_linear_0_6528)"/>
<defs>
<linearGradient id="paint0_linear_0_6528" x1="24.1277" y1="-1.0652" x2="74.1476" y2="38.4353" gradientUnits="userSpaceOnUse">
<stop stop-color="#A068F8"/>
<stop offset="0.6891" stop-color="#3F55C3"/>
<stop offset="1" stop-color="#184EAE"/>
</linearGradient>
<linearGradient id="paint1_linear_0_6528" x1="24.1277" y1="-1.0652" x2="74.1476" y2="38.4353" gradientUnits="userSpaceOnUse">
<stop stop-color="#A068F8"/>
<stop offset="0.6891" stop-color="#3F55C3"/>
<stop offset="1" stop-color="#184EAE"/>
</linearGradient>
<linearGradient id="paint2_linear_0_6528" x1="24.1277" y1="-1.0652" x2="74.1476" y2="38.4353" gradientUnits="userSpaceOnUse">
<stop stop-color="#A068F8"/>
<stop offset="0.6891" stop-color="#3F55C3"/>
<stop offset="1" stop-color="#184EAE"/>
</linearGradient>
<linearGradient id="paint3_linear_0_6528" x1="24.1277" y1="-1.0652" x2="74.1476" y2="38.4353" gradientUnits="userSpaceOnUse">
<stop stop-color="#A068F8"/>
<stop offset="0.6891" stop-color="#3F55C3"/>
<stop offset="1" stop-color="#184EAE"/>
</linearGradient>
</defs>
</svg>
