<svg width="30" height="48" viewBox="0 0 30 48" fill="none" xmlns="http://www.w3.org/2000/svg">
<path d="M10.2632 46.161H4.17957C2.64316 46.161 1.39319 44.911 1.39319 43.3746V10.6811C1.39319 10.2964 1.0813 9.98452 0.696594 9.98452C0.311889 9.98452 0 10.2964 0 10.6811V43.3746C0 45.6792 1.87495 47.5542 4.17957 47.5542H10.2632C10.6479 47.5542 10.9598 47.2423 10.9598 46.8576C10.9598 46.4729 10.6479 46.161 10.2632 46.161Z" fill="url(#paint0_linear_0_6468)"/>
<path d="M29.3034 38.9628C28.9186 38.9628 28.6068 39.2747 28.6068 39.6594V43.3746C28.6068 44.911 27.3568 46.161 25.8204 46.161H13.5139C13.1292 46.161 12.8173 46.4729 12.8173 46.8576C12.8173 47.2423 13.1292 47.5542 13.5139 47.5542H25.8204C28.125 47.5542 30 45.6792 30 43.3746V39.6594C30 39.2747 29.6882 38.9628 29.3034 38.9628Z" fill="url(#paint1_linear_0_6468)"/>
<path d="M25.8204 0H4.17957C1.87495 0 0 1.87495 0 4.17957V7.43034C0 7.81505 0.311889 8.12694 0.696594 8.12694C1.0813 8.12694 1.39319 7.81505 1.39319 7.43034V4.17957C1.39319 2.64316 2.64316 1.39319 4.17957 1.39319H25.8204C27.3568 1.39319 28.6068 2.64316 28.6068 4.17957V36.4087C28.6068 36.7934 28.9186 37.1053 29.3034 37.1053C29.6882 37.1053 30 36.7934 30 36.4087V4.17957C30 1.87495 28.125 0 25.8204 0Z" fill="url(#paint2_linear_0_6468)"/>
<path d="M16.2074 2.78638H11.5635C11.1788 2.78638 10.8669 3.09827 10.8669 3.48297C10.8669 3.86768 11.1788 4.17957 11.5635 4.17957H16.2074C16.5922 4.17957 16.904 3.86768 16.904 3.48297C16.904 3.09827 16.5922 2.78638 16.2074 2.78638Z" fill="url(#paint3_linear_0_6468)"/>
<path d="M6.08359 42.678C6.08359 43.0627 6.39548 43.3746 6.78019 43.3746H23.2198C23.6046 43.3746 23.9164 43.0627 23.9164 42.678C23.9164 42.2933 23.6046 41.9814 23.2198 41.9814H6.78019C6.39548 41.9814 6.08359 42.2933 6.08359 42.678Z" fill="url(#paint4_linear_0_6468)"/>
<path d="M6.31579 6.96594C4.65139 6.96594 3.29721 8.32012 3.29721 9.98452C3.29721 11.6489 4.65139 13.0031 6.31579 13.0031C7.98019 13.0031 9.33437 11.6489 9.33437 9.98452C9.33437 8.32012 7.98019 6.96594 6.31579 6.96594ZM6.31579 11.6099C5.4196 11.6099 4.6904 10.8807 4.6904 9.98452C4.6904 9.08833 5.4196 8.35913 6.31579 8.35913C7.21198 8.35913 7.94118 9.08833 7.94118 9.98452C7.94118 10.8807 7.21198 11.6099 6.31579 11.6099Z" fill="url(#paint5_linear_0_6468)"/>
<path d="M13.0495 9.98452C13.0495 10.3692 13.3614 10.6811 13.7461 10.6811H26.0062C26.391 10.6811 26.7028 10.3692 26.7028 9.98452C26.7028 9.59981 26.391 9.28793 26.0062 9.28793H13.7461C13.3614 9.28793 13.0495 9.59981 13.0495 9.98452Z" fill="url(#paint6_linear_0_6468)"/>
<path d="M26.0062 11.6099H19.7368C19.352 11.6099 19.0402 11.9218 19.0402 12.3065C19.0402 12.6912 19.352 13.0031 19.7368 13.0031H26.0062C26.391 13.0031 26.7028 12.6912 26.7028 12.3065C26.7028 11.9218 26.391 11.6099 26.0062 11.6099Z" fill="url(#paint7_linear_0_6468)"/>
<path d="M11.8885 13.0031H16.4861C16.8709 13.0031 17.1827 12.6912 17.1827 12.3065C17.1827 11.9218 16.8709 11.6099 16.4861 11.6099H11.8885C11.5038 11.6099 11.192 11.9218 11.192 12.3065C11.192 12.6912 11.5038 13.0031 11.8885 13.0031Z" fill="url(#paint8_linear_0_6468)"/>
<path d="M11.8885 15.3251H20.4334C20.8182 15.3251 21.13 15.0132 21.13 14.6285C21.13 14.2438 20.8182 13.9319 20.4334 13.9319H11.8885C11.5038 13.9319 11.192 14.2438 11.192 14.6285C11.192 15.0132 11.5038 15.3251 11.8885 15.3251Z" fill="url(#paint9_linear_0_6468)"/>
<path d="M6.31579 31.2384C7.98019 31.2384 9.33437 29.8842 9.33437 28.2198C9.33437 26.5554 7.98019 25.2012 6.31579 25.2012C4.65139 25.2012 3.29721 26.5554 3.29721 28.2198C3.29721 29.8842 4.65139 31.2384 6.31579 31.2384ZM6.31579 26.5944C7.21198 26.5944 7.94118 27.3236 7.94118 28.2198C7.94118 29.116 7.21198 29.8452 6.31579 29.8452C5.4196 29.8452 4.6904 29.116 4.6904 28.2198C4.6904 27.3236 5.4196 26.5944 6.31579 26.5944Z" fill="url(#paint10_linear_0_6468)"/>
<path d="M26.7028 28.2198C26.7028 27.8351 26.391 27.5232 26.0062 27.5232H13.7461C13.3614 27.5232 13.0495 27.8351 13.0495 28.2198C13.0495 28.6045 13.3614 28.9164 13.7461 28.9164H26.0062C26.391 28.9164 26.7028 28.6046 26.7028 28.2198Z" fill="url(#paint11_linear_0_6468)"/>
<path d="M23.2198 31.2384C23.6046 31.2384 23.9164 30.9265 23.9164 30.5418C23.9164 30.1571 23.6046 29.8452 23.2198 29.8452H11.8885C11.5038 29.8452 11.192 30.1571 11.192 30.5418C11.192 30.9265 11.5038 31.2384 11.8885 31.2384H23.2198Z" fill="url(#paint12_linear_0_6468)"/>
<path d="M23.6842 17.2446C22.0197 17.2446 20.6656 18.5988 20.6656 20.2632C20.6656 21.9276 22.0197 23.2817 23.6842 23.2817C25.3487 23.2817 26.7028 21.9276 26.7028 20.2632C26.7028 18.5988 25.3487 17.2446 23.6842 17.2446ZM23.6842 21.8885C22.788 21.8885 22.0588 21.1594 22.0588 20.2632C22.0588 19.367 22.788 18.6378 23.6842 18.6378C24.5804 18.6378 25.3096 19.367 25.3096 20.2632C25.3096 21.1594 24.5804 21.8885 23.6842 21.8885Z" fill="url(#paint13_linear_0_6468)"/>
<path d="M5.1548 20.2632C5.1548 20.6479 5.46669 20.9598 5.85139 20.9598H18.1115C18.4963 20.9598 18.8081 20.6479 18.8081 20.2632C18.8081 19.8785 18.4963 19.5666 18.1115 19.5666H5.85139C5.46669 19.5666 5.1548 19.8784 5.1548 20.2632Z" fill="url(#paint14_linear_0_6468)"/>
<path d="M3.99381 23.2817H12.5387C12.9234 23.2817 13.2353 22.9699 13.2353 22.5851C13.2353 22.2004 12.9234 21.8886 12.5387 21.8886H3.99381C3.6091 21.8886 3.29721 22.2004 3.29721 22.5851C3.29721 22.9699 3.6091 23.2817 3.99381 23.2817Z" fill="url(#paint15_linear_0_6468)"/>
<path d="M25.8669 36.1765C25.8669 34.5121 24.5128 33.1579 22.8483 33.1579C21.1838 33.1579 19.8297 34.5121 19.8297 36.1765C19.8297 37.8409 21.1838 39.195 22.8483 39.195C24.5128 39.195 25.8669 37.8409 25.8669 36.1765ZM22.8483 37.8019C21.9521 37.8019 21.2229 37.0727 21.2229 36.1765C21.2229 35.2803 21.9521 34.5511 22.8483 34.5511C23.7445 34.5511 24.4737 35.2803 24.4737 36.1765C24.4737 37.0727 23.7445 37.8019 22.8483 37.8019Z" fill="url(#paint16_linear_0_6468)"/>
<path d="M5.1548 36.1765C5.1548 36.5612 5.46669 36.8731 5.85139 36.8731H18.1115C18.4963 36.8731 18.8081 36.5612 18.8081 36.1765C18.8081 35.7918 18.4963 35.4799 18.1115 35.4799H5.85139C5.46669 35.4799 5.1548 35.7918 5.1548 36.1765Z" fill="url(#paint17_linear_0_6468)"/>
<path d="M3.99381 39.195H8.82353C9.20824 39.195 9.52012 38.8832 9.52012 38.4985C9.52012 38.1137 9.20824 37.8019 8.82353 37.8019H3.99381C3.6091 37.8019 3.29721 38.1137 3.29721 38.4985C3.29721 38.8832 3.6091 39.195 3.99381 39.195Z" fill="url(#paint18_linear_0_6468)"/>
<path d="M18.5294 4.17957C18.9141 4.17957 19.226 3.86769 19.226 3.48297C19.226 3.09825 18.9141 2.78638 18.5294 2.78638C18.1447 2.78638 17.8328 3.09825 17.8328 3.48297C17.8328 3.86769 18.1447 4.17957 18.5294 4.17957Z" fill="url(#paint19_linear_0_6468)"/>
<defs>
<linearGradient id="paint0_linear_0_6468" x1="10.9672" y1="-0.767496" x2="40.5422" y2="13.9664" gradientUnits="userSpaceOnUse">
<stop stop-color="#C4CAE4"/>
<stop offset="1" stop-color="#9CA9C0"/>
</linearGradient>
<linearGradient id="paint1_linear_0_6468" x1="10.9672" y1="-0.767496" x2="40.5422" y2="13.9664" gradientUnits="userSpaceOnUse">
<stop stop-color="#C4CAE4"/>
<stop offset="1" stop-color="#9CA9C0"/>
</linearGradient>
<linearGradient id="paint2_linear_0_6468" x1="10.9672" y1="-0.767496" x2="40.5422" y2="13.9664" gradientUnits="userSpaceOnUse">
<stop stop-color="#C4CAE4"/>
<stop offset="1" stop-color="#9CA9C0"/>
</linearGradient>
<linearGradient id="paint3_linear_0_6468" x1="10.9672" y1="-0.767496" x2="40.5422" y2="13.9664" gradientUnits="userSpaceOnUse">
<stop stop-color="#C4CAE4"/>
<stop offset="1" stop-color="#9CA9C0"/>
</linearGradient>
<linearGradient id="paint4_linear_0_6468" x1="10.9672" y1="-0.767496" x2="40.5422" y2="13.9664" gradientUnits="userSpaceOnUse">
<stop stop-color="#C4CAE4"/>
<stop offset="1" stop-color="#9CA9C0"/>
</linearGradient>
<linearGradient id="paint5_linear_0_6468" x1="10.9672" y1="-0.767496" x2="40.5422" y2="13.9664" gradientUnits="userSpaceOnUse">
<stop stop-color="#C4CAE4"/>
<stop offset="1" stop-color="#9CA9C0"/>
</linearGradient>
<linearGradient id="paint6_linear_0_6468" x1="10.9672" y1="-0.767496" x2="40.5422" y2="13.9664" gradientUnits="userSpaceOnUse">
<stop stop-color="#C4CAE4"/>
<stop offset="1" stop-color="#9CA9C0"/>
</linearGradient>
<linearGradient id="paint7_linear_0_6468" x1="10.9672" y1="-0.767496" x2="40.5422" y2="13.9664" gradientUnits="userSpaceOnUse">
<stop stop-color="#C4CAE4"/>
<stop offset="1" stop-color="#9CA9C0"/>
</linearGradient>
<linearGradient id="paint8_linear_0_6468" x1="10.9672" y1="-0.767496" x2="40.5422" y2="13.9664" gradientUnits="userSpaceOnUse">
<stop stop-color="#C4CAE4"/>
<stop offset="1" stop-color="#9CA9C0"/>
</linearGradient>
<linearGradient id="paint9_linear_0_6468" x1="10.9672" y1="-0.767496" x2="40.5422" y2="13.9664" gradientUnits="userSpaceOnUse">
<stop stop-color="#C4CAE4"/>
<stop offset="1" stop-color="#9CA9C0"/>
</linearGradient>
<linearGradient id="paint10_linear_0_6468" x1="10.9672" y1="-0.767496" x2="40.5422" y2="13.9664" gradientUnits="userSpaceOnUse">
<stop stop-color="#C4CAE4"/>
<stop offset="1" stop-color="#9CA9C0"/>
</linearGradient>
<linearGradient id="paint11_linear_0_6468" x1="10.9672" y1="-0.767496" x2="40.5422" y2="13.9664" gradientUnits="userSpaceOnUse">
<stop stop-color="#C4CAE4"/>
<stop offset="1" stop-color="#9CA9C0"/>
</linearGradient>
<linearGradient id="paint12_linear_0_6468" x1="10.9672" y1="-0.767496" x2="40.5422" y2="13.9664" gradientUnits="userSpaceOnUse">
<stop stop-color="#C4CAE4"/>
<stop offset="1" stop-color="#9CA9C0"/>
</linearGradient>
<linearGradient id="paint13_linear_0_6468" x1="10.9672" y1="-0.767496" x2="40.5422" y2="13.9664" gradientUnits="userSpaceOnUse">
<stop stop-color="#C4CAE4"/>
<stop offset="1" stop-color="#9CA9C0"/>
</linearGradient>
<linearGradient id="paint14_linear_0_6468" x1="10.9672" y1="-0.767496" x2="40.5422" y2="13.9664" gradientUnits="userSpaceOnUse">
<stop stop-color="#C4CAE4"/>
<stop offset="1" stop-color="#9CA9C0"/>
</linearGradient>
<linearGradient id="paint15_linear_0_6468" x1="10.9672" y1="-0.767496" x2="40.5422" y2="13.9664" gradientUnits="userSpaceOnUse">
<stop stop-color="#C4CAE4"/>
<stop offset="1" stop-color="#9CA9C0"/>
</linearGradient>
<linearGradient id="paint16_linear_0_6468" x1="10.9672" y1="-0.767496" x2="40.5422" y2="13.9664" gradientUnits="userSpaceOnUse">
<stop stop-color="#C4CAE4"/>
<stop offset="1" stop-color="#9CA9C0"/>
</linearGradient>
<linearGradient id="paint17_linear_0_6468" x1="10.9672" y1="-0.767496" x2="40.5422" y2="13.9664" gradientUnits="userSpaceOnUse">
<stop stop-color="#C4CAE4"/>
<stop offset="1" stop-color="#9CA9C0"/>
</linearGradient>
<linearGradient id="paint18_linear_0_6468" x1="10.9672" y1="-0.767496" x2="40.5422" y2="13.9664" gradientUnits="userSpaceOnUse">
<stop stop-color="#C4CAE4"/>
<stop offset="1" stop-color="#9CA9C0"/>
</linearGradient>
<linearGradient id="paint19_linear_0_6468" x1="10.9672" y1="-0.767496" x2="40.5422" y2="13.9664" gradientUnits="userSpaceOnUse">
<stop stop-color="#C4CAE4"/>
<stop offset="1" stop-color="#9CA9C0"/>
</linearGradient>
</defs>
</svg>
