<svg width="32" height="32" viewBox="0 0 32 32" fill="none" xmlns="http://www.w3.org/2000/svg">
<path d="M30.5937 0H28.7187C27.9433 0 27.3124 0.630811 27.3124 1.40625V25.9891C27.3124 26.1814 27.3362 26.3736 27.3831 26.5604L28.6019 31.4091C28.6893 31.757 29.0009 32 29.3596 32H29.9528C30.3115 32 30.6231 31.757 30.7105 31.4091L31.9293 26.5579C31.9761 26.3713 31.9999 26.1791 31.9999 25.9868V12.5C31.9999 12.2411 31.79 12.0312 31.5311 12.0312C31.2723 12.0312 31.0624 12.2411 31.0624 12.5V25.2812C31.0624 25.5401 30.8525 25.75 30.5936 25.75C30.3347 25.75 30.1249 25.5401 30.1249 25.2812V8.59423C30.1249 8.33535 30.3347 8.12548 30.5936 8.12548C30.8525 8.12548 31.0624 8.33535 31.0624 8.59423V10.3125C31.0624 10.5714 31.2723 10.7812 31.5311 10.7812C31.79 10.7812 31.9999 10.5714 31.9999 10.3125V1.40625C31.9999 0.630811 31.3691 0 30.5937 0ZM28.7187 0.937498H30.5937C30.8522 0.937498 31.0624 1.14775 31.0624 1.40625V2.03143C31.0624 2.80808 30.4328 3.43768 29.6562 3.43768C28.8795 3.43768 28.2499 2.80808 28.2499 2.03143V1.40625C28.2499 1.14775 28.4602 0.937498 28.7187 0.937498ZM29.656 26.6874C30.3029 26.6874 30.7773 27.2958 30.6197 27.9232L30.5245 28.3021C30.4244 28.7002 30.0665 28.9793 29.656 28.9793C29.2456 28.9793 28.8877 28.7002 28.7876 28.3022L28.6924 27.9233C28.5347 27.2958 29.0091 26.6874 29.656 26.6874ZM29.8735 30.8929C29.8485 30.9926 29.7589 31.0624 29.6562 31.0624C29.5534 31.0624 29.4638 30.9926 29.4388 30.8929L29.3062 30.3655C29.249 30.1377 29.4212 29.9168 29.6561 29.9168C29.891 29.9168 30.0633 30.1377 30.006 30.3655L29.8735 30.8929ZM29.1874 25.2812C29.1874 25.5401 28.9776 25.75 28.7187 25.75C28.4598 25.75 28.2499 25.5401 28.2499 25.2812V8.59423C28.2499 8.33535 28.4598 8.12548 28.7187 8.12548C28.9776 8.12548 29.1874 8.33535 29.1874 8.59423V25.2812ZM29.6562 7.18799C28.8795 7.18799 28.2499 6.55826 28.2499 5.78161C28.2499 5.00496 28.8795 4.37524 29.6562 4.37524C30.4328 4.37524 31.0624 5.00496 31.0624 5.78161C31.0624 6.55826 30.4328 7.18799 29.6562 7.18799Z" fill="url(#paint0_linear_0_6530)"/>
<path d="M24.3437 0H2.34375C1.05137 0 0 1.05137 0 2.34375V29.6562C0 30.9486 1.05137 31.9999 2.34375 31.9999H13.25C13.5088 31.9999 13.7187 31.7901 13.7187 31.5312C13.7187 31.2723 13.5088 31.0624 13.25 31.0624H6.93749C5.17708 31.0624 3.74999 29.6353 3.74999 27.8749C3.74999 26.1145 5.17708 24.6875 6.93749 24.6875H16.0312C17.7916 24.6875 19.2187 26.1145 19.2187 27.8749C19.2187 29.6353 17.7916 31.0624 16.0312 31.0624H15.4375C15.1786 31.0624 14.9687 31.2723 14.9687 31.5312C14.9687 31.7901 15.1786 31.9999 15.4375 31.9999H24.3437C25.2915 31.9999 26.0624 31.2289 26.0624 30.2812V1.71875C26.0624 0.770999 25.2915 0 24.3437 0ZM23.0625 17.2187C23.0625 16.6492 23.5242 16.1875 24.0937 16.1875C24.6632 16.1875 25.125 16.6492 25.125 17.2187V22.7187C25.125 23.2882 24.6632 23.75 24.0937 23.75C23.5242 23.75 23.0625 23.2882 23.0625 22.7187V17.2187ZM25.125 1.71875V14.2187C25.125 14.7883 24.6632 15.25 24.0937 15.25C23.5242 15.25 23.0625 14.7883 23.0625 14.2187V2.21875C23.0625 1.51113 23.6361 0.937498 24.3437 0.937498C24.7745 0.937498 25.125 1.28794 25.125 1.71875ZM2.34375 31.0624C1.56831 31.0624 0.937498 30.4316 0.937498 29.6562V2.34375C0.937498 1.56831 1.56831 0.937498 2.34375 0.937498C2.60263 0.937498 2.81249 1.14736 2.81249 1.40625V30.5937C2.81249 30.8526 2.60263 31.0624 2.34375 31.0624ZM19.6875 21.8437C19.4286 21.8437 19.2187 22.0536 19.2187 22.3125C19.2187 23.1064 18.5751 23.75 17.7812 23.75H7.53124C5.44291 23.75 3.74999 22.057 3.74999 19.9687C3.74999 17.8804 5.44291 16.1875 7.53124 16.1875H7.87498C8.13386 16.1875 8.34373 15.9776 8.34373 15.7187C8.34373 15.4598 8.13386 15.25 7.87498 15.25C5.59681 15.25 3.74999 13.4031 3.74999 11.125V8.09373C3.74999 4.14145 6.95395 0.937498 10.9062 0.937498H12.0625C16.0148 0.937498 19.2187 4.14145 19.2187 8.09373C19.2187 12.046 16.0148 15.25 12.0625 15.25H10.0625C9.80361 15.25 9.59373 15.4598 9.59373 15.7187C9.59373 15.9776 9.80361 16.1875 10.0625 16.1875H15.2812C17.4558 16.1875 19.2187 17.9503 19.2187 20.125C19.2187 20.3838 19.4286 20.5937 19.6875 20.5937C19.9463 20.5937 20.1562 20.3838 20.1562 20.125V1.92187C20.1562 1.37822 20.5969 0.937498 21.1406 0.937498C21.6842 0.937498 22.125 1.37822 22.125 1.92187V30.0781C22.125 30.6217 21.6842 31.0624 21.1406 31.0624C20.5969 31.0624 20.1562 30.6217 20.1562 30.0781V22.3125C20.1562 22.0536 19.9463 21.8437 19.6875 21.8437ZM24.3437 31.0624C23.6361 31.0624 23.0625 30.4888 23.0625 29.7812V25.7187C23.0625 25.1492 23.5242 24.6875 24.0937 24.6875C24.6632 24.6875 25.125 25.1492 25.125 25.7187V30.2812C25.125 30.712 24.7745 31.0624 24.3437 31.0624Z" fill="url(#paint1_linear_0_6530)"/>
<path d="M10.4062 19.1875H15.6562C15.9151 19.1875 16.125 18.9776 16.125 18.7187C16.125 18.4598 15.9151 18.25 15.6562 18.25H10.4062C10.1474 18.25 9.93748 18.4598 9.93748 18.7187C9.93748 18.9776 10.1474 19.1875 10.4062 19.1875Z" fill="url(#paint2_linear_0_6530)"/>
<path d="M17.5312 20.75H8.53123C8.27236 20.75 8.06248 20.9598 8.06248 21.2187C8.06248 21.4776 8.27236 21.6875 8.53123 21.6875H17.5312C17.7901 21.6875 18 21.4776 18 21.2187C18 20.9598 17.7901 20.75 17.5312 20.75Z" fill="url(#paint3_linear_0_6530)"/>
<defs>
<linearGradient id="paint0_linear_0_6530" x1="6.18179" y1="-24.8421" x2="35.2293" y2="-21.6157" gradientUnits="userSpaceOnUse">
<stop stop-color="#F93C3C"/>
<stop offset="1" stop-color="#CD0973"/>
</linearGradient>
<linearGradient id="paint1_linear_0_6530" x1="6.18179" y1="-24.8421" x2="35.2293" y2="-21.6157" gradientUnits="userSpaceOnUse">
<stop stop-color="#F93C3C"/>
<stop offset="1" stop-color="#CD0973"/>
</linearGradient>
<linearGradient id="paint2_linear_0_6530" x1="6.18179" y1="-24.8421" x2="35.2293" y2="-21.6157" gradientUnits="userSpaceOnUse">
<stop stop-color="#F93C3C"/>
<stop offset="1" stop-color="#CD0973"/>
</linearGradient>
<linearGradient id="paint3_linear_0_6530" x1="6.18179" y1="-24.8421" x2="35.2293" y2="-21.6157" gradientUnits="userSpaceOnUse">
<stop stop-color="#F93C3C"/>
<stop offset="1" stop-color="#CD0973"/>
</linearGradient>
</defs>
</svg>
