<svg width="66" height="58" viewBox="0 0 66 58" fill="none" xmlns="http://www.w3.org/2000/svg">
<path d="M62.7 28.6C62.0925 28.6 61.6 28.1075 61.6 27.5V5.5C61.5964 2.464 59.136 0.003575 56.1 0H9.9C6.864 0.003575 4.40357 2.464 4.4 5.5V20.9C4.4 21.5075 3.90751 22 3.3 22C1.47744 22 0 23.4774 0 25.3V53.9C0 55.7226 1.47744 57.2 3.3 57.2H45.1C45.7075 57.2 46.2 56.7075 46.2 56.1C46.1964 53.064 43.736 50.6036 40.7 50.6C38.8775 50.6 37.4 49.1225 37.4 47.3C37.4 45.4775 38.8775 44 40.7 44H44C47.6451 44 50.6 46.9549 50.6 50.6V53.9C50.6 55.7226 52.0774 57.2 53.9 57.2H62.7C64.5226 57.2 66 55.7226 66 53.9V31.9C66 30.0774 64.5226 28.6 62.7 28.6ZM24.2 53.9C24.2 54.5075 23.7075 55 23.1 55H3.3C2.69252 55 2.2 54.5075 2.2 53.9C2.2 53.2925 2.69249 52.8 3.3 52.8H23.1C23.7075 52.8 24.2 53.2925 24.2 53.9ZM24.2 39.6C24.2 45.6751 19.2751 50.6 13.2 50.6C7.12487 50.6 2.2 45.6751 2.2 39.6V25.3C2.2 24.6925 2.69252 24.2 3.3 24.2H23.1C23.7075 24.2 24.2 24.6925 24.2 25.3V39.6ZM40.7 52.8C42.6809 52.8023 41.7313 55 39.7504 55H27.3216C26.7767 55 26.3946 54.4449 26.4 53.9C26.4 53.2925 26.8925 52.8 27.5 52.8H40.7ZM27.5 50.6C26.8925 50.6 26.4 50.1075 26.4 49.5V45.1C26.4 44.4925 26.8925 44 27.5 44C28.1075 44 28.6 44.4925 28.6 45.1V49.5C28.6 50.1075 28.1075 50.6 27.5 50.6ZM33 50.6C31.785 50.6 30.8 49.615 30.8 48.4V46.2C30.8 44.985 31.785 44 33 44C34.215 44 35.2 44.985 35.2 46.2V48.4C35.2 49.615 34.215 50.6 33 50.6ZM50.6 38.5C50.6 40.3225 49.1225 41.8 47.3 41.8H29.7C27.8775 41.8 26.4 40.3225 26.4 38.5C26.4 36.6775 27.8775 35.2 29.7 35.2H47.3C49.1225 35.2 50.6 36.6775 50.6 38.5ZM50.6 31.9C50.6 32.5075 50.1075 33 49.5 33H34.1C29.8474 33 26.4 29.5526 26.4 25.3C26.3964 24.7998 26.2777 24.3075 26.0536 23.8609C26.0364 23.8265 26.0514 23.7948 26.0777 23.7666L36.9677 12.8766C37.3898 12.4396 37.3777 11.7432 36.9408 11.3212C36.5145 10.9095 35.8387 10.9095 35.4123 11.3212L24.5223 22.2112C24.4776 22.2577 24.4209 22.2831 24.3615 22.258C23.9626 22.0891 23.5338 22.0013 23.1 22C13.9873 22 6.6 14.6127 6.6 5.5C6.6 3.67744 8.07744 2.2 9.9 2.2H56.1C57.9226 2.2 59.4 3.67744 59.4 5.5V23.1C59.4 26.1376 56.9376 28.6 53.9 28.6C52.0774 28.6 50.6 30.0774 50.6 31.9ZM63.8 53.9C63.8 54.5075 63.3075 55 62.7 55H53.9C53.2925 55 52.8 54.5075 52.8 53.9C52.8 53.2925 53.2925 52.8 53.9 52.8H62.7C63.3075 52.8 63.8 53.2925 63.8 53.9ZM63.8 45.1C63.8 48.1376 61.3376 50.6 58.3 50.6C55.2624 50.6 52.8 48.1376 52.8 45.1V31.9C52.8 31.2925 53.2925 30.8 53.9 30.8H62.7C63.3075 30.8 63.8 31.2925 63.8 31.9V45.1Z" fill="url(#paint0_linear_0_6525)"/>
<path d="M13.1989 36.7418C13.2482 35.9454 12.6713 34.8429 11.9366 35.1542C11.8101 35.2078 11.6916 35.2861 11.5885 35.3892L6.9223 40.0554C6.48533 40.4775 6.47323 41.1738 6.89535 41.6108C7.31747 42.0478 8.01377 42.0599 8.45075 41.6378C8.45996 41.629 8.4689 41.6199 8.4777 41.6108L12.9502 37.1383C13.0788 37.0097 13.1877 36.9233 13.1989 36.7418Z" fill="url(#paint1_linear_0_6525)"/>
<path d="M19.7169 35.3892C19.2907 34.9775 18.6149 34.9775 18.1885 35.3892L13.5223 40.0554C13.0853 40.4774 13.0732 41.1738 13.4954 41.6108C13.9173 42.0478 14.6138 42.0599 15.0507 41.6378C15.06 41.629 15.0689 41.6199 15.0777 41.6108L19.7439 36.9446C20.1659 36.5076 20.1539 35.8112 19.7169 35.3892Z" fill="url(#paint2_linear_0_6525)"/>
<path d="M43.6507 11.3223C43.2245 10.9106 42.5487 10.9106 42.1223 11.3223L31.2323 22.2123C30.7953 22.6343 30.7832 23.3307 31.2052 23.7677C31.6272 24.2047 32.3236 24.2168 32.7606 23.7948C32.7698 23.786 32.7788 23.7769 32.7877 23.7677L43.6777 12.8777C44.0998 12.4407 44.0877 11.7443 43.6507 11.3223Z" fill="url(#paint3_linear_0_6525)"/>
<path d="M60.6062 38.3669C60.1799 37.9551 59.504 37.9551 59.0777 38.3669L55.9669 41.4777C55.5299 41.8998 55.5178 42.5961 55.94 43.0331C56.3621 43.4701 57.0584 43.4822 57.4954 43.0601C57.5044 43.0513 57.5135 43.0422 57.5223 43.0331L60.6331 39.9223C61.0552 39.4853 61.0431 38.789 60.6062 38.3669Z" fill="url(#paint4_linear_0_6525)"/>
<path d="M33.022 37.4H33.011C32.4035 37.403 31.9135 37.898 31.9165 38.5055C31.9195 39.113 32.4145 39.603 33.022 39.6C33.6295 39.6 34.122 39.1075 34.122 38.5C34.122 37.8925 33.6295 37.4 33.022 37.4Z" fill="url(#paint5_linear_0_6525)"/>
<path d="M35.2 4.4H30.8C30.1925 4.4 29.7 4.89253 29.7 5.5C29.7 6.10748 30.1925 6.6 30.8 6.6H35.2C35.8075 6.6 36.3 6.10748 36.3 5.5C36.3 4.89253 35.8075 4.4 35.2 4.4Z" fill="url(#paint6_linear_0_6525)"/>
<defs>
<linearGradient id="paint0_linear_0_6525" x1="24.1277" y1="-0.923174" x2="68.5002" y2="39.5087" gradientUnits="userSpaceOnUse">
<stop stop-color="#A068F8"/>
<stop offset="0.6891" stop-color="#3F55C3"/>
<stop offset="1" stop-color="#184EAE"/>
</linearGradient>
<linearGradient id="paint1_linear_0_6525" x1="24.1277" y1="-0.923174" x2="68.5002" y2="39.5087" gradientUnits="userSpaceOnUse">
<stop stop-color="#A068F8"/>
<stop offset="0.6891" stop-color="#3F55C3"/>
<stop offset="1" stop-color="#184EAE"/>
</linearGradient>
<linearGradient id="paint2_linear_0_6525" x1="24.1277" y1="-0.923174" x2="68.5002" y2="39.5087" gradientUnits="userSpaceOnUse">
<stop stop-color="#A068F8"/>
<stop offset="0.6891" stop-color="#3F55C3"/>
<stop offset="1" stop-color="#184EAE"/>
</linearGradient>
<linearGradient id="paint3_linear_0_6525" x1="24.1277" y1="-0.923174" x2="68.5002" y2="39.5087" gradientUnits="userSpaceOnUse">
<stop stop-color="#A068F8"/>
<stop offset="0.6891" stop-color="#3F55C3"/>
<stop offset="1" stop-color="#184EAE"/>
</linearGradient>
<linearGradient id="paint4_linear_0_6525" x1="24.1277" y1="-0.923174" x2="68.5002" y2="39.5087" gradientUnits="userSpaceOnUse">
<stop stop-color="#A068F8"/>
<stop offset="0.6891" stop-color="#3F55C3"/>
<stop offset="1" stop-color="#184EAE"/>
</linearGradient>
<linearGradient id="paint5_linear_0_6525" x1="24.1277" y1="-0.923174" x2="68.5002" y2="39.5087" gradientUnits="userSpaceOnUse">
<stop stop-color="#A068F8"/>
<stop offset="0.6891" stop-color="#3F55C3"/>
<stop offset="1" stop-color="#184EAE"/>
</linearGradient>
<linearGradient id="paint6_linear_0_6525" x1="24.1277" y1="-0.923174" x2="68.5002" y2="39.5087" gradientUnits="userSpaceOnUse">
<stop stop-color="#A068F8"/>
<stop offset="0.6891" stop-color="#3F55C3"/>
<stop offset="1" stop-color="#184EAE"/>
</linearGradient>
</defs>
</svg>
