<svg width="73" height="58" viewBox="0 0 73 58" fill="none" xmlns="http://www.w3.org/2000/svg">
<path d="M71.1229 4.27164C69.7467 4.27164 68.6311 3.15603 68.6311 1.77985C68.6311 0.79837 67.8327 0 66.8512 0H40.723C38.245 0 34.6577 0 32.1797 0H16.6057C16.016 0 15.5378 0.477997 15.5378 1.06791C15.5378 1.65782 16.016 2.13582 16.6057 2.13582H32.1797C33.9463 2.13582 35.3834 3.57309 35.3834 5.33955C35.3834 5.62264 35.0988 5.81759 34.8319 5.72316C32.8283 5.0142 30.6735 4.62761 28.4301 4.62761C28.1364 4.62761 27.8443 4.63424 27.5538 4.64734C23.7308 4.81981 19.9447 5.76828 16.1179 5.76828H12.459C11.8692 5.76828 11.3911 6.24628 11.3911 6.83619C11.3911 7.42611 11.8692 7.90411 12.459 7.90411H14.2411C15.2839 7.90411 15.7669 9.35619 15.0195 10.0835C14.8162 10.2812 14.5458 10.3959 14.2622 10.3959H9.6112C9.02143 10.3959 8.54329 10.8739 8.54329 11.4638C8.54329 12.0537 9.02143 12.5317 9.6112 12.5317C10.9736 12.5317 11.7945 14.1104 11.1875 15.33C9.90566 17.9056 9.18403 20.8068 9.18403 23.8736C9.18403 26.6027 9.75609 29.2217 10.7989 31.6018C11.1851 32.4831 10.5734 33.534 9.6112 33.534C9.02143 33.534 8.54329 34.012 8.54329 34.6019C8.54329 35.1918 9.02143 35.6698 9.6112 35.6698H12.6762C13.0168 35.6698 13.3364 35.8282 13.5526 36.0914C14.1928 36.871 13.6733 38.1616 12.6645 38.1616H9.6112C9.02143 38.1616 8.54329 38.6396 8.54329 39.2295C8.54329 39.8194 9.02143 40.2974 9.6112 40.2974H12.5938C16.3828 40.2974 20.0356 41.6041 23.7088 42.5337C24.2807 42.6786 24.8614 42.3323 25.0061 41.7606C25.1509 41.1888 24.8046 40.6079 24.2329 40.4633C16.6298 38.5386 11.3199 31.7168 11.3199 23.8736C11.3199 14.439 18.9954 6.76344 28.4301 6.76344C37.8647 6.76344 45.5403 14.439 45.5403 23.8736C45.6183 32.8123 38.3485 40.5439 29.3638 40.9587C28.7749 40.9905 28.3233 41.4937 28.355 42.0827C28.3858 42.6521 28.8571 43.0931 29.4205 43.0931C30.1162 43.0626 30.8594 42.98 31.6109 42.8526C33.4657 42.5381 35.3834 43.8617 35.3834 45.7429C35.3834 47.217 34.1885 48.412 32.7144 48.412H20.8955C12.894 48.412 6.40747 41.9255 6.40747 33.924V7.24428C6.40747 4.42296 8.6946 2.13582 11.5159 2.13582C12.1057 2.13582 12.5838 1.65782 12.5838 1.06791C12.5838 0.477997 12.1057 0 11.5159 0H6.0515C5.07001 0 4.27164 0.79837 4.27164 1.77985C4.27164 3.15603 3.15603 4.27164 1.77985 4.27164C0.79837 4.27164 0 5.07001 0 6.05149V53.0396C0 54.021 0.79837 54.8194 1.77985 54.8194H29.3966C31.1869 54.8194 32.8812 56.3857 34.6715 56.3857H38.2312C40.0215 56.3857 41.7158 54.8194 43.5061 54.8194H50.1642C51.3943 54.8194 52.5661 55.3444 53.3849 56.2625C55.2204 58.4163 58.9401 58.6571 61.0374 56.4809C61.903 55.6153 62.9566 54.8194 64.1808 54.8194H71.1229C72.1043 54.8194 72.9027 54.021 72.9027 53.0396V6.05149C72.9027 5.07016 72.1043 4.27164 71.1229 4.27164ZM49.8384 40.5675L45.6413 44.7647C45.3037 45.1024 45.1113 45.4659 44.6346 45.4945C44.3046 45.5143 43.9086 45.1553 43.6749 44.9216L43.6168 44.8635C43.279 44.5256 42.9151 44.3331 42.8868 43.8561C42.8671 43.5264 43.2259 43.1305 43.4595 42.8969L47.3047 39.0517C47.643 38.7134 47.836 38.3486 48.3136 38.3209C48.6429 38.3018 49.0382 38.66 49.2715 38.8932L49.8384 39.46C50.1437 39.7653 50.1437 40.2621 49.8384 40.5675ZM43.6916 39.644C43.1343 40.2013 42.2172 40.154 41.7203 39.5423C41.265 38.9819 41.3441 38.1639 41.861 37.66C41.9808 37.5432 42.099 37.4249 42.2157 37.3051C42.7196 36.7877 43.538 36.7084 44.0987 37.1638C44.7104 37.6608 44.7577 38.5779 44.2004 39.1352L43.6916 39.644ZM38.1971 40.4626C38.7764 40.1207 39.5258 40.2285 39.9499 40.7506L40.3149 41.1998C40.8336 41.8384 40.8212 42.7395 40.7532 43.5594C40.7466 43.6395 40.7432 43.7202 40.7432 43.8014C40.7432 44.5813 41.0468 45.3142 41.5981 45.8653L42.5155 46.7828C43.0668 47.3342 43.7999 47.6378 44.5796 47.6378C44.8142 47.6378 45.044 47.6087 45.2661 47.5543C45.4369 47.5125 45.6209 47.5572 45.7379 47.6885C45.9876 47.9684 45.7889 48.412 45.4138 48.412H40.262C38.7472 48.412 37.5193 47.184 37.5193 45.6692V41.6208C37.5193 41.1426 37.7853 40.7056 38.1971 40.4626ZM2.13582 7.47537C2.13582 6.88558 2.61394 6.40746 3.20373 6.40746C3.79352 6.40746 4.27164 6.88558 4.27164 7.47538V48.7679C4.27164 49.7494 5.07001 50.5478 6.0515 50.5478H31.1118C31.7016 50.5478 32.1797 51.0259 32.1797 51.6157C32.1797 52.2055 31.7016 52.6836 31.1118 52.6836H17.1578C8.86138 52.6836 2.13582 45.958 2.13582 37.6617V7.47537ZM38.2312 54.2499H34.6715C34.4753 54.2499 34.3155 54.0902 34.3155 53.8939V52.6836C34.3155 51.504 35.2718 50.5478 36.4514 50.5478C37.6309 50.5478 38.5872 51.504 38.5872 52.6836V53.8939C38.5872 54.0902 38.4274 54.2499 38.2312 54.2499ZM41.7909 52.6836C41.2011 52.6836 40.723 52.2055 40.723 51.6157C40.723 51.0259 41.2011 50.5478 41.7909 50.5478H47.8096C48.114 50.5478 48.404 50.6777 48.6066 50.9049C49.2205 51.5932 48.7319 52.6836 47.8096 52.6836H41.7909ZM70.7669 48.5704C70.7669 50.8421 68.9254 52.6836 66.6537 52.6836H63.4438C62.9642 52.6836 62.5863 52.3985 62.5068 51.9255C62.4023 51.3038 62.8042 50.5478 63.4346 50.5478H66.8512C67.8327 50.5478 68.6311 49.7494 68.6311 48.7679V41.9075C68.6311 41.3176 68.1529 40.8396 67.5632 40.8396C66.9734 40.8396 66.4953 41.3176 66.4953 41.9075V43.964C66.4953 46.4205 64.5038 48.412 62.0473 48.412C60.9554 48.412 59.9016 48.0103 59.0867 47.2835L58.728 46.9636C58.2879 46.5712 57.6128 46.6098 57.2202 47.0497C56.8277 47.4897 56.8663 48.1649 57.3064 48.5576L59.3974 50.4226C60.6115 51.4645 60.857 53.6758 59.5272 54.9706C58.9121 55.5856 58.0938 55.9081 57.2251 55.8861C56.3557 55.8611 55.558 55.4901 54.9789 54.8408L48.8893 48.013C47.9695 46.9818 48.0144 45.412 48.9914 44.435C49.9685 43.4579 51.5382 43.4131 52.5694 44.3328L53.5077 45.1696C53.7171 45.3922 54.4926 45.6277 55.0155 45.0835C55.4081 44.6432 55.3695 43.9683 54.9294 43.5756L54.4849 43.1792C53.0008 41.8556 52.7545 39.3558 51.3486 37.9496L50.4313 37.0324C49.88 36.481 49.147 36.1774 48.3673 36.1774C48.2823 36.1774 48.198 36.1811 48.1144 36.1883C47.2936 36.2593 46.3905 36.2737 45.751 35.7542C44.9771 35.1255 44.8214 34.0142 45.3019 33.1405C45.3963 32.9689 45.4881 32.7957 45.5773 32.6209C46.0541 31.6875 46.9826 31.0422 48.0307 31.0422H63.2915C63.8813 31.0422 64.3594 30.5642 64.3594 29.9743C64.3594 29.3844 63.8813 28.9063 63.2915 28.9063H48.5319C47.7648 28.9063 47.2063 28.1829 47.3469 27.4289C47.454 26.8543 47.9451 26.4146 48.5296 26.4146H54.3485C54.9383 26.4146 55.4165 25.9366 55.4165 25.3466C55.4165 24.7567 54.9383 24.2787 54.3485 24.2787H48.8676C48.2112 24.2787 47.6857 23.8461 47.6616 23.1901C47.636 22.4961 48.1674 21.7869 48.8619 21.7869H63.2734C63.8632 21.7869 64.3413 21.3089 64.3413 20.719C64.3413 20.1291 63.8632 19.6511 63.2734 19.6511H48.1374C47.5943 19.6511 47.1263 19.2688 46.9814 18.7454C46.7654 17.9648 47.3298 17.1593 48.1397 17.1593H50.6158C51.2056 17.1593 51.6838 16.6813 51.6838 16.0914C51.6838 15.5015 51.2056 15.0235 50.6158 15.0235H46.2083C45.7835 15.0235 45.3955 14.7839 45.186 14.4143C44.7261 13.6032 45.2814 12.5317 46.2138 12.5317H63.2736C63.8633 12.5317 64.3415 12.0537 64.3415 11.4638C64.3415 10.8739 63.8633 10.3959 63.2736 10.3959H42.165C42.1586 10.3959 42.1525 10.3939 42.148 10.3893C41.1591 9.38344 40.061 8.48537 38.8729 7.71474C38.0598 7.18732 37.5191 6.30876 37.5191 5.33955C37.5191 3.57309 38.9562 2.13582 40.7229 2.13582C54.9565 2.13582 66.4951 13.6745 66.4951 27.9081V36.7377C66.4951 37.3276 66.9733 37.8056 67.563 37.8056C68.1528 37.8056 68.6309 37.3276 68.6309 36.7377V7.47538C68.6309 6.88558 69.1091 6.40746 69.6988 6.40746C70.2886 6.40746 70.7668 6.88558 70.7668 7.47537L70.7669 48.5704Z" fill="url(#paint0_linear_0_6526)"/>
<path d="M63.2734 5.76834H43.5708C42.981 5.76834 42.5029 6.24634 42.5029 6.83625C42.5029 7.42617 42.981 7.90417 43.5708 7.90417H63.2734C63.8632 7.90417 64.3413 7.42617 64.3413 6.83625C64.3413 6.24634 63.8632 5.76834 63.2734 5.76834Z" fill="url(#paint1_linear_0_6526)"/>
<path d="M63.2733 15.0236H55.5993C55.0095 15.0236 54.5314 15.5016 54.5314 16.0915C54.5314 16.6814 55.0095 17.1594 55.5993 17.1594H63.2733C63.8631 17.1594 64.3412 16.6814 64.3412 16.0915C64.3412 15.5016 63.8631 15.0236 63.2733 15.0236Z" fill="url(#paint2_linear_0_6526)"/>
<path d="M16.0078 44.9251C16.5976 44.9251 17.0758 44.4471 17.0758 43.8572C17.0758 43.2673 16.5976 42.7893 16.0078 42.7893H9.6112C9.02143 42.7893 8.54329 43.2673 8.54329 43.8572C8.54329 44.4471 9.02143 44.9251 9.6112 44.9251H16.0078Z" fill="url(#paint3_linear_0_6526)"/>
<path d="M63.292 38.1616H58.2119C57.6221 38.1616 57.144 38.6396 57.144 39.2296C57.144 39.8195 57.6221 40.2975 58.2119 40.2975H63.292C63.8818 40.2975 64.3599 39.8195 64.3599 39.2296C64.3599 38.6396 63.8818 38.1616 63.292 38.1616Z" fill="url(#paint4_linear_0_6526)"/>
<path d="M43.5646 23.8739C43.5646 15.5288 36.7754 8.73959 28.4303 8.73959C20.0852 8.73959 13.296 15.5288 13.296 23.8739C13.296 32.219 20.0852 39.0082 28.4303 39.0082C36.7754 39.0082 43.5646 32.2191 43.5646 23.8739ZM19.3188 31.8364C18.5898 31.8364 17.8948 31.513 17.4997 30.9004C16.627 29.5474 17.7478 27.952 19.3579 27.952H24.5085C25.0983 27.952 25.5764 27.474 25.5764 26.8841C25.5764 26.2942 25.0983 25.8162 24.5085 25.8162H17.5265C16.4058 25.8162 15.4317 24.9946 15.4317 23.8739C15.4317 22.7532 16.4058 21.9316 17.5265 21.9316H39.334C40.4547 21.9316 41.4288 22.7532 41.4288 23.8739C41.4288 24.9946 40.4547 25.8162 39.334 25.8162H29.4922C28.9025 25.8162 28.4243 26.2942 28.4243 26.8841C28.4243 27.474 28.9025 27.952 29.4922 27.952H37.5027C39.1128 27.952 40.2336 29.5474 39.3608 30.9004C38.9657 31.513 38.2706 31.8364 37.5416 31.8364H19.3188ZM17.4997 16.8476C17.8948 16.2349 18.5899 15.9114 19.319 15.9114H37.5417C38.2707 15.9114 38.9656 16.2347 39.3608 16.8473C40.2335 18.2003 39.1126 19.7957 37.5026 19.7957H19.3578C17.7478 19.7957 16.627 18.2006 17.4997 16.8476ZM29.0998 10.8924C31.8262 11.0315 31.1598 13.7756 28.4299 13.7756C25.7 13.7756 25.0336 11.0318 27.7599 10.8925C27.9819 10.8812 28.2055 10.8754 28.4303 10.8754C28.6548 10.8754 28.8781 10.8811 29.0998 10.8924ZM27.7605 36.8553C25.0341 36.7162 25.7005 33.9722 28.4304 33.9722C31.1603 33.9722 31.8268 36.716 29.1004 36.8553C28.8784 36.8666 28.655 36.8724 28.4302 36.8724C28.2056 36.8724 27.9823 36.8666 27.7605 36.8553Z" fill="url(#paint5_linear_0_6526)"/>
<defs>
<linearGradient id="paint0_linear_0_6526" x1="26.6512" y1="-0.936085" x2="71.8378" y2="43.9164" gradientUnits="userSpaceOnUse">
<stop stop-color="#A068F8"/>
<stop offset="0.6891" stop-color="#3F55C3"/>
<stop offset="1" stop-color="#184EAE"/>
</linearGradient>
<linearGradient id="paint1_linear_0_6526" x1="26.6512" y1="-0.936085" x2="71.8378" y2="43.9164" gradientUnits="userSpaceOnUse">
<stop stop-color="#A068F8"/>
<stop offset="0.6891" stop-color="#3F55C3"/>
<stop offset="1" stop-color="#184EAE"/>
</linearGradient>
<linearGradient id="paint2_linear_0_6526" x1="26.6512" y1="-0.936085" x2="71.8378" y2="43.9164" gradientUnits="userSpaceOnUse">
<stop stop-color="#A068F8"/>
<stop offset="0.6891" stop-color="#3F55C3"/>
<stop offset="1" stop-color="#184EAE"/>
</linearGradient>
<linearGradient id="paint3_linear_0_6526" x1="26.6512" y1="-0.936085" x2="71.8378" y2="43.9164" gradientUnits="userSpaceOnUse">
<stop stop-color="#A068F8"/>
<stop offset="0.6891" stop-color="#3F55C3"/>
<stop offset="1" stop-color="#184EAE"/>
</linearGradient>
<linearGradient id="paint4_linear_0_6526" x1="26.6512" y1="-0.936085" x2="71.8378" y2="43.9164" gradientUnits="userSpaceOnUse">
<stop stop-color="#A068F8"/>
<stop offset="0.6891" stop-color="#3F55C3"/>
<stop offset="1" stop-color="#184EAE"/>
</linearGradient>
<linearGradient id="paint5_linear_0_6526" x1="26.6512" y1="-0.936085" x2="71.8378" y2="43.9164" gradientUnits="userSpaceOnUse">
<stop stop-color="#A068F8"/>
<stop offset="0.6891" stop-color="#3F55C3"/>
<stop offset="1" stop-color="#184EAE"/>
</linearGradient>
</defs>
</svg>
