<svg width="67" height="66" viewBox="0 0 67 66" fill="none" xmlns="http://www.w3.org/2000/svg">
<path d="M7.7 5.5C7.7 6.10747 7.20747 6.6 6.6 6.6C5.99253 6.6 5.5 6.10747 5.5 5.5C5.5 4.89253 5.99253 4.4 6.6 4.4C7.20747 4.4 7.7 4.89253 7.7 5.5Z" fill="url(#paint0_linear_0_12552)"/>
<path d="M12.1 5.5C12.1 6.10747 11.6075 6.6 11 6.6C10.3925 6.6 9.9 6.10747 9.9 5.5C9.9 4.89253 10.3925 4.4 11 4.4C11.6075 4.4 12.1 4.89253 12.1 5.5Z" fill="url(#paint1_linear_0_12552)"/>
<path d="M16.5 5.5C16.5 6.10747 16.0075 6.6 15.4 6.6C14.7925 6.6 14.3 6.10747 14.3 5.5C14.3 4.89253 14.7925 4.4 15.4 4.4C16.0075 4.4 16.5 4.89253 16.5 5.5Z" fill="url(#paint2_linear_0_12552)"/>
<path d="M23.1 4.4C22.4925 4.4 22 4.89253 22 5.5C22 6.10747 22.4925 6.6 23.1 6.6H50.6C51.2075 6.6 51.7 6.10747 51.7 5.5C51.7 4.89253 51.2075 4.4 50.6 4.4H23.1Z" fill="url(#paint3_linear_0_12552)"/>
<path d="M15.8619 53.9C8.31665 53.9 2.2 47.7833 2.2 40.2381V32.45C2.2 20.6035 11.8035 11 23.65 11H50.6C51.2075 11 51.7 10.5075 51.7 9.9C51.7 9.29253 51.2075 8.8 50.6 8.8H5.5C3.67746 8.8 2.2 7.32254 2.2 5.5C2.2 3.67746 3.67746 2.2 5.5 2.2H40.2381C47.7833 2.2 53.9 8.31665 53.9 15.8619C53.9 16.4694 54.3925 16.9619 55 16.9619C55.6075 16.9619 56.1 16.4694 56.1 15.8619V1.1C56.1 0.492529 55.6075 0 55 0H1.1C0.492529 0 0 0.492529 0 1.1V55C0 55.6075 0.492529 56.1 1.1 56.1H15.8619C16.4694 56.1 16.9619 55.6075 16.9619 55C16.9619 54.3925 16.4694 53.9 15.8619 53.9Z" fill="url(#paint4_linear_0_12552)"/>
<path d="M65.6809 61.0059L62.6536 58.0006C61.0916 56.45 61.3427 53.8572 63.1732 52.6351C63.5379 52.3966 63.728 51.9653 63.6571 51.5351C63.5835 51.1065 63.2645 50.7617 62.8429 50.6548L48.0702 46.728C47.6921 46.6297 47.2909 46.7387 47.0148 47.0148C46.7387 47.2909 46.6297 47.6921 46.728 48.0702L50.6 62.8429C50.7069 63.2645 51.0517 63.5835 51.4798 63.6571C51.91 63.728 52.3418 63.5379 52.5798 63.1732C53.8371 61.3329 56.4575 61.0885 58.0335 62.6645L61.05 65.6809C61.2573 65.8867 61.5388 66.0016 61.8309 66C62.1231 66.0016 62.4046 65.8867 62.6119 65.6809L65.725 62.5679C65.9275 62.3557 66.037 62.071 66.0285 61.7778C66.0204 61.4845 65.8952 61.2068 65.6809 61.0059ZM62.5623 62.5843C62.1332 63.0074 61.4431 63.005 61.0169 62.5789L55.5607 57.1232C55.3561 56.9196 55.0795 56.8052 54.7911 56.8041H54.681C54.3544 56.8374 54.06 57.0147 53.878 57.2881C53.1944 58.3092 51.6257 58.0457 51.3132 56.8573L50.5479 53.9471C50.006 51.8864 51.8864 50.006 53.9471 50.5479L56.8454 51.3101C58.0438 51.6252 58.3138 53.2047 57.2881 53.9C57.0147 54.0821 56.8374 54.3764 56.8041 54.703C56.7741 55.029 56.8912 55.3518 57.1232 55.5828L62.5679 61.0279C62.9983 61.4584 62.9958 62.157 62.5623 62.5843Z" fill="url(#paint5_linear_0_12552)"/>
<path d="M45.7161 57.7607C44.9722 58.0696 44.2129 58.3367 43.442 58.561C40.8204 59.3237 38.5 57.1065 38.5 54.3763C38.5 51.7019 40.7117 49.5258 43.3619 49.8851C43.9694 49.97 44.5312 49.5467 44.6161 48.9392C44.7009 48.3312 44.2777 47.77 43.6702 47.6851C43.3964 47.6493 43.1224 47.6159 42.8481 47.5849C40.4429 47.3136 38.5 45.3614 38.5 42.941C38.5 40.4883 40.4883 38.5 42.941 38.5H44.3233C47.1548 38.5 49.4557 40.8546 48.994 43.6482C48.8936 44.2557 49.305 44.8293 49.9125 44.9297C50.52 45.0296 51.0936 44.6187 51.194 44.0107C51.2902 43.4104 51.3731 42.8082 51.4426 42.2045C51.6787 40.1521 53.3488 38.5 55.4147 38.5C57.5853 38.5 59.3469 40.3281 58.855 42.4423C58.5957 43.557 58.2486 44.6518 57.8161 45.7161C57.5883 46.2746 57.8531 46.9133 58.4101 47.1458C58.5422 47.2022 58.684 47.2323 58.828 47.2339C59.2786 47.2345 59.6841 46.96 59.8512 46.5411C61.0258 43.6374 61.6199 40.5319 61.6 37.4C61.6027 31.7217 59.6003 26.2249 55.9458 21.8791C51.353 16.3845 44.5618 13.2064 37.4 13.2H36.6078C31.2662 13.3751 26.1309 15.3087 22 18.7C21.5289 19.0856 21.4602 19.7801 21.8458 20.2512C22.232 20.7217 22.926 20.791 23.397 20.4048C23.5927 20.2438 23.791 20.0863 23.9918 19.9323C25.3259 18.9091 26.8204 20.7093 26.1131 22.2345C25.7645 22.9861 24.9305 23.4137 24.1415 23.1609C22.7502 22.715 21.382 22.1992 20.0422 21.6149C19.6299 21.4407 19.1555 21.534 18.8408 21.8452C18.8061 21.8796 18.7709 21.8906 18.7361 21.9248C18.7213 21.9394 18.704 21.9755 18.6909 21.9915C15.1446 26.33 13.2081 31.7627 13.2107 37.3672C13.2113 42.9929 15.1803 48.4408 18.7768 52.7672L18.8541 52.8548C23.4287 58.3816 30.2253 61.5866 37.4 61.6C40.5356 61.6021 43.6412 60.9893 46.5411 59.7958C46.9288 59.6659 47.2124 59.3312 47.2769 58.9273C47.3419 58.5234 47.177 58.1168 46.8494 57.8719C46.5217 57.627 46.085 57.5846 45.7161 57.7607ZM36.3 54.0744C36.3 56.8169 33.7426 58.7725 31.758 56.8799C31.0978 56.2503 30.4739 55.5134 29.8935 54.6818C28.5037 52.6905 29.8535 50.0938 32.2638 49.7988C34.4662 49.5293 36.3 51.3299 36.3 53.5487V54.0744ZM36.3 42.9453C36.3 45.3647 34.36 47.3164 31.9577 47.6034C31.7963 47.6227 31.6351 47.6429 31.4739 47.6639C28.8983 48.0006 26.2998 46.5781 25.8462 44.0204C25.8323 43.9418 25.8186 43.8632 25.8052 43.7846C25.315 40.9103 27.6977 38.5 30.6134 38.5H31.8547C34.3097 38.5 36.3 40.4902 36.3 42.9453ZM16.0079 42.4105C15.5153 40.3162 17.2581 38.5 19.4095 38.5C21.459 38.5 23.1118 40.1449 23.3489 42.1807C23.5102 43.5662 23.7475 44.942 24.0596 46.302C24.4165 47.8566 23.5564 49.4622 22.0579 50.0085C20.8447 50.4508 19.452 50.1093 18.7659 49.0153C17.4877 46.977 16.557 44.7448 16.0079 42.4105ZM44.8541 20.1551C46.228 22.1344 44.8905 24.7111 42.4988 25.0029C40.3173 25.269 38.5 23.4864 38.5 21.2887V20.747C38.5 18.0066 41.0607 16.0709 43.0279 17.9788C43.6736 18.605 44.2846 19.3347 44.8541 20.1551ZM36.3 31.8468C36.3 34.3062 34.3062 36.3 31.8468 36.3H30.6253C27.7018 36.3 25.3108 33.8852 25.8034 31.0035C25.8177 30.9197 25.8324 30.8359 25.8473 30.7522C26.304 28.1912 28.9114 26.7744 31.4897 27.1203C31.6486 27.1416 31.8075 27.162 31.9666 27.1816C34.366 27.477 36.3 29.4293 36.3 31.8468ZM38.5 31.8528C38.5 29.4338 40.4386 27.482 42.8402 27.1931C42.9913 27.1749 43.1423 27.1559 43.2932 27.1362C45.8463 26.8023 48.4218 28.2094 48.8777 30.7435C48.8937 30.8325 48.9094 30.9215 48.9247 31.0106C49.4197 33.8871 47.0339 36.3 44.1152 36.3H42.9472C40.4911 36.3 38.5 34.3089 38.5 31.8528ZM58.847 32.3654C59.3421 34.4734 57.5867 36.3 55.4213 36.3C53.3552 36.3 51.6896 34.6407 51.4506 32.5885C51.2924 31.2307 51.0612 29.8821 50.758 28.5488C50.3998 26.9739 51.2755 25.3495 52.794 24.7992C54.0223 24.354 55.4314 24.7004 56.1221 25.8093C57.3838 27.8347 58.3031 30.05 58.847 32.3654ZM53.2994 22.231C53.3102 22.231 53.313 22.2458 53.303 22.2498C52.1789 22.7003 51.0355 23.1019 49.8765 23.4536C49.5216 23.5613 49.1472 23.3718 49.0053 23.0291C48.902 22.7799 48.7941 22.5329 48.6815 22.2882C47.9811 20.7654 49.4777 18.9608 50.8042 19.9855C51.6865 20.6671 52.5185 21.4163 53.2923 22.2279C53.2942 22.2299 53.2967 22.231 53.2994 22.231ZM31.7564 17.9226C33.741 16.0279 36.3 17.9844 36.3 20.7283V21.2551C36.3 23.4726 34.4686 25.2729 32.2672 25.0066C29.8555 24.7148 28.5026 22.1182 29.8912 20.125C30.4718 19.2915 31.096 18.5532 31.7564 17.9226ZM23.3299 32.5808C23.1015 34.6345 21.4386 36.3 19.3722 36.3C17.2118 36.3 15.4624 34.4753 15.9577 32.3725C16.5042 30.0526 17.425 27.8328 18.6872 25.8022C19.3732 24.6986 20.7743 24.3513 21.9955 24.7951C23.4945 25.3399 24.3586 26.9413 24.0109 28.4979C23.7098 29.8457 23.4825 31.2087 23.3299 32.5808ZM23.4229 54.3544C22.4536 53.5549 22.7739 52.0631 23.967 51.669C24.0256 51.6496 24.0842 51.6304 24.1429 51.6113C24.9303 51.355 25.7652 51.7812 26.1141 52.5322C26.8202 54.0519 25.3346 55.841 24.0064 54.8193C23.8094 54.6677 23.6148 54.5128 23.4229 54.3544Z" fill="url(#paint6_linear_0_12552)"/>
<path d="M62.7881 26.8179C62.9567 27.2288 63.3558 27.4978 63.8 27.5C63.9445 27.5038 64.0873 27.4737 64.2179 27.4119C64.7748 27.1788 65.0396 26.5407 64.8119 25.9821C63.8781 23.7247 62.6648 21.5959 61.2019 19.6445C60.5804 18.8156 59.6093 17.738 58.8065 18.3928C58.0047 19.0486 58.8979 20.1913 59.5139 21.024C60.8371 22.8125 61.9373 24.7583 62.7881 26.8179Z" fill="url(#paint7_linear_0_12552)"/>
<path d="M14.553 18.4086C14.553 18.4192 14.5493 18.4295 14.5425 18.4376C10.1207 23.7675 7.70054 30.4746 7.7 37.4C7.7 38.0075 8.19253 38.5 8.8 38.5C9.40747 38.5 9.9 38.0075 9.9 37.4C9.89355 30.9719 12.1392 24.7446 16.247 19.8C16.6359 19.3322 16.572 18.6377 16.1041 18.2488C15.6405 17.8635 14.9544 17.9233 14.5636 18.3797C14.5567 18.3877 14.553 18.398 14.553 18.4086Z" fill="url(#paint8_linear_0_12552)"/>
<defs>
<linearGradient id="paint0_linear_0_12552" x1="12.7556" y1="-51.2368" x2="72.6919" y2="-44.5765" gradientUnits="userSpaceOnUse">
<stop stop-color="#F93C3C"/>
<stop offset="1" stop-color="#CD0973"/>
</linearGradient>
<linearGradient id="paint1_linear_0_12552" x1="12.7556" y1="-51.2368" x2="72.6919" y2="-44.5765" gradientUnits="userSpaceOnUse">
<stop stop-color="#F93C3C"/>
<stop offset="1" stop-color="#CD0973"/>
</linearGradient>
<linearGradient id="paint2_linear_0_12552" x1="12.7556" y1="-51.2368" x2="72.6919" y2="-44.5765" gradientUnits="userSpaceOnUse">
<stop stop-color="#F93C3C"/>
<stop offset="1" stop-color="#CD0973"/>
</linearGradient>
<linearGradient id="paint3_linear_0_12552" x1="12.7556" y1="-51.2368" x2="72.6919" y2="-44.5765" gradientUnits="userSpaceOnUse">
<stop stop-color="#F93C3C"/>
<stop offset="1" stop-color="#CD0973"/>
</linearGradient>
<linearGradient id="paint4_linear_0_12552" x1="12.7556" y1="-51.2368" x2="72.6919" y2="-44.5765" gradientUnits="userSpaceOnUse">
<stop stop-color="#F93C3C"/>
<stop offset="1" stop-color="#CD0973"/>
</linearGradient>
<linearGradient id="paint5_linear_0_12552" x1="12.7556" y1="-51.2368" x2="72.6919" y2="-44.5765" gradientUnits="userSpaceOnUse">
<stop stop-color="#F93C3C"/>
<stop offset="1" stop-color="#CD0973"/>
</linearGradient>
<linearGradient id="paint6_linear_0_12552" x1="12.7556" y1="-51.2368" x2="72.6919" y2="-44.5765" gradientUnits="userSpaceOnUse">
<stop stop-color="#F93C3C"/>
<stop offset="1" stop-color="#CD0973"/>
</linearGradient>
<linearGradient id="paint7_linear_0_12552" x1="12.7556" y1="-51.2368" x2="72.6919" y2="-44.5765" gradientUnits="userSpaceOnUse">
<stop stop-color="#F93C3C"/>
<stop offset="1" stop-color="#CD0973"/>
</linearGradient>
<linearGradient id="paint8_linear_0_12552" x1="12.7556" y1="-51.2368" x2="72.6919" y2="-44.5765" gradientUnits="userSpaceOnUse">
<stop stop-color="#F93C3C"/>
<stop offset="1" stop-color="#CD0973"/>
</linearGradient>
</defs>
</svg>
