<svg width="50" height="66" viewBox="0 0 50 66" fill="none" xmlns="http://www.w3.org/2000/svg">
<path d="M48.7884 55.752C48.2545 55.752 47.8216 56.1848 47.8216 56.7188V62.4551C47.8216 63.3436 47.0989 64.0664 46.2103 64.0664H3.54492C2.65637 64.0664 1.93359 63.3436 1.93359 62.4551V3.54492C1.93359 2.65637 2.65637 1.93359 3.54492 1.93359H8.76434C9.29827 1.93359 9.73113 1.50073 9.73113 0.966797C9.73113 0.432867 9.29827 0 8.76434 0H3.54492C1.59019 0 0 1.59019 0 3.54492V62.4551C0 64.4098 1.59019 66 3.54492 66H46.2103C48.165 66 49.7552 64.4098 49.7552 62.4551V56.7188C49.7552 56.1848 49.3224 55.752 48.7884 55.752Z" fill="url(#paint0_linear_0_6519)"/>
<path d="M46.2097 0H13.2754C12.7415 0 12.3086 0.432867 12.3086 0.966797C12.3086 1.50073 12.7415 1.93359 13.2754 1.93359H46.2097C47.0982 1.93359 47.821 2.65637 47.821 3.54492V52.207C47.821 52.741 48.2539 53.1738 48.7878 53.1738C49.3217 53.1738 49.7546 52.741 49.7546 52.207V3.54492C49.7546 1.59019 48.1644 0 46.2097 0Z" fill="url(#paint1_linear_0_6519)"/>
<path d="M38.476 4.51172H11.2793C10.0355 4.51172 9.02344 5.52376 9.02344 6.76758V9.05966C9.02344 10.3035 10.0355 11.3155 11.2793 11.3155H29.1315C29.6655 11.3155 30.0983 10.8827 30.0983 10.3487C30.0983 9.81479 29.6655 9.38193 29.1315 9.38193H11.2793C11.1017 9.38193 10.957 9.23729 10.957 9.05966V6.76758C10.957 6.58995 11.1017 6.44531 11.2793 6.44531H38.476C38.6536 6.44531 38.7982 6.58995 38.7982 6.76758V9.05966C38.7982 9.23729 38.6536 9.38193 38.476 9.38193H33.6433C33.1093 9.38193 32.6765 9.81479 32.6765 10.3487C32.6765 10.8827 33.1093 11.3155 33.6433 11.3155H38.476C39.7198 11.3155 40.7318 10.3035 40.7318 9.05966V6.76758C40.7318 5.52376 39.7199 4.51172 38.476 4.51172Z" fill="url(#paint2_linear_0_6519)"/>
<path d="M7.53909 13.9219C5.93975 13.9219 4.6387 15.2229 4.6387 16.8223C4.6387 18.4216 5.93975 19.7227 7.53909 19.7227C9.13843 19.7227 10.4395 18.4216 10.4395 16.8223C10.4395 15.2229 9.13843 13.9219 7.53909 13.9219ZM7.53909 17.7891C7.00593 17.7891 6.57229 17.3554 6.57229 16.8223C6.57229 16.2891 7.00593 15.8555 7.53909 15.8555C8.07224 15.8555 8.50588 16.2891 8.50588 16.8223C8.50588 17.3554 8.07224 17.7891 7.53909 17.7891Z" fill="url(#paint3_linear_0_6519)"/>
<path d="M41.5703 15.2109H13.9844C13.4505 15.2109 13.0176 15.6438 13.0176 16.1777C13.0176 16.7117 13.4505 17.1445 13.9844 17.1445H41.5703C42.1043 17.1445 42.5371 16.7117 42.5371 16.1777C42.5371 15.6438 42.1043 15.2109 41.5703 15.2109Z" fill="url(#paint4_linear_0_6519)"/>
<path d="M34.7383 19.0781H13.9844C13.4505 19.0781 13.0176 19.511 13.0176 20.0449C13.0176 20.5789 13.4505 21.0117 13.9844 21.0117H34.7383C35.2722 21.0117 35.7051 20.5789 35.7051 20.0449C35.7051 19.511 35.2722 19.0781 34.7383 19.0781Z" fill="url(#paint5_linear_0_6519)"/>
<path d="M13.0176 27.7793C13.0176 28.3132 13.4505 28.7461 13.9844 28.7461H17.8516C18.3855 28.7461 18.8184 28.3132 18.8184 27.7793V23.9121C18.8184 23.3782 18.3855 22.9453 17.8516 22.9453H13.9844C13.4505 22.9453 13.0176 23.3782 13.0176 23.9121V27.7793ZM14.9512 25.8457C14.9512 25.3118 15.384 24.8789 15.918 24.8789C16.4519 24.8789 16.8848 25.3118 16.8848 25.8457C16.8848 26.3797 16.4519 26.8125 15.918 26.8125C15.384 26.8125 14.9512 26.3797 14.9512 25.8457Z" fill="url(#paint6_linear_0_6519)"/>
<path d="M23.3946 22.9453C22.8606 22.9453 22.4278 23.3782 22.4278 23.9121V27.7793C22.4278 28.3132 22.8606 28.7461 23.3946 28.7461H27.2617C27.7957 28.7461 28.2285 28.3132 28.2285 27.7793V23.9121C28.2285 23.3782 27.7957 22.9453 27.2617 22.9453H23.3946ZM26.2949 25.8457C26.2949 26.3797 25.8621 26.8125 25.3281 26.8125C24.7942 26.8125 24.3614 26.3797 24.3614 25.8457C24.3614 25.3118 24.7942 24.8789 25.3281 24.8789C25.8621 24.8789 26.2949 25.3118 26.2949 25.8457Z" fill="url(#paint7_linear_0_6519)"/>
<path d="M31.8379 23.9121V27.7793C31.8379 28.3132 32.2708 28.7461 32.8047 28.7461H36.6719C37.2058 28.7461 37.6387 28.3132 37.6387 27.7793V23.9121C37.6387 23.3782 37.2058 22.9453 36.6719 22.9453H32.8047C32.2708 22.9453 31.8379 23.3782 31.8379 23.9121ZM33.7715 25.8457C33.7715 25.3118 34.2044 24.8789 34.7383 24.8789C35.2723 24.8789 35.7051 25.3118 35.7051 25.8457C35.7051 26.3797 35.2723 26.8125 34.7383 26.8125C34.2044 26.8125 33.7715 26.3797 33.7715 25.8457Z" fill="url(#paint8_linear_0_6519)"/>
<path d="M7.53909 30.0352C5.93975 30.0352 4.6387 31.3362 4.6387 32.9355C4.6387 34.5349 5.93975 35.8359 7.53909 35.8359C9.13843 35.8359 10.4395 34.5349 10.4395 32.9355C10.4395 31.3362 9.13843 30.0352 7.53909 30.0352ZM7.53909 33.9023C7.00593 33.9023 6.57229 33.4687 6.57229 32.9355C6.57229 32.4024 7.00593 31.9688 7.53909 31.9688C8.07224 31.9688 8.50588 32.4024 8.50588 32.9355C8.50588 33.4687 8.07224 33.9023 7.53909 33.9023Z" fill="url(#paint9_linear_0_6519)"/>
<path d="M41.5703 31.3242H13.9844C13.4505 31.3242 13.0176 31.7571 13.0176 32.291C13.0176 32.8249 13.4505 33.2578 13.9844 33.2578H41.5703C42.1043 33.2578 42.5371 32.8249 42.5371 32.291C42.5371 31.7571 42.1043 31.3242 41.5703 31.3242Z" fill="url(#paint10_linear_0_6519)"/>
<path d="M30.9356 36.1582C30.9356 35.6243 30.5027 35.1914 29.9688 35.1914H13.9844C13.4505 35.1914 13.0176 35.6243 13.0176 36.1582C13.0176 36.6921 13.4505 37.125 13.9844 37.125H29.9688C30.5027 37.125 30.9356 36.6921 30.9356 36.1582Z" fill="url(#paint11_linear_0_6519)"/>
<path d="M13.0176 43.8926C13.0176 44.4265 13.4505 44.8594 13.9844 44.8594H17.8516C18.3855 44.8594 18.8184 44.4265 18.8184 43.8926V40.0254C18.8184 39.4915 18.3855 39.0586 17.8516 39.0586H13.9844C13.4505 39.0586 13.0176 39.4915 13.0176 40.0254V43.8926ZM14.9512 41.959C14.9512 41.425 15.384 40.9922 15.918 40.9922C16.4519 40.9922 16.8848 41.425 16.8848 41.959C16.8848 42.4929 16.4519 42.9258 15.918 42.9258C15.384 42.9258 14.9512 42.4929 14.9512 41.959Z" fill="url(#paint12_linear_0_6519)"/>
<path d="M23.3946 39.0586C22.8606 39.0586 22.4278 39.4915 22.4278 40.0254V43.8926C22.4278 44.4265 22.8606 44.8594 23.3946 44.8594H27.2617C27.7957 44.8594 28.2285 44.4265 28.2285 43.8926V40.0254C28.2285 39.4915 27.7957 39.0586 27.2617 39.0586H23.3946ZM26.2949 41.959C26.2949 42.4929 25.8621 42.9258 25.3281 42.9258C24.7942 42.9258 24.3614 42.4929 24.3614 41.959C24.3614 41.425 24.7942 40.9922 25.3281 40.9922C25.8621 40.9922 26.2949 41.425 26.2949 41.959Z" fill="url(#paint13_linear_0_6519)"/>
<path d="M36.6719 44.8594C37.2058 44.8594 37.6387 44.4265 37.6387 43.8926V40.0254C37.6387 39.4915 37.2058 39.0586 36.6719 39.0586H32.8047C32.2708 39.0586 31.8379 39.4915 31.8379 40.0254V43.8926C31.8379 44.4265 32.2708 44.8594 32.8047 44.8594H36.6719ZM33.7715 41.959C33.7715 41.425 34.2044 40.9922 34.7383 40.9922C35.2723 40.9922 35.7051 41.425 35.7051 41.959C35.7051 42.4929 35.2723 42.9258 34.7383 42.9258C34.2044 42.9258 33.7715 42.4929 33.7715 41.959Z" fill="url(#paint14_linear_0_6519)"/>
<path d="M7.53909 46.1484C5.93975 46.1484 4.6387 47.4495 4.6387 49.0488C4.6387 50.6482 5.93975 51.9492 7.53909 51.9492C9.13843 51.9492 10.4395 50.6482 10.4395 49.0488C10.4395 47.4495 9.13843 46.1484 7.53909 46.1484ZM7.53909 50.0156C7.00593 50.0156 6.57229 49.582 6.57229 49.0488C6.57229 48.5157 7.00593 48.082 7.53909 48.082C8.07224 48.082 8.50588 48.5157 8.50588 49.0488C8.50588 49.582 8.07224 50.0156 7.53909 50.0156Z" fill="url(#paint15_linear_0_6519)"/>
<path d="M42.5371 48.4043C42.5371 47.8704 42.1043 47.4375 41.5703 47.4375H13.9844C13.4505 47.4375 13.0176 47.8704 13.0176 48.4043C13.0176 48.9382 13.4505 49.3711 13.9844 49.3711H41.5703C42.1043 49.3711 42.5371 48.9382 42.5371 48.4043Z" fill="url(#paint16_linear_0_6519)"/>
<path d="M26.2949 52.2715C26.2949 51.7376 25.8621 51.3047 25.3281 51.3047H13.9844C13.4505 51.3047 13.0176 51.7376 13.0176 52.2715C13.0176 52.8054 13.4505 53.2383 13.9844 53.2383H25.3281C25.8621 53.2383 26.2949 52.8054 26.2949 52.2715Z" fill="url(#paint17_linear_0_6519)"/>
<path d="M13.9844 55.1719C13.4505 55.1719 13.0176 55.6047 13.0176 56.1387V60.0059C13.0176 60.5398 13.4505 60.9727 13.9844 60.9727H17.8516C18.3855 60.9727 18.8184 60.5398 18.8184 60.0059V56.1387C18.8184 55.6047 18.3855 55.1719 17.8516 55.1719H13.9844ZM16.8848 58.0723C16.8848 58.6062 16.4519 59.0391 15.918 59.0391C15.384 59.0391 14.9512 58.6062 14.9512 58.0723C14.9512 57.5383 15.384 57.1055 15.918 57.1055C16.4519 57.1055 16.8848 57.5383 16.8848 58.0723Z" fill="url(#paint18_linear_0_6519)"/>
<path d="M23.3946 60.9727H27.2617C27.7957 60.9727 28.2285 60.5398 28.2285 60.0059V56.1387C28.2285 55.6047 27.7957 55.1719 27.2617 55.1719H23.3946C22.8606 55.1719 22.4278 55.6047 22.4278 56.1387V60.0059C22.4278 60.5398 22.8606 60.9727 23.3946 60.9727ZM24.3614 58.0723C24.3614 57.5383 24.7942 57.1055 25.3281 57.1055C25.8621 57.1055 26.2949 57.5383 26.2949 58.0723C26.2949 58.6062 25.8621 59.0391 25.3281 59.0391C24.7942 59.0391 24.3614 58.6062 24.3614 58.0723Z" fill="url(#paint19_linear_0_6519)"/>
<path d="M32.8047 55.1719C32.2708 55.1719 31.8379 55.6047 31.8379 56.1387V60.0059C31.8379 60.5398 32.2708 60.9727 32.8047 60.9727H36.6719C37.2058 60.9727 37.6387 60.5398 37.6387 60.0059V56.1387C37.6387 55.6047 37.2058 55.1719 36.6719 55.1719H32.8047ZM35.7051 58.0723C35.7051 58.6062 35.2723 59.0391 34.7383 59.0391C34.2044 59.0391 33.7715 58.6062 33.7715 58.0723C33.7715 57.5383 34.2044 57.1055 34.7383 57.1055C35.2723 57.1055 35.7051 57.5383 35.7051 58.0723Z" fill="url(#paint20_linear_0_6519)"/>
<defs>
<linearGradient id="paint0_linear_0_6519" x1="9.6118" y1="-51.2368" x2="55.0154" y2="-47.4349" gradientUnits="userSpaceOnUse">
<stop stop-color="#F93C3C"/>
<stop offset="1" stop-color="#CD0973"/>
</linearGradient>
<linearGradient id="paint1_linear_0_6519" x1="9.6118" y1="-51.2368" x2="55.0154" y2="-47.4349" gradientUnits="userSpaceOnUse">
<stop stop-color="#F93C3C"/>
<stop offset="1" stop-color="#CD0973"/>
</linearGradient>
<linearGradient id="paint2_linear_0_6519" x1="9.6118" y1="-51.2368" x2="55.0154" y2="-47.4349" gradientUnits="userSpaceOnUse">
<stop stop-color="#F93C3C"/>
<stop offset="1" stop-color="#CD0973"/>
</linearGradient>
<linearGradient id="paint3_linear_0_6519" x1="9.6118" y1="-51.2368" x2="55.0154" y2="-47.4349" gradientUnits="userSpaceOnUse">
<stop stop-color="#F93C3C"/>
<stop offset="1" stop-color="#CD0973"/>
</linearGradient>
<linearGradient id="paint4_linear_0_6519" x1="9.6118" y1="-51.2368" x2="55.0154" y2="-47.4349" gradientUnits="userSpaceOnUse">
<stop stop-color="#F93C3C"/>
<stop offset="1" stop-color="#CD0973"/>
</linearGradient>
<linearGradient id="paint5_linear_0_6519" x1="9.6118" y1="-51.2368" x2="55.0154" y2="-47.4349" gradientUnits="userSpaceOnUse">
<stop stop-color="#F93C3C"/>
<stop offset="1" stop-color="#CD0973"/>
</linearGradient>
<linearGradient id="paint6_linear_0_6519" x1="9.6118" y1="-51.2368" x2="55.0154" y2="-47.4349" gradientUnits="userSpaceOnUse">
<stop stop-color="#F93C3C"/>
<stop offset="1" stop-color="#CD0973"/>
</linearGradient>
<linearGradient id="paint7_linear_0_6519" x1="9.6118" y1="-51.2368" x2="55.0154" y2="-47.4349" gradientUnits="userSpaceOnUse">
<stop stop-color="#F93C3C"/>
<stop offset="1" stop-color="#CD0973"/>
</linearGradient>
<linearGradient id="paint8_linear_0_6519" x1="9.6118" y1="-51.2368" x2="55.0154" y2="-47.4349" gradientUnits="userSpaceOnUse">
<stop stop-color="#F93C3C"/>
<stop offset="1" stop-color="#CD0973"/>
</linearGradient>
<linearGradient id="paint9_linear_0_6519" x1="9.6118" y1="-51.2368" x2="55.0154" y2="-47.4349" gradientUnits="userSpaceOnUse">
<stop stop-color="#F93C3C"/>
<stop offset="1" stop-color="#CD0973"/>
</linearGradient>
<linearGradient id="paint10_linear_0_6519" x1="9.6118" y1="-51.2368" x2="55.0154" y2="-47.4349" gradientUnits="userSpaceOnUse">
<stop stop-color="#F93C3C"/>
<stop offset="1" stop-color="#CD0973"/>
</linearGradient>
<linearGradient id="paint11_linear_0_6519" x1="9.6118" y1="-51.2368" x2="55.0154" y2="-47.4349" gradientUnits="userSpaceOnUse">
<stop stop-color="#F93C3C"/>
<stop offset="1" stop-color="#CD0973"/>
</linearGradient>
<linearGradient id="paint12_linear_0_6519" x1="9.6118" y1="-51.2368" x2="55.0154" y2="-47.4349" gradientUnits="userSpaceOnUse">
<stop stop-color="#F93C3C"/>
<stop offset="1" stop-color="#CD0973"/>
</linearGradient>
<linearGradient id="paint13_linear_0_6519" x1="9.6118" y1="-51.2368" x2="55.0154" y2="-47.4349" gradientUnits="userSpaceOnUse">
<stop stop-color="#F93C3C"/>
<stop offset="1" stop-color="#CD0973"/>
</linearGradient>
<linearGradient id="paint14_linear_0_6519" x1="9.6118" y1="-51.2368" x2="55.0154" y2="-47.4349" gradientUnits="userSpaceOnUse">
<stop stop-color="#F93C3C"/>
<stop offset="1" stop-color="#CD0973"/>
</linearGradient>
<linearGradient id="paint15_linear_0_6519" x1="9.6118" y1="-51.2368" x2="55.0154" y2="-47.4349" gradientUnits="userSpaceOnUse">
<stop stop-color="#F93C3C"/>
<stop offset="1" stop-color="#CD0973"/>
</linearGradient>
<linearGradient id="paint16_linear_0_6519" x1="9.6118" y1="-51.2368" x2="55.0154" y2="-47.4349" gradientUnits="userSpaceOnUse">
<stop stop-color="#F93C3C"/>
<stop offset="1" stop-color="#CD0973"/>
</linearGradient>
<linearGradient id="paint17_linear_0_6519" x1="9.6118" y1="-51.2368" x2="55.0154" y2="-47.4349" gradientUnits="userSpaceOnUse">
<stop stop-color="#F93C3C"/>
<stop offset="1" stop-color="#CD0973"/>
</linearGradient>
<linearGradient id="paint18_linear_0_6519" x1="9.6118" y1="-51.2368" x2="55.0154" y2="-47.4349" gradientUnits="userSpaceOnUse">
<stop stop-color="#F93C3C"/>
<stop offset="1" stop-color="#CD0973"/>
</linearGradient>
<linearGradient id="paint19_linear_0_6519" x1="9.6118" y1="-51.2368" x2="55.0154" y2="-47.4349" gradientUnits="userSpaceOnUse">
<stop stop-color="#F93C3C"/>
<stop offset="1" stop-color="#CD0973"/>
</linearGradient>
<linearGradient id="paint20_linear_0_6519" x1="9.6118" y1="-51.2368" x2="55.0154" y2="-47.4349" gradientUnits="userSpaceOnUse">
<stop stop-color="#F93C3C"/>
<stop offset="1" stop-color="#CD0973"/>
</linearGradient>
</defs>
</svg>
