<svg width="51" height="44" viewBox="0 0 51 44" fill="none" xmlns="http://www.w3.org/2000/svg">
<path d="M5.1453 3.22072C3.91251 3.22072 2.90953 4.22093 2.90953 5.45045C2.90953 6.67997 3.91251 7.68018 5.1453 7.68018C6.37809 7.68018 7.38098 6.67997 7.38098 5.45045C7.38098 4.22093 6.37799 3.22072 5.1453 3.22072ZM5.1453 6.19369C4.73216 6.19369 4.39601 5.86032 4.39601 5.45045C4.39601 5.04058 4.73216 4.70721 5.1453 4.70721C5.55844 4.70721 5.89459 5.04058 5.89459 5.45045C5.89459 5.86032 5.55844 6.19369 5.1453 6.19369Z" fill="url(#paint0_linear_0_6460)"/>
<path d="M13.8483 5.45045C13.8483 4.22093 12.8454 3.22072 11.6126 3.22072C10.3798 3.22072 9.37689 4.22093 9.37689 5.45045C9.37689 6.67997 10.3799 7.68018 11.6127 7.68018C12.8455 7.68018 13.8483 6.67997 13.8483 5.45045ZM10.8634 5.45045C10.8634 5.04058 11.1995 4.70721 11.6127 4.70721C12.0258 4.70721 12.362 5.04058 12.362 5.45045C12.362 5.86032 12.0258 6.19369 11.6127 6.19369C11.1995 6.19369 10.8634 5.86032 10.8634 5.45045Z" fill="url(#paint1_linear_0_6460)"/>
<path d="M20.1295 5.45045C20.1295 4.22093 19.1265 3.22072 17.8937 3.22072C16.6609 3.22072 15.658 4.22093 15.658 5.45045C15.658 6.67997 16.661 7.68018 17.8938 7.68018C19.1266 7.68018 20.1295 6.67997 20.1295 5.45045ZM17.1445 5.45045C17.1445 5.04058 17.4807 4.70721 17.8938 4.70721C18.307 4.70721 18.6431 5.04058 18.6431 5.45045C18.6431 5.86032 18.307 6.19369 17.8938 6.19369C17.4807 6.19369 17.1445 5.86032 17.1445 5.45045Z" fill="url(#paint2_linear_0_6460)"/>
<path d="M45.4678 7.68018C46.7005 7.68018 47.7035 6.67997 47.7035 5.45045C47.7035 4.22093 46.7006 3.22072 45.4678 3.22072H24.5729C23.3401 3.22072 22.3371 4.22093 22.3371 5.45045C22.3371 6.67997 23.34 7.68018 24.5729 7.68018H45.4678ZM23.8236 5.45045C23.8236 5.04058 24.1597 4.70721 24.5729 4.70721H45.4678C45.8809 4.70721 46.2171 5.04058 46.2171 5.45045C46.2171 5.86032 45.8809 6.19369 45.4678 6.19369H24.5729C24.1597 6.19369 23.8236 5.86032 23.8236 5.45045Z" fill="url(#paint3_linear_0_6460)"/>
<path d="M48.0135 0H10.3063C9.89574 0 9.56306 0.332775 9.56306 0.743243C9.56306 1.15371 9.89574 1.48649 10.3063 1.48649H48.0135C48.6966 1.48649 49.2523 2.04214 49.2523 2.72523C49.2523 6.25537 46.3905 9.11712 42.8604 9.11712H7.87838C4.34824 9.11712 1.48649 6.25537 1.48649 2.72523C1.48649 2.04214 2.04214 1.48649 2.72523 1.48649H6.83784C7.24841 1.48649 7.58108 1.15371 7.58108 0.743243C7.58108 0.332775 7.24841 0 6.83784 0H2.72523C1.22259 0 0 1.22249 0 2.72523V41.2748C0 42.7775 1.22259 44 2.72523 44H12.1892C12.5998 44 12.9324 43.6672 12.9324 43.2568C12.9324 42.8463 12.5998 42.5135 12.1892 42.5135H2.72523C2.04214 42.5135 1.48649 41.9579 1.48649 41.2748V32.6036C1.48649 20.4534 11.3362 10.6036 23.4865 10.6036H44.1982C46.9895 10.6036 49.2523 12.8664 49.2523 15.6577C49.2523 16.0681 49.5849 16.4009 49.9955 16.4009C50.4061 16.4009 50.7387 16.0681 50.7387 15.6577V2.72523C50.7387 1.22249 49.5162 0 48.0135 0Z" fill="url(#paint4_linear_0_6460)"/>
<path d="M49.9955 18.4324C49.5849 18.4324 49.2523 18.7652 49.2523 19.1757V41.2748C49.2523 41.9579 48.6966 42.5135 48.0135 42.5135H15.6577C15.2471 42.5135 14.9144 42.8463 14.9144 43.2568C14.9144 43.6672 15.2471 44 15.6577 44H48.0135C49.5162 44 50.7387 42.7775 50.7387 41.2748V19.1757C50.7387 18.7652 50.4061 18.4324 49.9955 18.4324Z" fill="url(#paint5_linear_0_6460)"/>
<path d="M4.36036 25.4189V38.1036C4.36036 39.0598 5.13839 39.8378 6.09459 39.8378H44.7432C45.6995 39.8378 46.4775 39.0598 46.4775 38.1036V34.6847C46.4775 34.2742 46.1448 33.9414 45.7342 33.9414C45.3237 33.9414 44.991 34.2742 44.991 34.6847V38.1036C44.991 38.2402 44.8799 38.3514 44.7432 38.3514H30.9685C28.2867 38.3514 26.1126 36.1773 26.1126 33.4955C26.1126 30.8137 28.2867 28.6396 30.9685 28.6396H42.4144C43.8374 28.6396 44.991 29.7932 44.991 31.2162C44.991 31.6267 45.3237 31.9595 45.7342 31.9595C46.1448 31.9595 46.4775 31.6267 46.4775 31.2162V25.4189C46.4775 24.4627 45.6995 23.6847 44.7432 23.6847H6.09459C5.13839 23.6847 4.36036 24.4627 4.36036 25.4189ZM6.09459 25.1712H23.6351C24.1824 25.1712 24.6261 25.6149 24.6261 26.1622C24.6261 26.7095 24.1824 27.1532 23.6351 27.1532H7.58108C6.62329 27.1532 5.84685 26.3767 5.84685 25.4189C5.84685 25.2824 5.95794 25.1712 6.09459 25.1712ZM24.6261 33.4955C24.6261 36.1773 22.4521 38.3514 19.7703 38.3514H6.09459C5.95794 38.3514 5.84685 38.2402 5.84685 38.1036C5.84685 32.9179 10.0507 28.6396 15.2365 28.6396H19.7703C22.4521 28.6396 24.6261 30.8137 24.6261 33.4955ZM44.991 25.4189C44.991 26.3767 44.2146 27.1532 43.2568 27.1532H27.1036C26.5563 27.1532 26.1126 26.7095 26.1126 26.1622C26.1126 25.6149 26.5563 25.1712 27.1036 25.1712H44.7432C44.8799 25.1712 44.991 25.2824 44.991 25.4189Z" fill="url(#paint6_linear_0_6460)"/>
<path d="M8.57207 32.1081H16.9955C17.4061 32.1081 17.7387 31.7753 17.7387 31.3649C17.7387 30.9544 17.4061 30.6216 16.9955 30.6216H8.57207C8.1615 30.6216 7.82883 30.9544 7.82883 31.3649C7.82883 31.7753 8.1615 32.1081 8.57207 32.1081Z" fill="url(#paint7_linear_0_6460)"/>
<path d="M28.7883 30.6216C28.3777 30.6216 28.045 30.9544 28.045 31.3649C28.045 31.7753 28.3777 32.1081 28.7883 32.1081H37.2117C37.6223 32.1081 37.955 31.7753 37.955 31.3649C37.955 30.9544 37.6223 30.6216 37.2117 30.6216H28.7883Z" fill="url(#paint8_linear_0_6460)"/>
<path d="M17.854 12.8333C17.4434 12.8333 17.1107 13.1661 17.1107 13.5766C17.1107 13.8826 16.8627 14.1306 16.5567 14.1306H14.8867C14.4761 14.1306 14.1434 14.4634 14.1434 14.8739C14.1434 15.2844 14.4761 15.6171 14.8867 15.6171C15.3512 15.6171 15.7496 15.9348 15.9139 16.3693C15.9693 16.5158 16.0294 16.6601 16.0941 16.802C16.4435 17.5691 16.3695 18.5384 15.6137 18.9119C15.5462 18.9452 15.4778 18.9774 15.4086 19.0082L14.7466 19.3032C14.3717 19.4703 14.2033 19.9097 14.3702 20.2846C14.4935 20.5613 14.765 20.7255 15.0495 20.7255C15.1507 20.7255 15.2533 20.7048 15.3516 20.661L16.0136 20.366C17.159 19.8554 18.5488 19.8555 19.6942 20.366C19.7597 20.3896 19.8141 20.4114 19.8606 20.4316C20.3832 20.6588 21.1055 20.805 21.3375 20.2846C21.5046 19.9096 21.3361 19.4703 20.9611 19.3031L20.2992 19.0081C20.23 18.9773 20.1616 18.9451 20.0941 18.9118C19.3384 18.5383 19.2643 17.569 19.6137 16.8018C19.6783 16.66 19.7384 16.5157 19.7938 16.3692C19.9582 15.9347 20.3566 15.617 20.8211 15.617C21.2317 15.617 21.5643 15.2843 21.5643 14.8738C21.5643 14.4633 21.2317 14.1305 20.8211 14.1305H19.1511C18.8451 14.1305 18.5971 13.8825 18.5971 13.5766C18.5972 13.1661 18.2645 12.8333 17.854 12.8333ZM18.2259 16.2561C18.0724 16.5813 17.6355 16.5813 17.482 16.2561C17.4733 16.2377 17.4646 16.2192 17.4561 16.2006C17.3273 15.9199 17.545 15.6171 17.8539 15.6171C18.1628 15.6171 18.3806 15.9199 18.2517 16.2006C18.2432 16.2192 18.2346 16.2377 18.2259 16.2561Z" fill="url(#paint9_linear_0_6460)"/>
<path d="M30.7745 20.7337C31.0748 20.7337 31.3577 20.5503 31.47 20.2527C31.7194 19.5918 32.352 19.1544 33.0583 19.1544H33.5608C34.2698 19.1544 34.9051 19.5922 35.1574 20.2548C35.3036 20.6385 35.7334 20.8308 36.1165 20.6848C36.5001 20.5387 36.6926 20.1093 36.5466 19.7257C36.5431 19.7172 34.1355 13.3938 34.1251 13.3685C33.9879 13.0332 33.6652 12.8164 33.303 12.8161C33.3027 12.8161 33.3025 12.8161 33.3022 12.8161C32.9403 12.8161 32.6177 13.0323 32.48 13.3671C32.4773 13.3737 32.4746 13.3805 32.4721 13.3873L30.0793 19.7279C29.9343 20.1119 30.1281 20.5407 30.5121 20.6856C30.5986 20.7183 30.6873 20.7337 30.7745 20.7337ZM32.7497 16.8614C32.9435 16.3481 33.6691 16.3471 33.8644 16.8597C34.0129 17.2498 33.7248 17.6679 33.3074 17.6679C32.8907 17.6679 32.6026 17.2512 32.7497 16.8614Z" fill="url(#paint10_linear_0_6460)"/>
<path d="M29.6095 14.6032L28.0239 12.9185C27.7424 12.6194 27.2721 12.6056 26.9732 12.8867C26.6743 13.168 26.66 13.6384 26.9414 13.9374C27.0954 14.101 26.9794 14.3694 26.7547 14.3694H24.3288C23.9183 14.3694 23.5856 14.7022 23.5856 15.1127C23.5856 15.5231 23.9183 15.8559 24.3288 15.8559H26.7548C26.9795 15.8559 27.0955 16.1244 26.9415 16.288C26.6601 16.5869 26.6745 17.0573 26.9733 17.3386C27.2176 17.5493 27.6412 17.6539 28.024 17.3068L29.6096 15.6221C29.8789 15.3357 29.8789 14.8894 29.6095 14.6032Z" fill="url(#paint11_linear_0_6460)"/>
<path d="M28.0774 18.4325H25.6342C25.4095 18.4325 25.2935 18.164 25.4475 18.0004C25.7288 17.7015 25.7145 17.2311 25.4157 16.9497C25.1169 16.6685 24.6465 16.6827 24.3649 16.9816L22.7793 18.6662C22.51 18.9524 22.51 19.3989 22.7793 19.685L24.3649 21.3697C24.5852 21.5872 25.0267 21.7285 25.4157 21.4015C25.7146 21.1201 25.7288 20.6498 25.4475 20.3508C25.2935 20.1872 25.4095 19.9188 25.6342 19.9188H28.0774C28.4879 19.9188 28.8206 19.586 28.8206 19.1755C28.8206 18.765 28.4879 18.4325 28.0774 18.4325Z" fill="url(#paint12_linear_0_6460)"/>
<defs>
<linearGradient id="paint0_linear_0_6460" x1="18.5487" y1="-0.710134" x2="52.6794" y2="30.3709" gradientUnits="userSpaceOnUse">
<stop stop-color="#A068F8"/>
<stop offset="0.6891" stop-color="#3F55C3"/>
<stop offset="1" stop-color="#184EAE"/>
</linearGradient>
<linearGradient id="paint1_linear_0_6460" x1="18.5487" y1="-0.710134" x2="52.6794" y2="30.3709" gradientUnits="userSpaceOnUse">
<stop stop-color="#A068F8"/>
<stop offset="0.6891" stop-color="#3F55C3"/>
<stop offset="1" stop-color="#184EAE"/>
</linearGradient>
<linearGradient id="paint2_linear_0_6460" x1="18.5487" y1="-0.710134" x2="52.6794" y2="30.3709" gradientUnits="userSpaceOnUse">
<stop stop-color="#A068F8"/>
<stop offset="0.6891" stop-color="#3F55C3"/>
<stop offset="1" stop-color="#184EAE"/>
</linearGradient>
<linearGradient id="paint3_linear_0_6460" x1="18.5487" y1="-0.710134" x2="52.6794" y2="30.3709" gradientUnits="userSpaceOnUse">
<stop stop-color="#A068F8"/>
<stop offset="0.6891" stop-color="#3F55C3"/>
<stop offset="1" stop-color="#184EAE"/>
</linearGradient>
<linearGradient id="paint4_linear_0_6460" x1="18.5487" y1="-0.710134" x2="52.6794" y2="30.3709" gradientUnits="userSpaceOnUse">
<stop stop-color="#A068F8"/>
<stop offset="0.6891" stop-color="#3F55C3"/>
<stop offset="1" stop-color="#184EAE"/>
</linearGradient>
<linearGradient id="paint5_linear_0_6460" x1="18.5487" y1="-0.710134" x2="52.6794" y2="30.3709" gradientUnits="userSpaceOnUse">
<stop stop-color="#A068F8"/>
<stop offset="0.6891" stop-color="#3F55C3"/>
<stop offset="1" stop-color="#184EAE"/>
</linearGradient>
<linearGradient id="paint6_linear_0_6460" x1="18.5487" y1="-0.710134" x2="52.6794" y2="30.3709" gradientUnits="userSpaceOnUse">
<stop stop-color="#A068F8"/>
<stop offset="0.6891" stop-color="#3F55C3"/>
<stop offset="1" stop-color="#184EAE"/>
</linearGradient>
<linearGradient id="paint7_linear_0_6460" x1="18.5487" y1="-0.710134" x2="52.6794" y2="30.3709" gradientUnits="userSpaceOnUse">
<stop stop-color="#A068F8"/>
<stop offset="0.6891" stop-color="#3F55C3"/>
<stop offset="1" stop-color="#184EAE"/>
</linearGradient>
<linearGradient id="paint8_linear_0_6460" x1="18.5487" y1="-0.710134" x2="52.6794" y2="30.3709" gradientUnits="userSpaceOnUse">
<stop stop-color="#A068F8"/>
<stop offset="0.6891" stop-color="#3F55C3"/>
<stop offset="1" stop-color="#184EAE"/>
</linearGradient>
<linearGradient id="paint9_linear_0_6460" x1="18.5487" y1="-0.710134" x2="52.6794" y2="30.3709" gradientUnits="userSpaceOnUse">
<stop stop-color="#A068F8"/>
<stop offset="0.6891" stop-color="#3F55C3"/>
<stop offset="1" stop-color="#184EAE"/>
</linearGradient>
<linearGradient id="paint10_linear_0_6460" x1="18.5487" y1="-0.710134" x2="52.6794" y2="30.3709" gradientUnits="userSpaceOnUse">
<stop stop-color="#A068F8"/>
<stop offset="0.6891" stop-color="#3F55C3"/>
<stop offset="1" stop-color="#184EAE"/>
</linearGradient>
<linearGradient id="paint11_linear_0_6460" x1="18.5487" y1="-0.710134" x2="52.6794" y2="30.3709" gradientUnits="userSpaceOnUse">
<stop stop-color="#A068F8"/>
<stop offset="0.6891" stop-color="#3F55C3"/>
<stop offset="1" stop-color="#184EAE"/>
</linearGradient>
<linearGradient id="paint12_linear_0_6460" x1="18.5487" y1="-0.710134" x2="52.6794" y2="30.3709" gradientUnits="userSpaceOnUse">
<stop stop-color="#A068F8"/>
<stop offset="0.6891" stop-color="#3F55C3"/>
<stop offset="1" stop-color="#184EAE"/>
</linearGradient>
</defs>
</svg>
