<svg width="51" height="44" viewBox="0 0 51 44" fill="none" xmlns="http://www.w3.org/2000/svg">
<path d="M2.90953 5.45045C2.90953 6.67987 3.91251 7.68018 5.1453 7.68018C6.37809 7.68018 7.38098 6.67987 7.38098 5.45045C7.38098 4.22103 6.37809 3.22072 5.1453 3.22072C3.91251 3.22072 2.90953 4.22103 2.90953 5.45045ZM5.89449 5.45045C5.89449 5.86032 5.55835 6.19369 5.1452 6.19369C4.73206 6.19369 4.39601 5.86032 4.39601 5.45045C4.39601 5.04058 4.73216 4.70721 5.1453 4.70721C5.55844 4.70721 5.89449 5.04058 5.89449 5.45045Z" fill="url(#paint0_linear_0_6467)"/>
<path d="M13.8483 5.45045C13.8483 4.22103 12.8454 3.22072 11.6126 3.22072C10.3798 3.22072 9.37689 4.22103 9.37689 5.45045C9.37689 6.67987 10.3799 7.68018 11.6127 7.68018C12.8455 7.68018 13.8483 6.67987 13.8483 5.45045ZM10.8634 5.45045C10.8634 5.04058 11.1995 4.70721 11.6127 4.70721C12.0258 4.70721 12.362 5.04058 12.362 5.45045C12.362 5.86032 12.0258 6.19369 11.6127 6.19369C11.1995 6.19369 10.8634 5.86032 10.8634 5.45045Z" fill="url(#paint1_linear_0_6467)"/>
<path d="M20.1296 5.45045C20.1296 4.22103 19.1266 3.22072 17.8938 3.22072C16.661 3.22072 15.658 4.22103 15.658 5.45045C15.658 6.67987 16.661 7.68018 17.8938 7.68018C19.1266 7.68018 20.1296 6.67987 20.1296 5.45045ZM17.1445 5.45045C17.1445 5.04058 17.4807 4.70721 17.8938 4.70721C18.307 4.70721 18.6431 5.04058 18.6431 5.45045C18.6431 5.86032 18.307 6.19369 17.8938 6.19369C17.4807 6.19369 17.1445 5.86032 17.1445 5.45045Z" fill="url(#paint2_linear_0_6467)"/>
<path d="M45.4678 7.68018C46.7005 7.68018 47.7035 6.67987 47.7035 5.45045C47.7035 4.22103 46.7005 3.22072 45.4678 3.22072H24.5728C23.34 3.22072 22.3371 4.22103 22.3371 5.45045C22.3371 6.67987 23.34 7.68018 24.5728 7.68018H45.4678ZM23.8235 5.45045C23.8235 5.04058 24.1597 4.70721 24.5728 4.70721H45.4678C45.8809 4.70721 46.217 5.04058 46.217 5.45045C46.217 5.86032 45.8809 6.19369 45.4678 6.19369H24.5728C24.1597 6.19369 23.8235 5.86032 23.8235 5.45045Z" fill="url(#paint3_linear_0_6467)"/>
<path d="M48.0135 0H9.21622C8.80575 0 8.47297 0.332676 8.47297 0.743243C8.47297 1.15381 8.80575 1.48649 9.21622 1.48649H48.0135C48.6966 1.48649 49.2523 2.04214 49.2523 2.72523C49.2523 6.25537 46.3905 9.11712 42.8604 9.11712H7.87838C4.34824 9.11712 1.48649 6.25537 1.48649 2.72523C1.48649 2.04214 2.04214 1.48649 2.72523 1.48649H5.74775C6.15822 1.48649 6.49099 1.15381 6.49099 0.743243C6.49099 0.332676 6.15822 0 5.74775 0H2.72523C1.22249 0 0 1.22249 0 2.72523V41.2748C0 42.7775 1.22249 44 2.72523 44H48.0135C49.5163 44 50.7387 42.7775 50.7387 41.2748V18.7297C50.7387 18.3192 50.406 17.9865 49.9955 17.9865C49.585 17.9865 49.2523 18.3192 49.2523 18.7297V41.2748C49.2523 41.9579 48.6966 42.5135 48.0135 42.5135H2.72523C2.04214 42.5135 1.48649 41.9579 1.48649 41.2748V32.6036C1.48649 20.4534 11.3362 10.6036 23.4865 10.6036H44.5946C47.1669 10.6036 49.2523 12.6889 49.2523 15.2613C49.2523 15.6718 49.585 16.0045 49.9955 16.0045C50.406 16.0045 50.7387 15.6718 50.7387 15.2613V2.72523C50.7387 1.22259 49.5163 0 48.0135 0Z" fill="url(#paint4_linear_0_6467)"/>
<path d="M31.5837 35.1306C31.1732 35.1306 30.8404 35.4633 30.8404 35.8739C30.8404 36.2844 31.1732 36.6171 31.5837 36.6171H39.9369C41.4397 36.6171 42.6622 35.3945 42.6622 33.8919V31.7117C42.6622 30.2091 41.4397 28.9865 39.9369 28.9865H10.8018C9.29906 28.9865 8.07658 30.2091 8.07658 31.7117V33.8919C8.07658 35.3945 9.29906 36.6171 10.8018 36.6171H28.0715C28.482 36.6171 28.8147 36.2844 28.8147 35.8739C28.8147 35.4633 28.482 35.1306 28.0715 35.1306H10.8018C10.1187 35.1306 9.56306 34.575 9.56306 33.8919V31.7117C9.56306 31.0286 10.1187 30.473 10.8018 30.473H32.2568C33.5429 30.473 34.5856 31.5156 34.5856 32.8018C34.5856 34.088 33.5429 35.1306 32.2568 35.1306H31.5837ZM36.0721 32.8018C36.0721 31.5156 37.1147 30.473 38.4009 30.473H39.9369C40.62 30.473 41.1757 31.0286 41.1757 31.7117V33.8919C41.1757 34.575 40.62 35.1306 39.9369 35.1306H38.4009C37.1147 35.1306 36.0721 34.088 36.0721 32.8018Z" fill="url(#paint5_linear_0_6467)"/>
<path d="M12.3378 32.7027C11.9274 32.7027 11.5946 33.0354 11.5946 33.4459C11.5946 33.8565 11.9274 34.1892 12.3378 34.1892H15.2117C15.6222 34.1892 15.955 33.8565 15.955 33.4459C15.955 33.0354 15.6222 32.7027 15.2117 32.7027H12.3378Z" fill="url(#paint6_linear_0_6467)"/>
<path d="M20.9233 23.7874C20.655 24.098 20.6895 24.5674 21.0002 24.8356C22.2134 25.8828 23.7651 26.4595 25.3694 26.4595C29.0578 26.4595 32.0586 23.4587 32.0586 19.7703C32.0586 16.0818 29.0578 13.0811 25.3694 13.0811C21.6809 13.0811 18.6802 16.0818 18.6802 19.7703C18.6802 20.3319 18.75 20.8902 18.8878 21.4296C18.9894 21.8275 19.3941 22.0675 19.7919 21.9658C20.1896 21.8643 20.4297 21.4595 20.3281 21.0618C20.221 20.6425 20.1668 20.2079 20.1668 19.7703C20.1668 16.9016 22.5006 14.5676 25.3695 14.5676C28.2383 14.5676 30.5722 16.9016 30.5722 19.7703C30.5722 22.639 28.2382 24.973 25.3694 24.973C24.1215 24.973 22.9148 24.5246 21.9716 23.7104C21.6608 23.4423 21.1915 23.4765 20.9233 23.7874Z" fill="url(#paint7_linear_0_6467)"/>
<path d="M23.1963 22.8693C23.4958 22.8693 23.7781 22.687 23.891 22.3904C24.0912 21.8648 24.5952 21.5174 25.1576 21.5174H25.5875C26.1476 21.5174 26.6492 21.8643 26.8469 22.3883C26.9918 22.7721 27.4205 22.9662 27.8047 22.8212C28.1888 22.6763 28.3827 22.2475 28.2377 21.8634L26.1896 16.436C26.187 16.4292 26.1843 16.4223 26.1815 16.4155C26.047 16.0888 25.7321 15.878 25.3789 15.878C25.3786 15.878 25.3782 15.878 25.3779 15.878C25.0243 15.8784 24.7094 16.0902 24.5755 16.4173C24.5732 16.423 24.5709 16.4285 24.5689 16.4343L22.5019 21.8613C22.3559 22.2448 22.5483 22.6742 22.9319 22.8204C23.019 22.8537 23.1084 22.8693 23.1963 22.8693ZM24.9979 19.4845C25.13 19.1378 25.6207 19.1385 25.7517 19.4856C25.8512 19.7493 25.6564 20.031 25.3746 20.031C25.0923 20.031 24.8974 19.7483 24.9979 19.4845Z" fill="url(#paint8_linear_0_6467)"/>
<defs>
<linearGradient id="paint0_linear_0_6467" x1="18.5487" y1="-0.710134" x2="52.6794" y2="30.3709" gradientUnits="userSpaceOnUse">
<stop stop-color="#C4CAE4"/>
<stop offset="1" stop-color="#9CA9C0"/>
</linearGradient>
<linearGradient id="paint1_linear_0_6467" x1="18.5487" y1="-0.710134" x2="52.6794" y2="30.3709" gradientUnits="userSpaceOnUse">
<stop stop-color="#C4CAE4"/>
<stop offset="1" stop-color="#9CA9C0"/>
</linearGradient>
<linearGradient id="paint2_linear_0_6467" x1="18.5487" y1="-0.710134" x2="52.6794" y2="30.3709" gradientUnits="userSpaceOnUse">
<stop stop-color="#C4CAE4"/>
<stop offset="1" stop-color="#9CA9C0"/>
</linearGradient>
<linearGradient id="paint3_linear_0_6467" x1="18.5487" y1="-0.710134" x2="52.6794" y2="30.3709" gradientUnits="userSpaceOnUse">
<stop stop-color="#C4CAE4"/>
<stop offset="1" stop-color="#9CA9C0"/>
</linearGradient>
<linearGradient id="paint4_linear_0_6467" x1="18.5487" y1="-0.710134" x2="52.6794" y2="30.3709" gradientUnits="userSpaceOnUse">
<stop stop-color="#C4CAE4"/>
<stop offset="1" stop-color="#9CA9C0"/>
</linearGradient>
<linearGradient id="paint5_linear_0_6467" x1="18.5487" y1="-0.710134" x2="52.6794" y2="30.3709" gradientUnits="userSpaceOnUse">
<stop stop-color="#C4CAE4"/>
<stop offset="1" stop-color="#9CA9C0"/>
</linearGradient>
<linearGradient id="paint6_linear_0_6467" x1="18.5487" y1="-0.710134" x2="52.6794" y2="30.3709" gradientUnits="userSpaceOnUse">
<stop stop-color="#C4CAE4"/>
<stop offset="1" stop-color="#9CA9C0"/>
</linearGradient>
<linearGradient id="paint7_linear_0_6467" x1="18.5487" y1="-0.710134" x2="52.6794" y2="30.3709" gradientUnits="userSpaceOnUse">
<stop stop-color="#C4CAE4"/>
<stop offset="1" stop-color="#9CA9C0"/>
</linearGradient>
<linearGradient id="paint8_linear_0_6467" x1="18.5487" y1="-0.710134" x2="52.6794" y2="30.3709" gradientUnits="userSpaceOnUse">
<stop stop-color="#C4CAE4"/>
<stop offset="1" stop-color="#9CA9C0"/>
</linearGradient>
</defs>
</svg>
