<svg width="76" height="66" viewBox="0 0 76 66" fill="none" xmlns="http://www.w3.org/2000/svg">
<path d="M74.1545 35.6458C73.5457 35.6458 73.0521 36.1392 73.0521 36.7481C73.0521 39.5488 70.7817 41.8192 67.9811 41.8192H36.6132C36.0044 41.8192 35.5108 42.3126 35.5108 42.9216C35.5108 43.5305 36.0044 44.024 36.6132 44.024H71.6432C72.4213 44.024 73.0521 44.6547 73.0521 45.4328C73.0521 46.2109 72.4213 46.8417 71.6432 46.8417H19.4882C18.7101 46.8417 18.0793 46.2109 18.0793 45.4328C18.0793 44.6547 18.7101 44.024 19.4882 44.024H31.455C32.0638 44.024 32.5574 43.5305 32.5574 42.9216C32.5574 42.3126 32.0638 41.8192 31.455 41.8192H24.2048C12.0545 41.8192 2.20479 31.9694 2.20479 19.8192V4.04212C2.20479 3.02894 3.02894 2.20479 4.04212 2.20479H11.3179C11.9267 2.20479 12.4203 1.71136 12.4203 1.1024C12.4203 0.493432 11.9267 0 11.3179 0H4.04212C1.81322 0 0 1.81337 0 4.04212V51.0118C0 53.2406 1.81322 55.0539 4.04212 55.0539H30.3514C31.4245 55.0539 32.1864 56.0993 31.858 57.1209C31.6475 57.7753 31.0388 58.219 30.3514 58.219H29.8757C27.0036 58.219 24.6671 60.5555 24.6671 63.4277C24.6671 64.846 25.8211 66 27.2393 66H48.0174C49.4357 66 50.5897 64.846 50.5897 63.4277C50.5897 60.5556 48.2532 58.219 45.3811 58.219H44.9054C44.218 58.219 43.6092 57.7753 43.3988 57.1209C43.0703 56.0993 43.8323 55.0539 44.9054 55.0539H71.2148C73.4437 55.0539 75.2569 53.2406 75.2569 51.0118V36.7481C75.2569 36.1392 74.7633 35.6458 74.1545 35.6458ZM14.4656 44.024C15.2437 44.024 15.8745 44.6547 15.8745 45.4328C15.8745 46.2109 15.2437 46.8417 14.4656 46.8417H3.61366C2.83556 46.8417 2.20479 46.2109 2.20479 45.4328C2.20479 44.6547 2.83556 44.024 3.61366 44.024H14.4656ZM48.385 63.4277C48.385 63.6304 48.2201 63.7952 48.0176 63.7952H27.2393C27.0368 63.7952 26.8719 63.6304 26.8719 63.4277C26.8719 61.7714 28.2193 60.4238 29.8757 60.4238H32.3051C32.3062 60.4238 32.3076 60.4241 32.3087 60.4241C32.3099 60.4241 32.3111 60.4238 32.3124 60.4238H42.9445C42.9457 60.4238 42.9468 60.4241 42.9482 60.4241C42.9493 60.4241 42.9507 60.4238 42.9518 60.4238H45.3812C47.0375 60.4238 48.385 61.7714 48.385 63.4277ZM40.7715 56.1521C41.0999 57.1737 40.3379 58.219 39.2649 58.219H35.9923C34.9192 58.219 34.1572 57.1736 34.4857 56.152C34.6961 55.4977 35.3049 55.0539 35.9923 55.0539H39.2649C39.9523 55.0539 40.5611 55.4977 40.7715 56.1521ZM71.2148 52.8492H41.222C41.2162 52.8492 41.2104 52.849 41.2046 52.8492H34.0518C34.0463 52.849 34.0408 52.8492 34.0352 52.8492H4.04212C3.02894 52.8492 2.20479 52.025 2.20479 51.0118C2.20479 49.9264 3.08471 49.0465 4.17014 49.0465H71.0868C72.1722 49.0465 73.0521 49.9264 73.0521 51.0118C73.0521 52.025 72.228 52.8492 71.2148 52.8492Z" fill="url(#paint0_linear_0_6520)"/>
<path d="M71.2148 0H16.4624C15.8536 0 15.3601 0.493432 15.3601 1.1024C15.3601 1.71136 15.8536 2.20479 16.4624 2.20479H71.2148C72.228 2.20479 73.0521 3.02894 73.0521 4.04212V31.6036C73.0521 32.2126 73.5457 32.706 74.1545 32.706C74.7633 32.706 75.2569 32.2126 75.2569 31.6036V4.04212C75.2569 1.81322 73.4437 0 71.2148 0Z" fill="url(#paint1_linear_0_6520)"/>
<path d="M65.9233 14.0388C66.5321 14.0388 67.0257 13.5454 67.0257 12.9365V9.84974C67.0257 7.62099 65.2125 5.80763 62.9836 5.80763H12.2733C10.0444 5.80763 8.23122 7.62099 8.23122 9.84974V34.8374C8.23122 37.0661 10.0444 38.8795 12.2733 38.8795H62.9836C65.2125 38.8795 67.0257 37.0661 67.0257 34.8374V18.081C67.0257 17.472 66.5321 16.9786 65.9233 16.9786C65.3145 16.9786 64.8209 17.472 64.8209 18.081C64.8209 19.8263 63.406 21.2412 61.6607 21.2412H33.9538C30.3008 21.2412 27.3394 18.2798 27.3394 14.6268C27.3394 10.9738 30.3008 8.01242 33.9538 8.01242H62.9836C63.9967 8.01242 64.8209 8.83657 64.8209 9.84974V12.9365C64.8209 13.5454 65.3145 14.0388 65.9233 14.0388ZM10.436 34.8374V30.7953C10.436 26.7364 13.7264 23.446 17.7853 23.446H18.5203C22.1733 23.446 25.1346 26.4073 25.1346 30.0603C25.1346 33.7134 22.1733 36.6747 18.5203 36.6747H12.2733C11.2602 36.6747 10.436 35.8506 10.436 34.8374ZM53.4295 23.446C59.7208 23.446 64.8209 28.5461 64.8209 34.8374C64.8209 35.8506 63.9967 36.6747 62.9836 36.6747H33.9538C30.3008 36.6747 27.3394 33.7134 27.3394 30.0603C27.3394 26.4073 30.3008 23.446 33.9538 23.446H53.4295ZM25.1346 14.6268C25.1346 18.2798 22.1733 21.2412 18.5203 21.2412H17.7853C13.7264 21.2412 10.436 17.9508 10.436 13.8919V9.84974C10.436 8.83657 11.2602 8.01242 12.2733 8.01242H18.5203C22.1733 8.01242 25.1346 10.9738 25.1346 14.6268Z" fill="url(#paint2_linear_0_6520)"/>
<path d="M31.749 13.5244H31.754L48.0695 13.4509C48.6783 13.4481 49.1697 12.9523 49.1669 12.3435C49.1641 11.7365 48.6711 11.2461 48.0645 11.2461C48.0629 11.2461 48.0611 11.2461 48.0595 11.2461L31.744 11.3196C31.1352 11.3224 30.6438 11.8182 30.6466 12.427C30.6494 13.0341 31.1424 13.5244 31.749 13.5244Z" fill="url(#paint3_linear_0_6520)"/>
<path d="M31.749 18.0075H60.4113C61.0201 18.0075 61.5137 17.514 61.5137 16.9051C61.5137 16.2961 61.0201 15.8027 60.4113 15.8027H31.749C31.1402 15.8027 30.6466 16.2961 30.6466 16.9051C30.6466 17.514 31.1402 18.0075 31.749 18.0075Z" fill="url(#paint4_linear_0_6520)"/>
<path d="M60.4113 11.2461H52.474C51.8652 11.2461 51.3717 11.7395 51.3717 12.3485C51.3717 12.9575 51.8652 13.4509 52.474 13.4509H60.4113C61.0201 13.4509 61.5137 12.9575 61.5137 12.3485C61.5137 11.7395 61.0201 11.2461 60.4113 11.2461Z" fill="url(#paint5_linear_0_6520)"/>
<path d="M31.7488 28.9579H31.7568L42.1928 28.8844C42.8016 28.8802 43.2917 28.3831 43.2874 27.7743C43.2831 27.1681 42.7904 26.6797 42.1852 26.6797C42.1825 26.6797 42.1799 26.6797 42.1772 26.6797L31.7412 26.7531C31.1324 26.7574 30.6423 27.2545 30.6466 27.8633C30.6508 28.4695 31.1435 28.9579 31.7488 28.9579Z" fill="url(#paint6_linear_0_6520)"/>
<path d="M56.0017 31.2362H31.749C31.1402 31.2362 30.6466 31.7297 30.6466 32.3386C30.6466 32.9476 31.1402 33.441 31.749 33.441H56.0017C56.6105 33.441 57.1041 32.9476 57.1041 32.3386C57.1041 31.7297 56.6105 31.2362 56.0017 31.2362Z" fill="url(#paint7_linear_0_6520)"/>
<path d="M46.5946 28.8844H60.4113C61.0201 28.8844 61.5137 28.391 61.5137 27.7821C61.5137 27.1731 61.0201 26.6797 60.4113 26.6797H46.5946C45.9858 26.6797 45.4922 27.1731 45.4922 27.7821C45.4922 28.391 45.9858 28.8844 46.5946 28.8844Z" fill="url(#paint8_linear_0_6520)"/>
<defs>
<linearGradient id="paint0_linear_0_6520" x1="14.5383" y1="-51.2368" x2="82.6028" y2="-42.6163" gradientUnits="userSpaceOnUse">
<stop stop-color="#F93C3C"/>
<stop offset="1" stop-color="#CD0973"/>
</linearGradient>
<linearGradient id="paint1_linear_0_6520" x1="14.5383" y1="-51.2368" x2="82.6028" y2="-42.6163" gradientUnits="userSpaceOnUse">
<stop stop-color="#F93C3C"/>
<stop offset="1" stop-color="#CD0973"/>
</linearGradient>
<linearGradient id="paint2_linear_0_6520" x1="14.5383" y1="-51.2368" x2="82.6028" y2="-42.6163" gradientUnits="userSpaceOnUse">
<stop stop-color="#F93C3C"/>
<stop offset="1" stop-color="#CD0973"/>
</linearGradient>
<linearGradient id="paint3_linear_0_6520" x1="14.5383" y1="-51.2368" x2="82.6028" y2="-42.6163" gradientUnits="userSpaceOnUse">
<stop stop-color="#F93C3C"/>
<stop offset="1" stop-color="#CD0973"/>
</linearGradient>
<linearGradient id="paint4_linear_0_6520" x1="14.5383" y1="-51.2368" x2="82.6028" y2="-42.6163" gradientUnits="userSpaceOnUse">
<stop stop-color="#F93C3C"/>
<stop offset="1" stop-color="#CD0973"/>
</linearGradient>
<linearGradient id="paint5_linear_0_6520" x1="14.5383" y1="-51.2368" x2="82.6028" y2="-42.6163" gradientUnits="userSpaceOnUse">
<stop stop-color="#F93C3C"/>
<stop offset="1" stop-color="#CD0973"/>
</linearGradient>
<linearGradient id="paint6_linear_0_6520" x1="14.5383" y1="-51.2368" x2="82.6028" y2="-42.6163" gradientUnits="userSpaceOnUse">
<stop stop-color="#F93C3C"/>
<stop offset="1" stop-color="#CD0973"/>
</linearGradient>
<linearGradient id="paint7_linear_0_6520" x1="14.5383" y1="-51.2368" x2="82.6028" y2="-42.6163" gradientUnits="userSpaceOnUse">
<stop stop-color="#F93C3C"/>
<stop offset="1" stop-color="#CD0973"/>
</linearGradient>
<linearGradient id="paint8_linear_0_6520" x1="14.5383" y1="-51.2368" x2="82.6028" y2="-42.6163" gradientUnits="userSpaceOnUse">
<stop stop-color="#F93C3C"/>
<stop offset="1" stop-color="#CD0973"/>
</linearGradient>
</defs>
</svg>
