<svg width="51" height="44" viewBox="0 0 51 44" fill="none" xmlns="http://www.w3.org/2000/svg">
<path d="M2.9099 5.45045C2.9099 6.67997 3.91288 7.68018 5.14567 7.68018C6.37847 7.68018 7.38135 6.67997 7.38135 5.45045C7.38135 4.22093 6.37847 3.22072 5.14567 3.22072C3.91288 3.22072 2.9099 4.22093 2.9099 5.45045ZM5.89486 5.45045C5.89486 5.86032 5.55872 6.19369 5.14558 6.19369C4.73243 6.19369 4.39639 5.86032 4.39639 5.45045C4.39639 5.04058 4.73253 4.70721 5.14567 4.70721C5.55882 4.70721 5.89486 5.04058 5.89486 5.45045Z" fill="url(#paint0_linear_0_6466)"/>
<path d="M13.8483 5.45045C13.8483 4.22093 12.8453 3.22072 11.6125 3.22072C10.3798 3.22072 9.37687 4.22093 9.37687 5.45045C9.37687 6.67997 10.3799 7.68018 11.6126 7.68018C12.8454 7.68018 13.8483 6.67997 13.8483 5.45045ZM10.8634 5.45045C10.8634 5.04058 11.1995 4.70721 11.6126 4.70721C12.0258 4.70721 12.3619 5.04058 12.3619 5.45045C12.3619 5.86032 12.0258 6.19369 11.6126 6.19369C11.1995 6.19369 10.8634 5.86032 10.8634 5.45045Z" fill="url(#paint1_linear_0_6466)"/>
<path d="M20.1299 5.45045C20.1299 4.22093 19.1269 3.22072 17.8941 3.22072C16.6613 3.22072 15.6584 4.22093 15.6584 5.45045C15.6584 6.67997 16.6613 7.68018 17.8941 7.68018C19.1269 7.68018 20.1299 6.67997 20.1299 5.45045ZM17.1448 5.45045C17.1448 5.04058 17.481 4.70721 17.8941 4.70721C18.3073 4.70721 18.6434 5.04058 18.6434 5.45045C18.6434 5.86032 18.3073 6.19369 17.8941 6.19369C17.481 6.19369 17.1448 5.86032 17.1448 5.45045Z" fill="url(#paint2_linear_0_6466)"/>
<path d="M45.4678 7.68018C46.7004 7.68018 47.7035 6.67997 47.7035 5.45045C47.7035 4.22093 46.7005 3.22072 45.4678 3.22072H24.5728C23.34 3.22072 22.3371 4.22093 22.3371 5.45045C22.3371 6.67997 23.34 7.68018 24.5728 7.68018H45.4678ZM23.8235 5.45045C23.8235 5.04058 24.1597 4.70721 24.5728 4.70721H45.4678C45.8809 4.70721 46.217 5.04058 46.217 5.45045C46.217 5.86032 45.8809 6.19369 45.4678 6.19369H24.5728C24.1597 6.19369 23.8235 5.86032 23.8235 5.45045Z" fill="url(#paint3_linear_0_6466)"/>
<path d="M48.0135 0H9.21622C8.80575 0 8.47297 0.332775 8.47297 0.743243C8.47297 1.15371 8.80575 1.48649 9.21622 1.48649H48.0135C48.6966 1.48649 49.2523 2.04214 49.2523 2.72523C49.2523 6.25537 46.3905 9.11712 42.8604 9.11712H7.87838C4.34824 9.11712 1.48649 6.25537 1.48649 2.72523C1.48649 2.04214 2.04214 1.48649 2.72523 1.48649H5.74775C6.15822 1.48649 6.49099 1.15371 6.49099 0.743243C6.49099 0.332775 6.15822 0 5.74775 0H2.72523C1.22249 0 0 1.22249 0 2.72523V41.2748C0 42.7775 1.22249 44 2.72523 44H48.0135C49.5163 44 50.7387 42.7775 50.7387 41.2748V36.4685C50.7387 36.058 50.4061 35.7252 49.9955 35.7252C49.5849 35.7252 49.2523 36.058 49.2523 36.4685V41.2748C49.2523 41.9579 48.6966 42.5135 48.0135 42.5135H2.72523C2.04214 42.5135 1.48649 41.9579 1.48649 41.2748V32.6036C1.48649 20.4534 11.3362 10.6036 23.4865 10.6036H27.2522C39.4025 10.6036 49.2523 20.4533 49.2523 32.6036V33C49.2523 33.4105 49.5849 33.7432 49.9955 33.7432C50.4061 33.7432 50.7387 33.4105 50.7387 33V2.72523C50.7387 1.22249 49.5162 0 48.0135 0Z" fill="url(#paint4_linear_0_6466)"/>
<path d="M37.0135 18.2838H31.3153C30.9047 18.2838 30.5721 18.6166 30.5721 19.027C30.5721 19.4375 30.9047 19.7703 31.3153 19.7703H37.0135C37.9697 19.7703 38.7477 18.9922 38.7477 18.036V14.0721C38.7477 13.1159 37.9697 12.3378 37.0135 12.3378H13.8243C12.8681 12.3378 12.0901 13.1159 12.0901 14.0721V18.036C12.0901 18.9922 12.8681 19.7703 13.8243 19.7703H27.8468C28.2574 19.7703 28.5901 19.4375 28.5901 19.027C28.5901 18.6166 28.2574 18.2838 27.8468 18.2838H13.8243C13.6878 18.2838 13.5766 18.1726 13.5766 18.036V14.0721C13.5766 13.9355 13.6878 13.8243 13.8243 13.8243H37.0135C37.1502 13.8243 37.2613 13.9355 37.2613 14.0721V18.036C37.2613 18.1726 37.1502 18.2838 37.0135 18.2838Z" fill="url(#paint5_linear_0_6466)"/>
<path d="M25.3694 21.5045C22.6646 21.5045 20.464 23.7051 20.464 26.4099C20.464 29.1147 22.6646 31.3153 25.3694 31.3153C28.0742 31.3153 30.2748 29.1147 30.2748 26.4099C30.2748 23.7051 28.0742 21.5045 25.3694 21.5045ZM25.3694 29.8288C23.4842 29.8288 21.9505 28.2951 21.9505 26.4099C21.9505 24.5247 23.4842 22.991 25.3694 22.991C27.2545 22.991 28.7883 24.5247 28.7883 26.4099C28.7883 28.2951 27.2545 29.8288 25.3694 29.8288Z" fill="url(#paint6_linear_0_6466)"/>
<path d="M39.1441 21.5045C36.4393 21.5045 34.2387 23.7051 34.2387 26.4099C34.2387 29.1147 36.4393 31.3153 39.1441 31.3153C41.849 31.3153 44.0495 29.1147 44.0495 26.4099C44.0495 23.7051 41.849 21.5045 39.1441 21.5045ZM39.1441 29.8288C37.259 29.8288 35.7252 28.2951 35.7252 26.4099C35.7252 24.5247 37.259 22.991 39.1441 22.991C41.0293 22.991 42.5631 24.5247 42.5631 26.4099C42.5631 28.2951 41.0293 29.8288 39.1441 29.8288Z" fill="url(#paint7_linear_0_6466)"/>
<path d="M11.5946 21.5045C8.88978 21.5045 6.68919 23.7051 6.68919 26.4099C6.68919 29.1147 8.88978 31.3153 11.5946 31.3153C12.2428 31.3153 12.8729 31.1906 13.4676 30.9449C13.8469 30.788 14.0273 30.3535 13.8705 29.9741C13.7136 29.5947 13.2791 29.4143 12.8997 29.5712C12.486 29.7421 12.0469 29.8288 11.5946 29.8288C9.70943 29.8288 8.17568 28.2951 8.17568 26.4099C8.17568 24.5247 9.70943 22.991 11.5946 22.991C13.4798 22.991 15.0135 24.5247 15.0135 26.4099C15.0135 26.7714 14.9575 27.1271 14.8471 27.467C14.7204 27.8574 14.934 28.2766 15.3245 28.4035C15.715 28.5303 16.1342 28.3165 16.261 27.9261C16.4196 27.4377 16.5 26.9275 16.5 26.4099C16.5 23.7051 14.2994 21.5045 11.5946 21.5045Z" fill="url(#paint8_linear_0_6466)"/>
<path d="M15.5586 32.8018H8.62162C8.21115 32.8018 7.87838 33.1346 7.87838 33.545C7.87838 33.9555 8.21115 34.2883 8.62162 34.2883H15.5586C15.969 34.2883 16.3018 33.9555 16.3018 33.545C16.3018 33.1346 15.969 32.8018 15.5586 32.8018Z" fill="url(#paint9_linear_0_6466)"/>
<path d="M15.5586 35.7748H7.63063C7.22016 35.7748 6.88739 36.1075 6.88739 36.518C6.88739 36.9285 7.22016 37.2613 7.63063 37.2613H15.5586C15.969 37.2613 16.3018 36.9285 16.3018 36.518C16.3018 36.1075 15.969 35.7748 15.5586 35.7748Z" fill="url(#paint10_linear_0_6466)"/>
<path d="M15.5586 38.7477H7.63063C7.22016 38.7477 6.88739 39.0805 6.88739 39.491C6.88739 39.9015 7.22016 40.2342 7.63063 40.2342H15.5586C15.969 40.2342 16.3018 39.9015 16.3018 39.491C16.3018 39.0805 15.969 38.7477 15.5586 38.7477Z" fill="url(#paint11_linear_0_6466)"/>
<path d="M29.3333 32.8018H22.3964C21.9859 32.8018 21.6532 33.1346 21.6532 33.545C21.6532 33.9555 21.9859 34.2883 22.3964 34.2883H29.3333C29.7439 34.2883 30.0766 33.9555 30.0766 33.545C30.0766 33.1346 29.7439 32.8018 29.3333 32.8018Z" fill="url(#paint12_linear_0_6466)"/>
<path d="M29.3333 35.7748H21.4054C20.9949 35.7748 20.6622 36.1075 20.6622 36.518C20.6622 36.9285 20.9949 37.2613 21.4054 37.2613H29.3333C29.7439 37.2613 30.0766 36.9285 30.0766 36.518C30.0766 36.1075 29.7439 35.7748 29.3333 35.7748Z" fill="url(#paint13_linear_0_6466)"/>
<path d="M29.3333 38.7477H21.4054C20.9949 38.7477 20.6622 39.0805 20.6622 39.491C20.6622 39.9015 20.9949 40.2342 21.4054 40.2342H29.3333C29.7439 40.2342 30.0766 39.9015 30.0766 39.491C30.0766 39.0805 29.7439 38.7477 29.3333 38.7477Z" fill="url(#paint14_linear_0_6466)"/>
<path d="M43.1081 32.8018H36.1712C35.7606 32.8018 35.4279 33.1346 35.4279 33.545C35.4279 33.9555 35.7606 34.2883 36.1712 34.2883H43.1081C43.5187 34.2883 43.8514 33.9555 43.8514 33.545C43.8514 33.1346 43.5187 32.8018 43.1081 32.8018Z" fill="url(#paint15_linear_0_6466)"/>
<path d="M43.1081 35.7748H35.1802C34.7696 35.7748 34.4369 36.1075 34.4369 36.518C34.4369 36.9285 34.7696 37.2613 35.1802 37.2613H43.1081C43.5187 37.2613 43.8514 36.9285 43.8514 36.518C43.8514 36.1075 43.5187 35.7748 43.1081 35.7748Z" fill="url(#paint16_linear_0_6466)"/>
<path d="M43.1081 38.7477H35.1802C34.7696 38.7477 34.4369 39.0805 34.4369 39.491C34.4369 39.9015 34.7696 40.2342 35.1802 40.2342H43.1081C43.5187 40.2342 43.8514 39.9015 43.8514 39.491C43.8514 39.0805 43.5187 38.7477 43.1081 38.7477Z" fill="url(#paint17_linear_0_6466)"/>
<defs>
<linearGradient id="paint0_linear_0_6466" x1="18.5487" y1="-0.710134" x2="52.6794" y2="30.3709" gradientUnits="userSpaceOnUse">
<stop stop-color="#A068F8"/>
<stop offset="0.6891" stop-color="#3F55C3"/>
<stop offset="1" stop-color="#184EAE"/>
</linearGradient>
<linearGradient id="paint1_linear_0_6466" x1="18.5487" y1="-0.710134" x2="52.6794" y2="30.3709" gradientUnits="userSpaceOnUse">
<stop stop-color="#A068F8"/>
<stop offset="0.6891" stop-color="#3F55C3"/>
<stop offset="1" stop-color="#184EAE"/>
</linearGradient>
<linearGradient id="paint2_linear_0_6466" x1="18.5487" y1="-0.710134" x2="52.6794" y2="30.3709" gradientUnits="userSpaceOnUse">
<stop stop-color="#A068F8"/>
<stop offset="0.6891" stop-color="#3F55C3"/>
<stop offset="1" stop-color="#184EAE"/>
</linearGradient>
<linearGradient id="paint3_linear_0_6466" x1="18.5487" y1="-0.710134" x2="52.6794" y2="30.3709" gradientUnits="userSpaceOnUse">
<stop stop-color="#A068F8"/>
<stop offset="0.6891" stop-color="#3F55C3"/>
<stop offset="1" stop-color="#184EAE"/>
</linearGradient>
<linearGradient id="paint4_linear_0_6466" x1="18.5487" y1="-0.710134" x2="52.6794" y2="30.3709" gradientUnits="userSpaceOnUse">
<stop stop-color="#A068F8"/>
<stop offset="0.6891" stop-color="#3F55C3"/>
<stop offset="1" stop-color="#184EAE"/>
</linearGradient>
<linearGradient id="paint5_linear_0_6466" x1="18.5487" y1="-0.710134" x2="52.6794" y2="30.3709" gradientUnits="userSpaceOnUse">
<stop stop-color="#A068F8"/>
<stop offset="0.6891" stop-color="#3F55C3"/>
<stop offset="1" stop-color="#184EAE"/>
</linearGradient>
<linearGradient id="paint6_linear_0_6466" x1="18.5487" y1="-0.710134" x2="52.6794" y2="30.3709" gradientUnits="userSpaceOnUse">
<stop stop-color="#A068F8"/>
<stop offset="0.6891" stop-color="#3F55C3"/>
<stop offset="1" stop-color="#184EAE"/>
</linearGradient>
<linearGradient id="paint7_linear_0_6466" x1="18.5487" y1="-0.710134" x2="52.6794" y2="30.3709" gradientUnits="userSpaceOnUse">
<stop stop-color="#A068F8"/>
<stop offset="0.6891" stop-color="#3F55C3"/>
<stop offset="1" stop-color="#184EAE"/>
</linearGradient>
<linearGradient id="paint8_linear_0_6466" x1="18.5487" y1="-0.710134" x2="52.6794" y2="30.3709" gradientUnits="userSpaceOnUse">
<stop stop-color="#A068F8"/>
<stop offset="0.6891" stop-color="#3F55C3"/>
<stop offset="1" stop-color="#184EAE"/>
</linearGradient>
<linearGradient id="paint9_linear_0_6466" x1="18.5487" y1="-0.710134" x2="52.6794" y2="30.3709" gradientUnits="userSpaceOnUse">
<stop stop-color="#A068F8"/>
<stop offset="0.6891" stop-color="#3F55C3"/>
<stop offset="1" stop-color="#184EAE"/>
</linearGradient>
<linearGradient id="paint10_linear_0_6466" x1="18.5487" y1="-0.710134" x2="52.6794" y2="30.3709" gradientUnits="userSpaceOnUse">
<stop stop-color="#A068F8"/>
<stop offset="0.6891" stop-color="#3F55C3"/>
<stop offset="1" stop-color="#184EAE"/>
</linearGradient>
<linearGradient id="paint11_linear_0_6466" x1="18.5487" y1="-0.710134" x2="52.6794" y2="30.3709" gradientUnits="userSpaceOnUse">
<stop stop-color="#A068F8"/>
<stop offset="0.6891" stop-color="#3F55C3"/>
<stop offset="1" stop-color="#184EAE"/>
</linearGradient>
<linearGradient id="paint12_linear_0_6466" x1="18.5487" y1="-0.710134" x2="52.6794" y2="30.3709" gradientUnits="userSpaceOnUse">
<stop stop-color="#A068F8"/>
<stop offset="0.6891" stop-color="#3F55C3"/>
<stop offset="1" stop-color="#184EAE"/>
</linearGradient>
<linearGradient id="paint13_linear_0_6466" x1="18.5487" y1="-0.710134" x2="52.6794" y2="30.3709" gradientUnits="userSpaceOnUse">
<stop stop-color="#A068F8"/>
<stop offset="0.6891" stop-color="#3F55C3"/>
<stop offset="1" stop-color="#184EAE"/>
</linearGradient>
<linearGradient id="paint14_linear_0_6466" x1="18.5487" y1="-0.710134" x2="52.6794" y2="30.3709" gradientUnits="userSpaceOnUse">
<stop stop-color="#A068F8"/>
<stop offset="0.6891" stop-color="#3F55C3"/>
<stop offset="1" stop-color="#184EAE"/>
</linearGradient>
<linearGradient id="paint15_linear_0_6466" x1="18.5487" y1="-0.710134" x2="52.6794" y2="30.3709" gradientUnits="userSpaceOnUse">
<stop stop-color="#A068F8"/>
<stop offset="0.6891" stop-color="#3F55C3"/>
<stop offset="1" stop-color="#184EAE"/>
</linearGradient>
<linearGradient id="paint16_linear_0_6466" x1="18.5487" y1="-0.710134" x2="52.6794" y2="30.3709" gradientUnits="userSpaceOnUse">
<stop stop-color="#A068F8"/>
<stop offset="0.6891" stop-color="#3F55C3"/>
<stop offset="1" stop-color="#184EAE"/>
</linearGradient>
<linearGradient id="paint17_linear_0_6466" x1="18.5487" y1="-0.710134" x2="52.6794" y2="30.3709" gradientUnits="userSpaceOnUse">
<stop stop-color="#A068F8"/>
<stop offset="0.6891" stop-color="#3F55C3"/>
<stop offset="1" stop-color="#184EAE"/>
</linearGradient>
</defs>
</svg>
