<svg width="73" height="58" viewBox="0 0 73 58" fill="none" xmlns="http://www.w3.org/2000/svg">
<path d="M70.0997 51.0331C69.9822 51.0331 69.887 50.9379 69.887 50.8205V40.543C69.887 39.9557 69.4111 39.4798 68.8238 39.4798C68.2365 39.4798 67.7607 39.9557 67.7607 40.543V49.6864C67.7607 50.4302 67.1577 51.0331 66.4139 51.0331C65.6702 51.0331 65.0672 50.4302 65.0672 49.6864V49.2611C65.0672 47.8933 63.9543 46.7804 62.5865 46.7804H54.2227C52.8549 46.7804 51.7419 47.8933 51.7419 49.2611V49.6864C51.7419 50.4302 51.139 51.0331 50.3952 51.0331C49.6514 51.0331 49.0485 50.4302 49.0485 49.6864V49.2611C49.0485 47.8933 47.9356 46.7804 46.5677 46.7804H38.204C36.8361 46.7804 35.7232 47.8933 35.7232 49.2611C35.7232 50.2398 34.9298 51.0331 33.9512 51.0331H20.2715C11.7378 51.0331 4.8198 44.1152 4.8198 35.5814V2.48078C4.8198 2.28529 4.97871 2.12638 5.17419 2.12638H10.6319C11.2192 2.12638 11.6951 1.6505 11.6951 1.06319C11.6951 0.475884 11.2192 0 10.6319 0H5.17419C3.80636 0 2.69341 1.11295 2.69341 2.48078V50.8205C2.69341 50.9379 2.59821 51.0331 2.48078 51.0331C1.11295 51.0331 0 52.1461 0 53.5139V55.5192C0 56.8871 1.11295 58 2.48078 58H70.0997C71.4675 58 72.5804 56.8871 72.5804 55.5192V53.5139C72.5804 52.1459 71.4675 51.0331 70.0997 51.0331ZM53.8683 49.2611C53.8683 49.0657 54.0272 48.9067 54.2227 48.9067H62.5865C62.7819 48.9067 62.9409 49.0657 62.9409 49.2611C62.9409 50.2398 62.1475 51.0331 61.1689 51.0331H55.6403C54.6616 51.0331 53.8683 50.2398 53.8683 49.2611ZM70.4541 55.5192C70.4541 55.7147 70.2952 55.8736 70.0997 55.8736H2.48078C2.28529 55.8736 2.12638 55.7147 2.12638 55.5192V53.5139C2.12638 53.3184 2.28529 53.1595 2.48078 53.1595H40.2595C40.8468 53.1595 41.3227 52.6836 41.3227 52.0963C41.3227 51.509 40.8468 51.0331 40.2595 51.0331H39.6216C38.6429 51.0331 37.8496 50.2398 37.8496 49.2611C37.8496 49.0657 38.0085 48.9067 38.204 48.9067H46.5677C46.7632 48.9067 46.9221 49.0657 46.9221 49.2611V49.332C46.9221 50.2715 46.1605 51.0331 45.221 51.0331C44.6337 51.0331 44.1578 51.509 44.1578 52.0963C44.1578 52.6836 44.6337 53.1595 45.221 53.1595H70.0997C70.2952 53.1595 70.4541 53.3184 70.4541 53.5139V55.5192Z" fill="url(#paint0_linear_0_6523)"/>
<path d="M57.4831 7.30057C57.4831 5.93274 56.3702 4.8198 55.0024 4.8198H17.5781C16.2102 4.8198 15.0973 5.93274 15.0973 7.30057V8.71816C15.0973 10.086 16.2102 11.1989 17.5781 11.1989H29.4858C30.0731 11.1989 30.549 10.7231 30.549 10.1357C30.549 9.54844 30.0731 9.07256 29.4858 9.07256H17.5781C17.3826 9.07256 17.2237 8.91364 17.2237 8.71816V7.30057C17.2237 7.10509 17.3826 6.94618 17.5781 6.94618H55.0024C55.1978 6.94618 55.3568 7.10509 55.3568 7.30057V8.71816C55.3568 8.91364 55.1978 9.07256 55.0024 9.07256H34.4474C33.8601 9.07256 33.3842 9.54844 33.3842 10.1357C33.3842 10.7231 33.8601 11.1989 34.4474 11.1989H55.0024C56.3702 11.1989 57.4831 10.086 57.4831 8.71816V7.30057Z" fill="url(#paint1_linear_0_6523)"/>
<path d="M15.5935 2.12638H67.4062C67.6017 2.12638 67.7607 2.28529 67.7607 2.48078V35.5814C67.7607 36.1687 68.2365 36.6446 68.8238 36.6446C69.4111 36.6446 69.887 36.1687 69.887 35.5814V2.48078C69.887 1.11295 68.7741 0 67.4062 0H15.5935C15.0061 0 14.5303 0.475884 14.5303 1.06319C14.5303 1.6505 15.0061 2.12638 15.5935 2.12638Z" fill="url(#paint2_linear_0_6523)"/>
<path d="M53.3448 23.2208C54.0049 23.2208 54.6416 23.4151 55.1859 23.7828C55.6726 24.1113 56.3335 23.9836 56.6621 23.4969C56.9907 23.0103 56.8628 22.3494 56.3761 22.0208C55.4791 21.4148 54.4306 21.0944 53.3446 21.0944C50.3556 21.0944 47.9241 23.526 47.9241 26.515C47.9241 29.5039 50.3556 31.9357 53.3446 31.9357C54.6671 31.9072 55.9758 31.4381 56.9043 30.3257C57.2817 29.8758 57.2229 29.2053 56.7731 28.8279C56.3231 28.4505 55.6526 28.5092 55.2752 28.9592C54.8932 29.409 54.2639 29.7882 53.3446 29.8094C51.5283 29.8094 50.0504 28.3316 50.0504 26.5151C50.0504 24.6986 51.5283 23.2208 53.3448 23.2208Z" fill="url(#paint3_linear_0_6523)"/>
<path d="M62.0554 26.056C62.4315 26.056 62.7941 26.1665 63.1038 26.3758C63.5905 26.7046 64.2514 26.5765 64.58 26.0901C64.9087 25.6035 64.7808 24.9426 64.2943 24.614C63.6317 24.1662 62.8574 23.9296 62.0554 23.9296C59.8481 23.9296 58.0523 25.7254 58.0523 27.9326C58.0523 30.1399 59.8481 31.9357 62.0554 31.9357C62.9826 31.9174 64.0352 31.563 64.7223 30.7255C65.0995 30.2754 65.0404 29.6049 64.5903 29.2278C64.1402 28.8504 63.4698 28.9096 63.0926 29.3598C62.8723 29.6008 62.6532 29.7524 62.0555 29.8094C61.0207 29.8094 60.1788 28.9675 60.1788 27.9327C60.1788 26.8979 61.0205 26.056 62.0554 26.056Z" fill="url(#paint4_linear_0_6523)"/>
<path d="M10.9371 22.0072C10.9338 22.0151 10.9306 22.023 10.9276 22.0311L7.65508 30.6233C7.44599 31.172 7.72157 31.7863 8.27017 31.9954C8.81864 32.2046 9.43316 31.929 9.64225 31.3803C9.97598 30.504 10.8162 29.925 11.7538 29.925H12.6458C13.4527 29.925 14.1753 30.4246 14.4602 31.1796C14.5098 31.3109 14.5711 31.438 14.6535 31.5517C14.8959 31.8859 15.2448 32.2044 15.9049 31.9963C16.4542 31.7891 16.7315 31.1757 16.5241 30.6262L13.2813 22.0337C13.2778 22.0242 13.274 22.0144 13.27 22.0049C13.0749 21.5301 12.6173 21.2235 12.104 21.2235H12.1029C11.5892 21.2241 11.1316 21.5316 10.9371 22.0072ZM12.8004 26.7815C12.9859 27.2731 12.6226 27.7986 12.0971 27.7986C11.5706 27.7986 11.2072 27.2713 11.3946 26.7793C11.6409 26.1327 12.5561 26.1341 12.8004 26.7815Z" fill="url(#paint5_linear_0_6523)"/>
<path d="M23.9602 23.5043C23.2386 23.5045 22.2879 23.991 21.5711 23.9079C21.4233 23.8908 21.2731 23.8819 21.1208 23.8819C18.9689 23.8819 17.2183 25.6327 17.2183 27.7846C17.2183 29.9365 18.969 31.6872 21.1208 31.6872C21.2731 31.6872 21.4234 31.6784 21.5711 31.6612C22.2878 31.5781 23.2387 32.0647 23.9602 32.0647C24.5475 32.0647 25.0234 31.5888 25.0234 31.0015V24.5675C25.0234 23.9802 24.5475 23.5043 23.9602 23.5043ZM21.1208 29.5609C20.1415 29.5609 19.3447 28.7641 19.3447 27.7847C19.3447 26.8053 20.1415 26.0085 21.1208 26.0085C22.1002 26.0085 22.897 26.8053 22.897 27.7847C22.897 28.7641 22.1002 29.5609 21.1208 29.5609Z" fill="url(#paint6_linear_0_6523)"/>
<path d="M32.1825 21.0944H29.6511C29.0638 21.0944 28.5879 21.5703 28.5879 22.1576V30.8726C28.5879 31.1554 28.7006 31.4265 28.9011 31.6261C29.1003 31.8244 29.37 31.9358 29.6511 31.9358H29.6558C29.6558 31.9358 31.9831 31.9255 32.6245 31.9255C34.5043 31.9255 36.0335 30.3962 36.0335 28.5165C36.0335 28.0759 35.9494 27.6547 35.7965 27.2679C35.4246 26.3277 35.2509 25.1743 35.2509 24.1632C35.251 22.471 33.8746 21.0944 32.1825 21.0944ZM32.1825 23.2208C32.7019 23.2208 33.1247 23.6434 33.1247 24.1629C33.1247 24.6823 32.7021 25.105 32.1825 25.105C32.1055 25.105 31.9016 25.1056 31.657 25.1062C31.1362 25.1076 30.7143 24.6856 30.7143 24.1648C30.7143 23.6434 31.137 23.2208 31.6584 23.2208H32.1825ZM32.6247 29.7991C32.4854 29.7991 32.2669 29.7996 32.01 29.8003C31.2954 29.8024 30.7143 29.2241 30.7143 28.5095C30.7143 27.8035 31.2821 27.234 31.9881 27.2338C32.2807 27.2337 32.5326 27.2338 32.6247 27.2338C33.3319 27.2338 33.9073 27.8092 33.9073 28.5165C33.9073 29.2237 33.3319 29.7991 32.6247 29.7991Z" fill="url(#paint7_linear_0_6523)"/>
<path d="M38.5304 21.0944C37.9431 21.0944 37.4672 21.5703 37.4672 22.1576V30.8726C37.4672 31.4599 37.9431 31.9358 38.5304 31.9358C39.1479 31.9358 39.8911 31.6682 40.4902 31.8178C40.7984 31.8948 41.1208 31.9358 41.4526 31.9358C43.6502 31.9358 45.438 30.148 45.438 27.9504C45.438 25.7529 43.6502 23.965 41.4526 23.965C40.575 23.965 39.5936 23.3697 39.5936 22.4921V22.1577C39.5936 21.5704 39.1176 21.0944 38.5304 21.0944ZM41.4526 26.0912C42.4777 26.0912 43.3117 26.9252 43.3117 27.9503C43.3117 28.9753 42.4777 29.8093 41.4526 29.8093C40.4276 29.8093 39.5936 28.9753 39.5936 27.9503C39.5936 26.9252 40.4276 26.0912 41.4526 26.0912Z" fill="url(#paint8_linear_0_6523)"/>
<defs>
<linearGradient id="paint0_linear_0_6523" x1="26.5334" y1="-0.936085" x2="71.718" y2="43.7162" gradientUnits="userSpaceOnUse">
<stop stop-color="#A068F8"/>
<stop offset="0.6891" stop-color="#3F55C3"/>
<stop offset="1" stop-color="#184EAE"/>
</linearGradient>
<linearGradient id="paint1_linear_0_6523" x1="26.5334" y1="-0.936085" x2="71.718" y2="43.7162" gradientUnits="userSpaceOnUse">
<stop stop-color="#A068F8"/>
<stop offset="0.6891" stop-color="#3F55C3"/>
<stop offset="1" stop-color="#184EAE"/>
</linearGradient>
<linearGradient id="paint2_linear_0_6523" x1="26.5334" y1="-0.936085" x2="71.718" y2="43.7162" gradientUnits="userSpaceOnUse">
<stop stop-color="#A068F8"/>
<stop offset="0.6891" stop-color="#3F55C3"/>
<stop offset="1" stop-color="#184EAE"/>
</linearGradient>
<linearGradient id="paint3_linear_0_6523" x1="26.5334" y1="-0.936085" x2="71.718" y2="43.7162" gradientUnits="userSpaceOnUse">
<stop stop-color="#A068F8"/>
<stop offset="0.6891" stop-color="#3F55C3"/>
<stop offset="1" stop-color="#184EAE"/>
</linearGradient>
<linearGradient id="paint4_linear_0_6523" x1="26.5334" y1="-0.936085" x2="71.718" y2="43.7162" gradientUnits="userSpaceOnUse">
<stop stop-color="#A068F8"/>
<stop offset="0.6891" stop-color="#3F55C3"/>
<stop offset="1" stop-color="#184EAE"/>
</linearGradient>
<linearGradient id="paint5_linear_0_6523" x1="26.5334" y1="-0.936085" x2="71.718" y2="43.7162" gradientUnits="userSpaceOnUse">
<stop stop-color="#A068F8"/>
<stop offset="0.6891" stop-color="#3F55C3"/>
<stop offset="1" stop-color="#184EAE"/>
</linearGradient>
<linearGradient id="paint6_linear_0_6523" x1="26.5334" y1="-0.936085" x2="71.718" y2="43.7162" gradientUnits="userSpaceOnUse">
<stop stop-color="#A068F8"/>
<stop offset="0.6891" stop-color="#3F55C3"/>
<stop offset="1" stop-color="#184EAE"/>
</linearGradient>
<linearGradient id="paint7_linear_0_6523" x1="26.5334" y1="-0.936085" x2="71.718" y2="43.7162" gradientUnits="userSpaceOnUse">
<stop stop-color="#A068F8"/>
<stop offset="0.6891" stop-color="#3F55C3"/>
<stop offset="1" stop-color="#184EAE"/>
</linearGradient>
<linearGradient id="paint8_linear_0_6523" x1="26.5334" y1="-0.936085" x2="71.718" y2="43.7162" gradientUnits="userSpaceOnUse">
<stop stop-color="#A068F8"/>
<stop offset="0.6891" stop-color="#3F55C3"/>
<stop offset="1" stop-color="#184EAE"/>
</linearGradient>
</defs>
</svg>
