<svg width="66" height="39" viewBox="0 0 66 39" fill="none" xmlns="http://www.w3.org/2000/svg">
<path d="M46.3145 37.2329C46.7931 36.726 47.638 35.8144 48.6143 34.7544L51.7021 31.3833C52.6991 30.2881 53.6335 29.2957 54.334 28.5806C54.5336 28.3768 54.7124 28.1984 54.8662 28.0474C55.0526 28.2354 55.2763 28.4629 55.5293 28.7261C56.3069 29.5348 57.35 30.6466 58.4639 31.8511C60.3992 33.9439 62.5286 36.2968 63.8389 37.8101L54.9277 37.8101C51.8883 37.8101 49.1279 37.7857 47.1299 37.7466C46.6648 37.7375 46.2421 37.7278 45.8682 37.7173C46.0106 37.5615 46.1589 37.3976 46.3145 37.2329ZM2.16699 1.02588C3.25121 1.01049 4.67762 0.999512 6.23633 0.999511C9.88317 0.999512 13.3593 2.54625 15.8018 5.25439L21.7832 11.8862C24.569 14.9751 27.151 17.7761 29.0674 19.8003C30.0244 20.8111 30.8207 21.6338 31.3955 22.2036C31.6811 22.4868 31.923 22.7176 32.1064 22.8804C32.1953 22.9593 32.289 23.039 32.377 23.103C32.4181 23.133 32.485 23.1801 32.5664 23.2222C32.6067 23.243 32.6771 23.276 32.7676 23.3022C32.8412 23.3236 33.0329 23.3724 33.2715 23.3208C33.4631 23.2794 33.599 23.189 33.6191 23.1763C33.669 23.1447 33.7111 23.1134 33.7393 23.0913C33.7973 23.0458 33.8572 22.9929 33.9121 22.9429C34.0249 22.8402 34.1687 22.7005 34.3359 22.5337C34.6731 22.1973 35.1384 21.7173 35.7041 21.1226C36.8374 19.9312 38.394 18.2605 40.1816 16.3208C43.7575 12.4407 48.2681 7.47016 52.1846 3.06787C53.3548 1.75252 55.0314 0.999571 56.792 0.999509L63.791 0.999509C63.7965 0.999509 63.8005 1.00017 63.8027 1.00049C63.8047 1.00078 63.8062 1.00135 63.8066 1.00146L63.8174 1.01709C63.8224 1.02796 63.8213 1.0351 63.8213 1.03564C63.821 1.03618 63.8209 1.03757 63.8203 1.03857C63.8191 1.0405 63.817 1.04411 63.8135 1.04834C63.0452 1.96294 60.5992 4.72162 58.375 7.18017C56.1513 9.6382 49.3848 17.1281 43.3389 23.8257C40.3165 27.1736 37.559 30.2174 35.5518 32.4233C34.5479 33.5265 33.732 34.4192 33.165 35.0356C33.1083 35.0973 33.0535 35.1555 33.002 35.2114C32.8852 35.0842 32.7543 34.9421 32.6113 34.7856C31.8993 34.0066 30.8743 32.8793 29.6123 31.4868C27.0882 28.7017 23.6188 24.859 19.8125 20.6323C12.199 12.1774 4.80736 3.97003 3.38769 2.39404L3.38672 2.39502C2.94483 1.90436 2.5301 1.43659 2.16699 1.02588ZM27.3623 1.02588C28.8148 1.00978 30.8218 0.999512 33.0312 0.99951L38.8486 0.99951C38.8538 0.99952 38.8573 1.0002 38.8594 1.00049C38.8607 1.00068 38.8619 1.00136 38.8623 1.00146C38.8641 1.00325 38.8679 1.00724 38.8711 1.01416C38.8747 1.02202 38.874 1.02781 38.874 1.02978L38.874 1.03076L38.8672 1.04053C38.0823 1.95654 36.2698 3.96891 34.8437 5.5083C33.8458 6.58567 32.1391 6.57628 31.1533 5.48779L29.7285 3.91455C28.7399 2.82279 27.8326 1.81314 27.1348 1.02978C27.209 1.02889 27.2848 1.02674 27.3623 1.02588ZM2.16406 37.8101C3.47106 36.3079 5.59432 33.9688 7.52832 31.8813C8.64989 30.6708 9.70168 29.5517 10.4854 28.7368C10.7347 28.4775 10.9553 28.2513 11.1406 28.064C11.436 28.3595 11.8177 28.7486 12.2598 29.2095C13.2997 30.2936 14.6614 31.746 16.0156 33.2104C17.3699 34.6749 18.7132 36.1474 19.7158 37.272C19.8558 37.429 19.9871 37.5804 20.1123 37.7222C19.7426 37.732 19.3259 37.7409 18.8682 37.7495C16.8698 37.7869 14.109 37.8101 11.0693 37.8101L2.16406 37.8101Z" stroke="url(#paint0_linear_0_5496)" stroke-width="2"/>
<defs>
<linearGradient id="paint0_linear_0_5496" x1="-8.48222e-07" y1="19.405" x2="66" y2="19.405" gradientUnits="userSpaceOnUse">
<stop stop-color="#9F68F8"/>
<stop offset="1" stop-color="#2050B3"/>
</linearGradient>
</defs>
</svg>
