<svg width="50" height="44" viewBox="0 0 50 44" fill="none" xmlns="http://www.w3.org/2000/svg">
<path d="M48.8921 22.0484C48.4906 22.0484 48.1652 22.3738 48.1652 22.7752C48.1652 27.5211 44.3179 31.3684 39.572 31.3684H23.4537C11.3034 31.3684 1.45368 21.5187 1.45368 9.3684V8.62608C1.45368 8.22467 1.12835 7.89924 0.726839 7.89924C0.325333 7.89924 0 8.22467 0 8.62608V34.1178C0 35.5874 1.19551 36.7829 2.66508 36.7829H20.0113C20.7188 36.7829 21.2212 37.4721 21.0047 38.1457C20.866 38.5773 20.4645 38.8699 20.0113 38.8699H19.6978C17.8927 38.8321 16.2199 40.4421 16.2638 42.304C16.2638 43.2391 17.0246 44 17.9597 44H31.6592C32.5943 44 33.3551 43.2391 33.3551 42.304C33.3551 41.7926 33.2448 41.3 33.0271 40.84C32.4661 39.6436 31.247 38.8704 29.9211 38.8699H29.6076C29.1543 38.8699 28.7528 38.5772 28.6141 38.1457C28.3976 37.4721 28.9 36.7829 29.6076 36.7829H46.9538C48.4234 36.7829 49.6189 35.5874 49.6189 34.1178V22.7752C49.6189 22.3738 49.2936 22.0484 48.8921 22.0484ZM31.711 41.4573C31.7115 41.4582 31.712 41.4592 31.7124 41.46C31.8379 41.7247 31.9015 42.0087 31.9015 42.3039C31.9015 42.4375 31.7928 42.5462 31.6592 42.5462H17.9597C17.8261 42.5462 17.7174 42.4375 17.7174 42.3039C17.7492 41.2708 18.5329 40.3244 19.6978 40.3235H29.9209C30.6855 40.3237 31.3882 40.7688 31.711 41.4573ZM26.8818 37.507C27.0983 38.1806 26.5959 38.8699 25.8884 38.8699H23.7302C23.0227 38.8699 22.5202 38.1806 22.7368 37.507C22.8755 37.0755 23.2769 36.7829 23.7302 36.7829H25.8884C26.3417 36.7829 26.7431 37.0755 26.8818 37.507ZM46.9538 35.3292C34.8053 35.3292 14.7944 35.3292 2.66508 35.3292C1.99706 35.3292 1.45368 34.7858 1.45368 34.1178C1.45368 33.4022 2.03379 32.8221 2.74939 32.8221H46.8695C47.5851 32.8221 48.1652 33.4022 48.1652 34.1178C48.1652 34.7858 47.6218 35.3292 46.9538 35.3292Z" fill="url(#paint0_linear_0_6464)"/>
<path d="M46.9538 0H2.66508C1.19551 0 0 1.19551 0 2.66508V5.23421C0 5.63562 0.325333 5.96105 0.726839 5.96105C1.12835 5.96105 1.45368 5.63562 1.45368 5.23421V2.66508C1.45368 1.99706 1.99706 1.45368 2.66508 1.45368H46.9538C47.6218 1.45368 48.1652 1.99706 48.1652 2.66508V19.3834C48.1652 19.7848 48.4906 20.1102 48.8921 20.1102C49.2936 20.1102 49.6189 19.7848 49.6189 19.3834V2.66508C49.6189 1.19551 48.4234 0 46.9538 0Z" fill="url(#paint1_linear_0_6464)"/>
<path d="M14.1491 6.05792C14.1491 5.12281 13.3883 4.36196 12.4532 4.36196H7.89832C6.96322 4.36196 6.20236 5.12281 6.20236 6.05792V23.5021C6.20236 23.85 5.92033 24.132 5.57244 24.132C4.90442 24.132 4.36104 24.6754 4.36104 25.3434V27.2816C4.36104 27.9496 4.90442 28.493 5.57244 28.493H32.6593C33.0608 28.493 33.3862 28.1676 33.3862 27.7662C33.3862 27.3648 33.0608 27.0393 32.6593 27.0393H6.54155C6.14013 27.0393 5.81471 26.7139 5.81471 26.3125C5.81471 25.9111 6.14013 25.5857 6.54155 25.5857H43.0773C43.4788 25.5857 43.8042 25.9111 43.8042 26.3125C43.8042 26.7139 43.4788 27.0393 43.0773 27.0393H36.0512C35.6497 27.0393 35.3244 27.3648 35.3244 27.7662C35.3244 28.1676 35.6497 28.493 36.0512 28.493H44.0465C44.7145 28.493 45.2579 27.9496 45.2579 27.2816V25.3434C45.2579 24.6754 44.7145 24.132 44.0465 24.132C43.2169 24.132 42.5443 23.4595 42.5443 22.6299V8.18998C42.5443 7.25488 41.7835 6.49402 40.8484 6.49402L36.5067 6.51156C36.2555 6.51258 36.0512 6.30918 36.0512 6.05792C36.0512 5.12281 35.2904 4.36196 34.3553 4.36196H29.8004C29.1805 4.36196 28.4821 4.36196 27.8622 4.36196H20.8845C19.9494 4.36196 19.1886 5.12281 19.1886 6.05792V6.31958C19.1886 7.71118 18.0604 8.83929 16.6688 8.83929C15.2773 8.83929 14.1491 7.71118 14.1491 6.31958V6.05792ZM20.6422 10.322C20.6422 9.38539 21.4015 8.62608 22.3382 8.62608H26.4085C27.3451 8.62608 28.1045 9.38539 28.1045 10.322C28.1045 11.2587 27.3451 12.018 26.4085 12.018H26.0693C25.6678 12.018 25.3425 12.3434 25.3425 12.7448C25.3425 13.1462 25.6678 13.4717 26.0693 13.4717C27.1933 13.4717 28.1045 14.3828 28.1045 15.5068V16.4275C28.1045 18.0599 26.7811 19.3833 25.1486 19.3833H23.5981C21.9656 19.3833 20.6422 18.0599 20.6422 16.4275V15.5068C20.6422 14.3828 21.5534 13.4717 22.6774 13.4717C23.0789 13.4717 23.4042 13.1462 23.4042 12.7448C23.4042 12.3434 23.0789 12.018 22.6774 12.018H22.3382C21.4015 12.018 20.6422 11.2587 20.6422 10.322ZM41.0907 18.7049C41.0907 20.0965 39.9625 21.2246 38.5709 21.2246C37.1793 21.2246 36.0512 20.0965 36.0512 18.7049V13.3748C36.0512 11.9832 37.1793 10.8551 38.5709 10.8551C39.9625 10.8551 41.0907 11.9832 41.0907 13.3748V18.7049ZM7.65604 19.7225C7.65604 19.0535 8.1984 18.5111 8.86744 18.5111H11.4841C12.1531 18.5111 12.6955 19.0535 12.6955 19.7225C12.6955 20.3915 12.1531 20.9339 11.4841 20.9339H8.86744C8.1984 20.9339 7.65604 20.3915 7.65604 19.7225ZM14.1491 23.2598C14.1491 22.7781 14.5396 22.3876 15.0213 22.3876H18.3164C18.7981 22.3876 19.1886 22.7781 19.1886 23.2598C19.1886 23.7415 18.7981 24.132 18.3164 24.132H15.0213C14.5396 24.132 14.1491 23.7415 14.1491 23.2598ZM20.6422 22.4845C20.6422 21.5746 21.3799 20.837 22.2897 20.837H26.457C27.3668 20.837 28.1045 21.5746 28.1045 22.4845C28.1045 23.3944 27.3668 24.132 26.457 24.132H22.2897C21.3799 24.132 20.6422 23.3944 20.6422 22.4845ZM29.5581 19.2864C29.5581 17.8948 30.6862 16.7667 32.0778 16.7667C33.4694 16.7667 34.5976 17.8948 34.5976 19.2864V21.6123C34.5976 23.0039 33.4694 24.132 32.0778 24.132C30.6862 24.132 29.5581 23.0039 29.5581 21.6123V19.2864ZM34.5976 13.084C34.5976 14.3151 33.5996 15.313 32.3686 15.313H31.7871C30.5561 15.313 29.5581 14.3151 29.5581 13.084C29.5581 11.853 30.5561 10.8551 31.7871 10.8551H32.3686C33.5996 10.8551 34.5976 11.853 34.5976 13.084ZM19.1886 18.4142C19.1886 19.8058 18.0604 20.9339 16.6688 20.9339C15.2773 20.9339 14.1491 19.8058 14.1491 18.4142V15.9914C14.1491 14.5998 15.2773 13.4717 16.6688 13.4717C18.0604 13.4717 19.1886 14.5998 19.1886 15.9914V18.4142ZM12.6955 14.5377C12.6955 15.9293 11.5673 17.0574 10.1758 17.0574C8.78415 17.0574 7.65604 15.9293 7.65604 14.5377V11.1458C7.65604 9.7542 8.78415 8.62608 10.1758 8.62608C11.5673 8.62608 12.6955 9.7542 12.6955 11.1458V14.5377ZM7.89832 5.81564H12.4532C12.5868 5.81564 12.6955 5.92437 12.6955 6.05792C12.6955 6.67343 12.1965 7.1724 11.581 7.1724H8.77053C8.15501 7.1724 7.65604 6.67343 7.65604 6.05792C7.65604 5.92437 7.76468 5.81564 7.89832 5.81564ZM8.52825 24.132C8.04654 24.132 7.65604 23.7415 7.65604 23.2598C7.65604 22.7781 8.04654 22.3876 8.52825 22.3876H11.8233C12.305 22.3876 12.6955 22.7781 12.6955 23.2598C12.6955 23.7415 12.305 24.132 11.8233 24.132H8.52825ZM36.7781 24.132C36.3767 24.132 36.0512 23.8066 36.0512 23.4052C36.0512 23.0037 36.3767 22.6783 36.7781 22.6783H40.3638C40.7652 22.6783 41.0907 23.0037 41.0907 23.4052C41.0907 23.8066 40.7652 24.132 40.3638 24.132H36.7781ZM36.2935 7.9477H40.8484C40.982 7.9477 41.0907 8.05643 41.0907 8.18998C41.0907 8.85902 40.5483 9.40138 39.8793 9.40138H37.2626C36.5936 9.40138 36.0512 8.85902 36.0512 8.18998C36.0512 8.05643 36.1599 7.9477 36.2935 7.9477ZM29.8004 5.81564H34.3553C34.4889 5.81564 34.5976 5.92437 34.5976 6.05792V6.88167C34.5976 8.27327 33.4694 9.40138 32.0778 9.40138C30.6862 9.40138 29.5581 8.27327 29.5581 6.88167V6.05792C29.5581 5.92437 29.6668 5.81564 29.8004 5.81564ZM20.8845 5.81564H27.8622C27.9958 5.81564 28.1045 5.92437 28.1045 6.05792C28.1045 6.67343 27.6055 7.1724 26.99 7.1724H21.7567C21.1412 7.1724 20.6422 6.67343 20.6422 6.05792C20.6422 5.92437 20.7509 5.81564 20.8845 5.81564ZM14.3914 10.2736H18.9463C19.0799 10.2736 19.1886 10.3823 19.1886 10.5159C19.1886 11.3455 18.516 12.018 17.6864 12.018H15.6513C14.8217 12.018 14.1491 11.3455 14.1491 10.5159C14.1491 10.3823 14.2578 10.2736 14.3914 10.2736Z" fill="url(#paint2_linear_0_6464)"/>
<defs>
<linearGradient id="paint0_linear_0_6464" x1="18.1393" y1="-0.710134" x2="52.1906" y2="29.6142" gradientUnits="userSpaceOnUse">
<stop stop-color="#A068F8"/>
<stop offset="0.6891" stop-color="#3F55C3"/>
<stop offset="1" stop-color="#184EAE"/>
</linearGradient>
<linearGradient id="paint1_linear_0_6464" x1="18.1393" y1="-0.710134" x2="52.1906" y2="29.6142" gradientUnits="userSpaceOnUse">
<stop stop-color="#A068F8"/>
<stop offset="0.6891" stop-color="#3F55C3"/>
<stop offset="1" stop-color="#184EAE"/>
</linearGradient>
<linearGradient id="paint2_linear_0_6464" x1="18.1393" y1="-0.710134" x2="52.1906" y2="29.6142" gradientUnits="userSpaceOnUse">
<stop stop-color="#A068F8"/>
<stop offset="0.6891" stop-color="#3F55C3"/>
<stop offset="1" stop-color="#184EAE"/>
</linearGradient>
</defs>
</svg>
