<svg width="32" height="32" viewBox="0 0 32 32" fill="none" xmlns="http://www.w3.org/2000/svg">
<path d="M13.3404 2.13495C7.15714 2.13495 2.14463 7.14912 2.14463 13.3344C2.14463 19.5198 7.15714 24.5339 13.3404 24.5339C19.5237 24.5339 24.5362 19.5198 24.5362 13.3344C24.5294 7.15192 19.5209 2.14168 13.3404 2.13495ZM13.3404 3.20157C16.3067 3.20391 19.1049 4.50677 21.0145 6.73541C21.3814 7.16356 21.3217 7.79627 20.923 8.19502C20.5452 8.57295 19.9558 8.60727 19.4248 8.54771C19.352 8.53954 19.2785 8.53516 19.2048 8.53466C18.0271 8.53466 17.0723 9.48975 17.0723 10.6679C17.0756 11.3328 17.0444 12.0749 16.5743 12.5452L14.6841 14.4361C14.2144 14.9059 13.4715 14.9344 12.8073 14.9344C12.143 14.9344 11.4001 14.9059 10.9305 14.4361L10.1065 13.6118C9.63634 13.1415 9.60521 12.3995 9.60848 11.7345C9.60994 10.5587 8.6583 9.60434 7.48288 9.60287C6.771 9.602 6.12496 9.95451 5.73493 10.5131C5.4785 10.8804 5.10602 11.2012 4.65809 11.2012C4.03229 11.2012 3.56461 10.6212 3.76888 10.0296C5.16374 5.99043 8.98094 3.20796 13.3404 3.20157ZM20.2711 10.6679C20.2711 11.257 19.7938 11.7345 19.2048 11.7345C18.6159 11.7345 18.1386 11.257 18.1386 10.6679C18.1386 10.0788 18.6159 9.60127 19.2048 9.60127C19.7938 9.60127 20.2711 10.0788 20.2711 10.6679ZM13.8735 17.0676C13.8735 17.6567 13.3962 18.1342 12.8073 18.1342C12.2184 18.1342 11.741 17.6567 11.741 17.0676C11.741 16.4785 12.2184 16.001 12.8073 16.001C13.3962 16.001 13.8735 16.4785 13.8735 17.0676ZM8.54221 11.7345C8.54221 12.3236 8.06486 12.8011 7.47595 12.8011C6.88704 12.8011 6.40969 12.3236 6.40969 11.7345C6.40969 11.1454 6.88704 10.6679 7.47595 10.6679C8.06486 10.6679 8.54221 11.1454 8.54221 11.7345ZM18.2621 22.1944C16.7566 23.0307 15.0625 23.4688 13.3404 23.4672C7.74985 23.471 3.2147 18.9406 3.2109 13.3482C3.21044 12.7327 3.73488 12.2678 4.35045 12.2678H4.42349C5.00961 12.2678 5.49353 12.6995 5.87987 13.1402C6.27341 13.5892 6.84863 13.8653 7.47595 13.8677C8.14063 13.8644 8.88247 13.8955 9.3524 14.3656L10.1767 15.1902C10.6469 15.6605 10.678 16.4026 10.6747 17.0675C10.6747 18.2457 11.6295 19.2008 12.8073 19.2008C13.985 19.2008 14.9398 18.2457 14.9398 17.0675C14.9365 16.4026 14.9677 15.6605 15.4378 15.1902L17.3284 13.299C17.7983 12.8289 18.5402 12.7978 19.2048 12.8011C20.3826 12.8011 21.3374 11.846 21.3374 10.6678C21.3365 10.4928 21.3139 10.3194 21.2705 10.1515C21.1809 9.80455 21.213 9.41315 21.4664 9.15981C21.8326 8.79362 22.4483 8.88066 22.6527 9.35651C24.6789 14.072 22.8443 19.6494 18.2621 22.1944Z" fill="url(#paint0_linear_0_6532)"/>
<path d="M26.6687 5.3348C27.1437 5.33301 27.5888 5.17429 27.9479 4.9024C28.6186 4.39439 29.3134 3.73488 30.1549 3.73488H31.4667C31.7612 3.73488 32 3.4961 32 3.20157C32 2.90703 31.7612 2.66826 31.4667 2.66826H30.1549C29.3134 2.66826 28.6186 2.00874 27.9479 1.50074C27.5888 1.22884 27.1437 1.07013 26.6687 1.06833C25.4909 1.06833 24.5362 2.02342 24.5362 3.20157C24.5371 3.40042 24.5663 3.59719 24.6219 3.78621C24.7114 4.09 24.6812 4.43561 24.4573 4.65958C24.163 4.95401 23.6774 4.92072 23.4052 4.6057C18.8234 -0.697502 10.8436 -1.56574 5.21361 2.75705C-0.625584 7.24052 -1.72583 15.6103 2.75614 21.4515C4.98516 24.3564 8.19257 26.1021 11.5816 26.5511C17.0233 27.2721 23.3476 27.2989 27.2285 31.1811C28.32 32.273 30.0896 32.273 31.1811 31.1811C32.2726 30.0892 32.2726 28.319 31.1811 27.2271L29.936 25.9816C26.7816 22.8262 26.6687 17.7961 26.6687 13.3344C26.6687 11.0631 26.0876 8.79175 24.9253 6.75336C24.7039 6.36509 24.7525 5.87253 25.0685 5.55643C25.3764 5.24836 25.8538 5.21406 26.2816 5.29666C26.4086 5.32121 26.5382 5.33407 26.6687 5.3348ZM26.6687 2.13495C27.2576 2.13495 27.7349 2.61246 27.7349 3.20157C27.7349 3.79067 27.2576 4.26818 26.6687 4.26818C26.0798 4.26818 25.6024 3.79067 25.6024 3.20157C25.6024 2.61246 26.0798 2.13495 26.6687 2.13495ZM30.4273 27.9812C31.1101 28.6489 31.1225 29.744 30.4551 30.427C29.7876 31.11 28.6929 31.1225 28.0101 30.4548C28.0007 30.4457 27.9915 30.4364 27.9823 30.427L24.9127 27.3563C24.2377 26.6811 24.2377 25.5866 24.9127 24.9114C25.588 24.2358 26.6831 24.2358 27.3584 24.9114L30.4273 27.9812ZM24.6928 22.2448C25.0733 22.6255 25.0733 23.2425 24.6928 23.6232L23.6262 24.6901C23.2455 25.071 22.6281 25.071 22.2473 24.6901L21.662 24.1045C21.5555 23.9981 21.5631 23.8172 21.6807 23.7233C21.7548 23.6641 21.8406 23.5932 21.9201 23.5265C22.0368 23.4284 22.152 23.3292 22.265 23.2273C22.3231 23.174 22.3786 23.1207 22.4356 23.0673C22.6542 22.8625 22.8659 22.6508 23.0706 22.4322C23.1239 22.3751 23.1772 22.3196 23.2305 22.2615C23.3323 22.1484 23.4315 22.0332 23.5296 21.9164C23.5964 21.8375 23.662 21.7577 23.7263 21.677C23.8199 21.5596 24.0003 21.5521 24.1064 21.6583L24.6928 22.2448ZM23.3142 20.4568C23.1463 20.6914 22.973 20.9213 22.7902 21.1426C22.7368 21.2071 22.6798 21.2695 22.6249 21.333C22.4617 21.5229 22.2933 21.7071 22.1195 21.8855C22.0438 21.9637 21.9668 22.0407 21.8886 22.1164C21.7109 22.2903 21.5268 22.4588 21.3363 22.622C21.2729 22.6753 21.2105 22.7335 21.146 22.7873C20.9247 22.9703 20.6949 23.1436 20.4604 23.3116C14.9414 27.2557 7.27103 25.9776 3.32819 20.4568C-0.614654 14.936 0.663062 7.26305 6.18204 3.31889C11.701 -0.625259 19.3714 0.652816 23.3142 6.1737C26.3651 10.4456 26.3651 16.1848 23.3142 20.4568Z" fill="url(#paint1_linear_0_6532)"/>
<defs>
<linearGradient id="paint0_linear_0_6532" x1="6.18182" y1="-24.8421" x2="35.2294" y2="-21.6157" gradientUnits="userSpaceOnUse">
<stop stop-color="#F93C3C"/>
<stop offset="1" stop-color="#CD0973"/>
</linearGradient>
<linearGradient id="paint1_linear_0_6532" x1="6.18182" y1="-24.8421" x2="35.2294" y2="-21.6157" gradientUnits="userSpaceOnUse">
<stop stop-color="#F93C3C"/>
<stop offset="1" stop-color="#CD0973"/>
</linearGradient>
</defs>
</svg>
