<svg width="43" height="32" viewBox="0 0 43 32" fill="none" xmlns="http://www.w3.org/2000/svg">
<path d="M27.9795 30.359H24.0821C23.7422 30.359 23.4667 30.0835 23.4667 29.7436C23.4667 29.4037 23.7422 29.1282 24.0821 29.1282H38.5231C39.0887 29.1282 39.5487 28.6681 39.5487 28.1026V18.4615C39.5487 18.1217 39.2733 17.8462 38.9333 17.8462C38.5934 17.8462 38.3179 18.1217 38.3179 18.4615V19.5487C38.3179 24.1596 34.5801 27.8974 29.9692 27.8974H25.8051C23.494 27.8974 21.6205 26.0239 21.6205 23.7128C21.6205 23.373 21.3451 23.0974 21.0051 23.0974C20.6652 23.0974 20.3897 23.373 20.3897 23.7128C20.3897 26.0239 18.5162 27.8974 16.2051 27.8974H12.041C7.43015 27.8974 3.69231 24.1596 3.69231 19.5487V3.0359C3.69231 2.03895 4.50049 1.23077 5.49744 1.23077C5.83737 1.23077 6.11282 0.955241 6.11282 0.615385C6.11282 0.275528 5.83737 0 5.49744 0H3.48718C2.9216 0 2.46154 0.460062 2.46154 1.02564C2.46154 1.81867 1.81867 2.46154 1.02564 2.46154C0.460062 2.46154 0 2.9216 0 3.48718V30.5641C0 31.1297 0.460062 31.5897 1.02564 31.5897H17.8015C18.3992 31.5897 18.9715 32 19.5692 32H22.441C23.0387 32 23.611 31.5897 24.2088 31.5897H27.9795C28.3194 31.5897 28.5949 31.3142 28.5949 30.9744C28.5949 30.6345 28.3194 30.359 27.9795 30.359ZM1.23077 4.30769C1.23077 3.96782 1.50629 3.69231 1.84615 3.69231C2.18602 3.69231 2.46154 3.96782 2.46154 4.30769V28.1026C2.46154 28.6681 2.9216 29.1282 3.48718 29.1282H17.9282C18.2681 29.1282 18.5436 29.4037 18.5436 29.7436C18.5436 30.0835 18.2681 30.359 17.9282 30.359H9.88718C5.10637 30.359 1.23077 26.4834 1.23077 21.7026V4.30769ZM20.5949 30.7692C20.1417 30.7692 19.7744 30.4019 19.7744 29.9487C19.7744 29.4956 20.1417 29.1282 20.5949 29.1282H21.4154C21.8685 29.1282 22.2359 29.4956 22.2359 29.9487C22.2359 30.4019 21.8685 30.7692 21.4154 30.7692H20.5949Z" fill="url(#paint0_linear_0_6531)"/>
<path d="M40.9846 2.46154C40.1916 2.46154 39.5487 1.81867 39.5487 1.02564C39.5487 0.460062 39.0887 0 38.5231 0H23.4667C22.0387 0 19.9715 0 18.5436 0H8.36923C8.02929 0 7.75385 0.275528 7.75385 0.615385C7.75385 0.955241 8.02929 1.23077 8.36923 1.23077H18.5436C19.5615 1.23077 20.3897 2.05891 20.3897 3.07692V20.841C20.3897 21.1809 20.6652 21.4564 21.0051 21.4564C21.3451 21.4564 21.6205 21.1809 21.6205 20.841V3.07692C21.6205 2.05891 22.4487 1.23077 23.4667 1.23077H26.318C32.9454 1.23077 38.3179 6.60335 38.3179 13.2308V15.5399C38.3179 15.8798 38.5934 16.1553 38.9333 16.1553C39.2733 16.1553 39.5487 15.8798 39.5487 15.5399V4.30769C39.5487 3.96783 39.8242 3.69231 40.1641 3.69231C40.504 3.69231 40.7795 3.96782 40.7795 4.30769V20.4308C40.7795 25.914 36.3345 30.359 30.8513 30.359C30.5113 30.359 30.2359 30.6345 30.2359 30.9744C30.2359 31.3142 30.5113 31.5897 30.8513 31.5897H40.9846C41.5502 31.5897 42.0103 31.1297 42.0103 30.5641V3.48718C42.0103 2.9216 41.5502 2.46154 40.9846 2.46154Z" fill="url(#paint1_linear_0_6531)"/>
<path d="M5.73599 8.5819C5.96877 8.66354 6.34793 8.60947 6.53017 8.22588C6.69591 7.79074 7.11317 7.50317 7.57881 7.50317H7.93506C8.39878 7.50317 8.81404 7.79031 8.97776 8.22416C9.09772 8.54219 9.45284 8.70277 9.77079 8.58264C10.0887 8.4626 10.2492 8.10756 10.1292 7.78962L8.43335 3.29599C8.4313 3.29033 8.429 3.28467 8.4267 3.279C8.31536 3.00856 8.05452 2.83388 7.76209 2.83388C7.76184 2.83388 7.76168 2.83388 7.76143 2.83388C7.46875 2.83412 7.20791 3.00938 7.0969 3.28023C7.09501 3.28499 7.09312 3.28967 7.09132 3.29443L5.37997 7.78781C5.25903 8.10543 5.41845 8.46096 5.73599 8.5819ZM7.44656 5.81977C7.55589 5.53268 7.96225 5.53328 8.07073 5.8207C8.15312 6.03901 7.99181 6.27232 7.75847 6.27232C7.52471 6.27232 7.36336 6.03822 7.44656 5.81977Z" fill="url(#paint2_linear_0_6531)"/>
<path d="M23.6062 19.9583C23.5971 20.1921 23.7777 20.6395 24.2329 20.6454C24.2708 20.6453 25.1645 20.6419 25.5216 20.6356C26.8857 20.6117 27.8757 19.4271 27.8757 17.8186C27.8757 16.1279 26.9106 14.9918 25.4742 14.9918H24.2215C24.0581 14.9918 23.9014 15.0568 23.7859 15.1724C23.6705 15.2881 23.6058 15.4449 23.6061 15.6084L23.6062 19.9583ZM25.4743 16.2226C26.5605 16.2226 26.645 17.4443 26.645 17.8187C26.645 18.5983 26.291 19.3912 25.5002 19.405C25.1382 19.4114 24.843 19.1173 24.842 18.7552C24.841 18.3938 24.8403 18.0379 24.8403 17.8138C24.8403 17.6186 24.8398 17.2444 24.8392 16.8587C24.8387 16.5076 25.1231 16.2226 25.4743 16.2226Z" fill="url(#paint3_linear_0_6531)"/>
<path d="M7.68714 14.9246H6.36332C6.02338 14.9246 5.74794 15.2002 5.74794 15.54V20.0976C5.74794 20.2613 5.81317 20.4183 5.92919 20.5337C6.04447 20.6486 6.20061 20.713 6.36332 20.713H6.36603C6.36619 20.713 7.58301 20.7076 7.91844 20.7076C8.93424 20.7076 9.76057 19.8812 9.76057 18.8655C9.76057 18.6278 9.71528 18.4005 9.63288 18.1917C9.4399 17.7028 9.3513 17.1144 9.3513 16.5887C9.3513 15.6711 8.6048 14.9246 7.68714 14.9246ZM7.68714 16.1554C7.92607 16.1554 8.12045 16.3498 8.12045 16.5887C8.12045 16.8276 7.92607 17.022 7.68714 17.022C7.64509 17.0219 7.53954 17.0223 7.41234 17.0227C7.17276 17.0233 6.97862 16.8292 6.97862 16.5896C6.97862 16.3498 7.17302 16.1554 7.41283 16.1554H7.68714ZM7.91844 19.4768C7.86226 19.4768 7.78145 19.477 7.6858 19.4772C7.29578 19.4783 6.97871 19.1627 6.97871 18.7727C6.97871 18.4647 7.18846 18.2542 7.4965 18.2541C7.69665 18.254 7.88582 18.254 7.91844 18.2541C8.25551 18.2541 8.5298 18.5284 8.5298 18.8655C8.5298 19.2025 8.25551 19.4768 7.91844 19.4768Z" fill="url(#paint4_linear_0_6531)"/>
<path d="M26.1626 4.06449C26.4959 4.06449 26.8174 4.16262 27.0922 4.34822C27.3739 4.5385 27.7564 4.46441 27.9466 4.18281C28.1368 3.90112 28.0628 3.5186 27.7811 3.32832C27.3022 3.00471 26.7424 2.83372 26.1625 2.83372C24.5667 2.83372 23.2684 4.13202 23.2684 5.72792C23.2684 7.32382 24.5667 8.62212 26.1625 8.62212C26.8705 8.60694 27.5717 8.35496 28.0694 7.75918C28.2879 7.49892 28.2541 7.11073 27.9939 6.89223C27.7334 6.67372 27.3453 6.70761 27.1269 6.9678C26.936 7.19229 26.623 7.38068 26.1625 7.39143C25.2452 7.39143 24.4992 6.64525 24.4992 5.728C24.4992 4.81075 25.2454 4.06449 26.1626 4.06449Z" fill="url(#paint5_linear_0_6531)"/>
<path d="M12.4308 6.3433H18.1744C18.5143 6.3433 18.7897 6.06777 18.7897 5.72791C18.7897 5.38805 18.5143 5.11252 18.1744 5.11252H12.4308C12.0908 5.11252 11.8154 5.38805 11.8154 5.72791C11.8154 6.06777 12.0908 6.3433 12.4308 6.3433Z" fill="url(#paint6_linear_0_6531)"/>
<path d="M12.4308 8.80497H14.8923C15.2322 8.80497 15.5077 8.52944 15.5077 8.18958C15.5077 7.84973 15.2322 7.5742 14.8923 7.5742H12.4308C12.0908 7.5742 11.8154 7.84973 11.8154 8.18958C11.8154 8.52944 12.0908 8.80497 12.4308 8.80497Z" fill="url(#paint7_linear_0_6531)"/>
<path d="M12.4308 11.2665H16.5333C16.8733 11.2665 17.1487 10.991 17.1487 10.6511C17.1487 10.3113 16.8733 10.0357 16.5333 10.0357H12.4308C12.0908 10.0357 11.8154 10.3113 11.8154 10.6511C11.8154 10.991 12.0908 11.2665 12.4308 11.2665Z" fill="url(#paint8_linear_0_6531)"/>
<path d="M12.4308 13.728H18.1744C18.5143 13.728 18.7897 13.4525 18.7897 13.1127C18.7897 12.7728 18.5143 12.4973 18.1744 12.4973H12.4308C12.0908 12.4973 11.8154 12.7728 11.8154 13.1127C11.8154 13.4525 12.0908 13.728 12.4308 13.728Z" fill="url(#paint9_linear_0_6531)"/>
<path d="M12.4308 18.2154H18.1744C18.5143 18.2154 18.7897 17.9399 18.7897 17.6C18.7897 17.2601 18.5143 16.9846 18.1744 16.9846H12.4308C12.0908 16.9846 11.8154 17.2601 11.8154 17.6C11.8154 17.9399 12.0908 18.2154 12.4308 18.2154Z" fill="url(#paint10_linear_0_6531)"/>
<path d="M12.4308 20.6769H16.5333C16.8733 20.6769 17.1487 20.4014 17.1487 20.0615C17.1487 19.7217 16.8733 19.4462 16.5333 19.4462H12.4308C12.0908 19.4462 11.8154 19.7217 11.8154 20.0615C11.8154 20.4014 12.0908 20.6769 12.4308 20.6769Z" fill="url(#paint11_linear_0_6531)"/>
<path d="M12.4308 23.1385H18.1744C18.5143 23.1385 18.7897 22.8629 18.7897 22.5231C18.7897 22.1832 18.5143 21.9077 18.1744 21.9077H12.4308C12.0908 21.9077 11.8154 22.1832 11.8154 22.5231C11.8154 22.8629 12.0908 23.1385 12.4308 23.1385Z" fill="url(#paint12_linear_0_6531)"/>
<path d="M12.4308 25.6H14.8923C15.2322 25.6 15.5077 25.3245 15.5077 24.9846C15.5077 24.6448 15.2322 24.3692 14.8923 24.3692H12.4308C12.0908 24.3692 11.8154 24.6448 11.8154 24.9846C11.8154 25.3245 12.0908 25.6 12.4308 25.6Z" fill="url(#paint13_linear_0_6531)"/>
<path d="M30.4821 6.3433H32.9436C33.2835 6.3433 33.559 6.06777 33.559 5.72791C33.559 5.38805 33.2835 5.11252 32.9436 5.11252H30.4821C30.1421 5.11252 29.8667 5.38805 29.8667 5.72791C29.8667 6.06777 30.1421 6.3433 30.4821 6.3433Z" fill="url(#paint14_linear_0_6531)"/>
<path d="M30.4821 8.80497H36.2256C36.5656 8.80497 36.841 8.52944 36.841 8.18958C36.841 7.84973 36.5656 7.5742 36.2256 7.5742H30.4821C30.1421 7.5742 29.8667 7.84973 29.8667 8.18958C29.8667 8.52944 30.1421 8.80497 30.4821 8.80497Z" fill="url(#paint15_linear_0_6531)"/>
<path d="M30.4821 11.2665H35.4051C35.7451 11.2665 36.0205 10.991 36.0205 10.6511C36.0205 10.3113 35.7451 10.0357 35.4051 10.0357H30.4821C30.1421 10.0357 29.8667 10.3113 29.8667 10.6511C29.8667 10.991 30.1421 11.2665 30.4821 11.2665Z" fill="url(#paint16_linear_0_6531)"/>
<path d="M30.4821 13.728H33.7641C34.104 13.728 34.3795 13.4525 34.3795 13.1127C34.3795 12.7728 34.104 12.4973 33.7641 12.4973H30.4821C30.1421 12.4973 29.8667 12.7728 29.8667 13.1127C29.8667 13.4525 30.1421 13.728 30.4821 13.728Z" fill="url(#paint17_linear_0_6531)"/>
<path d="M30.4821 18.2154H34.5846C34.9246 18.2154 35.2 17.9399 35.2 17.6C35.2 17.2601 34.9246 16.9846 34.5846 16.9846H30.4821C30.1421 16.9846 29.8667 17.2601 29.8667 17.6C29.8667 17.9399 30.1421 18.2154 30.4821 18.2154Z" fill="url(#paint18_linear_0_6531)"/>
<path d="M30.4821 20.6769H36.2256C36.5656 20.6769 36.841 20.4014 36.841 20.0615C36.841 19.7217 36.5656 19.4462 36.2256 19.4462H30.4821C30.1421 19.4462 29.8667 19.7217 29.8667 20.0615C29.8667 20.4014 30.1421 20.6769 30.4821 20.6769Z" fill="url(#paint19_linear_0_6531)"/>
<path d="M30.4821 23.1385H32.9436C33.2835 23.1385 33.559 22.8629 33.559 22.5231C33.559 22.1832 33.2835 21.9077 32.9436 21.9077H30.4821C30.1421 21.9077 29.8667 22.1832 29.8667 22.5231C29.8667 22.8629 30.1421 23.1385 30.4821 23.1385Z" fill="url(#paint20_linear_0_6531)"/>
<path d="M30.4821 25.6H35.4051C35.7451 25.6 36.0205 25.3245 36.0205 24.9846C36.0205 24.6448 35.7451 24.3692 35.4051 24.3692H30.4821C30.1421 24.3692 29.8667 24.6448 29.8667 24.9846C29.8667 25.3245 30.1421 25.6 30.4821 25.6Z" fill="url(#paint21_linear_0_6531)"/>
<defs>
<linearGradient id="paint0_linear_0_6531" x1="8.11561" y1="-24.8421" x2="45.9166" y2="-19.33" gradientUnits="userSpaceOnUse">
<stop stop-color="#F93C3C"/>
<stop offset="1" stop-color="#CD0973"/>
</linearGradient>
<linearGradient id="paint1_linear_0_6531" x1="8.11561" y1="-24.8421" x2="45.9166" y2="-19.33" gradientUnits="userSpaceOnUse">
<stop stop-color="#F93C3C"/>
<stop offset="1" stop-color="#CD0973"/>
</linearGradient>
<linearGradient id="paint2_linear_0_6531" x1="8.11561" y1="-24.8421" x2="45.9166" y2="-19.33" gradientUnits="userSpaceOnUse">
<stop stop-color="#F93C3C"/>
<stop offset="1" stop-color="#CD0973"/>
</linearGradient>
<linearGradient id="paint3_linear_0_6531" x1="8.11561" y1="-24.8421" x2="45.9166" y2="-19.33" gradientUnits="userSpaceOnUse">
<stop stop-color="#F93C3C"/>
<stop offset="1" stop-color="#CD0973"/>
</linearGradient>
<linearGradient id="paint4_linear_0_6531" x1="8.11561" y1="-24.8421" x2="45.9166" y2="-19.33" gradientUnits="userSpaceOnUse">
<stop stop-color="#F93C3C"/>
<stop offset="1" stop-color="#CD0973"/>
</linearGradient>
<linearGradient id="paint5_linear_0_6531" x1="8.11561" y1="-24.8421" x2="45.9166" y2="-19.33" gradientUnits="userSpaceOnUse">
<stop stop-color="#F93C3C"/>
<stop offset="1" stop-color="#CD0973"/>
</linearGradient>
<linearGradient id="paint6_linear_0_6531" x1="8.11561" y1="-24.8421" x2="45.9166" y2="-19.33" gradientUnits="userSpaceOnUse">
<stop stop-color="#F93C3C"/>
<stop offset="1" stop-color="#CD0973"/>
</linearGradient>
<linearGradient id="paint7_linear_0_6531" x1="8.11561" y1="-24.8421" x2="45.9166" y2="-19.33" gradientUnits="userSpaceOnUse">
<stop stop-color="#F93C3C"/>
<stop offset="1" stop-color="#CD0973"/>
</linearGradient>
<linearGradient id="paint8_linear_0_6531" x1="8.11561" y1="-24.8421" x2="45.9166" y2="-19.33" gradientUnits="userSpaceOnUse">
<stop stop-color="#F93C3C"/>
<stop offset="1" stop-color="#CD0973"/>
</linearGradient>
<linearGradient id="paint9_linear_0_6531" x1="8.11561" y1="-24.8421" x2="45.9166" y2="-19.33" gradientUnits="userSpaceOnUse">
<stop stop-color="#F93C3C"/>
<stop offset="1" stop-color="#CD0973"/>
</linearGradient>
<linearGradient id="paint10_linear_0_6531" x1="8.11561" y1="-24.8421" x2="45.9166" y2="-19.33" gradientUnits="userSpaceOnUse">
<stop stop-color="#F93C3C"/>
<stop offset="1" stop-color="#CD0973"/>
</linearGradient>
<linearGradient id="paint11_linear_0_6531" x1="8.11561" y1="-24.8421" x2="45.9166" y2="-19.33" gradientUnits="userSpaceOnUse">
<stop stop-color="#F93C3C"/>
<stop offset="1" stop-color="#CD0973"/>
</linearGradient>
<linearGradient id="paint12_linear_0_6531" x1="8.11561" y1="-24.8421" x2="45.9166" y2="-19.33" gradientUnits="userSpaceOnUse">
<stop stop-color="#F93C3C"/>
<stop offset="1" stop-color="#CD0973"/>
</linearGradient>
<linearGradient id="paint13_linear_0_6531" x1="8.11561" y1="-24.8421" x2="45.9166" y2="-19.33" gradientUnits="userSpaceOnUse">
<stop stop-color="#F93C3C"/>
<stop offset="1" stop-color="#CD0973"/>
</linearGradient>
<linearGradient id="paint14_linear_0_6531" x1="8.11561" y1="-24.8421" x2="45.9166" y2="-19.33" gradientUnits="userSpaceOnUse">
<stop stop-color="#F93C3C"/>
<stop offset="1" stop-color="#CD0973"/>
</linearGradient>
<linearGradient id="paint15_linear_0_6531" x1="8.11561" y1="-24.8421" x2="45.9166" y2="-19.33" gradientUnits="userSpaceOnUse">
<stop stop-color="#F93C3C"/>
<stop offset="1" stop-color="#CD0973"/>
</linearGradient>
<linearGradient id="paint16_linear_0_6531" x1="8.11561" y1="-24.8421" x2="45.9166" y2="-19.33" gradientUnits="userSpaceOnUse">
<stop stop-color="#F93C3C"/>
<stop offset="1" stop-color="#CD0973"/>
</linearGradient>
<linearGradient id="paint17_linear_0_6531" x1="8.11561" y1="-24.8421" x2="45.9166" y2="-19.33" gradientUnits="userSpaceOnUse">
<stop stop-color="#F93C3C"/>
<stop offset="1" stop-color="#CD0973"/>
</linearGradient>
<linearGradient id="paint18_linear_0_6531" x1="8.11561" y1="-24.8421" x2="45.9166" y2="-19.33" gradientUnits="userSpaceOnUse">
<stop stop-color="#F93C3C"/>
<stop offset="1" stop-color="#CD0973"/>
</linearGradient>
<linearGradient id="paint19_linear_0_6531" x1="8.11561" y1="-24.8421" x2="45.9166" y2="-19.33" gradientUnits="userSpaceOnUse">
<stop stop-color="#F93C3C"/>
<stop offset="1" stop-color="#CD0973"/>
</linearGradient>
<linearGradient id="paint20_linear_0_6531" x1="8.11561" y1="-24.8421" x2="45.9166" y2="-19.33" gradientUnits="userSpaceOnUse">
<stop stop-color="#F93C3C"/>
<stop offset="1" stop-color="#CD0973"/>
</linearGradient>
<linearGradient id="paint21_linear_0_6531" x1="8.11561" y1="-24.8421" x2="45.9166" y2="-19.33" gradientUnits="userSpaceOnUse">
<stop stop-color="#F93C3C"/>
<stop offset="1" stop-color="#CD0973"/>
</linearGradient>
</defs>
</svg>
