<svg width="88" height="44" viewBox="0 0 88 44" fill="none" xmlns="http://www.w3.org/2000/svg">
<path d="M85.3332 0H2.66681C1.19625 0 0 1.19642 0 2.66698V27.4668C0 28.9374 1.19625 30.1336 2.66681 30.1336H3.94537C8.62769 30.1336 12.4263 33.9239 12.4367 38.6062C12.4379 39.1327 12.759 39.6055 13.2481 39.8006C13.4032 39.8624 13.5651 39.8924 13.7256 39.8924C14.0716 39.8924 14.4107 39.753 14.6589 39.4928C16.4817 37.5805 19.6595 38.1139 20.7581 40.5165L21.6832 42.5399C21.8998 43.0136 22.3673 43.2933 22.8563 43.2933C23.0355 43.2933 23.2179 43.2556 23.3915 43.1762C24.039 42.8802 24.3239 42.1154 24.0278 41.4679L23.1026 39.4445C22.0041 37.042 23.6795 34.2896 26.3182 34.162C26.8441 34.1366 27.3017 33.7939 27.474 33.2965C27.6463 32.7991 27.499 32.2467 27.1014 31.9014C26.398 31.2903 26.8302 30.1338 27.762 30.1338H85.3332C86.8037 30.1338 88 28.9374 88 27.467V2.66716C88 1.19642 86.8037 0 85.3332 0ZM18.7828 31.9454C18.4522 31.9614 18.1404 32.1038 17.9121 32.3434C16.861 33.4462 15.002 32.7046 14.9987 31.1811L14.9955 29.7612C14.9913 27.8207 17.2733 26.7774 18.7381 28.0501L19.8098 28.9812C20.9599 29.9805 20.3047 31.8718 18.7828 31.9454ZM85.4219 27.4668C85.4219 27.5158 85.3822 27.5555 85.3332 27.5555H78.4436C68.5029 27.5555 60.4445 19.497 60.4445 9.55642C60.4445 8.84451 59.8673 8.26736 59.1554 8.26736C58.4435 8.26736 57.8664 8.84451 57.8664 9.55642C57.8664 19.4971 49.8078 27.5557 39.8671 27.5557H30.3218C25.0195 27.5557 19.8956 25.6407 15.8929 22.1631L14.5344 20.9828C14.153 20.6513 13.6128 20.5734 13.1529 20.7836C12.6931 20.9938 12.3987 21.4533 12.3999 21.9588C12.4068 25.0478 9.90445 27.5557 6.81535 27.5557H2.66681C2.61783 27.5557 2.57812 27.5158 2.57812 27.467V2.66716C2.57812 2.61817 2.61783 2.57847 2.66681 2.57847H56.3999C57.2098 2.57847 57.8664 3.23501 57.8664 4.04491C57.8664 4.75681 58.4435 5.33397 59.1554 5.33397C59.8673 5.33397 60.4445 4.75681 60.4445 4.04491C60.4445 3.23501 61.101 2.57847 61.9109 2.57847H85.3332C85.3822 2.57847 85.4219 2.61817 85.4219 2.66716V27.4668Z" fill="url(#paint0_linear_0_12555)"/>
<path d="M80.7336 21.044L80.0456 20.356C78.3863 18.6968 78.3556 16.0356 78.3556 13.689C78.3556 9.93936 75.305 6.88892 71.5555 6.88892C67.8061 6.88892 64.7555 9.93953 64.7555 13.689C64.7555 17.4384 67.8061 20.489 71.5555 20.489C73.9021 20.489 76.5634 20.5197 78.2227 22.179L78.9107 22.8669C79.1624 23.1187 79.4924 23.2445 79.8222 23.2445C80.152 23.2445 80.482 23.1187 80.7336 22.8669C81.2371 22.3635 81.2371 21.5475 80.7336 21.044ZM71.5555 17.9113C69.2275 17.9113 67.3336 16.0172 67.3336 13.6893C67.3336 11.3615 69.2276 9.46739 71.5555 9.46739C73.8834 9.46739 75.7775 11.3615 75.7775 13.6893C75.7775 16.017 73.8836 17.9113 71.5555 17.9113Z" fill="url(#paint1_linear_0_12555)"/>
<path d="M6.80006 5.51117C6.08816 5.51117 5.511 6.08833 5.511 6.80023V23.3334C5.511 24.0453 6.08816 24.6225 6.80006 24.6225C7.51197 24.6225 8.08912 24.0453 8.08912 23.3334V6.80023C8.08912 6.0885 7.51214 5.51117 6.80006 5.51117Z" fill="url(#paint2_linear_0_12555)"/>
<defs>
<linearGradient id="paint0_linear_0_12555" x1="17" y1="-33.6092" x2="93.9443" y2="-16.2372" gradientUnits="userSpaceOnUse">
<stop stop-color="#F93C3C"/>
<stop offset="1" stop-color="#CD0973"/>
</linearGradient>
<linearGradient id="paint1_linear_0_12555" x1="17" y1="-33.6092" x2="93.9443" y2="-16.2372" gradientUnits="userSpaceOnUse">
<stop stop-color="#F93C3C"/>
<stop offset="1" stop-color="#CD0973"/>
</linearGradient>
<linearGradient id="paint2_linear_0_12555" x1="17" y1="-33.6092" x2="93.9443" y2="-16.2372" gradientUnits="userSpaceOnUse">
<stop stop-color="#F93C3C"/>
<stop offset="1" stop-color="#CD0973"/>
</linearGradient>
</defs>
</svg>
