<svg width="48" height="44" viewBox="0 0 48 44" fill="none" xmlns="http://www.w3.org/2000/svg">
<path d="M47.2288 22.234C47.6166 22.234 47.9309 21.9198 47.9309 21.5319V2.57441C47.9309 1.15493 46.776 0 45.3565 0H12.7785C11.359 0 10.204 1.15493 10.204 2.57441V7.44333C10.204 8.24471 9.55439 8.89436 8.75301 8.89436C8.10772 8.89436 7.58282 9.41926 7.58282 10.0646V20.9239C7.58282 21.1566 7.39421 21.3452 7.16155 21.3452C6.92889 21.3452 6.74028 21.1566 6.74028 20.9239V13.9964C6.74028 13.0931 6.00531 12.3581 5.10202 12.3581H4.07225C3.16896 12.3581 2.43399 13.0931 2.43399 13.9964V20.5494C2.43399 20.9889 2.07773 21.3452 1.63826 21.3452C0.734972 21.3452 0 22.0801 0 22.9834V24.2004C0 25.4111 1.12036 26.5108 1.20143 27.7188L1.89847 38.1048C1.90857 38.2554 1.78917 38.3831 1.63826 38.3831C0.734972 38.3831 0 39.1181 0 40.0214V42.3617C0 43.265 0.734972 44 1.63826 44H46.2926C47.1959 44 47.9309 43.265 47.9309 42.3617V40.0214C47.9309 39.1181 47.1959 38.3831 46.2926 38.3831H37.1405C37.0103 38.3831 36.9013 38.2803 36.9013 38.1501C36.9013 36.3209 35.4132 34.8327 33.5839 34.8327H33.2809C32.8431 34.8327 32.4553 34.5501 32.3213 34.1333C32.1121 33.4827 32.5974 32.8168 33.2809 32.8168H45.3565C46.776 32.8168 47.9309 31.6619 47.9309 30.2424V24.8085C47.9309 24.4206 47.6166 24.1063 47.2288 24.1063C46.8409 24.1063 46.5267 24.4206 46.5267 24.8085C46.5267 26.3428 45.2829 27.5866 43.7486 27.5866H15.5049C14.8787 27.5866 14.3831 27.0566 14.425 26.4318C14.4535 26.0072 14.7541 25.6598 15.0561 25.3601C15.3548 25.0637 15.5401 24.6536 15.5401 24.2004V22.9834C15.5401 22.0801 14.8051 21.3452 13.9018 21.3452C13.4624 21.3452 13.1061 20.9889 13.1061 20.5494V16.3831C13.1061 15.9953 12.7918 15.681 12.404 15.681C12.0161 15.681 11.7019 15.9953 11.7019 16.3831V19.9877C11.7019 20.7374 11.0941 21.3452 10.3445 21.3452C9.59478 21.3452 8.98704 20.7374 8.98704 19.9877V11.656C8.98704 10.9063 9.59478 10.2986 10.3445 10.2986C11.0941 10.2986 11.7019 10.9063 11.7019 11.656V13.1066C11.7019 13.4944 12.0161 13.8087 12.404 13.8087C12.7918 13.8087 13.1061 13.4944 13.1061 13.1066V10.0646C13.1061 9.41926 12.5812 8.89436 11.9359 8.89436C11.755 8.89436 11.6083 8.74767 11.6083 8.56671V2.57441C11.6083 1.92912 12.1332 1.40423 12.7785 1.40423H45.3565C46.0018 1.40423 46.5267 1.92912 46.5267 2.57441V21.5319C46.5267 21.9198 46.8409 22.234 47.2288 22.234ZM3.83822 17.741C3.83822 17.4049 4.11065 17.1325 4.44671 17.1325H4.72756C5.06362 17.1325 5.33606 17.4049 5.33606 17.741C5.33606 18.077 5.06362 18.3495 4.72756 18.3495H4.44671C4.11065 18.3495 3.83822 18.077 3.83822 17.741ZM4.07225 13.7623H5.10202C5.23111 13.7623 5.33606 13.8673 5.33606 13.9964V14.9793C5.33606 15.393 5.00075 15.7283 4.58714 15.7283C4.17352 15.7283 3.83822 15.393 3.83822 14.9793V13.9964C3.83822 13.8673 3.94316 13.7623 4.07225 13.7623ZM3.83822 20.5026C3.83822 20.089 4.17352 19.7537 4.58714 19.7537C5.00075 19.7537 5.33606 20.089 5.33606 20.5026V20.5962C5.33606 21.0099 5.00075 21.3452 4.58714 21.3452C4.17352 21.3452 3.83822 21.0099 3.83822 20.5962V20.5026ZM46.5267 40.0214V42.3617C46.5267 42.4908 46.4217 42.5958 46.2926 42.5958H1.63826C1.50917 42.5958 1.40423 42.4908 1.40423 42.3617V40.0214C1.40423 39.8923 1.50917 39.7873 1.63826 39.7873H46.2926C46.4217 39.7873 46.5267 39.8923 46.5267 40.0214ZM13.8222 35.4136C13.9203 33.9522 15.1344 32.8168 16.5991 32.8168H24.0115C24.695 32.8168 25.1803 33.4827 24.9711 34.1333C24.8371 34.5501 24.4493 34.8327 24.0115 34.8327H23.7085C21.8793 34.8327 20.3911 36.3209 20.3911 38.1501C20.3911 38.2782 20.2886 38.3831 20.1605 38.3831H16.5991C14.9887 38.3831 13.7144 37.0204 13.8222 35.4136ZM35.497 38.1501C35.497 38.2758 35.3973 38.3778 35.2729 38.3831H22.0195C21.8951 38.3778 21.7954 38.2757 21.7954 38.1501C21.7954 37.0951 22.6535 36.237 23.7085 36.237H25.2558C25.2566 36.237 25.2574 36.2372 25.2582 36.2372C25.2589 36.2372 25.2597 36.237 25.2605 36.237H32.032C32.0327 36.237 32.0335 36.2372 32.0343 36.2372C32.0352 36.2372 32.0359 36.237 32.0367 36.237H33.584C34.6389 36.237 35.497 37.0951 35.497 38.1501ZM30.6479 33.5163C30.8571 34.1669 30.3718 34.8327 29.6883 34.8327H27.604C26.9205 34.8327 26.4352 34.1669 26.6444 33.5163C26.7784 33.0995 27.1662 32.8168 27.604 32.8168H29.6883C30.1261 32.8168 30.5139 33.0995 30.6479 33.5163ZM45.275 28.9908C45.9663 28.9908 46.5267 29.5512 46.5267 30.2424C46.5267 30.8877 46.0018 31.4126 45.3565 31.4126C36.9873 31.4126 24.1393 31.4126 15.3823 31.4126C14.6817 31.4126 14.1305 30.8197 14.1774 30.1206C14.2201 29.4848 14.7483 28.9908 15.3856 28.9908H45.275ZM14.1359 22.9834V24.2004C14.1359 24.3295 14.0309 24.4345 13.9018 24.4345H7.58282C7.19497 24.4345 6.8807 24.7487 6.8807 25.1366C6.8807 25.5244 7.19497 25.8387 7.58282 25.8387C10.5451 25.8387 12.8891 28.3453 12.6908 31.3009L12.5131 33.9477C12.3456 36.4439 10.2719 38.3831 7.77005 38.3831C5.26819 38.3831 3.1945 36.4439 3.02697 33.9477L2.60487 27.6581C2.5388 26.6736 3.31957 25.8387 4.30629 25.8387C4.69414 25.8387 5.0084 25.5244 5.0084 25.1366C5.0084 24.7487 4.69414 24.4345 4.30629 24.4345H1.63826C1.50917 24.4345 1.40423 24.3295 1.40423 24.2004V22.9834C1.40423 22.8543 1.50917 22.7494 1.63826 22.7494H13.9018C14.0309 22.7494 14.1359 22.8543 14.1359 22.9834Z" fill="url(#paint0_linear_0_6463)"/>
<path d="M43.6246 19.0047V5.99225C43.6246 5.08895 42.8896 4.35398 41.9863 4.35398H30.2377C29.8498 4.35398 29.5355 4.66825 29.5355 5.0561C29.5355 5.44394 29.8498 5.75821 30.2377 5.75821H41.9863C42.1154 5.75821 42.2204 5.86315 42.2204 5.99225C42.2204 9.18056 39.6357 11.7652 36.4474 11.7652H27.8115C26.1527 11.7652 24.808 10.4205 24.808 8.76171V7.91136C24.808 6.72221 25.772 5.75821 26.9611 5.75821C27.349 5.75821 27.6632 5.44394 27.6632 5.0561C27.6632 4.66825 27.349 4.35398 26.9611 4.35398H16.1486C15.2453 4.35398 14.5103 5.08895 14.5103 5.99225V19.0047C14.5103 19.908 15.2453 20.643 16.1486 20.643H41.9863C42.8896 20.643 43.6246 19.908 43.6246 19.0047ZM36.3851 13.1694C39.6078 13.1694 42.2204 15.782 42.2204 19.0047C42.2204 19.1338 42.1154 19.2388 41.9863 19.2388H27.8427C26.1667 19.2388 24.808 17.8801 24.808 16.2041C24.808 14.5281 26.1667 13.1694 27.8427 13.1694H36.3851ZM16.1486 5.75821H20.4003C22.059 5.75821 23.4038 7.10292 23.4038 8.76171C23.4038 10.4205 22.059 11.7652 20.4003 11.7652H19.6592C17.5911 11.7652 15.9146 10.0887 15.9146 8.0206V5.99225C15.9146 5.86315 16.0195 5.75821 16.1486 5.75821ZM15.9146 19.0047V16.914C15.9146 14.8459 17.5911 13.1694 19.6592 13.1694H20.3691C22.0451 13.1694 23.4038 14.5281 23.4038 16.2041C23.4038 17.8801 22.0451 19.2388 20.3691 19.2388H16.1486C16.0195 19.2388 15.9146 19.1338 15.9146 19.0047Z" fill="url(#paint1_linear_0_6463)"/>
<path d="M28.5056 8.33262H28.5126L33.3806 8.28582C33.7683 8.28207 34.0796 7.96472 34.0759 7.57696C34.0722 7.19155 33.7586 6.88159 33.374 6.88159C33.3717 6.88159 33.3693 6.88159 33.3671 6.88159L28.4991 6.9284C28.1113 6.93214 27.8001 7.2495 27.8037 7.63725C27.8075 8.02267 28.1211 8.33262 28.5056 8.33262Z" fill="url(#paint2_linear_0_6463)"/>
<path d="M28.5058 10.7198H37.4928C37.8807 10.7198 38.1949 10.4056 38.1949 10.0177C38.1949 9.62985 37.8807 9.31558 37.4928 9.31558H28.5058C28.1179 9.31558 27.8037 9.62985 27.8037 10.0177C27.8037 10.4056 28.1179 10.7198 28.5058 10.7198Z" fill="url(#paint3_linear_0_6463)"/>
<path d="M38.429 8.28582C38.8168 8.28582 39.1311 7.97155 39.1311 7.5837C39.1311 7.19586 38.8168 6.88159 38.429 6.88159H36.1822C35.7944 6.88159 35.4801 7.19586 35.4801 7.5837C35.4801 7.97155 35.7944 8.28582 36.1822 8.28582H38.429Z" fill="url(#paint4_linear_0_6463)"/>
<path d="M32.8121 16.9452H28.5058C28.1179 16.9452 27.8037 17.2595 27.8037 17.6473C27.8037 18.0352 28.1179 18.3494 28.5058 18.3494H32.8121C33.1999 18.3494 33.5142 18.0352 33.5142 17.6473C33.5142 17.2595 33.1999 16.9452 32.8121 16.9452Z" fill="url(#paint5_linear_0_6463)"/>
<path d="M28.5057 15.4942H28.509L38.4322 15.4474C38.8201 15.4455 39.1329 15.1296 39.1311 14.742C39.1292 14.3553 38.8153 14.0431 38.4291 14.0431C38.4279 14.0431 38.4268 14.0431 38.4257 14.0431L28.5025 14.09C28.1146 14.0918 27.8019 14.4077 27.8037 14.7953C27.8055 15.1821 28.1194 15.4942 28.5057 15.4942Z" fill="url(#paint6_linear_0_6463)"/>
<path d="M19.6592 10.907C20.8205 10.907 21.7655 9.96209 21.7655 8.8007C21.7655 7.63931 20.8205 6.69436 19.6592 6.69436C18.4978 6.69436 17.5528 7.63931 17.5528 8.8007C17.5528 9.96209 18.4978 10.907 19.6592 10.907ZM19.6592 8.09859C20.0463 8.09859 20.3613 8.41351 20.3613 8.8007C20.3613 9.1879 20.0463 9.50282 19.6592 9.50282C19.272 9.50282 18.957 9.1879 18.957 8.8007C18.957 8.41351 19.272 8.09859 19.6592 8.09859Z" fill="url(#paint7_linear_0_6463)"/>
<path d="M19.6592 14.09C18.4978 14.09 17.5528 15.0349 17.5528 16.1963C17.5528 17.3577 18.4978 18.3026 19.6592 18.3026C20.8205 18.3026 21.7655 17.3577 21.7655 16.1963C21.7655 15.0349 20.8205 14.09 19.6592 14.09ZM19.6592 16.8984C19.272 16.8984 18.957 16.5835 18.957 16.1963C18.957 15.8091 19.272 15.4942 19.6592 15.4942C20.0463 15.4942 20.3613 15.8091 20.3613 16.1963C20.3613 16.5835 20.0463 16.8984 19.6592 16.8984Z" fill="url(#paint8_linear_0_6463)"/>
<path d="M26.1654 22.0004C25.2621 22.0004 24.5271 22.7354 24.5271 23.6387V24.5748C24.5271 25.4781 25.2621 26.2131 26.1654 26.2131H31.9695C32.8728 26.2131 33.6078 25.4781 33.6078 24.5748V23.6387C33.6078 22.7354 32.8728 22.0004 31.9695 22.0004H26.1654ZM32.2036 23.6387V24.5748C32.2036 24.7039 32.0986 24.8089 31.9695 24.8089H26.1654C26.0363 24.8089 25.9314 24.7039 25.9314 24.5748V23.6387C25.9314 23.5096 26.0363 23.4046 26.1654 23.4046H31.9695C32.0986 23.4046 32.2036 23.5096 32.2036 23.6387Z" fill="url(#paint9_linear_0_6463)"/>
<defs>
<linearGradient id="paint0_linear_0_6463" x1="17.5222" y1="-0.710134" x2="51.4178" y2="28.4486" gradientUnits="userSpaceOnUse">
<stop stop-color="#A068F8"/>
<stop offset="0.6891" stop-color="#3F55C3"/>
<stop offset="1" stop-color="#184EAE"/>
</linearGradient>
<linearGradient id="paint1_linear_0_6463" x1="17.5222" y1="-0.710134" x2="51.4178" y2="28.4486" gradientUnits="userSpaceOnUse">
<stop stop-color="#A068F8"/>
<stop offset="0.6891" stop-color="#3F55C3"/>
<stop offset="1" stop-color="#184EAE"/>
</linearGradient>
<linearGradient id="paint2_linear_0_6463" x1="17.5222" y1="-0.710134" x2="51.4178" y2="28.4486" gradientUnits="userSpaceOnUse">
<stop stop-color="#A068F8"/>
<stop offset="0.6891" stop-color="#3F55C3"/>
<stop offset="1" stop-color="#184EAE"/>
</linearGradient>
<linearGradient id="paint3_linear_0_6463" x1="17.5222" y1="-0.710134" x2="51.4178" y2="28.4486" gradientUnits="userSpaceOnUse">
<stop stop-color="#A068F8"/>
<stop offset="0.6891" stop-color="#3F55C3"/>
<stop offset="1" stop-color="#184EAE"/>
</linearGradient>
<linearGradient id="paint4_linear_0_6463" x1="17.5222" y1="-0.710134" x2="51.4178" y2="28.4486" gradientUnits="userSpaceOnUse">
<stop stop-color="#A068F8"/>
<stop offset="0.6891" stop-color="#3F55C3"/>
<stop offset="1" stop-color="#184EAE"/>
</linearGradient>
<linearGradient id="paint5_linear_0_6463" x1="17.5222" y1="-0.710134" x2="51.4178" y2="28.4486" gradientUnits="userSpaceOnUse">
<stop stop-color="#A068F8"/>
<stop offset="0.6891" stop-color="#3F55C3"/>
<stop offset="1" stop-color="#184EAE"/>
</linearGradient>
<linearGradient id="paint6_linear_0_6463" x1="17.5222" y1="-0.710134" x2="51.4178" y2="28.4486" gradientUnits="userSpaceOnUse">
<stop stop-color="#A068F8"/>
<stop offset="0.6891" stop-color="#3F55C3"/>
<stop offset="1" stop-color="#184EAE"/>
</linearGradient>
<linearGradient id="paint7_linear_0_6463" x1="17.5222" y1="-0.710134" x2="51.4178" y2="28.4486" gradientUnits="userSpaceOnUse">
<stop stop-color="#A068F8"/>
<stop offset="0.6891" stop-color="#3F55C3"/>
<stop offset="1" stop-color="#184EAE"/>
</linearGradient>
<linearGradient id="paint8_linear_0_6463" x1="17.5222" y1="-0.710134" x2="51.4178" y2="28.4486" gradientUnits="userSpaceOnUse">
<stop stop-color="#A068F8"/>
<stop offset="0.6891" stop-color="#3F55C3"/>
<stop offset="1" stop-color="#184EAE"/>
</linearGradient>
<linearGradient id="paint9_linear_0_6463" x1="17.5222" y1="-0.710134" x2="51.4178" y2="28.4486" gradientUnits="userSpaceOnUse">
<stop stop-color="#A068F8"/>
<stop offset="0.6891" stop-color="#3F55C3"/>
<stop offset="1" stop-color="#184EAE"/>
</linearGradient>
</defs>
</svg>
