<svg width="44" height="44" viewBox="0 0 44 44" fill="none" xmlns="http://www.w3.org/2000/svg">
<path d="M41.6367 0C36.3225 0 22.195 0 16.7148 0C15.4117 0 14.3516 1.06012 14.3516 2.36328V17.3594C14.3516 18.5459 13.3897 19.5078 12.2031 19.5078C11.8472 19.5078 11.5586 19.7963 11.5586 20.1523C11.5586 20.5084 11.8472 20.7969 12.2031 20.7969C13.3897 20.7969 14.3516 21.7588 14.3516 22.9453V25.7383C14.3516 26.5689 13.6782 27.2422 12.8477 27.2422H12.6328C11.9209 27.2422 11.3438 26.6651 11.3438 25.9531V25.3086C11.3438 24.9526 11.6323 24.6641 11.9883 24.6641C12.3442 24.6641 12.6328 24.3756 12.6328 24.0195C12.6328 23.6635 12.3442 23.375 11.9883 23.375H3.99609C3.64014 23.375 3.35156 23.6635 3.35156 24.0195C3.35156 24.3756 3.64014 24.6641 3.99609 24.6641C4.3046 24.6641 4.55469 24.9142 4.55469 25.2227V25.9531C4.55469 26.6651 3.97755 27.2422 3.26562 27.2422H3.22266C2.15643 27.2422 1.28906 26.3747 1.28906 25.3086V22.7305C1.28906 21.6643 2.15643 20.7969 3.22266 20.7969H9.19531C9.55127 20.7969 9.83984 20.5084 9.83984 20.1523C9.83984 19.7963 9.55127 19.5078 9.19531 19.5078H3.22266C1.44564 19.5078 0 20.9535 0 22.7305V25.3086C0 26.8042 0 28.9693 0 30.4648V33.043C0 34.5385 0 36.7037 0 38.1992V40.7773C0 42.5544 1.44564 44 3.22266 44H41.6367C42.9399 44 44 42.9399 44 41.6367V2.36328C44 1.06012 42.9399 0 41.6367 0ZM40.3906 35.707C40.3906 35.3036 40.7177 34.9766 41.1211 34.9766H41.9805C42.3839 34.9766 42.7109 35.3036 42.7109 35.707C42.7109 36.1105 42.3839 36.4375 41.9805 36.4375H41.1211C40.7177 36.4375 40.3906 36.1105 40.3906 35.707ZM41.1211 33.6875C40.7177 33.6875 40.3906 33.3605 40.3906 32.957C40.3906 32.5536 40.7177 32.2266 41.1211 32.2266H41.9805C42.3839 32.2266 42.7109 32.5536 42.7109 32.957C42.7109 33.3605 42.3839 33.6875 41.9805 33.6875H41.1211ZM41.1211 30.9375C40.7177 30.9375 40.3906 30.6105 40.3906 30.207C40.3906 29.8036 40.7177 29.4766 41.1211 29.4766H41.9805C42.3839 29.4766 42.7109 29.8036 42.7109 30.207C42.7109 30.6105 42.3839 30.9375 41.9805 30.9375H41.1211ZM40.3906 38.457C40.3906 38.0536 40.7177 37.7266 41.1211 37.7266H41.9805C42.3839 37.7266 42.7109 38.0536 42.7109 38.457C42.7109 38.8605 42.3839 39.1875 41.9805 39.1875H41.1211C40.7177 39.1875 40.3906 38.8605 40.3906 38.457ZM7.94922 24.6641C9.11204 24.6641 10.0547 25.6067 10.0547 26.7695V29.5317C10.0547 30.367 9.13595 30.8762 8.42763 30.4336C8.13708 30.2516 7.76145 30.2517 7.47106 30.4334C6.76263 30.8761 5.84375 30.3668 5.84375 29.5314V26.7695C5.84375 25.6067 6.7864 24.6641 7.94922 24.6641ZM1.28906 40.7773V38.1992C1.28906 37.1331 2.15643 36.2656 3.22266 36.2656H5.67188C6.02783 36.2656 6.31641 35.9771 6.31641 35.6211C6.31641 35.2651 6.02783 34.9766 5.67188 34.9766H3.22266C2.15643 34.9766 1.28906 34.1091 1.28906 33.043V30.4648C1.28906 29.3987 2.15643 28.5312 3.22266 28.5312C3.95832 28.5312 4.55469 29.1276 4.55469 29.8633V32.1481C4.55469 32.7824 5.35859 33.1777 5.93519 32.9134C7.16738 32.1433 8.73096 32.1432 9.96316 32.9133C10.2412 33.0871 10.592 33.0964 10.8788 32.9374C11.1656 32.7785 11.3438 32.476 11.3438 32.1481V30.0352C11.3438 29.2046 12.0171 28.5312 12.8477 28.5312C13.6782 28.5312 14.3516 29.2046 14.3516 30.0352V31.7539C14.3516 33.5337 12.9087 34.9766 11.1289 34.9766H8.67969C8.32373 34.9766 8.03516 35.2651 8.03516 35.6211C8.03516 35.9771 8.32373 36.2656 8.67969 36.2656H8.98047C11.9468 36.2656 14.3516 38.6703 14.3516 41.6367C14.3516 42.1465 14.0051 42.7109 13.4953 42.7109H3.22266C2.15643 42.7109 1.28906 41.8435 1.28906 40.7773ZM41.6367 42.7109C30.4594 42.7109 21.3984 33.65 21.3984 22.4727V21.5703C21.3984 21.2143 21.1099 20.9258 20.7539 20.9258C20.398 20.9258 20.1094 21.2143 20.1094 21.5703V39.3164C20.1094 41.1912 18.5896 42.7109 16.7148 42.7109C16.1225 42.7109 15.6406 42.2291 15.6406 41.6367V2.36328C15.6406 1.77091 16.1225 1.28906 16.7148 1.28906C18.5896 1.28906 20.1094 2.80885 20.1094 4.68359V18.5313C20.1094 18.8873 20.398 19.1758 20.7539 19.1758C21.1099 19.1758 21.3984 18.8873 21.3984 18.5313V7.13281C21.3984 3.9054 24.0148 1.28906 27.2422 1.28906C30.4696 1.28906 33.0859 3.9054 33.0859 7.13281V10.6992C33.0859 10.9507 33.2321 11.1791 33.4604 11.2845L38.4631 13.5934C38.8514 13.7726 39.2807 14.0104 39.6638 13.8203C39.8489 13.7019 39.9609 13.4972 39.9609 13.2774V9.49618C39.9609 9.14014 39.6724 8.85165 39.3164 8.85165C38.9604 8.85165 38.6719 9.14014 38.6719 9.49618C38.6719 10.7914 37.3293 11.6504 36.1533 11.1076L35.6231 10.8629C34.8622 10.5118 34.375 9.75025 34.375 8.91225V3.4375C34.375 2.25095 35.3369 1.28906 36.5234 1.28906C37.71 1.28906 38.6719 2.25095 38.6719 3.4375V6.44531C38.6719 6.80135 38.9604 7.08984 39.3164 7.08984C39.6724 7.08984 39.9609 6.80135 39.9609 6.44531V2.96484C39.9609 2.03934 40.7112 1.28906 41.6367 1.28906C42.2291 1.28906 42.7109 1.77091 42.7109 2.36328V25.5664C42.7109 27.014 41.5374 28.1875 40.0898 28.1875C39.5449 28.1875 39.1016 28.6309 39.1016 29.1758V39.4883C39.1016 40.0332 39.5449 40.4766 40.0898 40.4766H41.5508C42.1915 40.4766 42.7109 40.996 42.7109 41.6367C42.7109 42.2291 42.2291 42.7109 41.6367 42.7109Z" fill="url(#paint0_linear_0_6472)"/>
<path d="M36.2656 15.8125H27.8438C27.4877 15.8125 27.1992 16.101 27.1992 16.457C27.1992 16.8131 27.4877 17.1016 27.8438 17.1016H36.2656C36.6217 17.1016 36.9102 16.8131 36.9102 16.457C36.9102 16.101 36.6217 15.8125 36.2656 15.8125Z" fill="url(#paint1_linear_0_6472)"/>
<path d="M36.2656 18.8203H27.8438C27.4877 18.8203 27.1992 19.1088 27.1992 19.4648C27.1992 19.8209 27.4877 20.1094 27.8438 20.1094H36.2656C36.6217 20.1094 36.9102 19.8209 36.9102 19.4648C36.9102 19.1088 36.6217 18.8203 36.2656 18.8203Z" fill="url(#paint2_linear_0_6472)"/>
<path d="M36.2656 21.8281H27.8438C27.4877 21.8281 27.1992 22.1166 27.1992 22.4727C27.1992 22.8287 27.4877 23.1172 27.8438 23.1172H36.2656C36.6217 23.1172 36.9102 22.8287 36.9102 22.4727C36.9102 22.1166 36.6217 21.8281 36.2656 21.8281Z" fill="url(#paint3_linear_0_6472)"/>
<path d="M33.8164 24.8359H30.3789C29.5497 24.8359 28.875 25.5106 28.875 26.3398V29.7773C28.875 30.6066 29.5497 31.2812 30.3789 31.2812H33.8164C34.6456 31.2812 35.3203 30.6066 35.3203 29.7773V26.3398C35.3203 25.5106 34.6456 24.8359 33.8164 24.8359ZM34.0312 29.7773C34.0312 29.8959 33.9349 29.9922 33.8164 29.9922H30.3789C30.2604 29.9922 30.1641 29.8959 30.1641 29.7773V26.3398C30.1641 26.2213 30.2604 26.125 30.3789 26.125H33.8164C33.9349 26.125 34.0312 26.2213 34.0312 26.3398V29.7773Z" fill="url(#paint4_linear_0_6472)"/>
<defs>
<linearGradient id="paint0_linear_0_6472" x1="16.0852" y1="-0.710134" x2="49.4318" y2="25.6237" gradientUnits="userSpaceOnUse">
<stop stop-color="#C4CAE4"/>
<stop offset="1" stop-color="#9CA9C0"/>
</linearGradient>
<linearGradient id="paint1_linear_0_6472" x1="16.0852" y1="-0.710134" x2="49.4318" y2="25.6237" gradientUnits="userSpaceOnUse">
<stop stop-color="#C4CAE4"/>
<stop offset="1" stop-color="#9CA9C0"/>
</linearGradient>
<linearGradient id="paint2_linear_0_6472" x1="16.0852" y1="-0.710134" x2="49.4318" y2="25.6237" gradientUnits="userSpaceOnUse">
<stop stop-color="#C4CAE4"/>
<stop offset="1" stop-color="#9CA9C0"/>
</linearGradient>
<linearGradient id="paint3_linear_0_6472" x1="16.0852" y1="-0.710134" x2="49.4318" y2="25.6237" gradientUnits="userSpaceOnUse">
<stop stop-color="#C4CAE4"/>
<stop offset="1" stop-color="#9CA9C0"/>
</linearGradient>
<linearGradient id="paint4_linear_0_6472" x1="16.0852" y1="-0.710134" x2="49.4318" y2="25.6237" gradientUnits="userSpaceOnUse">
<stop stop-color="#C4CAE4"/>
<stop offset="1" stop-color="#9CA9C0"/>
</linearGradient>
</defs>
</svg>
