<svg width="55" height="55" viewBox="0 0 55 55" fill="none" xmlns="http://www.w3.org/2000/svg">
<path d="M52.3307 6.03033H50.6755V1.87988C50.6755 0.843367 49.8321 0 48.7956 0H47.2167C46.1802 0 45.3368 0.843367 45.3368 1.87988V6.10531C44.5532 6.33186 43.9778 7.05449 43.9778 7.91021V26.8387C43.3228 27.0627 42.8499 27.6831 42.8499 28.4131V43.1012C42.8499 43.7698 43.2468 44.346 43.8167 44.6107V46.6435C43.8167 47.1801 43.9218 47.7034 44.129 48.1987L45.9163 52.4693C46.0801 52.8742 46.6094 53.3129 47.2005 53.2938V54.1943C47.2005 54.6394 47.5612 55 48.0062 55C48.4511 55 48.8118 54.6394 48.8118 54.1943V53.2938C49.2562 53.3094 49.8524 53.027 50.096 52.4694L51.8834 48.1986C52.0906 47.7035 52.1956 47.1802 52.1956 46.6435V44.6107C52.7655 44.346 53.1624 43.7698 53.1624 43.1012V28.413C53.1624 27.683 52.6896 27.0627 52.0345 26.8386V22.7734C52.0345 22.3283 51.6738 21.9677 51.2288 21.9677C50.7839 21.9677 50.4232 22.3283 50.4232 22.7734V26.748H45.5892V7.91021C45.5892 7.76208 45.7097 7.64166 45.8577 7.64166H50.1546C50.3026 7.64166 50.4232 7.76208 50.4232 7.91021V19.0136C50.4232 19.4587 50.7839 19.8193 51.2288 19.8193C51.6738 19.8193 52.0345 19.4587 52.0345 19.0136C52.0119 18.4437 52.0771 8.26309 52.013 7.64166H52.3307C52.9141 7.64166 53.3887 8.11624 53.3887 8.69965V22.0913C53.3887 22.5363 53.7494 22.8969 54.1943 22.8969C54.6393 22.8969 55 22.5363 55 22.0913V8.69954C55 7.22776 53.8026 6.03033 52.3307 6.03033ZM47.2166 1.61133H48.7955C48.9435 1.61133 49.0641 1.73174 49.0641 1.87988V6.03033H46.9481V1.87988C46.9481 1.73174 47.0686 1.61133 47.2166 1.61133ZM51.4974 28.3593C51.527 28.3593 51.5511 28.3835 51.5511 28.413V30.1483H50.081C49.6361 30.1483 49.2754 30.5089 49.2754 30.954C49.2754 31.399 49.6361 31.7596 50.081 31.7596H51.5511V33.3612H50.081C49.6361 33.3612 49.2754 33.7218 49.2754 34.1669C49.2754 34.6119 49.6361 34.9725 50.081 34.9725H51.5511V36.5838H50.081C49.6361 36.5838 49.2754 36.9445 49.2754 37.3895C49.2754 37.8346 49.6361 38.1952 50.081 38.1952H51.5511V39.7545H50.081C49.6361 39.7545 49.2754 40.1151 49.2754 40.5602C49.2754 41.0052 49.6361 41.3658 50.081 41.3658H51.5511V43.1011C51.5511 43.1307 51.527 43.1548 51.4974 43.1548H44.5149C44.4853 43.1548 44.4612 43.1307 44.4612 43.1011V41.3658H45.9313C46.3763 41.3658 46.737 41.0052 46.737 40.5602C46.737 40.1151 46.3763 39.7545 45.9313 39.7545H44.4612V38.1952H45.9313C46.3763 38.1952 46.737 37.8346 46.737 37.3895C46.737 36.9445 46.3763 36.5838 45.9313 36.5838H44.4612V34.9725H45.9313C46.3763 34.9725 46.737 34.6119 46.737 34.1669C46.737 33.7218 46.3763 33.3612 45.9313 33.3612H44.4612V31.7596H45.9313C46.3763 31.7596 46.737 31.399 46.737 30.954C46.737 30.5089 46.3763 30.1483 45.9313 30.1483H44.4612V28.413C44.4612 28.3835 44.4853 28.3593 44.5149 28.3593H51.4974ZM50.5843 46.5136H45.428V44.7662H50.5843V46.5136ZM48.6785 51.6824H47.3337L45.8448 48.1249H50.1674L48.6785 51.6824Z" fill="url(#paint0_linear_0_6518)"/>
<path d="M47.2005 11.8701V22.0752C47.2005 22.5202 47.5612 22.8808 48.0061 22.8808C48.4511 22.8808 48.8118 22.5202 48.8118 22.0752V11.8701C48.8118 11.425 48.4511 11.0644 48.0061 11.0644C47.5612 11.0644 47.2005 11.425 47.2005 11.8701Z" fill="url(#paint1_linear_0_6518)"/>
<path d="M38.5107 0H9.66796C9.22302 0 8.8623 0.360615 8.8623 0.805663C8.8623 1.25071 9.22302 1.61133 9.66796 1.61133H38.5107C39.2512 1.61133 39.8535 2.21364 39.8535 2.9541V52.0458C39.8535 52.7863 39.2512 53.3886 38.5107 53.3886H2.9541C2.21364 53.3886 1.61133 52.7863 1.61133 52.0458V2.9541C1.61133 2.21364 2.21364 1.61133 2.9541 1.61133H5.78112C6.22606 1.61133 6.58678 1.25071 6.58678 0.805663C6.58678 0.360615 6.22606 0 5.78112 0H2.9541C1.32516 0 0 1.32515 0 2.9541V52.0458C0 53.6747 1.32516 54.9999 2.9541 54.9999H38.5107C40.1397 54.9999 41.4648 53.6747 41.4648 52.0458V2.9541C41.4648 1.32515 40.1397 0 38.5107 0Z" fill="url(#paint2_linear_0_6518)"/>
<path d="M9.40017 10.4742H23.9555C24.4004 10.4742 24.7612 10.1136 24.7612 9.66853C24.7612 9.22348 24.4004 8.86287 23.9555 8.86287H9.40017C9.25214 8.86287 9.13162 8.74245 9.13162 8.59431V6.69961C9.13162 6.55148 9.25214 6.43106 9.40017 6.43106H32.0654C32.2135 6.43106 32.334 6.55148 32.334 6.69961V8.59431C32.334 8.74245 32.2135 8.86287 32.0654 8.86287H27.7153C27.2703 8.86287 26.9096 9.22348 26.9096 9.66853C26.9096 10.1136 27.2703 10.4742 27.7153 10.4742H32.0655C33.102 10.4742 33.9454 9.63082 33.9454 8.59431V6.69961C33.9454 5.6631 33.102 4.81974 32.0655 4.81974H9.40017C8.36366 4.81974 7.52029 5.6631 7.52029 6.69961V8.59431C7.52029 9.63082 8.36366 10.4742 9.40017 10.4742Z" fill="url(#paint3_linear_0_6518)"/>
<path d="M9.66796 15.5224C9.66796 14.4859 8.8246 13.6426 7.78808 13.6426H5.63965C4.60313 13.6426 3.75976 14.4859 3.75976 15.5224V17.6709C3.75976 18.7074 4.60313 19.5507 5.63965 19.5507H7.78808C8.8246 19.5507 9.66796 18.7074 9.66796 17.6709V15.5224ZM8.05664 17.6709C8.05664 17.819 7.93611 17.9394 7.78808 17.9394H5.63965C5.49162 17.9394 5.37109 17.819 5.37109 17.6709V15.5224C5.37109 15.3743 5.49162 15.2539 5.63965 15.2539H7.78808C7.93611 15.2539 8.05664 15.3743 8.05664 15.5224V17.6709Z" fill="url(#paint4_linear_0_6518)"/>
<path d="M36.8994 13.6426H15.8447C15.3998 13.6426 15.0391 14.0032 15.0391 14.4482C15.0391 14.8933 15.3998 15.2539 15.8447 15.2539H36.8994C37.3443 15.2539 37.7051 14.8933 37.7051 14.4482C37.7051 14.0032 37.3443 13.6426 36.8994 13.6426Z" fill="url(#paint5_linear_0_6518)"/>
<path d="M36.8994 17.4023H25.459C25.014 17.4023 24.6533 17.7629 24.6533 18.208C24.6533 18.653 25.014 19.0136 25.459 19.0136H36.8994C37.3443 19.0136 37.7051 18.653 37.7051 18.208C37.7051 17.7629 37.3443 17.4023 36.8994 17.4023Z" fill="url(#paint6_linear_0_6518)"/>
<path d="M12.6221 19.0136H21.6992C22.1442 19.0136 22.5049 18.653 22.5049 18.208C22.5049 17.7629 22.1442 17.4023 21.6992 17.4023H12.6221C12.1771 17.4023 11.8164 17.7629 11.8164 18.208C11.8164 18.653 12.1771 19.0136 12.6221 19.0136Z" fill="url(#paint7_linear_0_6518)"/>
<path d="M12.6221 22.7734H31.5283C31.9732 22.7734 32.334 22.4128 32.334 21.9677C32.334 21.5227 31.9732 21.1621 31.5283 21.1621H12.6221C12.1771 21.1621 11.8164 21.5227 11.8164 21.9677C11.8164 22.4128 12.1771 22.7734 12.6221 22.7734Z" fill="url(#paint8_linear_0_6518)"/>
<path d="M9.66796 29.2187C9.66796 28.1822 8.8246 27.3388 7.78808 27.3388H5.63965C4.60313 27.3388 3.75976 28.1822 3.75976 29.2187V31.3671C3.75976 32.4036 4.60313 33.247 5.63965 33.247H7.78808C8.8246 33.247 9.66796 32.4036 9.66796 31.3671V29.2187ZM8.05664 31.3671C8.05664 31.5153 7.93611 31.6357 7.78808 31.6357H5.63965C5.49162 31.6357 5.37109 31.5153 5.37109 31.3671V29.2187C5.37109 29.0706 5.49162 28.9501 5.63965 28.9501H7.78808C7.93611 28.9501 8.05664 29.0706 8.05664 29.2187V31.3671Z" fill="url(#paint9_linear_0_6518)"/>
<path d="M36.8994 27.3388H15.8447C15.3998 27.3388 15.0391 27.6994 15.0391 28.1445C15.0391 28.5895 15.3998 28.9501 15.8447 28.9501H36.8994C37.3443 28.9501 37.7051 28.5895 37.7051 28.1445C37.7051 27.6994 37.3443 27.3388 36.8994 27.3388Z" fill="url(#paint10_linear_0_6518)"/>
<path d="M36.8994 31.0986H12.6221C12.1771 31.0986 11.8164 31.4592 11.8164 31.9042C11.8164 32.3493 12.1771 32.7099 12.6221 32.7099H36.8994C37.3443 32.7099 37.7051 32.3493 37.7051 31.9042C37.7051 31.4592 37.3443 31.0986 36.8994 31.0986Z" fill="url(#paint11_linear_0_6518)"/>
<path d="M12.6221 36.4697H21.6455C22.0904 36.4697 22.4512 36.109 22.4512 35.664C22.4512 35.2189 22.0904 34.8583 21.6455 34.8583H12.6221C12.1771 34.8583 11.8164 35.2189 11.8164 35.664C11.8164 36.109 12.1771 36.4697 12.6221 36.4697Z" fill="url(#paint12_linear_0_6518)"/>
<path d="M7.78808 41.0351H5.63965C4.60313 41.0351 3.75976 41.8784 3.75976 42.915V45.0634C3.75976 46.0999 4.60313 46.9433 5.63965 46.9433H7.78808C8.8246 46.9433 9.66796 46.0999 9.66796 45.0634V42.915C9.66796 41.8784 8.8246 41.0351 7.78808 41.0351ZM8.05664 45.0634C8.05664 45.2115 7.93611 45.3319 7.78808 45.3319H5.63965C5.49162 45.3319 5.37109 45.2115 5.37109 45.0634V42.915C5.37109 42.7668 5.49162 42.6464 5.63965 42.6464H7.78808C7.93611 42.6464 8.05664 42.7668 8.05664 42.915V45.0634Z" fill="url(#paint13_linear_0_6518)"/>
<path d="M36.8994 41.0351H15.8447C15.3998 41.0351 15.0391 41.3957 15.0391 41.8407C15.0391 42.2858 15.3998 42.6464 15.8447 42.6464H36.8994C37.3443 42.6464 37.7051 42.2858 37.7051 41.8407C37.7051 41.3957 37.3443 41.0351 36.8994 41.0351Z" fill="url(#paint14_linear_0_6518)"/>
<path d="M36.8994 44.7948H32.1191C31.6742 44.7948 31.3135 45.1555 31.3135 45.6005C31.3135 46.0455 31.6742 46.4062 32.1191 46.4062H36.8994C37.3443 46.4062 37.7051 46.0455 37.7051 45.6005C37.7051 45.1555 37.3443 44.7948 36.8994 44.7948Z" fill="url(#paint15_linear_0_6518)"/>
<path d="M12.6221 46.4062H28.3594C28.8043 46.4062 29.165 46.0455 29.165 45.6005C29.165 45.1555 28.8043 44.7948 28.3594 44.7948H12.6221C12.1771 44.7948 11.8164 45.1555 11.8164 45.6005C11.8164 46.0455 12.1771 46.4062 12.6221 46.4062Z" fill="url(#paint16_linear_0_6518)"/>
<path d="M12.6221 50.1659H28.7353C29.1803 50.1659 29.541 49.8053 29.541 49.3603C29.541 48.9152 29.1803 48.5546 28.7353 48.5546H12.6221C12.1771 48.5546 11.8164 48.9152 11.8164 49.3603C11.8164 49.8053 12.1771 50.1659 12.6221 50.1659Z" fill="url(#paint17_linear_0_6518)"/>
<defs>
<linearGradient id="paint0_linear_0_6518" x1="27.5" y1="0" x2="27.5" y2="55" gradientUnits="userSpaceOnUse">
<stop stop-color="#F93C3C"/>
<stop offset="1" stop-color="#CD0973"/>
</linearGradient>
<linearGradient id="paint1_linear_0_6518" x1="27.5" y1="0" x2="27.5" y2="55" gradientUnits="userSpaceOnUse">
<stop stop-color="#F93C3C"/>
<stop offset="1" stop-color="#CD0973"/>
</linearGradient>
<linearGradient id="paint2_linear_0_6518" x1="27.5" y1="0" x2="27.5" y2="55" gradientUnits="userSpaceOnUse">
<stop stop-color="#F93C3C"/>
<stop offset="1" stop-color="#CD0973"/>
</linearGradient>
<linearGradient id="paint3_linear_0_6518" x1="27.5" y1="0" x2="27.5" y2="55" gradientUnits="userSpaceOnUse">
<stop stop-color="#F93C3C"/>
<stop offset="1" stop-color="#CD0973"/>
</linearGradient>
<linearGradient id="paint4_linear_0_6518" x1="27.5" y1="0" x2="27.5" y2="55" gradientUnits="userSpaceOnUse">
<stop stop-color="#F93C3C"/>
<stop offset="1" stop-color="#CD0973"/>
</linearGradient>
<linearGradient id="paint5_linear_0_6518" x1="27.5" y1="0" x2="27.5" y2="55" gradientUnits="userSpaceOnUse">
<stop stop-color="#F93C3C"/>
<stop offset="1" stop-color="#CD0973"/>
</linearGradient>
<linearGradient id="paint6_linear_0_6518" x1="27.5" y1="0" x2="27.5" y2="55" gradientUnits="userSpaceOnUse">
<stop stop-color="#F93C3C"/>
<stop offset="1" stop-color="#CD0973"/>
</linearGradient>
<linearGradient id="paint7_linear_0_6518" x1="27.5" y1="0" x2="27.5" y2="55" gradientUnits="userSpaceOnUse">
<stop stop-color="#F93C3C"/>
<stop offset="1" stop-color="#CD0973"/>
</linearGradient>
<linearGradient id="paint8_linear_0_6518" x1="27.5" y1="0" x2="27.5" y2="55" gradientUnits="userSpaceOnUse">
<stop stop-color="#F93C3C"/>
<stop offset="1" stop-color="#CD0973"/>
</linearGradient>
<linearGradient id="paint9_linear_0_6518" x1="27.5" y1="0" x2="27.5" y2="55" gradientUnits="userSpaceOnUse">
<stop stop-color="#F93C3C"/>
<stop offset="1" stop-color="#CD0973"/>
</linearGradient>
<linearGradient id="paint10_linear_0_6518" x1="27.5" y1="0" x2="27.5" y2="55" gradientUnits="userSpaceOnUse">
<stop stop-color="#F93C3C"/>
<stop offset="1" stop-color="#CD0973"/>
</linearGradient>
<linearGradient id="paint11_linear_0_6518" x1="27.5" y1="0" x2="27.5" y2="55" gradientUnits="userSpaceOnUse">
<stop stop-color="#F93C3C"/>
<stop offset="1" stop-color="#CD0973"/>
</linearGradient>
<linearGradient id="paint12_linear_0_6518" x1="27.5" y1="0" x2="27.5" y2="55" gradientUnits="userSpaceOnUse">
<stop stop-color="#F93C3C"/>
<stop offset="1" stop-color="#CD0973"/>
</linearGradient>
<linearGradient id="paint13_linear_0_6518" x1="27.5" y1="0" x2="27.5" y2="55" gradientUnits="userSpaceOnUse">
<stop stop-color="#F93C3C"/>
<stop offset="1" stop-color="#CD0973"/>
</linearGradient>
<linearGradient id="paint14_linear_0_6518" x1="27.5" y1="0" x2="27.5" y2="55" gradientUnits="userSpaceOnUse">
<stop stop-color="#F93C3C"/>
<stop offset="1" stop-color="#CD0973"/>
</linearGradient>
<linearGradient id="paint15_linear_0_6518" x1="27.5" y1="0" x2="27.5" y2="55" gradientUnits="userSpaceOnUse">
<stop stop-color="#F93C3C"/>
<stop offset="1" stop-color="#CD0973"/>
</linearGradient>
<linearGradient id="paint16_linear_0_6518" x1="27.5" y1="0" x2="27.5" y2="55" gradientUnits="userSpaceOnUse">
<stop stop-color="#F93C3C"/>
<stop offset="1" stop-color="#CD0973"/>
</linearGradient>
<linearGradient id="paint17_linear_0_6518" x1="27.5" y1="0" x2="27.5" y2="55" gradientUnits="userSpaceOnUse">
<stop stop-color="#F93C3C"/>
<stop offset="1" stop-color="#CD0973"/>
</linearGradient>
</defs>
</svg>
