<svg width="34" height="34" viewBox="0 0 34 34" fill="none" xmlns="http://www.w3.org/2000/svg">
<path d="M12.0527 31.1777C11.7776 31.1777 11.5547 31.4007 11.5547 31.6758C11.5547 31.9509 11.7776 32.1738 12.0527 32.1738H17.498C17.7732 32.1738 17.9961 31.9509 17.9961 31.6758C17.9961 31.4007 17.7732 31.1777 17.498 31.1777H12.0527Z" fill="url(#paint0_linear_0_6529)"/>
<path d="M32.1074 0H12.9824C11.9755 0 11.1562 0.819254 11.1562 1.82617C11.1562 2.13791 10.9035 2.39062 10.5918 2.39062H9.19727C7.79894 2.39062 6.47599 3.71875 5.07767 3.71875C3.84766 3.71875 2.54307 3.71875 1.82617 3.71875C0.819254 3.71875 0 4.538 0 5.54492V32.1738C0 33.1807 0.819254 34 1.82617 34H24.3379C25.3448 34 26.1641 33.1807 26.1641 32.1738C26.1641 31.1286 27.0114 30.2812 28.0566 30.2812H32.1074C33.1143 30.2812 33.9336 29.462 33.9336 28.4551V1.82617C33.9336 0.819254 33.1143 0 32.1074 0ZM11.1562 18.8262C11.1562 19.1012 10.9333 19.3242 10.6582 19.3242H7.53711C7.44553 19.3242 7.37109 19.2498 7.37109 19.1582V18.4941C7.37109 18.4026 7.44553 18.3281 7.53711 18.3281H10.6582C10.9333 18.3281 11.1562 18.5511 11.1562 18.8262ZM32.9375 28.4551C32.9375 28.9128 32.5652 29.2852 32.1074 29.2852H18.1289C17.8538 29.2852 17.6309 29.5081 17.6309 29.7832C17.6309 30.0583 17.8538 30.2812 18.1289 30.2812H23.2754C24.3206 30.2812 25.168 31.1286 25.168 32.1738C25.168 32.6316 24.7956 33.0039 24.3379 33.0039H10.459C7.10321 33.0039 4.38281 30.2835 4.38281 26.9277C4.38281 26.6526 4.15989 26.4297 3.88477 26.4297C3.60964 26.4297 3.38672 26.6526 3.38672 26.9277V31.4434C3.38672 32.3052 2.68804 33.0039 1.82617 33.0039C1.36843 33.0039 0.996094 32.6316 0.996094 32.1738V5.54492C0.996094 5.08718 1.36843 4.71484 1.82617 4.71484C2.68804 4.71484 3.38672 5.41352 3.38672 6.27539V24.6035C3.38672 24.8786 3.60964 25.1016 3.88477 25.1016C4.15989 25.1016 4.38281 24.8786 4.38281 24.6035V6.20898C4.38281 5.38379 5.05176 4.71484 5.87695 4.71484H5.9937C6.75441 4.71484 7.37109 5.33153 7.37109 6.09224C7.37109 6.36736 7.59402 6.59029 7.86914 6.59029C8.14426 6.59029 8.36719 6.36736 8.36719 6.09224V4.2168C8.36719 3.75906 8.73953 3.38672 9.19727 3.38672C10.2792 3.38672 11.1562 4.26379 11.1562 5.3457V9.59533C11.1562 9.72867 11.0159 9.81538 10.8967 9.75574C10.6641 9.63953 10.3867 9.63953 10.1541 9.75574C9.33314 10.1662 8.36719 9.56926 8.36719 8.65138V8.40112C8.36719 8.126 8.14426 7.90307 7.86914 7.90307C7.59402 7.90307 7.37109 8.126 7.37109 8.40112V10.9179C7.40005 11.4526 7.91124 11.9564 8.57245 11.6603L10.2433 10.8249C10.4209 10.7361 10.6299 10.7361 10.8075 10.8249C11.0212 10.9318 11.1562 11.1502 11.1562 11.3892V13.7129C11.1562 15.7117 9.53591 17.332 7.53711 17.332C6.89636 17.332 6.375 17.8534 6.375 18.4941V19.1582C6.375 19.799 6.89636 20.3203 7.53711 20.3203H10.5057C10.865 20.3203 11.1562 20.6116 11.1562 20.9709C11.1562 21.3317 10.8625 21.6237 10.5017 21.6214L9.61005 21.616C9.60898 21.616 9.60799 21.616 9.60693 21.616C9.33333 21.616 9.11061 21.837 9.10894 22.111C9.10728 22.386 9.32888 22.6104 9.60394 22.6121L10.4963 22.6176C10.8614 22.6198 11.1562 22.9164 11.1562 23.2816C11.1562 23.6499 10.8564 23.9479 10.4881 23.9456L7.56606 23.9276C7.565 23.9276 7.564 23.9276 7.56294 23.9276C7.28935 23.9276 7.06662 24.1486 7.06496 24.4226C7.0633 24.6977 7.2849 24.9221 7.55995 24.9237L7.64715 24.9243C9.58866 24.9362 11.1562 26.5135 11.1562 28.4551C11.1562 29.462 11.9755 30.2812 12.9824 30.2812H15.8047C16.0798 30.2812 16.3027 30.0583 16.3027 29.7832C16.3027 29.5081 16.0798 29.2852 15.8047 29.2852H12.9824C12.5247 29.2852 12.1523 28.9128 12.1523 28.4551V1.82617C12.1523 1.36843 12.5247 0.996094 12.9824 0.996094H32.1074C32.5652 0.996094 32.9375 1.36843 32.9375 1.82617V28.4551Z" fill="url(#paint1_linear_0_6529)"/>
<path d="M15.9707 5.17969H24.5039C24.779 5.17969 25.002 4.95676 25.002 4.68164C25.002 4.40652 24.779 4.18359 24.5039 4.18359H15.9707C15.8791 4.18359 15.8047 4.10915 15.8047 4.01758V3.35352C15.8047 3.26194 15.8791 3.1875 15.9707 3.1875H29.1191C29.2107 3.1875 29.2852 3.26194 29.2852 3.35352V4.01758C29.2852 4.10915 29.2107 4.18359 29.1191 4.18359H26.8281C26.553 4.18359 26.3301 4.40652 26.3301 4.68164C26.3301 4.95676 26.553 5.17969 26.8281 5.17969H29.1191C29.7599 5.17969 30.2812 4.65833 30.2812 4.01758V3.35352C30.2812 2.71276 29.7599 2.19141 29.1191 2.19141H15.9707C15.3299 2.19141 14.8086 2.71276 14.8086 3.35352V4.01758C14.8086 4.65833 15.3299 5.17969 15.9707 5.17969Z" fill="url(#paint2_linear_0_6529)"/>
<path d="M25.6992 6.50781H19.3242C19.0491 6.50781 18.8262 6.73074 18.8262 7.00586C18.8262 7.28098 19.0491 7.50391 19.3242 7.50391H25.6992C25.9743 7.50391 26.1973 7.28098 26.1973 7.00586C26.1973 6.73074 25.9743 6.50781 25.6992 6.50781Z" fill="url(#paint3_linear_0_6529)"/>
<path d="M15.0742 9.38956H18.6157C18.8908 9.38956 19.1137 9.16664 19.1137 8.89152C19.1137 8.6164 18.8908 8.39348 18.6157 8.39348H15.0742C14.7991 8.39348 14.5762 8.6164 14.5762 8.89152C14.5762 9.16664 14.7991 9.38956 15.0742 9.38956Z" fill="url(#paint4_linear_0_6529)"/>
<path d="M15.0742 11.2755H20.8018C21.0769 11.2755 21.2998 11.0525 21.2998 10.7774C21.2998 10.5023 21.0769 10.2794 20.8018 10.2794H15.0742C14.7991 10.2794 14.5762 10.5023 14.5762 10.7774C14.5762 11.0525 14.7991 11.2755 15.0742 11.2755Z" fill="url(#paint5_linear_0_6529)"/>
<path d="M16.4023 12.165C16.1272 12.165 15.9043 12.388 15.9043 12.6631C15.9043 12.9382 16.1272 13.1611 16.4023 13.1611H30.0156C30.2907 13.1611 30.5137 12.9382 30.5137 12.6631C30.5137 12.388 30.2907 12.165 30.0156 12.165H16.4023Z" fill="url(#paint6_linear_0_6529)"/>
<path d="M15.0742 15.0468H21.2168C21.4919 15.0468 21.7148 14.8239 21.7148 14.5488C21.7148 14.2736 21.4919 14.0507 21.2168 14.0507H15.0742C14.7991 14.0507 14.5762 14.2736 14.5762 14.5488C14.5762 14.8239 14.7991 15.0468 15.0742 15.0468Z" fill="url(#paint7_linear_0_6529)"/>
<path d="M30.0156 14.0507H23.6074C23.3323 14.0507 23.1094 14.2736 23.1094 14.5488C23.1094 14.8239 23.3323 15.0468 23.6074 15.0468H30.0156C30.2907 15.0468 30.5137 14.8239 30.5137 14.5488C30.5137 14.2736 30.2907 14.0507 30.0156 14.0507Z" fill="url(#paint8_linear_0_6529)"/>
<path d="M15.0742 16.9325H22.5781C22.8532 16.9325 23.0762 16.7095 23.0762 16.4344C23.0762 16.1593 22.8532 15.9364 22.5781 15.9364H15.0742C14.7991 15.9364 14.5762 16.1593 14.5762 16.4344C14.5762 16.7095 14.7991 16.9325 15.0742 16.9325Z" fill="url(#paint9_linear_0_6529)"/>
<path d="M30.0156 17.8222H16.4023C16.1272 17.8222 15.9043 18.0451 15.9043 18.3202C15.9043 18.5953 16.1272 18.8183 16.4023 18.8183H30.0156C30.2907 18.8183 30.5137 18.5953 30.5137 18.3202C30.5137 18.0451 30.2907 17.8222 30.0156 17.8222Z" fill="url(#paint10_linear_0_6529)"/>
<path d="M15.0742 20.7039H30.0156C30.2907 20.7039 30.5137 20.481 30.5137 20.2059C30.5137 19.9307 30.2907 19.7078 30.0156 19.7078H15.0742C14.7991 19.7078 14.5762 19.9307 14.5762 20.2059C14.5762 20.481 14.7991 20.7039 15.0742 20.7039Z" fill="url(#paint11_linear_0_6529)"/>
<path d="M15.0742 22.5897H23.9727C24.2478 22.5897 24.4707 22.3668 24.4707 22.0916C24.4707 21.8165 24.2478 21.5936 23.9727 21.5936H15.0742C14.7991 21.5936 14.5762 21.8165 14.5762 22.0916C14.5762 22.3668 14.7991 22.5897 15.0742 22.5897Z" fill="url(#paint12_linear_0_6529)"/>
<path d="M30.0156 21.5936H26.2969C26.0218 21.5936 25.7988 21.8165 25.7988 22.0916C25.7988 22.3668 26.0218 22.5897 26.2969 22.5897H30.0156C30.2907 22.5897 30.5137 22.3668 30.5137 22.0916C30.5137 21.8165 30.2907 21.5936 30.0156 21.5936Z" fill="url(#paint13_linear_0_6529)"/>
<path d="M30.5137 23.9773C30.5137 23.7022 30.2907 23.4793 30.0156 23.4793H15.0742C14.7991 23.4793 14.5762 23.7022 14.5762 23.9773C14.5762 24.2524 14.7991 24.4754 15.0742 24.4754H30.0156C30.2907 24.4754 30.5137 24.2524 30.5137 23.9773Z" fill="url(#paint14_linear_0_6529)"/>
<path d="M30.5137 25.2676C29.6165 25.2676 28.8867 25.9974 28.8867 26.8945C28.8867 27.7917 29.6165 28.5215 30.5137 28.5215C31.4108 28.5215 32.1406 27.7917 32.1406 26.8945C32.1406 25.9974 31.4108 25.2676 30.5137 25.2676ZM30.5137 27.5254C30.1658 27.5254 29.8828 27.2424 29.8828 26.8945C29.8828 26.5467 30.1658 26.2637 30.5137 26.2637C30.8615 26.2637 31.1445 26.5467 31.1445 26.8945C31.1445 27.2424 30.8615 27.5254 30.5137 27.5254Z" fill="url(#paint15_linear_0_6529)"/>
<path d="M27.1934 26.3633H22.2793C22.0042 26.3633 21.7812 26.5862 21.7812 26.8613C21.7812 27.1364 22.0042 27.3594 22.2793 27.3594H27.1934C27.4685 27.3594 27.6914 27.1364 27.6914 26.8613C27.6914 26.5862 27.4685 26.3633 27.1934 26.3633Z" fill="url(#paint16_linear_0_6529)"/>
<defs>
<linearGradient id="paint0_linear_0_6529" x1="6.55535" y1="-26.3947" x2="37.3596" y2="-22.9799" gradientUnits="userSpaceOnUse">
<stop stop-color="#F93C3C"/>
<stop offset="1" stop-color="#CD0973"/>
</linearGradient>
<linearGradient id="paint1_linear_0_6529" x1="6.55535" y1="-26.3947" x2="37.3596" y2="-22.9799" gradientUnits="userSpaceOnUse">
<stop stop-color="#F93C3C"/>
<stop offset="1" stop-color="#CD0973"/>
</linearGradient>
<linearGradient id="paint2_linear_0_6529" x1="6.55535" y1="-26.3947" x2="37.3596" y2="-22.9799" gradientUnits="userSpaceOnUse">
<stop stop-color="#F93C3C"/>
<stop offset="1" stop-color="#CD0973"/>
</linearGradient>
<linearGradient id="paint3_linear_0_6529" x1="6.55535" y1="-26.3947" x2="37.3596" y2="-22.9799" gradientUnits="userSpaceOnUse">
<stop stop-color="#F93C3C"/>
<stop offset="1" stop-color="#CD0973"/>
</linearGradient>
<linearGradient id="paint4_linear_0_6529" x1="6.55535" y1="-26.3947" x2="37.3596" y2="-22.9799" gradientUnits="userSpaceOnUse">
<stop stop-color="#F93C3C"/>
<stop offset="1" stop-color="#CD0973"/>
</linearGradient>
<linearGradient id="paint5_linear_0_6529" x1="6.55535" y1="-26.3947" x2="37.3596" y2="-22.9799" gradientUnits="userSpaceOnUse">
<stop stop-color="#F93C3C"/>
<stop offset="1" stop-color="#CD0973"/>
</linearGradient>
<linearGradient id="paint6_linear_0_6529" x1="6.55535" y1="-26.3947" x2="37.3596" y2="-22.9799" gradientUnits="userSpaceOnUse">
<stop stop-color="#F93C3C"/>
<stop offset="1" stop-color="#CD0973"/>
</linearGradient>
<linearGradient id="paint7_linear_0_6529" x1="6.55535" y1="-26.3947" x2="37.3596" y2="-22.9799" gradientUnits="userSpaceOnUse">
<stop stop-color="#F93C3C"/>
<stop offset="1" stop-color="#CD0973"/>
</linearGradient>
<linearGradient id="paint8_linear_0_6529" x1="6.55535" y1="-26.3947" x2="37.3596" y2="-22.9799" gradientUnits="userSpaceOnUse">
<stop stop-color="#F93C3C"/>
<stop offset="1" stop-color="#CD0973"/>
</linearGradient>
<linearGradient id="paint9_linear_0_6529" x1="6.55535" y1="-26.3947" x2="37.3596" y2="-22.9799" gradientUnits="userSpaceOnUse">
<stop stop-color="#F93C3C"/>
<stop offset="1" stop-color="#CD0973"/>
</linearGradient>
<linearGradient id="paint10_linear_0_6529" x1="6.55535" y1="-26.3947" x2="37.3596" y2="-22.9799" gradientUnits="userSpaceOnUse">
<stop stop-color="#F93C3C"/>
<stop offset="1" stop-color="#CD0973"/>
</linearGradient>
<linearGradient id="paint11_linear_0_6529" x1="6.55535" y1="-26.3947" x2="37.3596" y2="-22.9799" gradientUnits="userSpaceOnUse">
<stop stop-color="#F93C3C"/>
<stop offset="1" stop-color="#CD0973"/>
</linearGradient>
<linearGradient id="paint12_linear_0_6529" x1="6.55535" y1="-26.3947" x2="37.3596" y2="-22.9799" gradientUnits="userSpaceOnUse">
<stop stop-color="#F93C3C"/>
<stop offset="1" stop-color="#CD0973"/>
</linearGradient>
<linearGradient id="paint13_linear_0_6529" x1="6.55535" y1="-26.3947" x2="37.3596" y2="-22.9799" gradientUnits="userSpaceOnUse">
<stop stop-color="#F93C3C"/>
<stop offset="1" stop-color="#CD0973"/>
</linearGradient>
<linearGradient id="paint14_linear_0_6529" x1="6.55535" y1="-26.3947" x2="37.3596" y2="-22.9799" gradientUnits="userSpaceOnUse">
<stop stop-color="#F93C3C"/>
<stop offset="1" stop-color="#CD0973"/>
</linearGradient>
<linearGradient id="paint15_linear_0_6529" x1="6.55535" y1="-26.3947" x2="37.3596" y2="-22.9799" gradientUnits="userSpaceOnUse">
<stop stop-color="#F93C3C"/>
<stop offset="1" stop-color="#CD0973"/>
</linearGradient>
<linearGradient id="paint16_linear_0_6529" x1="6.55535" y1="-26.3947" x2="37.3596" y2="-22.9799" gradientUnits="userSpaceOnUse">
<stop stop-color="#F93C3C"/>
<stop offset="1" stop-color="#CD0973"/>
</linearGradient>
</defs>
</svg>
