<svg width="41" height="52" viewBox="0 0 41 52" fill="none" xmlns="http://www.w3.org/2000/svg">
<path d="M24.1343 23.516V24.8697C24.1343 25.2876 24.4731 25.6265 24.8912 25.6265C25.3092 25.6265 25.648 25.2876 25.648 24.8697V23.516C25.648 23.098 25.3092 22.7592 24.8912 22.7592C24.4731 22.7592 24.1343 23.098 24.1343 23.516Z" fill="url(#paint0_linear_0_6470)"/>
<path d="M15.9221 23.516V24.8697C15.9221 25.2876 16.2609 25.6265 16.6789 25.6265C17.097 25.6265 17.4358 25.2876 17.4358 24.8697V23.516C17.4358 23.098 17.097 22.7592 16.6789 22.7592C16.2609 22.7592 15.9221 23.098 15.9221 23.516Z" fill="url(#paint1_linear_0_6470)"/>
<path d="M19.2238 29.2608C19.7267 29.5171 20.2785 29.6452 20.8303 29.6452C21.3821 29.6452 21.9339 29.5171 22.4368 29.2608C22.8092 29.071 22.9573 28.6153 22.7675 28.2428C22.5777 27.8704 22.1221 27.7224 21.7495 27.9121C21.1738 28.2055 20.4865 28.2055 19.911 27.9121C19.5385 27.7224 19.0829 27.8704 18.893 28.2428C18.7033 28.6153 18.8513 29.071 19.2238 29.2608Z" fill="url(#paint2_linear_0_6470)"/>
<path d="M19.0897 21.1252C19.243 20.7363 19.0518 20.2968 18.6629 20.1437C17.2966 19.6054 15.7626 19.7517 14.5597 20.5353C14.2093 20.7634 14.1104 21.2323 14.3386 21.5825C14.4837 21.8052 14.7261 21.9264 14.9734 21.9264C15.115 21.9264 15.2583 21.8867 15.3857 21.8037C16.1789 21.2871 17.1967 21.1929 18.1081 21.552C18.4971 21.7052 18.9365 21.5141 19.0897 21.1252Z" fill="url(#paint3_linear_0_6470)"/>
<path d="M23.4623 21.5521C24.374 21.1929 25.3915 21.2872 26.1848 21.8037C26.3123 21.8868 26.4555 21.9264 26.5971 21.9264C26.8444 21.9264 27.0869 21.8052 27.2319 21.5825C27.4601 21.2323 27.3611 20.7635 27.0108 20.5353C25.8079 19.7517 24.274 19.6054 22.9076 20.1437C22.5186 20.2969 22.3276 20.7363 22.4808 21.1252C22.6339 21.5142 23.0732 21.7053 23.4623 21.5521Z" fill="url(#paint4_linear_0_6470)"/>
<path d="M40.5466 31.5265C40.2122 31.1552 39.7338 30.9423 39.2341 30.9423H31.3328C30.5133 30.9423 29.977 30.0713 30.2901 29.3139C30.451 28.9246 30.8173 28.6485 31.2289 28.5589C33.5565 28.0521 35.3051 25.9769 35.3051 23.4998C35.3051 21.6732 33.8954 19.6451 33.9033 17.8185C33.9034 17.7991 33.9034 17.7796 33.9034 17.7601C33.9034 12.5969 30.9048 8.1212 26.5578 5.98205C26.3566 5.88302 26.235 5.67416 26.235 5.44988C26.2351 2.44482 23.7903 0 20.7853 0C17.7802 0 15.3354 2.44482 15.3354 5.44978C15.3354 5.67027 15.2157 5.87546 15.0178 5.9725C13.7757 6.58128 12.6258 7.39032 11.6105 8.38381C11.3118 8.67614 11.3066 9.15536 11.599 9.45405C11.8914 9.75284 12.3706 9.75788 12.6693 9.46565C14.7959 7.38067 17.7058 6.15423 20.7853 6.15544C27.184 6.15544 32.3898 11.3612 32.3898 17.76C32.3898 18.3539 32.3459 18.9403 32.2592 19.516C32.1522 20.2271 31.3077 20.1071 31.2429 19.3909C31.0648 17.4256 29.4443 15.9436 27.4735 15.9436H14.0971C12.1263 15.9436 10.5057 17.4256 10.3277 19.391C10.263 20.1055 9.41944 20.2253 9.31217 19.516C9.22505 18.94 9.18085 18.3535 9.18085 17.76C9.18085 15.7794 9.68822 13.8248 10.6481 12.1074C10.852 11.7426 10.7215 11.2815 10.3566 11.0776C9.99166 10.8735 9.5307 11.0041 9.32677 11.369C8.24109 13.3115 7.66722 15.5215 7.66722 17.76C7.66722 17.7787 7.66726 17.7975 7.66734 17.8163C7.67503 19.6434 6.26539 21.6726 6.26539 23.4997C6.26539 25.9768 8.01404 28.0521 10.3415 28.5588C10.7531 28.6484 11.1194 28.9246 11.2803 29.3138C11.5933 30.0712 11.0571 30.9422 10.2375 30.9422H1.76587C1.26617 30.9422 0.787861 31.1551 0.453449 31.5264C0.119138 31.8977 -0.0426196 32.3955 0.00965123 32.8923L1.81582 50.0862C1.91047 50.9877 2.66547 51.6675 3.57204 51.6675H37.428C38.3345 51.6675 39.0896 50.9877 39.1842 50.0863L39.4016 48.0159C39.4453 47.6001 39.1437 47.2278 38.728 47.1841C38.3118 47.1407 37.9398 47.4421 37.8963 47.8576L37.6788 49.9282C37.6653 50.0568 37.5574 50.1538 37.428 50.1538H3.57204C3.44257 50.1538 3.3346 50.0568 3.32118 49.9281L1.51501 32.7343C1.50472 32.6372 1.55033 32.5705 1.57838 32.5394C1.60643 32.5082 1.66819 32.4559 1.76587 32.4559H13.4293C13.431 32.4559 13.4328 32.4562 13.4346 32.4562C13.4358 32.4562 13.437 32.4559 13.4383 32.4559H22.5183C22.9363 32.4559 23.2751 32.1171 23.2751 31.6991C23.2751 31.2811 22.9363 30.9423 22.5183 30.9423H17.5467C15.2163 30.9423 12.9973 29.7822 12.2463 27.5763C11.4543 25.3682 11.6488 21.5857 11.8353 19.5277C11.9421 18.3472 12.9145 17.4572 14.0971 17.4572H27.4735C28.6561 17.4572 29.6284 18.3472 29.7354 19.5276C29.913 21.5542 30.1281 25.2193 29.3244 27.5762C29.1055 28.2043 28.8651 28.8381 28.5757 29.4577C28.1263 30.42 27.1121 30.9422 26.0501 30.9422C25.632 30.9422 25.2933 31.281 25.2933 31.699C25.2933 32.117 25.632 32.4558 26.0501 32.4558H39.2342C39.332 32.4558 39.3937 32.5081 39.4217 32.5393C39.4498 32.5704 39.4953 32.6371 39.4851 32.7342L38.2675 44.3242C38.2238 44.74 38.5254 45.1123 38.9412 45.156C38.9681 45.1588 38.9947 45.1602 39.0211 45.1602C39.4036 45.1602 39.732 44.8712 39.7729 44.4824L40.9903 32.8925C41.0426 32.3956 40.8809 31.8977 40.5466 31.5265ZM20.7853 4.64181C18.8517 4.64181 17.1951 2.9375 18.8874 2.00216C19.4505 1.69091 20.0976 1.51363 20.7853 1.51363C21.474 1.51363 22.1219 1.69142 22.6856 2.00352C24.3771 2.93998 22.7186 4.64181 20.7853 4.64181ZM7.77903 23.4997C7.77903 22.7291 8.74863 23.045 9.10032 23.7307C9.41042 24.3353 9.76948 24.9188 10.1764 25.4769C10.2551 25.5849 10.3062 25.7168 10.3231 25.8494C10.3936 26.4048 9.88215 26.8621 9.41634 26.5515C8.43006 25.8939 7.77903 24.7714 7.77903 23.4997ZM33.7915 23.4997C33.7915 24.7701 33.1418 25.8917 32.1571 26.5495C31.6902 26.8614 31.1773 26.4029 31.2479 25.8458C31.2647 25.7128 31.316 25.5804 31.395 25.472C31.8016 24.9146 32.1611 24.3324 32.4715 23.7292C32.8235 23.0451 33.7915 22.7303 33.7915 23.4997Z" fill="url(#paint5_linear_0_6470)"/>
<path d="M18.1228 40.1205C18.5408 40.1205 18.8796 39.7817 18.8796 39.3637C18.8796 38.9457 18.5408 38.6069 18.1228 38.6069H16.4222C16.1107 38.6069 15.8581 38.3543 15.8581 38.0427C15.8581 37.6247 15.5193 37.2859 15.1013 37.2859C14.6832 37.2859 14.3444 37.6247 14.3444 38.0427C14.3444 38.3543 14.0918 38.6069 13.7803 38.6069H12.0797C11.6617 38.6069 11.3229 38.9457 11.3229 39.3637C11.3229 39.7817 11.6617 40.1205 12.0797 40.1205C12.5527 40.1205 12.9584 40.444 13.1258 40.8864C13.1822 41.0356 13.2434 41.1825 13.3092 41.3269C13.665 42.1081 13.5896 43.0951 12.82 43.4754C12.7513 43.5094 12.6817 43.5421 12.6112 43.5735L11.9372 43.8739C11.5554 44.044 11.3839 44.4915 11.5539 44.8732C11.6794 45.155 11.9558 45.3222 12.2455 45.3222C12.3486 45.3222 12.4531 45.3011 12.5532 45.2565L13.2273 44.9561C14.3936 44.4363 15.8087 44.4364 16.975 44.9561L17.6491 45.2565C17.7492 45.3011 17.8537 45.3222 17.9568 45.3222C18.2464 45.3222 18.5229 45.1549 18.6484 44.8732C18.8185 44.4914 18.6469 44.044 18.2651 43.8739L17.5911 43.5735C17.5206 43.5421 17.451 43.5094 17.3823 43.4754C16.6127 43.0951 16.5373 42.1081 16.8931 41.3269C16.9589 41.1826 17.0201 41.0357 17.0765 40.8866C17.2439 40.4441 17.6496 40.1205 18.1228 40.1205ZM15.4799 40.7712C15.3236 41.1023 14.8787 41.1023 14.7224 40.7712C14.7135 40.7524 14.7047 40.7336 14.6961 40.7147C14.5649 40.4288 14.7866 40.1205 15.1012 40.1205C15.4157 40.1205 15.6374 40.4287 15.5063 40.7146C15.4976 40.7336 15.4888 40.7524 15.4799 40.7712Z" fill="url(#paint6_linear_0_6470)"/>
<path d="M22.9452 45.2819C23.2324 45.3817 23.6971 45.3133 23.9205 44.841C24.1745 44.168 24.8187 43.7226 25.538 43.7226H26.0495C26.7714 43.7226 27.4183 44.1685 27.6752 44.8431C27.8241 45.2339 28.2616 45.4297 28.6518 45.281C29.0425 45.1322 29.2385 44.695 29.0898 44.3044L26.6309 37.8483C26.6288 37.8426 26.6265 37.8368 26.6242 37.8312C26.4845 37.4899 26.1561 37.2691 25.7874 37.2687C25.5238 37.2673 25.1114 37.4537 24.941 37.8502L22.5045 44.3066C22.3568 44.6976 22.5542 45.1343 22.9452 45.2819ZM25.2236 41.3878C25.4209 40.8652 26.1597 40.8641 26.3585 41.3861C26.5098 41.7834 26.2164 42.209 25.7914 42.209C25.3671 42.209 25.0738 41.7848 25.2236 41.3878Z" fill="url(#paint7_linear_0_6470)"/>
<path d="M8.99655 36.3604V46.2495C8.99655 47.2231 9.78878 48.0154 10.7625 48.0154C15.7047 48.0157 25.3047 48.0157 30.2379 48.0154C31.2116 48.0154 32.0038 47.2231 32.0038 46.2495V36.3604C32.0038 35.3867 31.2116 34.5945 30.2379 34.5945H10.7625C9.78878 34.5945 8.99655 35.3867 8.99655 36.3604ZM30.4902 36.3604V46.2495C30.4902 46.3885 30.377 46.5017 30.2379 46.5017H25.4779C23.1468 46.5017 21.257 44.612 21.257 42.2808C21.257 41.8629 20.9182 41.524 20.5002 41.524C20.0821 41.524 19.7433 41.8629 19.7433 42.2808C19.7433 44.612 17.8536 46.5017 15.5224 46.5017H10.7625C10.6233 46.5017 10.5102 46.3885 10.5102 46.2495V36.3604C10.5102 36.2213 10.6233 36.1081 10.7625 36.1081H17.1484C18.5815 36.1081 19.7433 37.2699 19.7433 38.7031C19.7433 39.1211 20.0821 39.4599 20.5002 39.4599C20.9182 39.4599 21.257 39.1211 21.257 38.7031C21.257 37.2699 22.4188 36.1081 23.852 36.1081H30.2379C30.377 36.1081 30.4902 36.2213 30.4902 36.3604Z" fill="url(#paint8_linear_0_6470)"/>
<defs>
<linearGradient id="paint0_linear_0_6470" x1="14.9884" y1="-0.833883" x2="51.2138" y2="21.8669" gradientUnits="userSpaceOnUse">
<stop stop-color="#C4CAE4"/>
<stop offset="1" stop-color="#9CA9C0"/>
</linearGradient>
<linearGradient id="paint1_linear_0_6470" x1="14.9884" y1="-0.833883" x2="51.2138" y2="21.8669" gradientUnits="userSpaceOnUse">
<stop stop-color="#C4CAE4"/>
<stop offset="1" stop-color="#9CA9C0"/>
</linearGradient>
<linearGradient id="paint2_linear_0_6470" x1="14.9884" y1="-0.833883" x2="51.2138" y2="21.8669" gradientUnits="userSpaceOnUse">
<stop stop-color="#C4CAE4"/>
<stop offset="1" stop-color="#9CA9C0"/>
</linearGradient>
<linearGradient id="paint3_linear_0_6470" x1="14.9884" y1="-0.833883" x2="51.2138" y2="21.8669" gradientUnits="userSpaceOnUse">
<stop stop-color="#C4CAE4"/>
<stop offset="1" stop-color="#9CA9C0"/>
</linearGradient>
<linearGradient id="paint4_linear_0_6470" x1="14.9884" y1="-0.833883" x2="51.2138" y2="21.8669" gradientUnits="userSpaceOnUse">
<stop stop-color="#C4CAE4"/>
<stop offset="1" stop-color="#9CA9C0"/>
</linearGradient>
<linearGradient id="paint5_linear_0_6470" x1="14.9884" y1="-0.833883" x2="51.2138" y2="21.8669" gradientUnits="userSpaceOnUse">
<stop stop-color="#C4CAE4"/>
<stop offset="1" stop-color="#9CA9C0"/>
</linearGradient>
<linearGradient id="paint6_linear_0_6470" x1="14.9884" y1="-0.833883" x2="51.2138" y2="21.8669" gradientUnits="userSpaceOnUse">
<stop stop-color="#C4CAE4"/>
<stop offset="1" stop-color="#9CA9C0"/>
</linearGradient>
<linearGradient id="paint7_linear_0_6470" x1="14.9884" y1="-0.833883" x2="51.2138" y2="21.8669" gradientUnits="userSpaceOnUse">
<stop stop-color="#C4CAE4"/>
<stop offset="1" stop-color="#9CA9C0"/>
</linearGradient>
<linearGradient id="paint8_linear_0_6470" x1="14.9884" y1="-0.833883" x2="51.2138" y2="21.8669" gradientUnits="userSpaceOnUse">
<stop stop-color="#C4CAE4"/>
<stop offset="1" stop-color="#9CA9C0"/>
</linearGradient>
</defs>
</svg>
