<svg width="44" height="44" viewBox="0 0 44 44" fill="none" xmlns="http://www.w3.org/2000/svg">
<path d="M41.7359 14.0891C41.5361 13.7003 41.52 13.2475 41.52 12.8104V2.178C41.52 0.977023 40.5394 0 39.3341 0H25.9755C24.7702 0 23.7896 0.977023 23.7896 2.178C23.7896 2.598 23.4446 2.93469 23.0246 2.94298C20.3821 2.99516 17.679 3.58575 15.2644 4.64466C13.54 5.39728 11.9454 6.37182 10.5001 7.55319C9.36912 8.4777 7.99204 9.09322 6.53125 9.09322C6.1753 9.09322 5.88672 9.3818 5.88672 9.73775C5.88672 10.0937 6.1753 10.3823 6.53125 10.3823H15.5445C16.039 10.3823 16.4414 10.7811 16.4414 11.2712V21.9035C16.4414 22.3937 16.039 22.7925 15.5445 22.7925H14.3114C13.3894 22.7925 12.6393 23.5403 12.6393 24.4594C12.6393 25.086 11.9296 25.4493 11.4212 25.0829L8.68149 23.1086C8.39463 22.9018 8.05587 22.7926 7.70189 22.7926H2.18591C1.69142 22.7926 1.28906 22.3938 1.28906 21.9036V11.2713C1.28906 10.7811 1.69142 10.3824 2.18591 10.3824H3.52344C3.87939 10.3824 4.16797 10.0938 4.16797 9.73784C4.16797 9.38188 3.87939 9.0933 3.52344 9.0933H2.18591C0.980633 9.0933 0 10.0703 0 11.2713V21.9036C0 23.1046 0.980633 24.0817 2.18591 24.0817C2.61096 24.0817 2.95736 24.42 2.9852 24.8442C3.31124 29.8107 5.40058 34.435 8.95245 37.9869C12.8301 41.8645 17.9858 44 23.4696 44C26.3208 44 29.0807 43.4265 31.673 42.2953C34.1767 41.2029 36.4079 39.644 38.3045 37.662C38.5506 37.4048 38.5417 36.9969 38.2845 36.7507C38.0272 36.5046 37.6193 36.5136 37.3732 36.7708C36.4804 37.7037 35.512 38.534 34.4813 39.2568C33.4437 39.9844 32.0255 39.6804 31.227 38.6964C30.7531 38.1124 30.2788 37.5092 29.8854 36.9156C29.8267 36.8269 29.8496 36.7083 29.9358 36.6462C30.0018 36.5985 30.0799 36.5735 30.1617 36.5735H35.6776C36.8829 36.5735 37.8635 35.5964 37.8635 34.3955V23.7632C37.8635 23.4954 37.9246 23.225 38.084 23.0099C39.0252 21.7393 39.5367 20.1804 39.5367 18.5427C39.53 17.5536 39.3106 16.5905 38.9022 15.7114C38.7511 15.3862 38.9754 14.9884 39.334 14.9884C40.0249 14.9884 40.8382 15.1525 41.1138 15.786C42.1629 18.1969 42.7109 20.8159 42.7109 23.4696C42.7109 27.4483 41.5073 31.2661 39.2301 34.5105C39.0256 34.8019 39.096 35.2039 39.3874 35.4083C39.5797 35.5465 39.9933 35.6018 40.2852 35.251C42.7154 31.7886 44 27.7147 44 23.4696C44 20.1988 43.2197 16.9767 41.7359 14.0891ZM15.5445 9.0933H15.3607C13.7202 9.0933 13.0617 7.19177 14.5128 6.42662C14.708 6.32372 14.9048 6.22429 15.1033 6.12835C15.4553 5.95815 15.8752 6.05399 16.1313 6.34949C16.4944 6.82616 16.789 7.40704 16.9737 8.01176C17.1833 8.69838 16.2625 9.0933 15.5445 9.0933ZM30.5558 39.9118C31.0091 40.464 30.8096 41.2857 30.1391 41.5326C28.036 42.3072 25.7875 42.7109 23.4696 42.7109C17.4985 42.7109 12.1548 39.9765 8.6231 35.6944C7.34512 34.1449 7.68613 31.052 9.68129 31.2834C10.0629 31.3277 10.4008 31.5507 10.7143 31.9655C11.4985 33.0022 12.822 33.2043 13.7491 33.2661C15.1336 33.1805 16.3673 32.4733 17.1376 31.3331C17.3389 31.0395 17.2642 30.6384 16.9707 30.437C16.6771 30.2356 16.276 30.3104 16.0746 30.6039C15.9615 30.7687 15.841 30.9182 15.7123 31.0526C14.7051 32.1045 12.7025 32.3587 11.7782 31.2333C11.7659 31.2184 11.754 31.2033 11.7424 31.1879C11.213 30.4875 10.5695 30.0888 9.82996 30.0028C7.69349 29.7552 5.16212 29.7736 4.69234 27.6748C4.6804 27.6214 4.66867 27.568 4.65717 27.5144C4.25927 25.662 5.80718 24.0816 7.70181 24.0816C7.78362 24.0816 7.86173 24.1067 7.92773 24.1543L12.0917 27.155C12.2938 27.3007 12.5306 27.3748 12.7691 27.3748C12.9496 27.3748 13.1309 27.3323 13.2987 27.2465C13.6871 27.0477 13.9282 26.6538 13.9282 26.2182V24.4594C13.9282 24.251 14.1001 24.0816 14.3113 24.0816H15.5445C16.7497 24.0816 17.7304 23.1045 17.7304 21.9035C17.7304 20.7017 19.1221 19.9175 20.3204 20.0089C20.4502 20.0188 20.5777 20.0224 20.7017 20.0191C21.7713 20.0191 22.8358 19.7001 23.752 19.0708C24.9477 18.2496 25.771 16.9678 26.0109 15.554C26.0654 15.2323 26.338 14.9883 26.6643 14.9883H27.2085C27.4197 14.9883 27.5915 15.1577 27.5915 15.3661V17.1249C27.5915 17.5604 27.8328 17.9544 28.221 18.1532C28.5486 18.3065 28.9478 18.3585 29.428 18.0618C30.4559 17.3211 31.6377 18.1435 30.7967 19.0912C30.7011 19.1989 30.5983 19.3079 30.4877 19.4183C29.5487 20.3741 28.4955 21.585 27.1556 21.585H22.3189C21.1136 21.585 20.133 22.5621 20.133 23.7631C20.133 23.9309 20.0286 24.0795 19.8762 24.1497C18.8001 24.6455 17.9472 25.5968 17.549 26.773C17.4555 27.0495 17.3089 27.5205 17.1728 27.9704C17.0687 28.3108 17.2603 28.6712 17.6007 28.7752C17.8602 28.8481 18.2277 28.7582 18.4055 28.3473C18.4968 28.0485 18.6221 27.6317 18.7701 27.1862C19.0857 26.2541 20.1331 26.7229 20.1331 27.707V34.3953C20.1331 35.5963 21.1137 36.5733 22.319 36.5733H23.5521C23.7634 36.5733 23.9351 36.7427 23.9351 36.9511V38.7099C23.9351 39.1453 24.1764 39.5392 24.5646 39.7381C24.7325 39.824 24.9138 39.8664 25.0944 39.8664C25.3328 39.8664 25.5698 39.7923 25.7718 39.6468L26.2899 39.2734C27.6195 38.3153 29.5157 38.6453 30.5558 39.9118ZM36.5747 34.3954C36.5747 34.8856 36.1723 35.2843 35.6778 35.2843H30.1618C29.8078 35.2843 29.469 35.3936 29.1822 35.6004L26.4425 37.5748C25.934 37.9412 25.2244 37.5778 25.2244 36.9511C25.2244 36.032 24.4742 35.2843 23.5523 35.2843H22.3192C21.8247 35.2843 21.4223 34.8855 21.4223 34.3954V23.7632C21.4223 23.273 21.8247 22.8742 22.3192 22.8742H30.28C30.2807 22.8742 30.2813 22.8743 30.282 22.8743C30.2829 22.8743 30.2839 22.8742 30.2848 22.8742H35.6779C36.1724 22.8742 36.5747 23.273 36.5747 23.7632L36.5747 34.3954ZM38.2479 18.5471C38.2479 19.3079 38.1145 20.0479 37.8601 20.7363C37.5673 21.529 36.5228 21.5851 35.6778 21.5851H32.2601C31.4933 21.5851 30.8655 20.8733 31.4029 20.3263C33.2182 18.5148 33.3285 16.9095 33.4171 15.6197C33.4238 15.522 33.4305 15.4267 33.4378 15.3335C33.4464 15.2244 33.5033 15.1251 33.592 15.0611C33.6581 15.0135 33.7362 14.9884 33.818 14.9884C35.7863 14.9884 37.9006 15.8272 38.1885 17.7743C38.2261 18.0287 38.2461 18.2869 38.2479 18.5471ZM39.3341 13.6993H33.8181C33.4641 13.6993 33.1254 13.8085 32.8385 14.0153L32.4534 14.2928C32.452 14.2938 32.4505 14.2948 32.4491 14.2959L30.0987 15.9897C29.5903 16.3561 28.8807 15.9927 28.8807 15.3661C28.8807 14.447 28.1305 13.6992 27.2086 13.6992H25.9755C25.481 13.6992 25.0786 13.3004 25.0786 12.8103V10.3984C25.0786 10.0425 24.79 9.75391 24.4341 9.75391C24.0781 9.75391 23.7896 10.0425 23.7896 10.3984V12.8103C23.7896 13.3504 23.988 13.8452 24.316 14.2261C24.587 14.5408 24.8095 14.9291 24.74 15.3386C24.5583 16.4104 23.9321 17.3834 23.0223 18.0083C22.368 18.4688 21.6211 18.6942 20.8625 18.7142C18.7106 18.7709 17.7305 16.3453 17.7305 14.1927V13.067C17.7305 12.2213 18.0712 11.4149 18.3088 10.6032C18.4454 10.1366 18.4966 9.64022 18.4757 9.13724C18.3927 7.13624 18.9728 4.65093 20.9586 4.39108C22.4999 4.18939 23.7895 5.47505 23.7895 7.02951V7.39062C23.7895 7.74658 24.0781 8.03516 24.434 8.03516C24.79 8.03516 25.0785 7.74658 25.0785 7.39062V2.178C25.0785 1.68781 25.4809 1.28906 25.9754 1.28906H39.334C39.8285 1.28906 40.2309 1.6879 40.2309 2.178V12.8103C40.231 13.3005 39.8286 13.6993 39.3341 13.6993Z" fill="url(#paint0_linear_0_6471)"/>
<path d="M36.6353 4.27565H34.3948C33.7895 4.27565 33.2988 3.78497 33.2988 3.17969C33.2988 2.82373 33.0102 2.53516 32.6543 2.53516C32.2983 2.53516 32.0097 2.82373 32.0097 3.17969C32.0097 3.78497 31.5191 4.27565 30.9138 4.27565H28.6732C28.3173 4.27565 28.0287 4.56423 28.0287 4.92018C28.0287 5.27613 28.3173 5.56471 28.6732 5.56471C29.4546 5.56471 30.1167 6.11313 30.3967 6.84265C30.4683 7.02915 30.5458 7.21285 30.629 7.39349C31.1522 8.53001 31.1027 9.9727 29.996 10.5564C29.8397 10.6388 29.68 10.7164 29.5171 10.789L28.6291 11.1848C28.3039 11.3297 28.1578 11.7107 28.3027 12.0358C28.4096 12.2757 28.6451 12.4181 28.8918 12.4181C28.9795 12.4181 29.0686 12.4002 29.1538 12.3622L30.0418 11.9665C31.6579 11.2462 33.6506 11.2462 35.2668 11.9665L36.1548 12.3622C36.3813 12.456 36.8062 12.4297 37.0058 12.0358C37.1507 11.7107 37.0046 11.3297 36.6794 11.1848L35.7914 10.789C35.6285 10.7164 35.4688 10.6388 35.3125 10.5564C34.2058 9.97278 34.1563 8.53001 34.6795 7.39349C34.7627 7.21284 34.8402 7.02915 34.9117 6.84265C35.1918 6.11313 35.8538 5.56471 36.6352 5.56471C36.9912 5.56471 37.2798 5.27613 37.2798 4.92018C37.2798 4.56423 36.9913 4.27565 36.6353 4.27565ZM33.4536 6.9709C33.1196 7.66597 32.1889 7.66598 31.8549 6.97092C31.8284 6.91593 31.8026 6.86059 31.7775 6.80493C31.503 6.19837 31.9885 5.56471 32.6542 5.56471C33.32 5.56471 33.8054 6.19837 33.531 6.80494C33.5058 6.86059 33.48 6.91592 33.4536 6.9709Z" fill="url(#paint1_linear_0_6471)"/>
<path d="M5.58452 21.0562C5.91761 21.1818 6.28955 21.0137 6.4151 20.6807C6.7517 19.7888 7.60538 19.1985 8.55867 19.1985H9.16295C10.1191 19.1985 10.9759 19.789 11.3162 20.6826C11.4142 20.9398 11.6589 21.0979 11.9186 21.0979C11.9949 21.0979 12.0725 21.0843 12.1479 21.0555C12.4806 20.9289 12.6475 20.5565 12.5208 20.2238L9.61662 12.5984C9.61473 12.5935 9.61284 12.5886 9.61086 12.5837C9.48436 12.2746 9.18684 12.0747 8.85289 12.0744C8.85255 12.0744 8.85238 12.0744 8.85203 12.0744C8.51851 12.0744 8.22091 12.2737 8.09389 12.5822C8.09148 12.588 8.08916 12.594 8.08684 12.6L5.20905 20.2257C5.08333 20.5586 5.25142 20.9305 5.58452 21.0562ZM7.95422 16.6022C8.26821 15.7701 9.44454 15.7683 9.76107 16.5994C10.0019 17.2318 9.53486 17.9095 8.85817 17.9095C8.18273 17.9095 7.71574 17.2341 7.95422 16.6022Z" fill="url(#paint2_linear_0_6471)"/>
<path d="M33.9353 25.1797H30.9369C30.5809 25.1797 30.2923 25.4683 30.2923 25.8242C30.2923 26.1802 30.5809 26.4688 30.9369 26.4688C31.4089 26.4688 31.7915 26.8514 31.7915 27.3234V27.5042C31.7915 28.0477 31.3509 28.4883 30.8074 28.4883H30.2734C29.7912 28.4883 29.4618 27.9607 29.4618 27.4785C29.4618 26.2109 28.4306 25.1797 27.163 25.1797H25.302C24.946 25.1797 24.6574 25.4683 24.6574 25.8242C24.6574 26.1802 24.946 26.4688 25.302 26.4688H27.163C27.7198 26.4688 28.1728 26.9217 28.1728 27.4785C28.1728 28.0353 27.7198 28.4883 27.163 28.4883H25.0951C24.7392 28.4883 24.4506 28.7769 24.4506 29.1328C24.4506 29.4888 24.7392 29.7773 25.0951 29.7773H27.163C27.7198 29.7773 28.1728 30.2303 28.1728 30.7871C28.1728 31.3534 27.7293 31.7969 27.163 31.7969C26.2725 31.7969 25.2617 31.6965 24.5169 30.9518C24.2652 30.7001 23.8571 30.7001 23.6055 30.9518C23.3538 31.2035 23.3538 31.6116 23.6055 31.8632C24.6892 32.947 26.076 33.0859 27.163 33.0859C28.4306 33.0859 29.4618 32.0547 29.4618 30.7871C29.4618 30.3049 29.7912 29.7773 30.2734 29.7773H30.8074C31.3509 29.7773 31.7915 30.2179 31.7915 30.7614V32.4414C31.7915 32.7974 32.0801 33.0859 32.4361 33.0859C32.792 33.0859 33.0806 32.7974 33.0806 32.4414V27.3234C33.0806 26.8514 33.4632 26.4688 33.9352 26.4688C34.2912 26.4688 34.5798 26.1802 34.5798 25.8242C34.5798 25.4683 34.2913 25.1797 33.9353 25.1797Z" fill="url(#paint3_linear_0_6471)"/>
<defs>
<linearGradient id="paint0_linear_0_6471" x1="16.0852" y1="-0.710134" x2="49.4318" y2="25.6237" gradientUnits="userSpaceOnUse">
<stop stop-color="#C4CAE4"/>
<stop offset="1" stop-color="#9CA9C0"/>
</linearGradient>
<linearGradient id="paint1_linear_0_6471" x1="16.0852" y1="-0.710134" x2="49.4318" y2="25.6237" gradientUnits="userSpaceOnUse">
<stop stop-color="#C4CAE4"/>
<stop offset="1" stop-color="#9CA9C0"/>
</linearGradient>
<linearGradient id="paint2_linear_0_6471" x1="16.0852" y1="-0.710134" x2="49.4318" y2="25.6237" gradientUnits="userSpaceOnUse">
<stop stop-color="#C4CAE4"/>
<stop offset="1" stop-color="#9CA9C0"/>
</linearGradient>
<linearGradient id="paint3_linear_0_6471" x1="16.0852" y1="-0.710134" x2="49.4318" y2="25.6237" gradientUnits="userSpaceOnUse">
<stop stop-color="#C4CAE4"/>
<stop offset="1" stop-color="#9CA9C0"/>
</linearGradient>
</defs>
</svg>
