<svg width="67" height="66" viewBox="0 0 67 66" fill="none" xmlns="http://www.w3.org/2000/svg">
<path d="M47.7 50.3458L39.8239 44.2272C39.1516 43.7049 38.7582 42.9012 38.7582 42.0499C38.7582 41.0824 39.2827 40.2058 40.0334 39.5955C42.5126 37.58 44.0996 34.5077 44.0996 31.0711V22.2431C44.0996 18.2004 40.8106 14.9115 36.7679 14.9115H29.7789C29.0296 14.9115 28.3422 14.4952 27.9951 13.8311C27.7834 13.4262 27.4081 13.1294 26.9654 13.0169C26.5225 12.9042 26.0512 12.9858 25.6718 13.2404C23.4548 14.7286 22.1311 17.2114 22.1311 19.8816V31.071C22.1311 32.179 22.296 33.2734 22.6213 34.324C22.7794 34.8346 23.3213 35.12 23.8321 34.9622C24.3426 34.804 24.6283 34.2621 24.4703 33.7515C24.2024 32.8865 24.0666 31.9846 24.0666 31.071C24.0666 27.7862 26.4333 24.9318 29.7116 24.726C31.9715 24.5841 34.2439 24.5863 36.5215 24.7324C39.7953 24.9424 42.1641 27.7903 42.1641 31.071C42.1641 36.0604 38.1048 40.1197 33.1154 40.1197C30.4978 40.1197 28.0089 38.9841 26.2869 37.004C25.9362 36.6007 25.3248 36.5581 24.9216 36.9089C24.5184 37.2597 24.4757 37.871 24.8265 38.2742C25.1538 38.6505 25.5041 39.0016 25.8742 39.3261C26.6382 39.996 27.1748 40.9204 27.1748 41.9365C27.1748 42.8593 26.7485 43.7304 26.0197 44.2965L18.233 50.3457C15.4093 52.5392 13.7898 55.8482 13.7898 59.4238V65.032C13.7898 65.5665 14.2231 65.9997 14.7575 65.9997C15.292 65.9997 15.7253 65.5665 15.7253 65.032V59.4238C15.7253 56.4502 17.0721 53.6985 19.4204 51.8742L21.6823 50.117C24.4838 47.9407 29.4191 49.6648 32.9666 49.6648C36.5141 49.6648 41.4494 47.9407 44.2509 50.117L46.5128 51.8742C48.861 53.6985 50.2079 56.4502 50.2079 59.4238V65.032C50.2079 65.5665 50.6412 65.9997 51.1756 65.9997C51.7101 65.9997 52.1434 65.5665 52.1434 65.032V59.4238C52.1432 55.8484 50.5238 52.5395 47.7 50.3458ZM27.5765 22.9585C25.731 23.1425 24.0665 21.7365 24.0665 19.8818C24.0665 18.4659 24.5574 17.1196 25.4277 16.0522C25.9001 15.4728 26.7698 15.6652 27.1161 16.3277C27.2829 16.647 27.6134 16.8471 27.9736 16.8471H36.7678C39.7433 16.8471 42.1639 19.2678 42.1639 22.2433C42.1639 22.8638 41.6081 23.336 40.9938 23.249C36.5031 22.613 32.0128 22.5161 27.5765 22.9585ZM32.9665 47.7294C30.8401 47.7294 29.1102 45.9995 29.1102 43.8731C29.1102 42.6358 30.37 41.7782 31.5955 41.9497C32.0959 42.0197 32.6036 42.0554 33.1154 42.0554C33.5606 42.0554 33.9997 42.0286 34.4312 41.9767C35.6217 41.8333 36.8229 42.674 36.8229 43.8731C36.8227 45.9995 35.0928 47.7294 32.9665 47.7294Z" fill="url(#paint0_linear_0_12556)"/>
<path d="M22.0462 59.0732C21.5118 59.0732 21.0785 59.5065 21.0785 60.041V65.0322C21.0785 65.5667 21.5118 66 22.0462 66C22.5807 66 23.014 65.5667 23.014 65.0322V60.041C23.014 59.5065 22.5808 59.0732 22.0462 59.0732Z" fill="url(#paint1_linear_0_12556)"/>
<path d="M43.8865 59.0732C43.3521 59.0732 42.9188 59.5065 42.9188 60.041V65.0322C42.9188 65.5667 43.3521 66 43.8865 66C44.421 66 44.8543 65.5667 44.8543 65.0322V60.041C44.8543 59.5065 44.421 59.0732 43.8865 59.0732Z" fill="url(#paint2_linear_0_12556)"/>
<path d="M2.12221 52.9184L9.40885 46.6429C9.6224 46.4591 9.74511 46.1913 9.74511 45.9096V45.8414C9.74511 44.7294 10.8977 43.956 12.0096 43.956C13.1216 43.956 14.2742 44.7294 14.2742 45.8414V45.9096C14.2742 46.1913 14.3969 46.4591 14.6104 46.6429L16.4926 48.264C16.6754 48.4214 16.9 48.4984 17.1237 48.4984C17.3956 48.4984 17.6661 48.3845 17.8576 48.1622C18.2063 47.7573 18.1608 47.1462 17.7558 46.7974L17.447 46.5315C16.6614 45.855 16.2097 44.8697 16.2097 43.833C16.2097 42.8489 16.6628 41.9365 17.1926 41.1073C17.8016 40.1541 18.1551 39.0229 18.1551 37.8104V35.1698C18.1551 31.7812 15.3982 29.0244 12.0096 29.0244C8.62097 29.0244 5.86405 31.7813 5.86405 35.1698V37.8104C5.86405 39.023 6.21764 40.1543 6.82672 41.1075C7.35656 41.9366 7.80961 42.849 7.80961 43.833C7.80961 44.8697 7.35785 45.855 6.5723 46.5315L0.859104 51.4518C0.420262 51.8298 0.168518 52.3789 0.168518 52.958V56.321C0.168518 57.2332 0.820265 58.0126 1.71795 58.174C4.74146 58.718 7.83993 59.0229 10.9274 59.0803C10.9336 59.0805 10.9397 59.0805 10.9459 59.0805C11.472 59.0805 11.9032 58.6589 11.9131 58.1308C11.9231 57.5963 11.498 57.1552 10.9636 57.1452C9.10188 57.1105 7.23624 56.9828 5.38669 56.764C3.47923 56.5384 2.10415 54.8786 2.10415 52.9578C2.10415 52.9427 2.11073 52.9283 2.12221 52.9184ZM7.79967 35.1698C7.79967 32.8484 9.68833 30.9599 12.0098 30.9599C14.3312 30.9599 16.2197 32.8485 16.2197 35.1698V37.8104C16.2197 40.1318 14.3311 42.0205 12.0098 42.0205C9.68833 42.0205 7.79967 40.1318 7.79967 37.8104V35.1698Z" fill="url(#paint3_linear_0_12556)"/>
<path d="M56.4852 45.9096C56.4853 45.9096 56.4853 45.9097 56.4853 45.9098C56.4854 46.1914 56.6081 46.4591 56.8215 46.6429L58.4233 48.0224C58.6061 48.1799 58.8308 48.2569 59.0544 48.2569C59.3263 48.2569 59.5967 48.143 59.7882 47.9208C60.137 47.5157 60.0914 46.9046 59.6864 46.5559L59.6581 46.5315C58.8725 45.855 58.4207 44.8697 58.4207 43.833C58.4207 42.8489 58.8738 41.9365 59.4037 41.1073C60.0126 40.1542 60.3661 39.023 60.3661 37.8104V35.1698C60.3661 31.7812 57.6092 29.0244 54.2206 29.0244C50.8319 29.0244 48.0751 31.7813 48.0751 35.1698V37.8104C48.0751 39.023 48.4287 40.1542 49.0377 41.1073C49.5675 41.9365 50.0205 42.8489 50.0205 43.8329C50.0205 44.8696 49.5688 45.8548 48.7832 46.5314L48.4744 46.7973C48.0695 47.146 48.024 47.7571 48.3726 48.1621C48.564 48.3844 48.8344 48.4983 49.1064 48.4983C49.3301 48.4983 49.5548 48.4213 49.7376 48.2639L51.6198 46.6428C51.8333 46.4589 51.956 46.1912 51.956 45.9095V45.8413C51.956 44.7293 53.1086 43.9558 54.2206 43.9558C54.5241 43.9558 54.8224 43.9335 55.1142 43.8905C55.789 43.791 56.4851 44.2624 56.4851 44.9445V45.9095C56.4851 45.9096 56.4851 45.9096 56.4852 45.9096ZM54.2208 42.0205C51.8994 42.0205 50.0108 40.1318 50.0108 37.8104V35.1698C50.0108 32.8484 51.8995 30.9599 54.2209 30.9599C56.5424 30.9599 58.4309 32.8485 58.4309 35.1698V37.8104C58.4308 40.1318 56.5422 42.0205 54.2208 42.0205Z" fill="url(#paint4_linear_0_12556)"/>
<path d="M65.3713 51.4518L62.8691 49.2968C62.4641 48.948 61.853 48.9935 61.5042 49.3986C61.1554 49.8036 61.201 50.4147 61.606 50.7635L64.1084 52.9185C64.1199 52.9284 64.1266 52.9429 64.1266 52.9582C64.1266 54.879 62.7515 56.5388 60.844 56.7644C58.9944 56.9832 57.1287 57.1109 55.2671 57.1456C54.7327 57.1555 54.3076 57.5968 54.3176 58.1312C54.3274 58.6594 54.7586 59.0808 55.2848 59.0808C55.2909 59.0808 55.2971 59.0808 55.3033 59.0807C58.3906 59.0233 61.4891 58.7183 64.5126 58.1744C65.4104 58.013 66.0622 57.2336 66.0622 56.3213V52.9584C66.0619 52.3787 65.8102 51.8297 65.3713 51.4518Z" fill="url(#paint5_linear_0_12556)"/>
<path d="M56.9091 16.3701H56.4012C56.0434 16.3701 55.7148 16.5675 55.5468 16.8835L55.5315 16.9121C54.9067 18.0872 53.2191 18.0768 52.6088 16.8941C52.4427 16.5723 52.111 16.3701 51.7488 16.3701H45.7478C45.2134 16.3701 44.7801 16.8034 44.7801 17.3378C44.7801 17.8723 45.2134 18.3056 45.7478 18.3056H48.3386C50.0709 18.3056 51.6583 19.2727 52.4527 20.8122C52.7605 21.4087 53.3688 21.782 54.04 21.7861H54.0514C54.7182 21.7861 55.326 21.4212 55.6395 20.8318C56.4673 19.275 58.122 18.3967 59.7948 17.8396C63.432 16.6282 66.0618 13.1919 66.0618 9.15285C66.0618 7.44574 65.5871 5.77876 64.6889 4.33204C64.407 3.87797 63.8102 3.73848 63.3562 4.02029C62.9022 4.30223 62.7626 4.89888 63.0445 5.35295C63.7521 6.49283 64.1262 7.80677 64.1262 9.15285C64.1264 13.1325 60.8887 16.3701 56.9091 16.3701Z" fill="url(#paint6_linear_0_12556)"/>
<path d="M6.26685 17.8394C7.93976 18.3966 9.59457 19.2749 10.4224 20.8318C10.7358 21.4212 11.3436 21.7861 12.0105 21.7861H12.0219C12.6931 21.782 13.3015 21.4087 13.6093 20.8122C14.4036 19.2727 15.991 18.3056 17.7233 18.3056H19.5287C20.0631 18.3056 20.4964 17.8723 20.4964 17.3378C20.4964 16.8034 20.0631 16.3701 19.5287 16.3701H14.3131C13.9511 16.3701 13.6192 16.5723 13.4531 16.8941C12.8428 18.0768 11.1552 18.0872 10.5303 16.912L10.5152 16.8835C10.3472 16.5675 10.0185 16.3701 9.66072 16.3701H9.15285C5.1732 16.3701 1.9355 13.1324 1.9355 9.15272C1.9355 5.17307 5.1732 1.9355 9.15285 1.9355H56.9091C58.1216 1.9355 59.3212 2.24247 60.3783 2.82312C60.8469 3.08054 61.4351 2.90931 61.6925 2.44092C61.9499 1.97253 61.7787 1.38414 61.3103 1.12672C59.9685 0.389681 58.4466 0 56.9091 0H9.15285C4.10597 0 0 4.10597 0 9.15285C0 13.1918 2.62972 16.6281 6.26685 17.8394Z" fill="url(#paint7_linear_0_12556)"/>
<path d="M15.0832 8.40531C14.9374 9.28695 15.6926 10.0421 16.5743 9.89635C17.1084 9.80796 17.5391 9.37714 17.6275 8.8431C17.7733 7.96145 17.0181 7.20639 16.1365 7.35206C15.6024 7.44031 15.1716 7.87113 15.0832 8.40531Z" fill="url(#paint8_linear_0_12556)"/>
<path d="M26.1543 8.62414C26.1543 9.33559 26.7331 9.91441 27.4445 9.91441C28.156 9.91441 28.7348 9.33559 28.7348 8.62414C28.7348 7.91268 28.156 7.33387 27.4445 7.33387C26.733 7.33387 26.1543 7.91268 26.1543 8.62414Z" fill="url(#paint9_linear_0_12556)"/>
<path d="M50.9967 8.62414C50.9967 7.91268 50.4178 7.33387 49.7064 7.33387C48.9949 7.33387 48.4161 7.91268 48.4161 8.62414C48.4161 9.33559 48.9949 9.91441 49.7064 9.91441C50.4178 9.91441 50.9967 9.33559 50.9967 8.62414Z" fill="url(#paint10_linear_0_12556)"/>
<path d="M37.327 8.62414C37.327 9.33559 37.9058 9.91441 38.6173 9.91441C39.3287 9.91441 39.9075 9.33559 39.9075 8.62414C39.9075 7.91268 39.3287 7.33387 38.6173 7.33387C37.9058 7.33387 37.327 7.91268 37.327 8.62414Z" fill="url(#paint11_linear_0_12556)"/>
<defs>
<linearGradient id="paint0_linear_0_12556" x1="12.762" y1="-51.2368" x2="72.7278" y2="-44.5699" gradientUnits="userSpaceOnUse">
<stop stop-color="#F93C3C"/>
<stop offset="1" stop-color="#CD0973"/>
</linearGradient>
<linearGradient id="paint1_linear_0_12556" x1="12.762" y1="-51.2368" x2="72.7278" y2="-44.5699" gradientUnits="userSpaceOnUse">
<stop stop-color="#F93C3C"/>
<stop offset="1" stop-color="#CD0973"/>
</linearGradient>
<linearGradient id="paint2_linear_0_12556" x1="12.762" y1="-51.2368" x2="72.7278" y2="-44.5699" gradientUnits="userSpaceOnUse">
<stop stop-color="#F93C3C"/>
<stop offset="1" stop-color="#CD0973"/>
</linearGradient>
<linearGradient id="paint3_linear_0_12556" x1="12.762" y1="-51.2368" x2="72.7278" y2="-44.5699" gradientUnits="userSpaceOnUse">
<stop stop-color="#F93C3C"/>
<stop offset="1" stop-color="#CD0973"/>
</linearGradient>
<linearGradient id="paint4_linear_0_12556" x1="12.762" y1="-51.2368" x2="72.7278" y2="-44.5699" gradientUnits="userSpaceOnUse">
<stop stop-color="#F93C3C"/>
<stop offset="1" stop-color="#CD0973"/>
</linearGradient>
<linearGradient id="paint5_linear_0_12556" x1="12.762" y1="-51.2368" x2="72.7278" y2="-44.5699" gradientUnits="userSpaceOnUse">
<stop stop-color="#F93C3C"/>
<stop offset="1" stop-color="#CD0973"/>
</linearGradient>
<linearGradient id="paint6_linear_0_12556" x1="12.762" y1="-51.2368" x2="72.7278" y2="-44.5699" gradientUnits="userSpaceOnUse">
<stop stop-color="#F93C3C"/>
<stop offset="1" stop-color="#CD0973"/>
</linearGradient>
<linearGradient id="paint7_linear_0_12556" x1="12.762" y1="-51.2368" x2="72.7278" y2="-44.5699" gradientUnits="userSpaceOnUse">
<stop stop-color="#F93C3C"/>
<stop offset="1" stop-color="#CD0973"/>
</linearGradient>
<linearGradient id="paint8_linear_0_12556" x1="12.762" y1="-51.2368" x2="72.7278" y2="-44.5699" gradientUnits="userSpaceOnUse">
<stop stop-color="#F93C3C"/>
<stop offset="1" stop-color="#CD0973"/>
</linearGradient>
<linearGradient id="paint9_linear_0_12556" x1="12.762" y1="-51.2368" x2="72.7278" y2="-44.5699" gradientUnits="userSpaceOnUse">
<stop stop-color="#F93C3C"/>
<stop offset="1" stop-color="#CD0973"/>
</linearGradient>
<linearGradient id="paint10_linear_0_12556" x1="12.762" y1="-51.2368" x2="72.7278" y2="-44.5699" gradientUnits="userSpaceOnUse">
<stop stop-color="#F93C3C"/>
<stop offset="1" stop-color="#CD0973"/>
</linearGradient>
<linearGradient id="paint11_linear_0_12556" x1="12.762" y1="-51.2368" x2="72.7278" y2="-44.5699" gradientUnits="userSpaceOnUse">
<stop stop-color="#F93C3C"/>
<stop offset="1" stop-color="#CD0973"/>
</linearGradient>
</defs>
</svg>
