<svg width="28" height="44" viewBox="0 0 28 44" fill="none" xmlns="http://www.w3.org/2000/svg">
<path d="M23.8906 0H3.86719C1.73482 0 0 1.73482 0 3.86719V6.53125C0 6.8872 0.288578 7.17578 0.644531 7.17578C1.00048 7.17578 1.28906 6.8872 1.28906 6.53125V3.86719C1.28906 2.44561 2.44561 1.28906 3.86719 1.28906H23.8906C25.3122 1.28906 26.4688 2.44561 26.4688 3.86719V14.6738C26.4688 15.5163 25.7858 16.1992 24.9434 16.1992C24.1009 16.1992 23.418 15.5163 23.418 14.6738V9.10938C23.418 8.51701 22.9361 8.03516 22.3438 8.03516H19.6797C19.3712 8.03516 19.1211 7.78507 19.1211 7.47656C19.1211 6.8842 18.6392 6.40234 18.0469 6.40234H14.6094C14.017 6.40234 13.5352 6.8842 13.5352 7.47656C13.5352 7.78507 13.2851 8.03516 12.9766 8.03516H11.0859C10.7774 8.03516 10.5273 7.78507 10.5273 7.47656C10.5273 6.8842 10.0455 6.40234 9.45312 6.40234H6.01562C5.42326 6.40234 4.94141 6.8842 4.94141 7.47656V14.373C4.94141 15.3816 4.1238 16.1992 3.11523 16.1992C2.10667 16.1992 1.28906 15.3816 1.28906 14.373V9.53906C1.28906 9.18311 1.00048 8.89453 0.644531 8.89453C0.288578 8.89453 0 9.18311 0 9.53906V40.1328C0 42.2652 1.73482 44 3.86719 44H23.8906C26.023 44 27.7578 42.2652 27.7578 40.1328V3.86719C27.7578 1.73482 26.023 0 23.8906 0ZM20.625 9.32422C21.4556 9.32422 22.1289 9.99754 22.1289 10.8281V14.6953C22.1289 15.5259 21.4556 16.1992 20.625 16.1992C19.7944 16.1992 19.1211 15.5259 19.1211 14.6953V10.8281C19.1211 9.99754 19.7944 9.32422 20.625 9.32422ZM12.0312 9.32422C12.8618 9.32422 13.5352 9.99754 13.5352 10.8281C13.5352 11.1841 13.8237 11.4727 14.1797 11.4727C14.5356 11.4727 14.8242 11.1841 14.8242 10.8281C14.8242 10.3653 14.8242 9.77894 14.8242 9.19531C14.8242 8.36472 15.4975 7.69141 16.3281 7.69141C17.1587 7.69141 17.832 8.36473 17.832 9.19531V14.6953C17.832 15.5259 17.1587 16.1992 16.3281 16.1992C15.4975 16.1992 14.8242 15.5259 14.8242 14.6953V13.793C14.8242 13.437 14.5356 13.1484 14.1797 13.1484C13.8237 13.1484 13.5352 13.437 13.5352 13.793V14.6953C13.5352 15.5259 12.8618 16.1992 12.0312 16.1992C11.2007 16.1992 10.5273 15.5259 10.5273 14.6953V10.8281C10.5273 9.99754 11.2007 9.32422 12.0312 9.32422ZM6.23047 9.19531C6.23047 8.36473 6.90379 7.69141 7.73438 7.69141C8.56496 7.69141 9.23828 8.36473 9.23828 9.19531V14.6953C9.23828 15.5259 8.56496 16.1992 7.73438 16.1992C6.90379 16.1992 6.23047 15.5259 6.23047 14.6953V9.19531ZM25.8242 17.4883C26.1802 17.4883 26.4688 17.7768 26.4688 18.1328C26.4688 18.4888 26.1802 18.7773 25.8242 18.7773H22.9883C22.6323 18.7773 22.3438 19.0659 22.3438 19.4219C22.3438 19.7778 22.6323 20.0664 22.9883 20.0664C24.9105 20.0664 26.4688 21.6247 26.4688 23.5469V30.916C26.4688 31.7585 25.7858 32.4414 24.9434 32.4414C24.1009 32.4414 23.418 31.7585 23.418 30.916V25.3516C23.418 24.7592 22.9361 24.2773 22.3438 24.2773H19.6797C19.3712 24.2773 19.1211 24.0273 19.1211 23.7188C19.1211 23.1264 18.6392 22.6445 18.0469 22.6445H14.6094C14.3275 22.6445 14.0319 22.6445 13.75 22.6445H10.3125C9.72013 22.6445 9.23828 23.1264 9.23828 23.7188C9.23828 24.0273 8.98819 24.2773 8.67969 24.2773H6.01562C5.42326 24.2773 4.94141 24.7592 4.94141 25.3516V30.6152C4.94141 31.6238 4.1238 32.4414 3.11523 32.4414C2.10667 32.4414 1.28906 31.6238 1.28906 30.6152V26.2539C1.28906 22.8366 4.0593 20.0664 7.47656 20.0664H19.9805C20.3364 20.0664 20.625 19.7778 20.625 19.4219C20.625 19.0659 20.3364 18.7773 19.9805 18.7773H1.93359C1.57763 18.7773 1.28906 18.4888 1.28906 18.1328C1.28906 17.7768 1.57763 17.4883 1.93359 17.4883H25.8242ZM16.3281 32.4414C15.4975 32.4414 14.8242 31.7681 14.8242 30.9375V25.4375C14.8242 24.6069 15.4975 23.9336 16.3281 23.9336C17.1587 23.9336 17.832 24.6069 17.832 25.4375V30.9375C17.832 31.7681 17.1587 32.4414 16.3281 32.4414ZM12.0312 32.4414C11.2007 32.4414 10.5273 31.7697 10.5273 30.9391C10.5273 29.3507 10.5273 27.004 10.5273 25.4357C10.5273 24.6051 11.2007 23.9336 12.0312 23.9336C12.8618 23.9336 13.5352 24.6069 13.5352 25.4375V30.9375C13.5352 31.7681 12.8618 32.4414 12.0312 32.4414ZM9.23828 30.9375C9.23828 31.7681 8.56496 32.4414 7.73438 32.4414C6.90379 32.4414 6.23047 31.7681 6.23047 30.9375V27.0703C6.23047 26.2397 6.90379 25.5664 7.73438 25.5664C8.56496 25.5664 9.23828 26.2397 9.23828 27.0703V30.9375ZM19.1211 27.0703C19.1211 26.2397 19.7944 25.5664 20.625 25.5664C21.4556 25.5664 22.1289 26.2397 22.1289 27.0703V30.9375C22.1289 31.7681 21.4556 32.4414 20.625 32.4414C19.7944 32.4414 19.1211 31.7681 19.1211 30.9375V27.0703ZM23.8906 42.7109H3.86719C2.44561 42.7109 1.28906 41.5544 1.28906 40.1328C1.28906 38.0208 3.00122 36.3086 5.11328 36.3086H7.52941C7.88537 36.3086 8.17395 36.02 8.17395 35.6641C8.17395 35.3081 7.88537 35.0195 7.52941 35.0195H1.93359C1.57763 35.0195 1.28906 34.731 1.28906 34.375C1.28906 34.019 1.57763 33.7305 1.93359 33.7305H25.8242C26.1802 33.7305 26.4688 34.019 26.4688 34.375C26.4688 34.731 26.1802 35.0195 25.8242 35.0195H10.6133C10.2573 35.0195 9.96875 35.3081 9.96875 35.6641C9.96875 36.02 10.2573 36.3086 10.6133 36.3086H22.6445C24.7566 36.3086 26.4688 38.0208 26.4688 40.1328C26.4688 41.5544 25.3122 42.7109 23.8906 42.7109Z" fill="url(#paint0_linear_0_6465)"/>
<path d="M10.6992 3.86719H14.9961C15.352 3.86719 15.6406 3.57861 15.6406 3.22266C15.6406 2.8667 15.352 2.57812 14.9961 2.57812H10.6992C10.3433 2.57812 10.0547 2.8667 10.0547 3.22266C10.0547 3.57861 10.3433 3.86719 10.6992 3.86719Z" fill="url(#paint1_linear_0_6465)"/>
<path d="M21.4844 38.8438H6.27344C5.91748 38.8438 5.62891 39.1323 5.62891 39.4883C5.62891 39.8442 5.91748 40.1328 6.27344 40.1328H21.4844C21.8403 40.1328 22.1289 39.8442 22.1289 39.4883C22.1289 39.1323 21.8403 38.8438 21.4844 38.8438Z" fill="url(#paint2_linear_0_6465)"/>
<path d="M7.73438 9.75391C7.37842 9.75391 7.08984 10.0425 7.08984 10.3984V13.4922C7.08984 13.8481 7.37842 14.1367 7.73438 14.1367C8.09033 14.1367 8.37891 13.8481 8.37891 13.4922V10.3984C8.37891 10.0425 8.09033 9.75391 7.73438 9.75391Z" fill="url(#paint3_linear_0_6465)"/>
<path d="M16.3281 14.1367C16.6841 14.1367 16.9727 13.8481 16.9727 13.4922V10.3984C16.9727 10.0425 16.6841 9.75391 16.3281 9.75391C15.9722 9.75391 15.6836 10.0425 15.6836 10.3984V13.4922C15.6836 13.8481 15.9722 14.1367 16.3281 14.1367Z" fill="url(#paint4_linear_0_6465)"/>
<path d="M16.3281 25.9961C15.9722 25.9961 15.6836 26.2847 15.6836 26.6406V29.7344C15.6836 30.0903 15.9722 30.3789 16.3281 30.3789C16.6841 30.3789 16.9727 30.0903 16.9727 29.7344V26.6406C16.9727 26.2847 16.6841 25.9961 16.3281 25.9961Z" fill="url(#paint5_linear_0_6465)"/>
<path d="M12.0312 25.9961C11.6753 25.9961 11.3867 26.2847 11.3867 26.6406V29.7344C11.3867 30.0903 11.6753 30.3789 12.0312 30.3789C12.3872 30.3789 12.6758 30.0903 12.6758 29.7344V26.6406C12.6758 26.2847 12.3872 25.9961 12.0312 25.9961Z" fill="url(#paint6_linear_0_6465)"/>
<path d="M7.73438 30.6797C8.09033 30.6797 8.37891 30.3911 8.37891 30.0352V27.9727C8.37891 27.6167 8.09033 27.3281 7.73438 27.3281C7.37842 27.3281 7.08984 27.6167 7.08984 27.9727V30.0352C7.08984 30.3911 7.37842 30.6797 7.73438 30.6797Z" fill="url(#paint7_linear_0_6465)"/>
<path d="M20.625 27.3711C20.269 27.3711 19.9805 27.6597 19.9805 28.0156V30.0781C19.9805 30.4341 20.269 30.7227 20.625 30.7227C20.981 30.7227 21.2695 30.4341 21.2695 30.0781V28.0156C21.2695 27.6597 20.981 27.3711 20.625 27.3711Z" fill="url(#paint8_linear_0_6465)"/>
<path d="M20.625 14.4375C20.981 14.4375 21.2695 14.1489 21.2695 13.793V11.7305C21.2695 11.3745 20.981 11.0859 20.625 11.0859C20.269 11.0859 19.9805 11.3745 19.9805 11.7305V13.793C19.9805 14.1489 20.269 14.4375 20.625 14.4375Z" fill="url(#paint9_linear_0_6465)"/>
<path d="M12.0312 14.4805C12.3872 14.4805 12.6758 14.1919 12.6758 13.8359V11.7734C12.6758 11.4175 12.3872 11.1289 12.0312 11.1289C11.6753 11.1289 11.3867 11.4175 11.3867 11.7734V13.8359C11.3867 14.1919 11.6753 14.4805 12.0312 14.4805Z" fill="url(#paint10_linear_0_6465)"/>
<path d="M17.1445 3.86719C17.5005 3.86719 17.7891 3.57862 17.7891 3.22266C17.7891 2.86669 17.5005 2.57812 17.1445 2.57812C16.7886 2.57812 16.5 2.86669 16.5 3.22266C16.5 3.57862 16.7886 3.86719 17.1445 3.86719Z" fill="url(#paint11_linear_0_6465)"/>
<defs>
<linearGradient id="paint0_linear_0_6465" x1="10.1475" y1="-0.710134" x2="37.512" y2="12.9226" gradientUnits="userSpaceOnUse">
<stop stop-color="#A068F8"/>
<stop offset="0.6891" stop-color="#3F55C3"/>
<stop offset="1" stop-color="#184EAE"/>
</linearGradient>
<linearGradient id="paint1_linear_0_6465" x1="10.1475" y1="-0.710134" x2="37.512" y2="12.9226" gradientUnits="userSpaceOnUse">
<stop stop-color="#A068F8"/>
<stop offset="0.6891" stop-color="#3F55C3"/>
<stop offset="1" stop-color="#184EAE"/>
</linearGradient>
<linearGradient id="paint2_linear_0_6465" x1="10.1475" y1="-0.710134" x2="37.512" y2="12.9226" gradientUnits="userSpaceOnUse">
<stop stop-color="#A068F8"/>
<stop offset="0.6891" stop-color="#3F55C3"/>
<stop offset="1" stop-color="#184EAE"/>
</linearGradient>
<linearGradient id="paint3_linear_0_6465" x1="10.1475" y1="-0.710134" x2="37.512" y2="12.9226" gradientUnits="userSpaceOnUse">
<stop stop-color="#A068F8"/>
<stop offset="0.6891" stop-color="#3F55C3"/>
<stop offset="1" stop-color="#184EAE"/>
</linearGradient>
<linearGradient id="paint4_linear_0_6465" x1="10.1475" y1="-0.710134" x2="37.512" y2="12.9226" gradientUnits="userSpaceOnUse">
<stop stop-color="#A068F8"/>
<stop offset="0.6891" stop-color="#3F55C3"/>
<stop offset="1" stop-color="#184EAE"/>
</linearGradient>
<linearGradient id="paint5_linear_0_6465" x1="10.1475" y1="-0.710134" x2="37.512" y2="12.9226" gradientUnits="userSpaceOnUse">
<stop stop-color="#A068F8"/>
<stop offset="0.6891" stop-color="#3F55C3"/>
<stop offset="1" stop-color="#184EAE"/>
</linearGradient>
<linearGradient id="paint6_linear_0_6465" x1="10.1475" y1="-0.710134" x2="37.512" y2="12.9226" gradientUnits="userSpaceOnUse">
<stop stop-color="#A068F8"/>
<stop offset="0.6891" stop-color="#3F55C3"/>
<stop offset="1" stop-color="#184EAE"/>
</linearGradient>
<linearGradient id="paint7_linear_0_6465" x1="10.1475" y1="-0.710134" x2="37.512" y2="12.9226" gradientUnits="userSpaceOnUse">
<stop stop-color="#A068F8"/>
<stop offset="0.6891" stop-color="#3F55C3"/>
<stop offset="1" stop-color="#184EAE"/>
</linearGradient>
<linearGradient id="paint8_linear_0_6465" x1="10.1475" y1="-0.710134" x2="37.512" y2="12.9226" gradientUnits="userSpaceOnUse">
<stop stop-color="#A068F8"/>
<stop offset="0.6891" stop-color="#3F55C3"/>
<stop offset="1" stop-color="#184EAE"/>
</linearGradient>
<linearGradient id="paint9_linear_0_6465" x1="10.1475" y1="-0.710134" x2="37.512" y2="12.9226" gradientUnits="userSpaceOnUse">
<stop stop-color="#A068F8"/>
<stop offset="0.6891" stop-color="#3F55C3"/>
<stop offset="1" stop-color="#184EAE"/>
</linearGradient>
<linearGradient id="paint10_linear_0_6465" x1="10.1475" y1="-0.710134" x2="37.512" y2="12.9226" gradientUnits="userSpaceOnUse">
<stop stop-color="#A068F8"/>
<stop offset="0.6891" stop-color="#3F55C3"/>
<stop offset="1" stop-color="#184EAE"/>
</linearGradient>
<linearGradient id="paint11_linear_0_6465" x1="10.1475" y1="-0.710134" x2="37.512" y2="12.9226" gradientUnits="userSpaceOnUse">
<stop stop-color="#A068F8"/>
<stop offset="0.6891" stop-color="#3F55C3"/>
<stop offset="1" stop-color="#184EAE"/>
</linearGradient>
</defs>
</svg>
