<svg width="36" height="44" viewBox="0 0 36 44" fill="none" xmlns="http://www.w3.org/2000/svg">
<path d="M6.83089 4.48517H19.8909C20.247 4.48517 20.5355 4.19668 20.5355 3.84064C20.5355 3.4846 20.247 3.19611 19.8909 3.19611H6.83089C6.0016 3.19611 5.32682 3.87089 5.32682 4.70018V5.88663C5.32682 6.71593 6.0016 7.39071 6.83089 7.39071H26.2251C27.0544 7.39071 27.7292 6.71593 27.7292 5.88663V4.70018C27.7292 3.87089 27.0544 3.19611 26.2251 3.19611H22.8993C22.5432 3.19611 22.2547 3.4846 22.2547 3.84064C22.2547 4.19668 22.5432 4.48517 22.8993 4.48517H26.2251C26.3437 4.48517 26.4401 4.58159 26.4401 4.70018V5.88663C26.4401 6.00523 26.3437 6.10165 26.2251 6.10165H6.83089C6.7123 6.10165 6.61588 6.00523 6.61588 5.88663V4.70018C6.61588 4.58168 6.7123 4.48517 6.83089 4.48517Z" fill="url(#paint0_linear_0_6469)"/>
<path d="M17.0006 34.2434H4.77275C4.41671 34.2434 4.12822 34.5319 4.12822 34.8879C4.12822 35.2439 4.41671 35.5324 4.77275 35.5324H17.0006C17.3566 35.5324 17.6451 35.2439 17.6451 34.8879C17.6451 34.5319 17.3565 34.2434 17.0006 34.2434Z" fill="url(#paint1_linear_0_6469)"/>
<path d="M12.3001 39.0939C12.3001 39.45 12.5886 39.7385 12.9446 39.7385H20.1114C20.4675 39.7385 20.756 39.45 20.756 39.0939C20.756 38.7379 20.4675 38.4494 20.1114 38.4494H12.9446C12.5886 38.4494 12.3001 38.738 12.3001 39.0939Z" fill="url(#paint2_linear_0_6469)"/>
<path d="M35.8391 35.7122C35.8156 34.8897 35.4645 34.135 34.8504 33.5872C33.7087 32.569 33.0558 31.112 33.0558 29.5822V2.36353C33.0558 1.06029 31.9955 0 30.6922 0H2.36362C1.06029 0 0 1.06029 0 2.36353V35C0 35.356 0.288491 35.6445 0.644529 35.6445C1.00057 35.6445 1.28906 35.356 1.28906 35V2.36353C1.28906 1.77099 1.77108 1.28906 2.36362 1.28906H30.6923C31.2848 1.28906 31.7668 1.77099 31.7668 2.36353V28.996C31.7668 29.7084 30.9154 30.0777 30.3837 29.6035C30.1529 29.3977 30.0753 29.0739 30.0753 28.7646C30.0753 28.294 29.8921 27.8516 29.5594 27.5189L29.1886 27.1482C28.8044 26.764 28.2854 26.5951 27.7825 26.6409C27.3576 26.6796 26.8967 26.666 26.5655 26.397C26.1404 26.0516 26.0538 25.4415 26.3165 24.9608C27.1453 23.4442 27.6169 21.7057 27.6169 19.859C27.6169 19.0532 27.5268 18.2682 27.3567 17.5131C27.2191 16.9027 27.6574 16.2809 28.2831 16.2809C28.6392 16.2809 28.9277 15.9924 28.9277 15.6364C28.9277 15.2803 28.6392 14.9918 28.2831 14.9918H26.8467C26.5977 14.9918 26.3706 14.8508 26.2483 14.6339C25.9805 14.159 26.3047 13.5306 26.85 13.5306H28.2832C28.6392 13.5306 28.9277 13.2421 28.9277 12.8861C28.9277 12.5301 28.6392 12.2416 28.2832 12.2416H24.6598C24.5013 12.2416 24.35 12.1791 24.2343 12.0707C23.7899 11.6543 24.066 10.7804 24.6751 10.7804H28.2833C28.6393 10.7804 28.9278 10.4919 28.9278 10.1359C28.9278 9.77982 28.6393 9.49133 28.2833 9.49133H21.4453C20.208 9.49133 18.9804 9.32556 17.7481 9.21458C17.4767 9.19014 17.2049 9.17743 16.9419 9.18402C16.047 9.18402 14.4394 9.49133 14.3964 9.49133H6.70972C6.35368 9.49133 6.06519 9.77982 6.06519 10.1359C6.06519 10.4919 6.35368 10.7804 6.70972 10.7804H9.20877C9.81782 10.7804 10.094 11.6544 9.64957 12.0708C9.53394 12.1791 9.38263 12.2416 9.22418 12.2416H4.77269C4.41666 12.2416 4.12816 12.5301 4.12816 12.8861C4.12816 13.2421 4.41666 13.5306 4.77269 13.5306H7.03375C7.57905 13.5306 7.90337 14.1591 7.63548 14.634C7.5132 14.8508 7.28614 14.9918 7.03725 14.9918H4.77269C4.41666 14.9918 4.12816 15.2803 4.12816 15.6364C4.12816 15.9924 4.41666 16.2809 4.77269 16.2809H5.92179C6.39102 16.2809 6.72033 16.7436 6.60316 17.198C6.5225 17.5107 6.24588 17.7421 5.92289 17.7421H4.77269C4.41666 17.7421 4.12816 18.0306 4.12816 18.3866C4.12816 18.7426 4.41666 19.0311 4.77269 19.0311H5.4702C5.91717 19.0311 6.26697 19.412 6.26697 19.859C6.26697 20.2027 5.9964 20.4922 5.65265 20.4922H4.77278C4.41674 20.4922 4.12825 20.7807 4.12825 21.1368C4.12825 21.4928 4.41674 21.7813 4.77278 21.7813H5.87451C6.20251 21.7813 6.48199 22.0195 6.55818 22.3386C6.66596 22.7899 6.33717 23.2425 5.87317 23.2425H4.77278C4.41674 23.2425 4.12825 23.531 4.12825 23.887C4.12825 24.243 4.41674 24.5315 4.77278 24.5315H6.92988C7.18426 24.5315 7.4154 24.6785 7.53598 24.9024C7.7918 25.3777 7.466 25.9927 6.92629 25.9927H6.70989C6.35385 25.9927 6.06536 26.2812 6.06536 26.6373C6.06536 26.9933 6.35385 27.2818 6.70989 27.2818H9.01816C9.18438 27.2818 9.34268 27.3496 9.46118 27.4661C9.89417 27.892 9.61198 28.743 9.00465 28.743H4.77286C4.41683 28.743 4.12834 29.0315 4.12834 29.3875C4.12834 29.7435 4.41683 30.032 4.77286 30.032H10.8275C12.6879 30.032 14.5259 30.418 16.3833 30.5233C16.571 30.5339 16.7579 30.5379 16.9421 30.5338C18.7877 30.5338 20.5251 30.0628 22.041 29.235C22.5234 28.9715 23.1355 29.0584 23.482 29.485L23.6285 29.6653C23.8085 29.8869 23.8242 30.1955 23.7631 30.4744C23.6561 30.9633 23.3026 31.4933 22.8021 31.4933H4.77278C4.41674 31.4933 4.12825 31.7818 4.12825 32.1378C4.12825 32.4939 4.41674 32.7824 4.77278 32.7824H24.1673C24.7317 32.7824 25.2885 32.9872 25.8529 32.9872C26.1573 32.9872 26.4733 33.0617 26.6759 33.2889L30.6704 37.7675C31.2154 38.3785 31.7668 39.0788 31.7668 39.8976V41.6365C31.7668 42.229 31.2848 42.7109 30.6923 42.7109H2.36362C1.77108 42.7109 1.28906 42.229 1.28906 41.6365V38.0183C1.28906 37.6623 1.00057 37.3738 0.644529 37.3738C0.288491 37.3738 0 37.6623 0 38.0183V41.6365C0 42.9397 1.06029 44 2.36362 44H30.6923C31.9956 44 33.0559 42.9397 33.0559 41.6365V40.9019C33.0559 39.6952 34.1201 38.7435 34.9733 37.8902C35.555 37.3082 35.8625 36.5347 35.8391 35.7122ZM27.9429 27.9215C28.0639 27.9215 28.1849 27.9676 28.2771 28.0597L28.6478 28.4303C28.737 28.5195 28.7862 28.6383 28.7862 28.7645C28.7862 28.8127 28.7786 28.8595 28.7645 28.904C28.7414 28.9764 28.696 29.0399 28.6478 29.0987L26.187 31.5595C26.0629 31.6695 25.826 31.7896 25.4944 31.5352L25.148 31.1888C24.9662 31.0071 24.9645 30.7132 25.1414 30.5284C25.2492 30.4163 27.4758 28.194 27.6087 28.0597C27.7008 27.9676 27.8219 27.9215 27.9429 27.9215ZM7.55603 19.8589C7.55603 14.6835 11.7665 10.473 16.9419 10.473C22.1173 10.473 26.3277 14.6835 26.3277 19.8589C26.3277 25.0343 22.1173 29.2447 16.9419 29.2447C11.7665 29.2447 7.55603 25.0343 7.55603 19.8589ZM24.5857 27.3027C24.8435 27.038 25.262 26.9988 25.5488 27.2318C25.8629 27.487 25.8873 27.9581 25.601 28.2443L25.3274 28.5179C25.0412 28.8042 24.5701 28.7799 24.3149 28.4657C24.0819 28.1789 24.1211 27.7605 24.3857 27.5027C24.4533 27.4369 24.5199 27.3702 24.5857 27.3027ZM34.0616 36.9786C33.4784 37.577 32.2981 37.6694 31.6324 36.9092L28.2721 33.1417C27.7841 32.5946 27.8079 31.7617 28.3263 31.2433C28.8447 30.7249 29.6776 30.7011 30.2247 31.189L33.9923 34.5491C34.6244 35.0962 34.782 36.2706 34.0616 36.9786Z" fill="url(#paint3_linear_0_6469)"/>
<path d="M16.9416 11.4527C12.3064 11.4527 8.53545 15.2238 8.53545 19.8589C8.53545 21.9307 9.29582 23.9212 10.6765 25.4636C10.9138 25.7288 11.3214 25.7515 11.5866 25.514C11.8519 25.2765 11.8744 24.8691 11.6369 24.6039C10.4682 23.2983 9.82451 21.613 9.82451 19.8589C9.82451 15.9345 13.0172 12.7418 16.9416 12.7418C20.8659 12.7418 24.0586 15.9345 24.0586 19.8589C24.0586 23.7832 20.8659 26.9759 16.9416 26.9759C15.8561 26.9759 14.8145 26.7381 13.8455 26.2692C13.5249 26.1139 13.1396 26.2482 12.9846 26.5686C12.8295 26.8891 12.9636 27.2744 13.284 27.4295C14.4294 27.9838 15.6599 28.2649 16.9416 28.2649C21.5768 28.2649 25.3476 24.494 25.3476 19.8589C25.3476 15.2238 21.5768 11.4527 16.9416 11.4527Z" fill="url(#paint4_linear_0_6469)"/>
<path d="M19.7734 19.4839C19.5217 19.7357 19.5217 20.1438 19.7734 20.3955C20.0252 20.6471 20.4332 20.6471 20.6849 20.3955L22.0632 19.0171C22.7473 18.3562 22.852 17.0512 22.0633 16.2823C21.3092 15.5284 20.0825 15.5284 19.3284 16.2823L17.1407 18.4701C16.2844 19.3264 14.896 19.3264 14.0397 18.4701C13.2857 17.7162 12.0588 17.7162 11.305 18.4701C10.6208 19.1311 10.5161 20.436 11.3049 21.2049L14.2229 24.1228C14.5882 24.4881 15.0737 24.6892 15.5902 24.6892C16.1067 24.6892 16.5922 24.4881 16.9576 24.1227L18.5526 22.5277C18.8043 22.276 18.8043 21.8678 18.5526 21.6162C18.3009 21.3646 17.8928 21.3645 17.6411 21.6163L16.0462 23.2113C15.9244 23.3331 15.7624 23.4001 15.5902 23.4001C15.418 23.4001 15.256 23.3331 15.1343 23.2113L12.2163 20.2934C12.033 20.1014 11.924 19.7063 12.2164 19.3817C12.4677 19.1302 12.8769 19.1302 13.1281 19.3817L15.1344 21.388C15.3862 21.6396 15.7942 21.6396 16.0459 21.388L20.2399 17.194C20.4912 16.9425 20.9004 16.9425 21.1517 17.194C21.335 17.386 21.444 17.7809 21.1516 18.1056L19.7734 19.4839Z" fill="url(#paint5_linear_0_6469)"/>
<defs>
<linearGradient id="paint0_linear_0_6469" x1="13.1022" y1="-0.710134" x2="44.2967" y2="19.3557" gradientUnits="userSpaceOnUse">
<stop stop-color="#C4CAE4"/>
<stop offset="1" stop-color="#9CA9C0"/>
</linearGradient>
<linearGradient id="paint1_linear_0_6469" x1="13.1022" y1="-0.710134" x2="44.2967" y2="19.3557" gradientUnits="userSpaceOnUse">
<stop stop-color="#C4CAE4"/>
<stop offset="1" stop-color="#9CA9C0"/>
</linearGradient>
<linearGradient id="paint2_linear_0_6469" x1="13.1022" y1="-0.710134" x2="44.2967" y2="19.3557" gradientUnits="userSpaceOnUse">
<stop stop-color="#C4CAE4"/>
<stop offset="1" stop-color="#9CA9C0"/>
</linearGradient>
<linearGradient id="paint3_linear_0_6469" x1="13.1022" y1="-0.710134" x2="44.2967" y2="19.3557" gradientUnits="userSpaceOnUse">
<stop stop-color="#C4CAE4"/>
<stop offset="1" stop-color="#9CA9C0"/>
</linearGradient>
<linearGradient id="paint4_linear_0_6469" x1="13.1022" y1="-0.710134" x2="44.2967" y2="19.3557" gradientUnits="userSpaceOnUse">
<stop stop-color="#C4CAE4"/>
<stop offset="1" stop-color="#9CA9C0"/>
</linearGradient>
<linearGradient id="paint5_linear_0_6469" x1="13.1022" y1="-0.710134" x2="44.2967" y2="19.3557" gradientUnits="userSpaceOnUse">
<stop stop-color="#C4CAE4"/>
<stop offset="1" stop-color="#9CA9C0"/>
</linearGradient>
</defs>
</svg>
