<svg width="51" height="66" viewBox="0 0 51 66" fill="none" xmlns="http://www.w3.org/2000/svg">
<path d="M45.6228 0H4.84777C2.17464 0 0 2.16846 0 4.83398V8.12109C0 8.65515 0.434102 9.08789 0.969554 9.08789C1.50501 9.08789 1.93911 8.65515 1.93911 8.12109V4.83398C1.93911 3.23477 3.24387 1.93359 4.84777 1.93359H45.6228C47.2267 1.93359 48.5315 3.23477 48.5315 4.83398V61.166C48.5315 62.7652 47.2267 64.0664 45.6228 64.0664H4.84777C3.24387 64.0664 1.93911 62.7652 1.93911 61.166V12.6328C1.93911 12.0988 1.50501 11.666 0.969554 11.666C0.434102 11.666 0 12.0988 0 12.6328V61.166C0 63.8315 2.17464 66 4.84777 66H45.6228C48.2959 66 50.4706 63.8315 50.4706 61.166V4.83398C50.4706 2.16846 48.2959 0 45.6228 0Z" fill="url(#paint0_linear_0_6522)"/>
<path d="M44.3301 45.8262C44.8655 45.8262 45.2996 45.3934 45.2996 44.8594V6.12305C45.2996 5.58899 44.8655 5.15625 44.3301 5.15625H6.14051C5.60506 5.15625 5.17096 5.58899 5.17096 6.12305V52.916C5.17096 53.4501 5.60506 53.8828 6.14051 53.8828H44.3301C44.8655 53.8828 45.2996 53.4501 45.2996 52.916V49.3711C45.2996 48.837 44.8655 48.4043 44.3301 48.4043C43.7946 48.4043 43.3605 48.837 43.3605 49.3711C43.3605 50.795 42.2063 51.9492 40.7824 51.9492H25.2353C15.225 51.9492 7.11006 43.8343 7.11006 33.824V25.2151C7.11006 15.2048 15.225 7.08984 25.2353 7.08984C35.2456 7.08984 43.3605 15.2048 43.3605 25.2151V44.8594C43.3605 45.3934 43.7946 45.8262 44.3301 45.8262Z" fill="url(#paint1_linear_0_6522)"/>
<path d="M21.6799 58.9746C21.6799 60.9292 23.2746 62.5195 25.2349 62.5195C27.1952 62.5195 28.7899 60.9292 28.7899 58.9746C28.7899 57.02 27.1952 55.4297 25.2349 55.4297C23.2746 55.4297 21.6799 57.02 21.6799 58.9746ZM26.8508 58.9746C26.8508 59.8632 26.126 60.5859 25.2349 60.5859C24.3438 60.5859 23.619 59.8632 23.619 58.9746C23.619 58.0861 24.3438 57.3633 25.2349 57.3633C26.126 57.3633 26.8508 58.0861 26.8508 58.9746Z" fill="url(#paint2_linear_0_6522)"/>
<path d="M33.67 58.0723C33.1346 58.0723 32.7005 58.505 32.7005 59.0391C32.7005 59.5731 33.1346 60.0059 33.67 60.0059H40.0044C40.5399 60.0059 40.974 59.5731 40.974 59.0391C40.974 58.505 40.5399 58.0723 40.0044 58.0723H33.67Z" fill="url(#paint3_linear_0_6522)"/>
<path d="M10.4653 58.1367C9.92989 58.1367 9.49579 58.5695 9.49579 59.1035C9.49579 59.6376 9.92989 60.0703 10.4653 60.0703H16.7998C17.3352 60.0703 17.7693 59.6376 17.7693 59.1035C17.7693 58.5695 17.3352 58.1367 16.7998 58.1367H10.4653Z" fill="url(#paint4_linear_0_6522)"/>
<path d="M37.322 13.2129V11.9238C37.322 10.68 36.3071 9.66797 35.0597 9.66797H15.4101C14.1627 9.66797 13.1478 10.68 13.1478 11.9238V13.2129C13.1478 14.4567 14.1627 15.4688 15.4101 15.4688H25.2995C25.835 15.4688 26.2691 15.036 26.2691 14.502C26.2691 13.9679 25.835 13.5352 25.2995 13.5352H15.4101C15.2319 13.5352 15.0869 13.3907 15.0869 13.2129V11.9238C15.0869 11.7461 15.2319 11.6016 15.4101 11.6016H35.0597C35.2378 11.6016 35.3829 11.7461 35.3829 11.9238V13.2129C35.3829 13.3907 35.2378 13.5352 35.0597 13.5352H30.018C29.4826 13.5352 29.0485 13.9679 29.0485 14.502C29.0485 15.036 29.4826 15.4688 30.018 15.4688H35.0597C36.3071 15.4688 37.322 14.4567 37.322 13.2129Z" fill="url(#paint5_linear_0_6522)"/>
<path d="M18.9651 18.0469C18.4297 18.0469 17.9956 18.4796 17.9956 19.0137C17.9956 19.5477 18.4297 19.9805 18.9651 19.9805H31.3754C31.9108 19.9805 32.345 19.5477 32.345 19.0137C32.345 18.4796 31.9108 18.0469 31.3754 18.0469H18.9651Z" fill="url(#paint6_linear_0_6522)"/>
<path d="M9.72202 23.5254C9.72202 24.0595 10.1561 24.4922 10.6916 24.4922H20.5164C21.0518 24.4922 21.4859 24.0595 21.4859 23.5254C21.4859 22.9913 21.0518 22.5586 20.5164 22.5586H10.6916C10.1561 22.5586 9.72202 22.9913 9.72202 23.5254Z" fill="url(#paint7_linear_0_6522)"/>
<path d="M10.6916 28.0464H17.9309C18.4664 28.0464 18.9005 27.6136 18.9005 27.0796C18.9005 26.5455 18.4664 26.1128 17.9309 26.1128H10.6916C10.1561 26.1128 9.72202 26.5455 9.72202 27.0796C9.72202 27.6136 10.1561 28.0464 10.6916 28.0464Z" fill="url(#paint8_linear_0_6522)"/>
<path d="M39.7782 29.667H13.2771C12.7416 29.667 12.3075 30.0997 12.3075 30.6338C12.3075 31.1678 12.7416 31.6006 13.2771 31.6006H39.7782C40.3136 31.6006 40.7477 31.1678 40.7477 30.6338C40.7477 30.0997 40.3136 29.667 39.7782 29.667Z" fill="url(#paint9_linear_0_6522)"/>
<path d="M10.6916 35.1548H22.6494C23.1849 35.1548 23.619 34.722 23.619 34.188C23.619 33.6539 23.1849 33.2212 22.6494 33.2212H10.6916C10.1561 33.2212 9.72202 33.6539 9.72202 34.188C9.72202 34.722 10.1561 35.1548 10.6916 35.1548Z" fill="url(#paint10_linear_0_6522)"/>
<path d="M39.7782 33.2212H27.3033C26.7678 33.2212 26.3337 33.6539 26.3337 34.188C26.3337 34.722 26.7678 35.1548 27.3033 35.1548H39.7782C40.3136 35.1548 40.7477 34.722 40.7477 34.188C40.7477 33.6539 40.3136 33.2212 39.7782 33.2212Z" fill="url(#paint11_linear_0_6522)"/>
<path d="M10.6916 38.7085H25.2995C25.835 38.7085 26.2691 38.2758 26.2691 37.7417C26.2691 37.2076 25.835 36.7749 25.2995 36.7749H10.6916C10.1561 36.7749 9.72202 37.2076 9.72202 37.7417C9.72202 38.2758 10.1561 38.7085 10.6916 38.7085Z" fill="url(#paint12_linear_0_6522)"/>
<path d="M39.7782 40.3291H13.2771C12.7416 40.3291 12.3075 40.7619 12.3075 41.2959C12.3075 41.83 12.7416 42.2627 13.2771 42.2627H39.7782C40.3136 42.2627 40.7477 41.83 40.7477 41.2959C40.7477 40.7619 40.3136 40.3291 39.7782 40.3291Z" fill="url(#paint13_linear_0_6522)"/>
<path d="M10.6916 45.8169H16.2504C16.7858 45.8169 17.2199 45.3842 17.2199 44.8501C17.2199 44.3161 16.7858 43.8833 16.2504 43.8833H10.6916C10.1561 43.8833 9.72202 44.3161 9.72202 44.8501C9.72202 45.3842 10.1561 45.8169 10.6916 45.8169Z" fill="url(#paint14_linear_0_6522)"/>
<path d="M40.7477 44.8501C40.7477 44.3161 40.3136 43.8833 39.7782 43.8833H20.8396C20.3041 43.8833 19.87 44.3161 19.87 44.8501C19.87 45.3842 20.3041 45.8169 20.8396 45.8169H39.7782C40.3136 45.8169 40.7477 45.384 40.7477 44.8501Z" fill="url(#paint15_linear_0_6522)"/>
<path d="M10.6916 49.3711H31.3754C31.9108 49.3711 32.345 48.9384 32.345 48.4043C32.345 47.8702 31.9108 47.4375 31.3754 47.4375H10.6916C10.1561 47.4375 9.72202 47.8702 9.72202 48.4043C9.72202 48.9384 10.1561 49.3711 10.6916 49.3711Z" fill="url(#paint16_linear_0_6522)"/>
<defs>
<linearGradient id="paint0_linear_0_6522" x1="18.4506" y1="-1.0652" x2="63.9591" y2="26.4168" gradientUnits="userSpaceOnUse">
<stop stop-color="#A068F8"/>
<stop offset="0.6891" stop-color="#3F55C3"/>
<stop offset="1" stop-color="#184EAE"/>
</linearGradient>
<linearGradient id="paint1_linear_0_6522" x1="18.4506" y1="-1.0652" x2="63.9591" y2="26.4168" gradientUnits="userSpaceOnUse">
<stop stop-color="#A068F8"/>
<stop offset="0.6891" stop-color="#3F55C3"/>
<stop offset="1" stop-color="#184EAE"/>
</linearGradient>
<linearGradient id="paint2_linear_0_6522" x1="18.4506" y1="-1.0652" x2="63.9591" y2="26.4168" gradientUnits="userSpaceOnUse">
<stop stop-color="#A068F8"/>
<stop offset="0.6891" stop-color="#3F55C3"/>
<stop offset="1" stop-color="#184EAE"/>
</linearGradient>
<linearGradient id="paint3_linear_0_6522" x1="18.4506" y1="-1.0652" x2="63.9591" y2="26.4168" gradientUnits="userSpaceOnUse">
<stop stop-color="#A068F8"/>
<stop offset="0.6891" stop-color="#3F55C3"/>
<stop offset="1" stop-color="#184EAE"/>
</linearGradient>
<linearGradient id="paint4_linear_0_6522" x1="18.4506" y1="-1.0652" x2="63.9591" y2="26.4168" gradientUnits="userSpaceOnUse">
<stop stop-color="#A068F8"/>
<stop offset="0.6891" stop-color="#3F55C3"/>
<stop offset="1" stop-color="#184EAE"/>
</linearGradient>
<linearGradient id="paint5_linear_0_6522" x1="18.4506" y1="-1.0652" x2="63.9591" y2="26.4168" gradientUnits="userSpaceOnUse">
<stop stop-color="#A068F8"/>
<stop offset="0.6891" stop-color="#3F55C3"/>
<stop offset="1" stop-color="#184EAE"/>
</linearGradient>
<linearGradient id="paint6_linear_0_6522" x1="18.4506" y1="-1.0652" x2="63.9591" y2="26.4168" gradientUnits="userSpaceOnUse">
<stop stop-color="#A068F8"/>
<stop offset="0.6891" stop-color="#3F55C3"/>
<stop offset="1" stop-color="#184EAE"/>
</linearGradient>
<linearGradient id="paint7_linear_0_6522" x1="18.4506" y1="-1.0652" x2="63.9591" y2="26.4168" gradientUnits="userSpaceOnUse">
<stop stop-color="#A068F8"/>
<stop offset="0.6891" stop-color="#3F55C3"/>
<stop offset="1" stop-color="#184EAE"/>
</linearGradient>
<linearGradient id="paint8_linear_0_6522" x1="18.4506" y1="-1.0652" x2="63.9591" y2="26.4168" gradientUnits="userSpaceOnUse">
<stop stop-color="#A068F8"/>
<stop offset="0.6891" stop-color="#3F55C3"/>
<stop offset="1" stop-color="#184EAE"/>
</linearGradient>
<linearGradient id="paint9_linear_0_6522" x1="18.4506" y1="-1.0652" x2="63.9591" y2="26.4168" gradientUnits="userSpaceOnUse">
<stop stop-color="#A068F8"/>
<stop offset="0.6891" stop-color="#3F55C3"/>
<stop offset="1" stop-color="#184EAE"/>
</linearGradient>
<linearGradient id="paint10_linear_0_6522" x1="18.4506" y1="-1.0652" x2="63.9591" y2="26.4168" gradientUnits="userSpaceOnUse">
<stop stop-color="#A068F8"/>
<stop offset="0.6891" stop-color="#3F55C3"/>
<stop offset="1" stop-color="#184EAE"/>
</linearGradient>
<linearGradient id="paint11_linear_0_6522" x1="18.4506" y1="-1.0652" x2="63.9591" y2="26.4168" gradientUnits="userSpaceOnUse">
<stop stop-color="#A068F8"/>
<stop offset="0.6891" stop-color="#3F55C3"/>
<stop offset="1" stop-color="#184EAE"/>
</linearGradient>
<linearGradient id="paint12_linear_0_6522" x1="18.4506" y1="-1.0652" x2="63.9591" y2="26.4168" gradientUnits="userSpaceOnUse">
<stop stop-color="#A068F8"/>
<stop offset="0.6891" stop-color="#3F55C3"/>
<stop offset="1" stop-color="#184EAE"/>
</linearGradient>
<linearGradient id="paint13_linear_0_6522" x1="18.4506" y1="-1.0652" x2="63.9591" y2="26.4168" gradientUnits="userSpaceOnUse">
<stop stop-color="#A068F8"/>
<stop offset="0.6891" stop-color="#3F55C3"/>
<stop offset="1" stop-color="#184EAE"/>
</linearGradient>
<linearGradient id="paint14_linear_0_6522" x1="18.4506" y1="-1.0652" x2="63.9591" y2="26.4168" gradientUnits="userSpaceOnUse">
<stop stop-color="#A068F8"/>
<stop offset="0.6891" stop-color="#3F55C3"/>
<stop offset="1" stop-color="#184EAE"/>
</linearGradient>
<linearGradient id="paint15_linear_0_6522" x1="18.4506" y1="-1.0652" x2="63.9591" y2="26.4168" gradientUnits="userSpaceOnUse">
<stop stop-color="#A068F8"/>
<stop offset="0.6891" stop-color="#3F55C3"/>
<stop offset="1" stop-color="#184EAE"/>
</linearGradient>
<linearGradient id="paint16_linear_0_6522" x1="18.4506" y1="-1.0652" x2="63.9591" y2="26.4168" gradientUnits="userSpaceOnUse">
<stop stop-color="#A068F8"/>
<stop offset="0.6891" stop-color="#3F55C3"/>
<stop offset="1" stop-color="#184EAE"/>
</linearGradient>
</defs>
</svg>
