<svg width="32" height="32" viewBox="0 0 32 32" fill="none" xmlns="http://www.w3.org/2000/svg">
<path d="M31.3333 15.3333C31.7067 15.3333 32 15.6267 32 16C32 16.3733 31.7067 16.6667 31.3333 16.6667H30.6667V15.3333H31.3333Z" fill="url(#paint0_linear_0_6533)"/>
<path d="M16.6667 15.3333H30.6667V16.6667H16.6667V15.3333Z" fill="url(#paint1_linear_0_6533)"/>
<path d="M28.6667 32H16C16.3733 32 16.6667 31.7067 16.6667 31.3333V30.6667H28.6667C29.7733 30.6667 30.6667 29.7733 30.6667 28.6667V16.6667H31.3333C31.7067 16.6667 32 16.3733 32 16V28.6667C32 30.5067 30.5067 32 28.6667 32Z" fill="url(#paint2_linear_0_6533)"/>
<path d="M32 3.33333V16C32 15.6267 31.7067 15.3333 31.3333 15.3333H30.6667V3.33333C30.6667 2.22667 29.7733 1.33333 28.6667 1.33333H16.6667V0.666667C16.6667 0.293333 16.3733 0 16 0H28.6667C30.5067 0 32 1.49333 32 3.33333Z" fill="url(#paint3_linear_0_6533)"/>
<path d="M26.6667 8C27.04 8 27.3333 8.29333 27.3333 8.66667C27.3333 9.04 27.04 9.33333 26.6667 9.33333H21.3333C20.96 9.33333 20.6667 9.04 20.6667 8.66667C20.6667 8.29333 20.96 8 21.3333 8H26.6667Z" fill="url(#paint4_linear_0_6533)"/>
<path d="M26.6667 21.3333C27.04 21.3333 27.3333 21.6267 27.3333 22C27.3333 22.3733 27.04 22.6667 26.6667 22.6667H21.3333C20.96 22.6667 20.6667 22.3733 20.6667 22C20.6667 21.6267 20.96 21.3333 21.3333 21.3333H26.6667Z" fill="url(#paint5_linear_0_6533)"/>
<path d="M26.6667 25.3333C27.04 25.3333 27.3333 25.6267 27.3333 26C27.3333 26.3733 27.04 26.6667 26.6667 26.6667H21.3333C20.96 26.6667 20.6667 26.3733 20.6667 26C20.6667 25.6267 20.96 25.3333 21.3333 25.3333H26.6667Z" fill="url(#paint6_linear_0_6533)"/>
<path d="M16.6667 30.6667V31.3333C16.6667 31.7067 16.3733 32 16 32C15.6267 32 15.3333 31.7067 15.3333 31.3333V30.6667H16.6667Z" fill="url(#paint7_linear_0_6533)"/>
<path d="M15.3333 16.6667H16.6667L16.6667 30.6667H15.3333V16.6667Z" fill="url(#paint8_linear_0_6533)"/>
<path d="M15.3333 15.3333H16.6667V16.6667H15.3333V15.3333Z" fill="url(#paint9_linear_0_6533)"/>
<path d="M15.3333 1.33333H16.6667L16.6667 15.3333H15.3333V1.33333Z" fill="url(#paint10_linear_0_6533)"/>
<path d="M16.6667 0.666667V1.33333H15.3333V0.666667C15.3333 0.293333 15.6267 0 16 0C16.3733 0 16.6667 0.293333 16.6667 0.666667Z" fill="url(#paint11_linear_0_6533)"/>
<path d="M1.33333 15.3333H15.3333V16.6667H1.33333V15.3333Z" fill="url(#paint12_linear_0_6533)"/>
<path d="M10.6667 8C11.04 8 11.3333 8.29333 11.3333 8.66667C11.3333 9.04 11.04 9.33333 10.6667 9.33333H8.66667V8H10.6667Z" fill="url(#paint13_linear_0_6533)"/>
<path d="M10.4667 25.5333C10.7333 25.7867 10.7333 26.2133 10.4667 26.4667C10.3467 26.6 10.1733 26.6667 10 26.6667C9.82667 26.6667 9.65333 26.6 9.53333 26.4667L8 24.9333L8.93333 24L10.4667 25.5333Z" fill="url(#paint14_linear_0_6533)"/>
<path d="M9.53333 21.5333C9.78667 21.2667 10.2133 21.2667 10.4667 21.5333C10.7333 21.7867 10.7333 22.2133 10.4667 22.4667L8.93333 24L8 23.0667L9.53333 21.5333Z" fill="url(#paint15_linear_0_6533)"/>
<path d="M7.52945 24.4654C7.2717 24.2076 7.2717 23.7897 7.52945 23.532C7.7872 23.2742 8.20509 23.2742 8.46283 23.532C8.72058 23.7897 8.72058 24.2076 8.46283 24.4654C8.20509 24.7231 7.7872 24.7231 7.52945 24.4654Z" fill="url(#paint16_linear_0_6533)"/>
<path d="M8.66667 9.33333L8.66667 11.3333C8.66667 11.7067 8.37333 12 8 12C7.62667 12 7.33333 11.7067 7.33333 11.3333V9.33333H8.66667Z" fill="url(#paint17_linear_0_6533)"/>
<path d="M7.33333 8H8.66667V9.33333H7.33333V8Z" fill="url(#paint18_linear_0_6533)"/>
<path d="M8.66667 6L8.66667 8H7.33333V6C7.33333 5.62667 7.62667 5.33333 8 5.33333C8.37333 5.33333 8.66667 5.62667 8.66667 6Z" fill="url(#paint19_linear_0_6533)"/>
<path d="M8 23.0667L7.06667 24L5.53333 22.4667C5.26667 22.2133 5.26667 21.7867 5.53333 21.5333C5.78667 21.2667 6.21333 21.2667 6.46667 21.5333L8 23.0667Z" fill="url(#paint20_linear_0_6533)"/>
<path d="M7.33333 8V9.33333H5.33333C4.96 9.33333 4.66667 9.04 4.66667 8.66667C4.66667 8.29333 4.96 8 5.33333 8H7.33333Z" fill="url(#paint21_linear_0_6533)"/>
<path d="M6.46667 26.4667C6.34667 26.6 6.17333 26.6667 6 26.6667C5.82667 26.6667 5.65333 26.6 5.53333 26.4667C5.26667 26.2133 5.26667 25.7867 5.53333 25.5333L7.06667 24L8 24.9333L6.46667 26.4667Z" fill="url(#paint22_linear_0_6533)"/>
<path d="M1.33333 15.3333V16.6667H0.666667C0.293333 16.6667 0 16.3733 0 16C0 15.6267 0.293333 15.3333 0.666667 15.3333H1.33333Z" fill="url(#paint23_linear_0_6533)"/>
<path d="M4.76837e-07 3.33333C4.76837e-07 1.49333 1.49333 4.76837e-07 3.33333 4.76837e-07L16 0C15.6267 0 15.3333 0.293333 15.3333 0.666667V1.33333L3.33333 1.33333C2.22667 1.33333 1.33333 2.22667 1.33333 3.33333L1.33333 15.3333H0.666667C0.293333 15.3333 0 15.6267 0 16L4.76837e-07 3.33333Z" fill="url(#paint24_linear_0_6533)"/>
<path d="M1.33333 28.6667C1.33333 29.7733 2.22667 30.6667 3.33333 30.6667H15.3333V31.3333C15.3333 31.7067 15.6267 32 16 32H3.33333C1.49333 32 0 30.5067 0 28.6667V16C0 16.3733 0.293333 16.6667 0.666667 16.6667H1.33333V28.6667Z" fill="url(#paint25_linear_0_6533)"/>
<defs>
<linearGradient id="paint0_linear_0_6533" x1="6.18182" y1="-24.8421" x2="35.2294" y2="-21.6157" gradientUnits="userSpaceOnUse">
<stop stop-color="#F93C3C"/>
<stop offset="1" stop-color="#CD0973"/>
</linearGradient>
<linearGradient id="paint1_linear_0_6533" x1="6.18182" y1="-24.8421" x2="35.2294" y2="-21.6157" gradientUnits="userSpaceOnUse">
<stop stop-color="#F93C3C"/>
<stop offset="1" stop-color="#CD0973"/>
</linearGradient>
<linearGradient id="paint2_linear_0_6533" x1="6.18182" y1="-24.8421" x2="35.2294" y2="-21.6157" gradientUnits="userSpaceOnUse">
<stop stop-color="#F93C3C"/>
<stop offset="1" stop-color="#CD0973"/>
</linearGradient>
<linearGradient id="paint3_linear_0_6533" x1="6.18182" y1="-24.8421" x2="35.2294" y2="-21.6157" gradientUnits="userSpaceOnUse">
<stop stop-color="#F93C3C"/>
<stop offset="1" stop-color="#CD0973"/>
</linearGradient>
<linearGradient id="paint4_linear_0_6533" x1="6.18182" y1="-24.8421" x2="35.2294" y2="-21.6157" gradientUnits="userSpaceOnUse">
<stop stop-color="#F93C3C"/>
<stop offset="1" stop-color="#CD0973"/>
</linearGradient>
<linearGradient id="paint5_linear_0_6533" x1="6.18182" y1="-24.8421" x2="35.2294" y2="-21.6157" gradientUnits="userSpaceOnUse">
<stop stop-color="#F93C3C"/>
<stop offset="1" stop-color="#CD0973"/>
</linearGradient>
<linearGradient id="paint6_linear_0_6533" x1="6.18182" y1="-24.8421" x2="35.2294" y2="-21.6157" gradientUnits="userSpaceOnUse">
<stop stop-color="#F93C3C"/>
<stop offset="1" stop-color="#CD0973"/>
</linearGradient>
<linearGradient id="paint7_linear_0_6533" x1="6.18182" y1="-24.8421" x2="35.2294" y2="-21.6157" gradientUnits="userSpaceOnUse">
<stop stop-color="#F93C3C"/>
<stop offset="1" stop-color="#CD0973"/>
</linearGradient>
<linearGradient id="paint8_linear_0_6533" x1="6.18182" y1="-24.8421" x2="35.2294" y2="-21.6157" gradientUnits="userSpaceOnUse">
<stop stop-color="#F93C3C"/>
<stop offset="1" stop-color="#CD0973"/>
</linearGradient>
<linearGradient id="paint9_linear_0_6533" x1="6.18182" y1="-24.8421" x2="35.2294" y2="-21.6157" gradientUnits="userSpaceOnUse">
<stop stop-color="#F93C3C"/>
<stop offset="1" stop-color="#CD0973"/>
</linearGradient>
<linearGradient id="paint10_linear_0_6533" x1="6.18182" y1="-24.8421" x2="35.2294" y2="-21.6157" gradientUnits="userSpaceOnUse">
<stop stop-color="#F93C3C"/>
<stop offset="1" stop-color="#CD0973"/>
</linearGradient>
<linearGradient id="paint11_linear_0_6533" x1="6.18182" y1="-24.8421" x2="35.2294" y2="-21.6157" gradientUnits="userSpaceOnUse">
<stop stop-color="#F93C3C"/>
<stop offset="1" stop-color="#CD0973"/>
</linearGradient>
<linearGradient id="paint12_linear_0_6533" x1="6.18182" y1="-24.8421" x2="35.2294" y2="-21.6157" gradientUnits="userSpaceOnUse">
<stop stop-color="#F93C3C"/>
<stop offset="1" stop-color="#CD0973"/>
</linearGradient>
<linearGradient id="paint13_linear_0_6533" x1="6.18182" y1="-24.8421" x2="35.2294" y2="-21.6157" gradientUnits="userSpaceOnUse">
<stop stop-color="#F93C3C"/>
<stop offset="1" stop-color="#CD0973"/>
</linearGradient>
<linearGradient id="paint14_linear_0_6533" x1="6.18182" y1="-24.8421" x2="35.2294" y2="-21.6157" gradientUnits="userSpaceOnUse">
<stop stop-color="#F93C3C"/>
<stop offset="1" stop-color="#CD0973"/>
</linearGradient>
<linearGradient id="paint15_linear_0_6533" x1="6.18182" y1="-24.8421" x2="35.2294" y2="-21.6157" gradientUnits="userSpaceOnUse">
<stop stop-color="#F93C3C"/>
<stop offset="1" stop-color="#CD0973"/>
</linearGradient>
<linearGradient id="paint16_linear_0_6533" x1="6.18182" y1="-24.8421" x2="35.2294" y2="-21.6157" gradientUnits="userSpaceOnUse">
<stop stop-color="#F93C3C"/>
<stop offset="1" stop-color="#CD0973"/>
</linearGradient>
<linearGradient id="paint17_linear_0_6533" x1="6.18182" y1="-24.8421" x2="35.2294" y2="-21.6157" gradientUnits="userSpaceOnUse">
<stop stop-color="#F93C3C"/>
<stop offset="1" stop-color="#CD0973"/>
</linearGradient>
<linearGradient id="paint18_linear_0_6533" x1="6.18182" y1="-24.8421" x2="35.2294" y2="-21.6157" gradientUnits="userSpaceOnUse">
<stop stop-color="#F93C3C"/>
<stop offset="1" stop-color="#CD0973"/>
</linearGradient>
<linearGradient id="paint19_linear_0_6533" x1="6.18182" y1="-24.8421" x2="35.2294" y2="-21.6157" gradientUnits="userSpaceOnUse">
<stop stop-color="#F93C3C"/>
<stop offset="1" stop-color="#CD0973"/>
</linearGradient>
<linearGradient id="paint20_linear_0_6533" x1="6.18182" y1="-24.8421" x2="35.2294" y2="-21.6157" gradientUnits="userSpaceOnUse">
<stop stop-color="#F93C3C"/>
<stop offset="1" stop-color="#CD0973"/>
</linearGradient>
<linearGradient id="paint21_linear_0_6533" x1="6.18182" y1="-24.8421" x2="35.2294" y2="-21.6157" gradientUnits="userSpaceOnUse">
<stop stop-color="#F93C3C"/>
<stop offset="1" stop-color="#CD0973"/>
</linearGradient>
<linearGradient id="paint22_linear_0_6533" x1="6.18182" y1="-24.8421" x2="35.2294" y2="-21.6157" gradientUnits="userSpaceOnUse">
<stop stop-color="#F93C3C"/>
<stop offset="1" stop-color="#CD0973"/>
</linearGradient>
<linearGradient id="paint23_linear_0_6533" x1="6.18182" y1="-24.8421" x2="35.2294" y2="-21.6157" gradientUnits="userSpaceOnUse">
<stop stop-color="#F93C3C"/>
<stop offset="1" stop-color="#CD0973"/>
</linearGradient>
<linearGradient id="paint24_linear_0_6533" x1="6.18182" y1="-24.8421" x2="35.2294" y2="-21.6157" gradientUnits="userSpaceOnUse">
<stop stop-color="#F93C3C"/>
<stop offset="1" stop-color="#CD0973"/>
</linearGradient>
<linearGradient id="paint25_linear_0_6533" x1="6.18182" y1="-24.8421" x2="35.2294" y2="-21.6157" gradientUnits="userSpaceOnUse">
<stop stop-color="#F93C3C"/>
<stop offset="1" stop-color="#CD0973"/>
</linearGradient>
</defs>
</svg>
