<svg width="46" height="66" viewBox="0 0 46 66" fill="none" xmlns="http://www.w3.org/2000/svg">
<path d="M40.7988 0H4.83398C2.16846 0 0 2.16846 0 4.83398V7.34766C0 7.88171 0.432738 8.31445 0.966797 8.31445C1.50086 8.31445 1.93359 7.88171 1.93359 7.34766V4.83398C1.93359 3.23477 3.23477 1.93359 4.83398 1.93359H40.7988C42.398 1.93359 43.6992 3.23477 43.6992 4.83398V10.6992C43.6992 22.2325 34.3497 31.582 22.8164 31.582H21.6562C10.7637 31.582 1.93359 22.7519 1.93359 11.8594C1.93359 11.3253 1.50086 10.8926 0.966797 10.8926C0.432738 10.8926 0 11.3253 0 11.8594V61.166C0 63.8315 2.16846 66 4.83398 66H40.7988C43.4644 66 45.6328 63.8315 45.6328 61.166V58.3945C45.6328 57.8605 45.2001 57.4277 44.666 57.4277C44.132 57.4277 43.6992 57.8605 43.6992 58.3945V61.166C43.6992 62.7652 42.398 64.0664 40.7988 64.0664H4.83398C3.23477 64.0664 1.93359 62.7652 1.93359 61.166C1.93359 52.3025 9.1189 45.1172 17.9824 45.1172H34.9336C39.7747 45.1172 43.6992 49.0417 43.6992 53.8828C43.6992 54.4169 44.132 54.8496 44.666 54.8496C45.2001 54.8496 45.6328 54.4169 45.6328 53.8828V4.83398C45.6328 2.16846 43.4644 0 40.7988 0ZM6.76758 43.1836C4.09784 43.1836 1.93359 41.0193 1.93359 38.3496C1.93359 35.6799 4.09784 33.5156 6.76758 33.5156H38.8652C41.535 33.5156 43.6992 35.6799 43.6992 38.3496C43.6992 41.0193 41.535 43.1836 38.8652 43.1836H6.76758Z" fill="url(#paint0_linear_0_6527)"/>
<path d="M23.6111 18.413C24.7681 16.7456 25.6517 14.9146 26.2379 12.971C26.3262 12.6782 26.2707 12.3609 26.0883 12.1153C25.9059 11.8697 25.6182 11.7251 25.3122 11.7251H20.3213C20.0154 11.7251 19.7277 11.8699 19.5452 12.1153C19.3627 12.3607 19.3074 12.6781 19.3957 12.971C19.9818 14.9146 20.8655 16.7456 22.0224 18.413C22.203 18.6734 22.4998 18.8287 22.8167 18.8287C23.1336 18.8287 23.4305 18.6733 23.6111 18.413ZM22.1205 14.71C21.8891 14.2108 22.2666 13.6587 22.8168 13.6587C23.3671 13.6587 23.7446 14.2109 23.5131 14.7102C23.5035 14.7309 23.4938 14.7516 23.4841 14.7724C23.2122 15.3529 22.4216 15.353 22.1496 14.7725C22.1399 14.7517 22.1302 14.7309 22.1205 14.71Z" fill="url(#paint1_linear_0_6527)"/>
<path d="M22.8164 3.54539C21.1703 3.54539 19.8311 4.88473 19.8311 6.53073C19.8311 7.16997 19.3129 7.68818 18.6736 7.68818H13.3408C11.6945 7.68818 10.3555 9.02752 10.3555 10.6735C10.3555 12.3195 11.6947 13.6589 13.3408 13.6589C14.5533 13.6589 15.6017 14.4738 16.0267 15.6094C16.2069 16.0908 16.4026 16.5653 16.6137 17.0323C17.6309 19.2832 17.3272 22.1118 15.0924 23.1638C14.9817 23.2158 14.8705 23.2668 14.7586 23.3166L12.645 24.2586C11.1415 24.9285 10.4634 26.6968 11.1331 28.2005C11.7618 29.5989 13.5183 30.4062 15.0751 29.7122L16.8286 28.9309C17.3163 28.7136 17.5354 28.1421 17.3182 27.6543C17.1009 27.1664 16.5294 26.9474 16.0416 27.1648L14.288 27.9461C13.9072 28.1434 13.2039 27.9995 12.8994 27.4137C12.6634 26.8839 12.9023 26.2609 13.4321 26.0248L15.5457 25.0829C17.4524 24.2333 19.1997 23.092 20.7391 21.6906C21.1098 21.3531 21.161 20.7883 20.8571 20.3896C19.0564 18.0276 17.7852 15.3607 17.0788 12.4633C16.9732 12.0303 16.5852 11.7254 16.1395 11.7254H13.3408C12.7608 11.7254 12.289 11.2536 12.289 10.6736C12.289 10.0937 12.7608 9.6219 13.3408 9.6219H20.7979C21.3319 9.6219 21.7647 9.18916 21.7647 8.65511V6.53073C21.7647 5.95078 22.2365 5.47899 22.8164 5.47899C23.3964 5.47899 23.8682 5.95078 23.8682 6.53073V8.65498C23.8682 9.18904 24.3009 9.62177 24.835 9.62177H32.2921C32.872 9.62177 33.3438 10.0936 33.3438 10.6735C33.3438 11.2535 32.872 11.7253 32.2921 11.7253H29.4934C29.0476 11.7253 28.6596 12.03 28.554 12.4631C27.8478 15.3607 26.5765 18.0275 24.7758 20.3894C24.4718 20.7882 24.523 21.353 24.8937 21.6905C26.4331 23.0918 28.1805 24.2333 30.0871 25.0828L32.2008 26.0247C32.7305 26.2607 32.9695 26.8837 32.7334 27.4134C32.5515 27.7676 31.9761 28.2324 31.3447 27.9459L29.2311 27.0041C27.1149 26.0612 25.1758 24.7939 23.4675 23.2376C23.0985 22.9013 22.5344 22.9016 22.1652 23.2376C21.4405 23.898 20.663 24.5147 19.8542 25.0707C19.4141 25.3732 19.3026 25.9751 19.605 26.415C19.9074 26.8551 20.5093 26.9666 20.9494 26.6642C22.0672 25.8957 23.5651 25.8959 24.6829 26.6643C25.866 27.4775 27.1232 28.1819 28.4438 28.7703L30.5575 29.7121C31.8611 30.3552 33.8695 29.7181 34.4994 28.2003C35.1692 26.6967 34.4912 24.9284 32.9876 24.2584L30.874 23.3165C30.7621 23.2667 30.6509 23.2157 30.5402 23.1637C28.3053 22.1118 28.0016 19.283 29.0189 17.0321C29.2299 16.5651 29.4256 16.0907 29.6058 15.6092C30.0308 14.4736 31.0793 13.6587 32.2918 13.6587C33.9381 13.6587 35.2771 12.3194 35.2771 10.6734C35.2771 9.02739 33.9382 7.68818 32.2921 7.68818H26.9592C26.32 7.68818 25.8018 7.16997 25.8018 6.53073C25.8018 4.88473 24.4626 3.54539 22.8164 3.54539Z" fill="url(#paint2_linear_0_6527)"/>
<path d="M34.8691 35.4492H29.7773C29.2433 35.4492 28.8105 35.882 28.8105 36.416C28.8105 36.9501 29.2433 37.3828 29.7773 37.3828H34.8691C35.0469 37.3828 35.1914 37.5273 35.1914 37.7051V38.9941C35.1914 39.1719 35.0469 39.3164 34.8691 39.3164H10.8926C10.7148 39.3164 10.5703 39.1719 10.5703 38.9941V37.7051C10.5703 37.5273 10.7148 37.3828 10.8926 37.3828H25.2656C25.7997 37.3828 26.2324 36.9501 26.2324 36.416C26.2324 35.882 25.7997 35.4492 25.2656 35.4492H10.8926C9.64876 35.4492 8.63672 36.4613 8.63672 37.7051V38.9941C8.63672 40.238 9.64876 41.25 10.8926 41.25H34.8691C36.113 41.25 37.125 40.238 37.125 38.9941V37.7051C37.125 36.4613 36.113 35.4492 34.8691 35.4492Z" fill="url(#paint3_linear_0_6527)"/>
<path d="M40.4121 47.6953H20.2383C19.7042 47.6953 19.2715 48.1281 19.2715 48.6621C19.2715 49.1962 19.7042 49.6289 20.2383 49.6289H40.4121C40.9462 49.6289 41.3789 49.1962 41.3789 48.6621C41.3789 48.1281 40.9462 47.6953 40.4121 47.6953Z" fill="url(#paint4_linear_0_6527)"/>
<path d="M5.34961 49.6289H15.7266C16.2606 49.6289 16.6934 49.1962 16.6934 48.6621C16.6934 48.1281 16.2606 47.6953 15.7266 47.6953H5.34961C4.81555 47.6953 4.38281 48.1281 4.38281 48.6621C4.38281 49.1962 4.81555 49.6289 5.34961 49.6289Z" fill="url(#paint5_linear_0_6527)"/>
<path d="M5.34961 59.5547C4.81555 59.5547 4.38281 59.9874 4.38281 60.5215C4.38281 61.0555 4.81555 61.4883 5.34961 61.4883H21.0762C21.6102 61.4883 22.043 61.0555 22.043 60.5215C22.043 59.9874 21.6102 59.5547 21.0762 59.5547H5.34961Z" fill="url(#paint6_linear_0_6527)"/>
<path d="M33.1289 57.5351H40.4121C40.9462 57.5351 41.3789 57.1024 41.3789 56.5684C41.3789 56.0343 40.9462 55.6016 40.4121 55.6016H33.1289C32.5948 55.6016 32.1621 56.0343 32.1621 56.5684C32.1621 57.1024 32.5948 57.5351 33.1289 57.5351Z" fill="url(#paint7_linear_0_6527)"/>
<path d="M29.584 56.5684C29.584 56.0343 29.1512 55.6016 28.6172 55.6016H5.34961C4.81555 55.6016 4.38281 56.0343 4.38281 56.5684C4.38281 57.1024 4.81555 57.5351 5.34961 57.5351H28.6172C29.1512 57.5351 29.584 57.1024 29.584 56.5684Z" fill="url(#paint8_linear_0_6527)"/>
<path d="M34.9336 52.6152C34.9336 52.0812 34.5009 51.6484 33.9668 51.6484H5.34961C4.81555 51.6484 4.38281 52.0812 4.38281 52.6152C4.38281 53.1493 4.81555 53.582 5.34961 53.582H33.9668C34.5009 53.582 34.9336 53.1493 34.9336 52.6152Z" fill="url(#paint9_linear_0_6527)"/>
<defs>
<linearGradient id="paint0_linear_0_6527" x1="16.6821" y1="-1.0652" x2="59.9382" y2="22.5528" gradientUnits="userSpaceOnUse">
<stop stop-color="#A068F8"/>
<stop offset="0.6891" stop-color="#3F55C3"/>
<stop offset="1" stop-color="#184EAE"/>
</linearGradient>
<linearGradient id="paint1_linear_0_6527" x1="16.6821" y1="-1.0652" x2="59.9382" y2="22.5528" gradientUnits="userSpaceOnUse">
<stop stop-color="#A068F8"/>
<stop offset="0.6891" stop-color="#3F55C3"/>
<stop offset="1" stop-color="#184EAE"/>
</linearGradient>
<linearGradient id="paint2_linear_0_6527" x1="16.6821" y1="-1.0652" x2="59.9382" y2="22.5528" gradientUnits="userSpaceOnUse">
<stop stop-color="#A068F8"/>
<stop offset="0.6891" stop-color="#3F55C3"/>
<stop offset="1" stop-color="#184EAE"/>
</linearGradient>
<linearGradient id="paint3_linear_0_6527" x1="16.6821" y1="-1.0652" x2="59.9382" y2="22.5528" gradientUnits="userSpaceOnUse">
<stop stop-color="#A068F8"/>
<stop offset="0.6891" stop-color="#3F55C3"/>
<stop offset="1" stop-color="#184EAE"/>
</linearGradient>
<linearGradient id="paint4_linear_0_6527" x1="16.6821" y1="-1.0652" x2="59.9382" y2="22.5528" gradientUnits="userSpaceOnUse">
<stop stop-color="#A068F8"/>
<stop offset="0.6891" stop-color="#3F55C3"/>
<stop offset="1" stop-color="#184EAE"/>
</linearGradient>
<linearGradient id="paint5_linear_0_6527" x1="16.6821" y1="-1.0652" x2="59.9382" y2="22.5528" gradientUnits="userSpaceOnUse">
<stop stop-color="#A068F8"/>
<stop offset="0.6891" stop-color="#3F55C3"/>
<stop offset="1" stop-color="#184EAE"/>
</linearGradient>
<linearGradient id="paint6_linear_0_6527" x1="16.6821" y1="-1.0652" x2="59.9382" y2="22.5528" gradientUnits="userSpaceOnUse">
<stop stop-color="#A068F8"/>
<stop offset="0.6891" stop-color="#3F55C3"/>
<stop offset="1" stop-color="#184EAE"/>
</linearGradient>
<linearGradient id="paint7_linear_0_6527" x1="16.6821" y1="-1.0652" x2="59.9382" y2="22.5528" gradientUnits="userSpaceOnUse">
<stop stop-color="#A068F8"/>
<stop offset="0.6891" stop-color="#3F55C3"/>
<stop offset="1" stop-color="#184EAE"/>
</linearGradient>
<linearGradient id="paint8_linear_0_6527" x1="16.6821" y1="-1.0652" x2="59.9382" y2="22.5528" gradientUnits="userSpaceOnUse">
<stop stop-color="#A068F8"/>
<stop offset="0.6891" stop-color="#3F55C3"/>
<stop offset="1" stop-color="#184EAE"/>
</linearGradient>
<linearGradient id="paint9_linear_0_6527" x1="16.6821" y1="-1.0652" x2="59.9382" y2="22.5528" gradientUnits="userSpaceOnUse">
<stop stop-color="#A068F8"/>
<stop offset="0.6891" stop-color="#3F55C3"/>
<stop offset="1" stop-color="#184EAE"/>
</linearGradient>
</defs>
</svg>
