<svg width="59" height="66" viewBox="0 0 59 66" fill="none" xmlns="http://www.w3.org/2000/svg">
<path d="M12.1189 56.8556C10.1252 56.8556 8.50901 55.2394 8.50901 53.2457V12.7635C8.50901 12.2295 8.07608 11.7966 7.54207 11.7966C7.00807 11.7966 6.57514 12.2295 6.57514 12.7635V53.8259C6.57514 55.4992 5.21869 56.8556 3.54542 56.8556C2.65674 56.8556 1.93386 56.1327 1.93386 55.2441V3.54542C1.93386 2.65674 2.65674 1.93386 3.54542 1.93386C5.21869 1.93386 6.57514 3.29032 6.57514 4.96359V8.25116C6.57514 8.78516 7.00807 9.21809 7.54207 9.21809C8.07608 9.21809 8.50901 8.78516 8.50901 8.25116C8.50901 4.76221 11.3374 1.93386 14.8263 1.93386H29.3947C29.9287 1.93386 30.3617 1.50094 30.3617 0.966932C30.3617 0.432928 29.9287 0 29.3947 0H3.54542C1.59041 0 0 1.59041 0 3.54542V55.2441C0 57.1991 1.59041 58.7895 3.54542 58.7895H12.1189C12.6529 58.7895 13.0858 58.3566 13.0858 57.8226C13.0858 57.2886 12.6529 56.8556 12.1189 56.8556Z" fill="url(#paint0_linear_0_6524)"/>
<path d="M21.888 24.5347C21.7058 24.0917 21.2788 23.8056 20.8 23.8056C20.7997 23.8056 20.7994 23.8056 20.799 23.8056C20.3196 23.806 19.8926 24.093 19.7111 24.5366C19.7081 24.544 19.7053 24.5512 19.7025 24.5586L16.2311 33.6731C16.041 34.1722 16.2914 34.7308 16.7905 34.9208C17.2897 35.111 17.8482 34.8604 18.0382 34.3614C18.4159 33.3696 19.3669 32.7142 20.4282 32.7142H21.1506C22.2083 32.7142 23.1555 33.3691 23.5289 34.3586C23.6751 34.7458 24.043 34.9844 24.4339 34.9844C24.5472 34.9844 24.6627 34.9643 24.775 34.9219C25.2746 34.7334 25.5269 34.1754 25.3383 33.6758L21.8984 24.5609C21.8951 24.5522 21.8916 24.5435 21.888 24.5347ZM20.7927 30.7804C20.1215 30.7804 19.6582 30.1083 19.8971 29.481C20.2111 28.6567 21.3778 28.6585 21.6892 29.4838C21.9258 30.1106 21.4626 30.7804 20.7927 30.7804Z" fill="url(#paint1_linear_0_6524)"/>
<path d="M33.4866 35.049H40.2243C40.7583 35.049 41.1912 34.6161 41.1912 34.0821C41.1912 33.5481 40.7583 33.1152 40.2243 33.1152C38.1524 33.1152 36.9315 30.7901 38.1078 29.0845L40.7481 25.2561C40.952 24.9603 40.9753 24.5758 40.8082 24.2576C40.6411 23.9394 40.3114 23.7402 39.9521 23.7402H33.6567C33.1227 23.7402 32.6898 24.1731 32.6898 24.7071C32.6898 25.2411 33.1227 25.6741 33.6567 25.6741C35.5413 25.6741 36.6519 27.7891 35.582 29.3405L32.6904 33.5332C32.4865 33.8289 32.4633 34.2135 32.6304 34.5317C32.7975 34.8499 33.1271 35.049 33.4866 35.049Z" fill="url(#paint2_linear_0_6524)"/>
<path d="M31.598 28.4277H26.8058C26.2718 28.4277 25.8389 28.8607 25.8389 29.3947C25.8389 29.9287 26.2718 30.3616 26.8058 30.3616H31.598C32.132 30.3616 32.5649 29.9287 32.5649 29.3947C32.5649 28.8607 32.132 28.4277 31.598 28.4277Z" fill="url(#paint3_linear_0_6524)"/>
<path d="M56.598 36.2277C56.1708 36.2277 55.8244 35.8814 55.8244 35.4542V33.4559C55.8244 32.2119 54.8123 31.1997 53.5683 31.1997H52.5046C51.5612 31.1997 50.7964 30.4349 50.7964 29.4914C50.7964 28.548 51.5612 27.7832 52.5046 27.7832H56.4046C57.6486 27.7832 58.6608 26.771 58.6608 25.527V23.0775C58.6608 21.8335 57.6486 20.8213 56.4046 20.8213C56.0486 20.8213 55.76 20.5327 55.76 20.1767V18.0494C55.76 16.8054 54.7478 15.7932 53.5038 15.7932H52.4402C51.5323 15.7932 50.7964 15.0573 50.7964 14.1494C50.7964 13.2416 51.5323 12.5057 52.4402 12.5057H53.5038C54.7478 12.5057 55.76 11.4935 55.76 10.2495V7.79992C55.76 6.55593 54.7478 5.54375 53.5038 5.54375H52.7947C51.6911 5.54375 50.7964 4.64906 50.7964 3.54542C50.7964 1.59041 49.206 0 47.251 0H33.9073C33.3733 0 32.9404 0.432928 32.9404 0.966932C32.9404 1.50094 33.3733 1.93386 33.9073 1.93386H47.251C48.1397 1.93386 48.8625 2.65674 48.8625 3.54542V55.2441C48.8625 56.1327 48.1397 56.8556 47.251 56.8556C38.7137 56.8556 25.2107 56.8556 16.6315 56.8556C16.0974 56.8556 15.6645 57.2886 15.6645 57.8226C15.6645 58.3566 16.0974 58.7895 16.6315 58.7895H25.0876C28.1785 58.7895 30.6842 61.2952 30.6842 64.3861C30.6842 65.4736 31.9973 66.2071 33.0164 65.8275C35.4033 64.634 38.2128 64.634 40.5996 65.8275C41.1028 66.0791 41.6889 66.0528 42.1676 65.7571C42.6463 65.4613 42.932 64.9487 42.932 64.3861V63.1085C42.932 60.7232 44.8657 58.7895 47.251 58.7895C49.206 58.7895 50.7964 57.1991 50.7964 55.2441C50.7964 54.1404 51.6911 53.2457 52.7947 53.2457H53.6327C54.8767 53.2457 55.8889 52.2336 55.8889 50.9896C55.8863 49.3408 57.4702 47.8173 57.6197 46.1754C57.6261 46.105 57.6294 46.0336 57.6294 45.9615V43.512C57.6294 43.1937 57.7755 42.8803 58.0222 42.6792C58.5293 42.2657 58.8542 41.6374 58.8542 40.9335V38.4839C58.8542 37.2399 57.842 36.2277 56.598 36.2277ZM40.9982 60.7281C40.9982 62.1691 39.4817 63.1064 38.1928 62.4619L37.5291 62.13C37.3033 62.0171 37.0558 61.9606 36.8081 61.9606C36.5606 61.9606 36.313 62.0171 36.0875 62.1299L35.4236 62.4619C34.1347 63.1063 32.6182 62.1691 32.6182 60.728C32.6182 59.6574 33.4861 58.7895 34.5567 58.7895H39.0597C40.1303 58.7895 40.9983 59.6574 40.9982 60.7281ZM56.9203 38.4839V40.9335C56.9203 41.1111 56.7757 41.2558 56.598 41.2558H52.4079C51.5535 41.2558 50.8609 40.5631 50.8609 39.7087C50.8609 38.8543 51.5535 38.1616 52.408 38.1616H56.598C56.7757 38.1616 56.9203 38.3063 56.9203 38.4839ZM55.6955 43.512V45.9615C55.6955 46.1392 55.5509 46.2838 55.3732 46.2838H52.3435C51.4891 46.2838 50.7964 45.5912 50.7964 44.7367C50.7964 43.8823 51.4891 43.1896 52.3435 43.1896H55.3732C55.5509 43.1896 55.6955 43.3343 55.6955 43.512ZM53.5683 33.1335C53.7459 33.1335 53.8906 33.2782 53.8906 33.4559V35.9054C53.8906 36.0831 53.7459 36.2277 53.5683 36.2277H52.3435C51.4891 36.2277 50.7964 35.5351 50.7964 34.6806C50.7964 33.8262 51.4891 33.1335 52.3435 33.1335H53.5683ZM56.7269 23.0775V25.527C56.7269 25.7047 56.5823 25.8493 56.4046 25.8493H52.3435C51.489 25.8493 50.7964 25.1567 50.7964 24.3022C50.7964 23.4478 51.4891 22.7551 52.3435 22.7551H56.4046C56.5823 22.7551 56.7269 22.8998 56.7269 23.0775ZM53.5038 17.7271C53.6815 17.7271 53.8261 17.8717 53.8261 18.0494V20.499C53.8261 20.6766 53.6815 20.8213 53.5038 20.8213H52.3435C51.4891 20.8213 50.7964 20.1286 50.7964 19.2742C50.7964 18.4198 51.4891 17.7271 52.3435 17.7271H53.5038ZM53.5038 7.47761C53.6815 7.47761 53.8261 7.62226 53.8261 7.79992V10.2495C53.8261 10.4271 53.6815 10.5718 53.5038 10.5718H52.3435C51.4891 10.5718 50.7964 9.87914 50.7964 9.0247C50.7964 8.17027 51.4891 7.47761 52.3435 7.47761H53.5038ZM53.955 50.9896C53.955 51.1672 53.8104 51.3119 53.6327 51.3119H52.3435C51.4891 51.3119 50.7964 50.6192 50.7964 49.7648C50.7964 48.9104 51.4891 48.2177 52.3435 48.2177H53.6327C53.8104 48.2177 53.955 48.3623 53.955 48.54V50.9896Z" fill="url(#paint4_linear_0_6524)"/>
<path d="M44.9948 36.5497V30.5547C44.9948 30.0207 44.5619 29.5878 44.0279 29.5878C43.4939 29.5878 43.0609 30.0207 43.0609 30.5547V36.5497C43.0609 36.7273 42.9163 36.872 42.7386 36.872H14.6331C14.4555 36.872 14.3108 36.7273 14.3108 36.5497V22.1102C14.3108 21.9325 14.4555 21.7879 14.6331 21.7879H42.7386C42.9163 21.7879 43.0609 21.9325 43.0609 22.1102V26.0424C43.0609 26.5764 43.4939 27.0093 44.0279 27.0093C44.5619 27.0093 44.9948 26.5764 44.9948 26.0424V22.1102C44.9948 20.8662 43.9826 19.854 42.7386 19.854H14.6331C13.3891 19.854 12.3769 20.8662 12.3769 22.1102V36.5497C12.3769 37.7937 13.3891 38.8059 14.6331 38.8059H42.7386C43.9826 38.8059 44.9948 37.7937 44.9948 36.5497Z" fill="url(#paint5_linear_0_6524)"/>
<defs>
<linearGradient id="paint0_linear_0_6524" x1="21.5154" y1="-1.0652" x2="69.9283" y2="33.0271" gradientUnits="userSpaceOnUse">
<stop stop-color="#A068F8"/>
<stop offset="0.6891" stop-color="#3F55C3"/>
<stop offset="1" stop-color="#184EAE"/>
</linearGradient>
<linearGradient id="paint1_linear_0_6524" x1="21.5154" y1="-1.0652" x2="69.9283" y2="33.0271" gradientUnits="userSpaceOnUse">
<stop stop-color="#A068F8"/>
<stop offset="0.6891" stop-color="#3F55C3"/>
<stop offset="1" stop-color="#184EAE"/>
</linearGradient>
<linearGradient id="paint2_linear_0_6524" x1="21.5154" y1="-1.0652" x2="69.9283" y2="33.0271" gradientUnits="userSpaceOnUse">
<stop stop-color="#A068F8"/>
<stop offset="0.6891" stop-color="#3F55C3"/>
<stop offset="1" stop-color="#184EAE"/>
</linearGradient>
<linearGradient id="paint3_linear_0_6524" x1="21.5154" y1="-1.0652" x2="69.9283" y2="33.0271" gradientUnits="userSpaceOnUse">
<stop stop-color="#A068F8"/>
<stop offset="0.6891" stop-color="#3F55C3"/>
<stop offset="1" stop-color="#184EAE"/>
</linearGradient>
<linearGradient id="paint4_linear_0_6524" x1="21.5154" y1="-1.0652" x2="69.9283" y2="33.0271" gradientUnits="userSpaceOnUse">
<stop stop-color="#A068F8"/>
<stop offset="0.6891" stop-color="#3F55C3"/>
<stop offset="1" stop-color="#184EAE"/>
</linearGradient>
<linearGradient id="paint5_linear_0_6524" x1="21.5154" y1="-1.0652" x2="69.9283" y2="33.0271" gradientUnits="userSpaceOnUse">
<stop stop-color="#A068F8"/>
<stop offset="0.6891" stop-color="#3F55C3"/>
<stop offset="1" stop-color="#184EAE"/>
</linearGradient>
</defs>
</svg>
