<svg width="44" height="44" viewBox="0 0 44 44" fill="none" xmlns="http://www.w3.org/2000/svg">
<path d="M40.7773 0H11C10.644 0 10.3555 0.288492 10.3555 0.644531C10.3555 1.00057 10.644 1.28906 11 1.28906H14.7802C18.4229 1.28906 21.3771 4.23946 21.3819 7.8821C21.3696 8.62185 22.0408 9.42279 22.9298 9.38867C23.3955 9.38867 23.8475 9.25203 24.2369 8.99345C24.6942 8.68983 25.2274 8.5293 25.7786 8.5293C27.2727 8.49484 28.7084 9.89691 28.5649 11.5184C28.4712 12.9003 27.3132 14.0394 25.9284 14.1113C25.3248 14.1425 24.7424 13.9847 24.2428 13.655C23.9375 13.4527 23.3916 13.243 22.8724 13.2558C22.0447 13.2558 21.3701 13.9292 21.3685 14.757L21.366 16.155C21.3654 16.5111 21.6534 16.8001 22.0094 16.8008H22.0106C22.366 16.8008 22.6544 16.5129 22.655 16.1575L22.6576 14.7594C22.6578 14.6412 22.7542 14.5449 22.8724 14.5449C23.0494 14.5432 23.229 14.5661 23.5324 14.7306C24.2637 15.2133 25.1154 15.4437 25.9954 15.3986C28.0541 15.2915 29.7117 13.6609 29.851 11.6055C30.064 9.37501 28.1064 7.1958 25.7786 7.24015C24.9729 7.24015 24.1932 7.47502 23.5238 7.91948C23.4136 7.99253 23.1774 8.09411 22.8858 8.09952C22.8083 8.09952 22.7573 8.05999 22.7337 8.03653C22.7103 8.01298 22.6708 7.96185 22.6709 7.88081C22.6696 4.24067 25.6202 1.28906 29.2603 1.28906H40.7773C41.8435 1.28906 42.7109 2.15652 42.7109 3.22266V14.7427C42.7109 18.3948 39.7503 21.3555 36.0981 21.3555C36.0972 21.3555 36.0963 21.3555 36.0955 21.3555C35.7015 21.3555 35.3283 21.5114 35.0444 21.7949C34.7566 22.0822 34.5916 22.4785 34.5916 22.8822C34.5894 23.2368 34.7044 23.7691 34.9916 24.2115C35.3202 24.7088 35.4778 25.2902 35.4472 25.8928C35.3757 27.2995 34.2633 28.4341 32.8595 28.5319C31.367 28.6724 29.8335 27.3728 29.865 25.7459C29.865 25.1942 30.0252 24.6615 30.3285 24.2052C30.5242 23.912 30.7293 23.3845 30.7244 22.8715C30.7244 22.037 30.0509 21.3568 29.222 21.3553H24.8359C23.627 21.3553 22.6475 20.3741 22.6497 19.1651C22.6504 18.8091 22.3622 18.52 22.0064 18.5194C22.0059 18.5194 22.0056 18.5194 22.0052 18.5194C21.6498 18.5194 21.3613 18.8072 21.3606 19.1627C21.3584 20.3743 20.3756 21.3553 19.1641 21.3553H14.7712C14.6528 21.3551 14.5449 21.2469 14.5449 21.1284V21.1094C14.5449 20.8984 14.6072 20.6931 14.7254 20.5153C15.1695 19.8459 15.4043 19.0665 15.4043 18.2615C15.4509 16.034 13.3723 13.9755 11.0469 14.1885C8.99121 14.3241 7.35728 15.9785 7.24625 18.037C7.1989 18.9209 7.4299 19.7753 7.91433 20.5076C8.0355 20.6908 8.09952 20.8989 8.09952 21.1172C8.09952 21.1826 8.07151 21.2481 8.02278 21.2969C7.99416 21.3255 7.94681 21.3595 7.88674 21.3595C7.88666 21.3595 7.88657 21.3595 7.88648 21.3595C4.24218 21.3573 1.28906 18.4024 1.28906 14.758V3.22266C1.28906 2.15652 2.15643 1.28906 3.22266 1.28906H7.99219C8.34814 1.28906 8.63672 1.00057 8.63672 0.644531C8.63672 0.288492 8.34814 0 7.99219 0H3.22266C1.44564 0 0 1.44564 0 3.22266V40.7773C0 42.5544 1.44564 44 3.22266 44H40.7773C42.5544 44 44 42.5544 44 40.7773V38.0703C44 37.7143 43.7115 37.4258 43.3555 37.4258C42.9994 37.4258 42.7109 37.7143 42.7109 38.0703V40.7773C42.7109 41.8435 41.8435 42.7109 40.7773 42.7109H29.3798C25.6416 42.7109 22.8193 39.7105 22.6412 35.9765C22.5794 35.1999 21.9101 34.5916 21.1174 34.5916H21.1028C20.6396 34.5916 20.1853 34.7297 19.7884 34.9914C19.291 35.3201 18.7096 35.4774 18.1072 35.4475C16.7002 35.3758 15.5657 34.2635 15.4681 32.8598C15.439 32.4423 15.4994 32.036 15.6475 31.6522C15.7757 31.3203 15.6105 30.947 15.2784 30.8189C14.9463 30.6903 14.5732 30.8558 14.445 31.188C14.2282 31.7492 14.1398 32.3419 14.1822 32.9494C14.325 35.0028 15.9842 36.6302 18.042 36.7349C18.9207 36.7792 19.7708 36.5483 20.4987 36.0673C20.616 35.9935 20.8047 35.9049 21.1029 35.8806C21.2196 35.8806 21.3481 35.9751 21.356 36.0754C21.7241 39.6679 18.3321 42.711 14.7208 42.711H3.22266C2.15643 42.7109 1.28906 41.8435 1.28906 40.7773V29.24C1.28906 25.5981 4.24265 22.6465 7.88451 22.6489C8.27716 22.6489 8.64961 22.4929 8.93355 22.2095C9.22281 21.9208 9.38867 21.5228 9.38867 21.1097C9.38867 20.6455 9.25066 20.1915 8.98949 19.7968C8.65872 19.2968 8.50102 18.7121 8.53351 18.1066C8.60939 16.6991 9.72641 15.5678 11.1318 15.4751C12.6215 15.3414 14.1464 16.6387 14.1152 18.2618C14.1152 18.8125 13.9548 19.3454 13.6515 19.8026C13.3927 20.192 13.2559 20.644 13.2559 21.1098V21.1288C13.2559 21.9631 13.9346 22.6432 14.7701 22.6447C18.407 22.6447 21.3551 25.6046 21.3547 29.2415C21.3547 29.3068 21.3128 29.4021 21.1029 29.4354C20.8918 29.4463 20.6857 29.3731 20.5089 29.2556C19.8414 28.811 19.0617 28.576 18.2541 28.576C17.8991 28.576 17.5464 28.6217 17.2061 28.712C16.862 28.8032 16.657 29.1561 16.7482 29.5002C16.8394 29.8443 17.1922 30.0488 17.5363 29.9581C17.769 29.8964 18.0104 29.8651 18.2541 29.8651C18.8066 29.8651 19.3391 30.0253 19.7948 30.3288C20.0879 30.5244 20.6155 30.7294 21.1287 30.7245C21.9046 30.7245 22.5515 30.1415 22.6351 29.3775C22.6375 29.3621 22.6396 29.3092 22.6413 29.2246C22.7157 25.5368 25.5323 22.6447 29.2209 22.6447C29.3352 22.6449 29.4354 22.751 29.4354 22.8718C29.435 23.0277 29.4074 23.2118 29.2549 23.4921C28.8108 24.1603 28.576 24.9398 28.576 25.7462C28.5316 28.0055 30.6238 30.0271 32.9492 29.8181C35.0028 29.675 36.6302 28.0157 36.7348 25.9585C36.7795 25.0792 36.5486 24.2294 36.0671 23.501C35.9933 23.3862 35.8982 23.1772 35.8807 22.8825C35.8807 22.8185 35.9078 22.7547 35.9551 22.7074C35.9838 22.6788 36.0314 22.6448 36.0967 22.6448C39.7496 22.6448 42.7109 25.6061 42.7109 29.2591V35.0625C42.7109 35.4185 42.9994 35.707 43.3555 35.707C43.7115 35.707 44 35.4185 44 35.0625V3.22266C44 1.44564 42.5544 0 40.7773 0Z" fill="url(#paint0_linear_0_6462)"/>
<path d="M5.22203 36.0035C5.22203 36.0961 5.23436 36.1894 5.25775 36.279C5.28652 36.3893 5.34411 36.4909 5.42639 36.5727C5.54713 36.6926 5.71042 36.7598 5.88049 36.7598H5.88289C5.94167 36.7595 7.32862 36.7542 7.88189 36.7446C9.8245 36.7105 11.2345 35.0002 11.2345 32.6777C11.2345 30.2362 9.85974 28.5957 7.81365 28.5957H5.86656C5.69538 28.5957 5.53132 28.6638 5.41041 28.7849C5.28949 28.906 5.22169 29.0703 5.22203 29.2415V36.0035ZM7.81374 29.8848C9.38553 29.8848 9.9455 31.3275 9.9455 32.6777C9.9455 33.9981 9.29272 35.4306 7.85945 35.4557C7.12191 35.4686 6.52081 34.8686 6.51881 34.131C6.51728 33.5689 6.51608 33.0163 6.51608 32.6702C6.51608 32.3669 6.51534 31.7855 6.51444 31.1862C6.51335 30.4678 7.09534 29.8848 7.81374 29.8848Z" fill="url(#paint1_linear_0_6462)"/>
<path d="M7.47273 3.8149C7.12356 3.884 6.89643 4.22302 6.96553 4.57227C7.01365 4.77887 8.26894 11.231 8.32996 11.4347C8.44322 11.7536 8.74555 11.9667 9.08346 11.9667H9.08887C9.42901 11.9644 9.73108 11.7464 9.84057 11.4244C9.84246 11.4188 9.84426 11.4131 9.84606 11.4075C10.2945 9.95886 12.3456 9.95946 12.7921 11.4087C12.7948 11.4175 12.7977 11.4261 12.8008 11.4347C12.914 11.7536 13.2164 11.9667 13.5543 11.9667H13.5597C13.8998 11.9644 14.2019 11.7464 14.3114 11.4244C14.3537 11.2963 15.6504 4.69559 15.6781 4.58551C15.7476 4.23634 15.5209 3.89706 15.1718 3.82762C14.8225 3.75776 14.4833 3.9848 14.4138 4.33397C14.1612 5.60345 12.3806 5.69469 11.9995 4.45769L11.9378 4.2574C11.833 3.91717 11.4722 3.72639 11.1321 3.83115C10.8972 3.90359 10.7335 4.09807 10.6893 4.32357L10.6504 4.44915C10.2667 5.68877 8.48182 5.59508 8.23001 4.32211C8.16109 3.97286 7.82215 3.74572 7.47273 3.8149Z" fill="url(#paint2_linear_0_6462)"/>
<path d="M35.1806 34.4645C35.1806 33.1238 34.0446 32.0332 32.6482 32.0332H30.8212C30.8209 32.0332 30.8205 32.0333 30.8201 32.0333C30.8198 32.0333 30.8194 32.0332 30.819 32.0332C30.463 32.0332 30.1745 32.3217 30.1745 32.6777V39.5527C30.1745 39.9088 30.463 40.1973 30.819 40.1973C31.175 40.1973 31.4635 39.9088 31.4635 39.5527C31.4635 38.6776 32.5472 38.2686 33.1254 38.9256L34.0522 39.9786C34.1795 40.1234 34.3575 40.1973 34.5362 40.1973C34.6875 40.1973 34.8393 40.1443 34.9618 40.0366C35.229 39.8014 35.2549 39.3941 35.0198 39.1269C34.1637 38.1542 34.8498 36.2307 35.1267 34.9647C35.162 34.8032 35.1806 34.6359 35.1806 34.4645ZM32.6482 35.6067C32.6395 35.6067 32.6306 35.6067 32.6215 35.6067C31.9882 35.607 31.4704 35.0977 31.4704 34.4645C31.4704 33.8342 31.9798 33.3223 32.61 33.3223H32.6482C33.3222 33.3223 33.8915 33.8454 33.8915 34.4645C33.8915 35.0836 33.3222 35.6067 32.6482 35.6067Z" fill="url(#paint3_linear_0_6462)"/>
<path d="M36.1152 15.4043C38.366 15.4043 40.1973 13.5731 40.1973 11.3223C40.1973 9.07148 38.366 7.24023 36.1152 7.24023C33.8644 7.24023 32.0332 9.07148 32.0332 11.3223C32.0332 13.5731 33.8644 15.4043 36.1152 15.4043ZM36.1152 8.5293C37.6553 8.5293 38.9082 9.78218 38.9082 11.3223C38.9082 12.8624 37.6553 14.1152 36.1152 14.1152C34.5751 14.1152 33.3223 12.8624 33.3223 11.3223C33.3223 9.78218 34.5751 8.5293 36.1152 8.5293Z" fill="url(#paint4_linear_0_6462)"/>
<defs>
<linearGradient id="paint0_linear_0_6462" x1="22" y1="0" x2="22" y2="44" gradientUnits="userSpaceOnUse">
<stop stop-color="#A068F8"/>
<stop offset="0.69" stop-color="#3F55C3"/>
<stop offset="1" stop-color="#184EAE"/>
</linearGradient>
<linearGradient id="paint1_linear_0_6462" x1="22" y1="0" x2="22" y2="44" gradientUnits="userSpaceOnUse">
<stop stop-color="#A068F8"/>
<stop offset="0.69" stop-color="#3F55C3"/>
<stop offset="1" stop-color="#184EAE"/>
</linearGradient>
<linearGradient id="paint2_linear_0_6462" x1="22" y1="0" x2="22" y2="44" gradientUnits="userSpaceOnUse">
<stop stop-color="#A068F8"/>
<stop offset="0.69" stop-color="#3F55C3"/>
<stop offset="1" stop-color="#184EAE"/>
</linearGradient>
<linearGradient id="paint3_linear_0_6462" x1="22" y1="0" x2="22" y2="44" gradientUnits="userSpaceOnUse">
<stop stop-color="#A068F8"/>
<stop offset="0.69" stop-color="#3F55C3"/>
<stop offset="1" stop-color="#184EAE"/>
</linearGradient>
<linearGradient id="paint4_linear_0_6462" x1="22" y1="0" x2="22" y2="44" gradientUnits="userSpaceOnUse">
<stop stop-color="#A068F8"/>
<stop offset="0.69" stop-color="#3F55C3"/>
<stop offset="1" stop-color="#184EAE"/>
</linearGradient>
</defs>
</svg>
