<svg width="67" height="66" viewBox="0 0 67 66" fill="none" xmlns="http://www.w3.org/2000/svg">
<path d="M66.7539 9.44321C66.7546 8.96396 66.6608 8.48927 66.4778 8.0463C66.2949 7.60333 66.0265 7.20076 65.6878 6.86163C65.3492 6.52249 64.9471 6.25343 64.5043 6.06985C64.0617 5.88626 63.5871 5.79175 63.1079 5.79172H61.5126C61.2354 5.79172 60.9696 5.90183 60.7736 6.09784C60.5776 6.29384 60.4675 6.55968 60.4675 6.83687C60.4675 7.11406 60.5776 7.37989 60.7736 7.5759C60.9696 7.7719 61.2354 7.88201 61.5126 7.88201H63.1079C63.3123 7.88201 63.5148 7.92232 63.7037 8.00062C63.8926 8.07892 64.0642 8.19369 64.2087 8.33836C64.3532 8.48302 64.4677 8.65476 64.5458 8.84373C64.6239 9.03271 64.664 9.23522 64.6637 9.43969L64.6194 39.7015C64.6169 40.5804 64.2663 41.4225 63.6444 42.0436C63.0224 42.6646 62.1798 43.014 61.3009 43.0153H5.41087C4.53103 43.0143 3.6875 42.6643 3.06536 42.0422C2.44321 41.42 2.09325 40.5765 2.09225 39.6966V9.43787C2.0927 9.02539 2.25674 8.62993 2.5484 8.33825C2.84005 8.04657 3.23549 7.88249 3.64797 7.88201H5.28153C5.55872 7.88201 5.82456 7.7719 6.02056 7.5759C6.21657 7.37989 6.32668 7.11406 6.32668 6.83687C6.32668 6.55968 6.21657 6.29384 6.02056 6.09784C5.82456 5.90183 5.55872 5.79172 5.28153 5.79172H3.64797C2.68135 5.79296 1.75467 6.17751 1.07117 6.86103C0.38768 7.54455 0.00316322 8.47124 0.00195574 9.43787L0 50.1636C0.00124198 51.1302 0.385773 52.0569 1.06927 52.7404C1.75276 53.4239 2.67941 53.8084 3.64602 53.8096H21.3039C24.4058 53.8096 26.9205 56.3243 26.9205 59.4262C26.9205 60.7679 26.9205 63.9097 20.3163 63.9097H18.2988C18.0216 63.9097 17.7558 64.0198 17.5598 64.2158C17.3638 64.4118 17.2536 64.6777 17.2536 64.9549C17.2536 65.232 17.3638 65.4979 17.5598 65.6939C17.7558 65.8899 18.0216 66 18.2988 66H48.457C48.7342 66 49.0001 65.8899 49.1961 65.6939C49.3921 65.4979 49.5022 65.232 49.5022 64.9549C49.5022 64.6777 49.3921 64.4118 49.1961 64.2158C49.0001 64.0198 48.7342 63.9097 48.457 63.9097H46.4395C39.8354 63.9097 39.8354 60.7675 39.8354 59.4262V57.8446C39.8323 57.5694 39.7208 57.3066 39.5252 57.1131C39.3295 56.9196 39.0655 56.8111 38.7903 56.8111C38.5151 56.8111 38.251 56.9196 38.0554 57.1131C37.8597 57.3066 37.7483 57.5694 37.7452 57.8446V59.4262C37.7452 60.1633 37.7452 61.8897 38.9708 63.4041C39.1281 63.5964 38.9991 63.9097 38.7506 63.9097H28.0055C27.757 63.9097 27.6279 63.5964 27.7853 63.4041C29.0109 61.8897 29.0109 60.1633 29.0109 59.4262C29.0109 56.3243 31.5255 53.8096 34.6275 53.8096H63.1098C64.0764 53.8084 65.0031 53.4239 65.6866 52.7404C66.3701 52.0569 66.7546 51.1302 66.7558 50.1636L66.7539 9.44321ZM63.1098 51.7195H3.64602C3.23352 51.719 2.83804 51.555 2.54636 51.2633C2.25467 50.9716 2.09061 50.5761 2.09016 50.1636V47.5398C2.09016 46.087 3.95806 45.107 5.41087 45.1059H61.3009C62.7654 45.1068 64.6657 46.0962 64.6657 47.5606V50.1636C64.6652 50.5761 64.5012 50.9716 64.2095 51.2633C63.9178 51.555 63.5223 51.719 63.1098 51.7195Z" fill="url(#paint0_linear_0_12554)"/>
<path d="M35.428 47.3236H31.3278C31.1896 47.3221 31.0524 47.348 30.9242 47.3998C30.7961 47.4516 30.6795 47.5284 30.5812 47.6256C30.4829 47.7228 30.4049 47.8385 30.3516 47.966C30.2984 48.0936 30.271 48.2305 30.271 48.3687C30.271 48.5069 30.2984 48.6438 30.3516 48.7714C30.4049 48.8989 30.4829 49.0147 30.5812 49.1119C30.6795 49.209 30.7961 49.2858 30.9242 49.3376C31.0524 49.3894 31.1896 49.4153 31.3278 49.4138H35.428C35.5663 49.4153 35.7034 49.3894 35.8316 49.3376C35.9597 49.2858 36.0763 49.209 36.1746 49.1119C36.2729 49.0147 36.3509 48.8989 36.4042 48.7714C36.4574 48.6438 36.4849 48.5069 36.4849 48.3687C36.4849 48.2305 36.4574 48.0936 36.4042 47.966C36.3509 47.8385 36.2729 47.7228 36.1746 47.6256C36.0763 47.5284 35.9597 47.4516 35.8316 47.3998C35.7034 47.348 35.5663 47.3221 35.428 47.3236Z" fill="url(#paint1_linear_0_12554)"/>
<path d="M9.5101 40.1166C9.64734 40.1166 9.78323 40.0896 9.91003 40.0371C10.0368 39.9846 10.152 39.9076 10.2491 39.8106C10.3461 39.7135 10.4231 39.5983 10.4756 39.4715C10.5281 39.3447 10.5551 39.2088 10.5551 39.0716V32.7541C10.5551 20.6038 20.4048 10.7541 32.5551 10.7541H34.2007C46.351 10.7541 56.2007 20.6038 56.2007 32.7541V39.0716C56.2038 39.3467 56.3152 39.6096 56.5109 39.8031C56.7066 39.9965 56.9706 40.1051 57.2458 40.1051C57.521 40.1051 57.785 39.9965 57.9807 39.8031C58.1763 39.6096 58.2878 39.3467 58.2909 39.0716V5.36433C58.2892 3.94209 57.7234 2.5786 56.7177 1.57295C55.712 0.567303 54.3485 0.00162176 52.9263 0H13.8295C12.4073 0.00162176 11.0438 0.567303 10.0381 1.57295C9.03239 2.5786 8.46664 3.94209 8.46495 5.36433V39.0716C8.46495 39.2088 8.49199 39.3447 8.54451 39.4715C8.59704 39.5983 8.67402 39.7135 8.77108 39.8106C8.86813 39.9076 8.98335 39.9846 9.11015 40.0371C9.23695 40.0896 9.37285 40.1166 9.5101 40.1166ZM13.8295 2.0899H52.9263C53.7944 2.09087 54.6267 2.43616 55.2406 3.05002C55.8545 3.66389 56.1997 4.49619 56.2007 5.36433C56.2007 7.18657 54.7235 8.66378 52.9013 8.66378H13.8546C12.0323 8.66378 10.5551 7.18657 10.5551 5.36433C10.5561 4.49619 10.9014 3.66389 11.5152 3.05002C12.1291 2.43616 12.9614 2.09087 13.8295 2.0899Z" fill="url(#paint2_linear_0_12554)"/>
<path d="M16.2938 5.67575C16.5487 5.06051 16.2565 4.35516 15.6413 4.10032C15.026 3.84548 14.3207 4.13764 14.0658 4.75288C13.811 5.36813 14.1032 6.07347 14.7184 6.32831C15.3336 6.58315 16.039 6.29099 16.2938 5.67575Z" fill="url(#paint3_linear_0_12554)"/>
<path d="M19.8257 5.67562C20.0805 5.06038 19.7884 4.35504 19.1731 4.1002C18.5579 3.84535 17.8525 4.13752 17.5977 4.75276C17.3429 5.368 17.635 6.07334 18.2503 6.32818C18.8655 6.58302 19.5708 6.29086 19.8257 5.67562Z" fill="url(#paint4_linear_0_12554)"/>
<path d="M23.3576 5.67574C23.6125 5.0605 23.3203 4.35516 22.7051 4.10032C22.0898 3.84548 21.3845 4.13764 21.1296 4.75288C20.8748 5.36812 21.167 6.07346 21.7822 6.32831C22.3974 6.58315 23.1028 6.29099 23.3576 5.67574Z" fill="url(#paint5_linear_0_12554)"/>
<path d="M40.6723 6.12876H52.7817C52.9027 6.1302 53.0228 6.10762 53.135 6.06231C53.2472 6.017 53.3493 5.94988 53.4354 5.86482C53.5215 5.77976 53.5898 5.67847 53.6365 5.56681C53.6831 5.45514 53.7071 5.33533 53.7071 5.21432C53.7071 5.09331 53.6831 4.9735 53.6365 4.86184C53.5898 4.75017 53.5215 4.64888 53.4354 4.56382C53.3493 4.47876 53.2472 4.41164 53.135 4.36633C53.0228 4.32102 52.9027 4.29844 52.7817 4.29988H40.6723C40.5513 4.29844 40.4312 4.32102 40.319 4.36633C40.2068 4.41164 40.1047 4.47876 40.0186 4.56382C39.9325 4.64888 39.8642 4.75017 39.8175 4.86184C39.7709 4.9735 39.7469 5.09331 39.7469 5.21432C39.7469 5.33533 39.7709 5.45514 39.8175 5.56681C39.8642 5.67847 39.9325 5.77976 40.0186 5.86482C40.1047 5.94988 40.2068 6.017 40.319 6.06231C40.4312 6.10762 40.5513 6.1302 40.6723 6.12876Z" fill="url(#paint6_linear_0_12554)"/>
<path d="M53.7103 15.7484C53.7097 15.2022 53.4925 14.6786 53.1063 14.2924C52.7201 13.9061 52.1964 13.6889 51.6502 13.6883H15.1056C14.5594 13.6889 14.0358 13.9061 13.6496 14.2924C13.2634 14.6786 13.0461 15.2022 13.0455 15.7484V24.7839C13.0462 25.33 13.2634 25.8537 13.6496 26.2399C14.0358 26.6261 14.5594 26.8433 15.1056 26.8439H51.6502C52.1964 26.8433 52.72 26.6261 53.1062 26.2399C53.4924 25.8537 53.7097 25.33 53.7103 24.7839V15.7484ZM51.8814 24.7839C51.8813 24.8452 51.857 24.9039 51.8136 24.9473C51.7703 24.9906 51.7115 25.015 51.6502 25.0151H15.1056C15.0443 25.015 14.9855 24.9906 14.9422 24.9473C14.8989 24.9039 14.8745 24.8452 14.8744 24.7839V15.7484C14.8745 15.6871 14.8989 15.6284 14.9422 15.585C14.9856 15.5417 15.0443 15.5174 15.1056 15.5173H51.6502C51.7115 15.5174 51.7703 15.5417 51.8136 15.585C51.857 15.6284 51.8813 15.6871 51.8814 15.7484V24.7839Z" fill="url(#paint7_linear_0_12554)"/>
<path d="M29.8719 39.9245C29.992 39.9245 30.1109 39.9009 30.2219 39.8549C30.3328 39.809 30.4336 39.7416 30.5185 39.6567C30.6034 39.5718 30.6708 39.471 30.7167 39.36C30.7627 39.2491 30.7863 39.1301 30.7863 39.01V31.6973C30.7857 31.1413 30.5646 30.6083 30.1715 30.2152C29.7783 29.822 29.2453 29.6009 28.6894 29.6003H15.1426C14.5867 29.6009 14.0536 29.822 13.6605 30.2152C13.2674 30.6083 13.0463 31.1413 13.0457 31.6973V39.0104C13.0442 39.1314 13.0668 39.2515 13.1121 39.3637C13.1574 39.476 13.2246 39.5781 13.3096 39.6641C13.3947 39.7502 13.496 39.8186 13.6076 39.8652C13.7193 39.9118 13.8391 39.9359 13.9601 39.9359C14.0811 39.9359 14.2009 39.9118 14.3126 39.8652C14.4243 39.8186 14.5256 39.7502 14.6106 39.6641C14.6957 39.5781 14.7628 39.476 14.8081 39.3637C14.8534 39.2515 14.876 39.1314 14.8746 39.0104V31.6973C14.8746 31.6262 14.9029 31.5581 14.9531 31.5078C15.0034 31.4576 15.0715 31.4293 15.1426 31.4292H28.6894C28.7604 31.4293 28.8286 31.4576 28.8788 31.5078C28.9291 31.5581 28.9574 31.6262 28.9574 31.6973V39.0104C28.9575 39.2529 29.0539 39.4854 29.2254 39.6568C29.3969 39.8283 29.6295 39.9245 29.8719 39.9245Z" fill="url(#paint8_linear_0_12554)"/>
<path d="M52.7959 39.9245C52.916 39.9245 53.0349 39.9009 53.1459 39.8549C53.2568 39.809 53.3576 39.7416 53.4425 39.6567C53.5274 39.5718 53.5948 39.471 53.6407 39.36C53.6867 39.2491 53.7103 39.1301 53.7103 39.01V31.6973C53.7097 31.1413 53.4886 30.6083 53.0955 30.2152C52.7023 29.822 52.1693 29.6009 51.6133 29.6003H38.0665C37.5105 29.6009 36.9775 29.822 36.5844 30.2152C36.1912 30.6083 35.9701 31.1413 35.9695 31.6973V39.0104C35.9681 39.1314 35.9907 39.2515 36.036 39.3637C36.0813 39.476 36.1484 39.5781 36.2335 39.6641C36.3185 39.7502 36.4198 39.8186 36.5315 39.8652C36.6431 39.9118 36.763 39.9359 36.884 39.9359C37.005 39.9359 37.1248 39.9118 37.2365 39.8652C37.3481 39.8186 37.4494 39.7502 37.5345 39.6641C37.6195 39.5781 37.6866 39.476 37.732 39.3637C37.7773 39.2515 37.7998 39.1314 37.7984 39.0104V31.6973C37.7985 31.6262 37.8267 31.5581 37.877 31.5078C37.9272 31.4576 37.9954 31.4293 38.0665 31.4292H51.6132C51.6843 31.4293 51.7524 31.4576 51.8027 31.5078C51.8529 31.5581 51.8812 31.6262 51.8813 31.6973V39.0104C51.8814 39.2529 51.9778 39.4855 52.1493 39.6569C52.3208 39.8283 52.5534 39.9246 52.7959 39.9245Z" fill="url(#paint9_linear_0_12554)"/>
<defs>
<linearGradient id="paint0_linear_0_12554" x1="12.896" y1="-51.2368" x2="73.4758" y2="-44.4309" gradientUnits="userSpaceOnUse">
<stop stop-color="#F93C3C"/>
<stop offset="1" stop-color="#CD0973"/>
</linearGradient>
<linearGradient id="paint1_linear_0_12554" x1="12.896" y1="-51.2368" x2="73.4758" y2="-44.4309" gradientUnits="userSpaceOnUse">
<stop stop-color="#F93C3C"/>
<stop offset="1" stop-color="#CD0973"/>
</linearGradient>
<linearGradient id="paint2_linear_0_12554" x1="12.896" y1="-51.2368" x2="73.4758" y2="-44.4309" gradientUnits="userSpaceOnUse">
<stop stop-color="#F93C3C"/>
<stop offset="1" stop-color="#CD0973"/>
</linearGradient>
<linearGradient id="paint3_linear_0_12554" x1="12.896" y1="-51.2368" x2="73.4758" y2="-44.4309" gradientUnits="userSpaceOnUse">
<stop stop-color="#F93C3C"/>
<stop offset="1" stop-color="#CD0973"/>
</linearGradient>
<linearGradient id="paint4_linear_0_12554" x1="12.896" y1="-51.2368" x2="73.4758" y2="-44.4309" gradientUnits="userSpaceOnUse">
<stop stop-color="#F93C3C"/>
<stop offset="1" stop-color="#CD0973"/>
</linearGradient>
<linearGradient id="paint5_linear_0_12554" x1="12.896" y1="-51.2368" x2="73.4758" y2="-44.4309" gradientUnits="userSpaceOnUse">
<stop stop-color="#F93C3C"/>
<stop offset="1" stop-color="#CD0973"/>
</linearGradient>
<linearGradient id="paint6_linear_0_12554" x1="12.896" y1="-51.2368" x2="73.4758" y2="-44.4309" gradientUnits="userSpaceOnUse">
<stop stop-color="#F93C3C"/>
<stop offset="1" stop-color="#CD0973"/>
</linearGradient>
<linearGradient id="paint7_linear_0_12554" x1="12.896" y1="-51.2368" x2="73.4758" y2="-44.4309" gradientUnits="userSpaceOnUse">
<stop stop-color="#F93C3C"/>
<stop offset="1" stop-color="#CD0973"/>
</linearGradient>
<linearGradient id="paint8_linear_0_12554" x1="12.896" y1="-51.2368" x2="73.4758" y2="-44.4309" gradientUnits="userSpaceOnUse">
<stop stop-color="#F93C3C"/>
<stop offset="1" stop-color="#CD0973"/>
</linearGradient>
<linearGradient id="paint9_linear_0_12554" x1="12.896" y1="-51.2368" x2="73.4758" y2="-44.4309" gradientUnits="userSpaceOnUse">
<stop stop-color="#F93C3C"/>
<stop offset="1" stop-color="#CD0973"/>
</linearGradient>
</defs>
</svg>
