<svg width="71" height="66" viewBox="0 0 71 66" fill="none" xmlns="http://www.w3.org/2000/svg">
<path fill-rule="evenodd" clip-rule="evenodd" d="M67.3275 52.5594H3.44312C1.53488 52.5594 0 50.983 0 49.0748V10.039C0 8.13074 1.53488 6.59585 3.44312 6.59585H11.5324C11.9887 6.59585 12.362 6.9692 12.362 7.42552V21.2395C12.362 22.8158 13.648 24.0603 15.2244 24.0603H26.0101C26.176 24.0603 26.3004 24.1018 26.4249 24.1848L32.2878 27.8163C34.5809 29.2366 37.5424 27.5874 37.5424 24.89C37.5424 23.9774 38.4965 24.0603 38.9529 24.0603C40.5292 24.0603 41.7737 22.8158 41.7737 21.2395V7.42552C41.7737 6.9692 42.1471 6.59585 42.6034 6.59585H67.3275C69.2357 6.59585 70.8121 8.13074 70.8121 10.039V49.0748C70.8121 50.983 69.2357 52.5594 67.3275 52.5594ZM3.44312 8.25519C2.44752 8.25519 1.65933 9.04337 1.65933 10.039V49.0748C1.65933 50.0704 2.44752 50.9001 3.44312 50.9001H67.3275C68.3231 50.9001 69.1527 50.0704 69.1527 49.0748V10.039C69.1527 9.04337 68.3231 8.25519 67.3275 8.25519H56.4173C49.2463 8.25519 43.4331 14.0685 43.4331 21.2395C43.4331 25.051 39.2018 28.7114 39.2018 32.5229C39.2018 33.1867 38.4551 33.6015 37.9158 33.2282L25.7612 25.7197H15.2244C12.7354 25.7197 10.7027 23.7285 10.7027 21.2395V15.5148C10.7027 11.5054 7.45248 8.25519 3.44312 8.25519Z" fill="url(#paint0_linear_0_12553)"/>
<path fill-rule="evenodd" clip-rule="evenodd" d="M69.9824 45.0924H0.829667C-0.2489 45.0924 -0.2489 43.4331 0.829667 43.4331H69.9824C71.061 43.4331 71.061 45.0924 69.9824 45.0924Z" fill="url(#paint1_linear_0_12553)"/>
<path fill-rule="evenodd" clip-rule="evenodd" d="M65.6681 45.0924H5.14393C4.68762 45.0924 4.31427 44.7191 4.31427 44.2627V11.8642C4.31427 11.3664 4.68762 11.0346 5.14393 11.0346H11.5324C11.9887 11.0346 12.362 11.3664 12.362 11.8642V21.2395C12.362 22.8158 13.648 24.0603 15.2244 24.0603H26.0101C26.176 24.0603 26.3004 24.1018 26.4249 24.1848L32.2878 27.8163C34.5809 29.2366 37.5424 27.5874 37.5424 24.89C37.5424 23.9774 38.4965 24.0603 38.9529 24.0603C40.5292 24.0603 41.7737 22.8158 41.7737 21.2395V11.8642C41.7737 11.3664 42.1471 11.0346 42.6034 11.0346H65.6681C66.1245 11.0346 66.4978 11.3664 66.4978 11.8642V44.2627C66.4978 44.7191 66.1245 45.0924 65.6681 45.0924ZM5.9736 28.0635C5.9736 36.5519 12.8548 43.4331 21.3432 43.4331H49.4689C57.9573 43.4331 64.8385 36.5519 64.8385 28.0635V23.3966C64.8385 17.4857 60.0467 12.6939 54.1358 12.6939H51.9786C47.259 12.6939 43.4331 16.5199 43.4331 21.2395C43.4331 25.051 39.2018 28.7114 39.2018 32.5229C39.2018 33.1867 38.4551 33.6015 37.9158 33.2282L25.7612 25.7197H15.2244C12.7354 25.7197 10.7027 23.7285 10.7027 21.2395V15.0585C10.7027 13.7526 9.64406 12.6939 8.33815 12.6939C7.03225 12.6939 5.9736 13.7525 5.9736 15.0585V28.0635Z" fill="url(#paint2_linear_0_12553)"/>
<path fill-rule="evenodd" clip-rule="evenodd" d="M43.2671 58.8234H27.5449C27.0886 58.8234 26.7153 58.45 26.7153 57.9937V51.7297C26.7153 51.2734 27.0886 50.9001 27.5449 50.9001H43.2671C43.7234 50.9001 44.0968 51.2734 44.0968 51.7297V57.9937C44.0968 58.45 43.7234 58.8234 43.2671 58.8234ZM28.3746 54.8617C28.3746 56.1333 29.4054 57.1641 30.6769 57.1641H40.1351C41.4067 57.1641 42.4375 56.1333 42.4375 54.8617C42.4375 53.5902 41.4067 52.5594 40.1351 52.5594H30.6769C29.4054 52.5594 28.3746 53.5902 28.3746 54.8617Z" fill="url(#paint3_linear_0_12553)"/>
<path fill-rule="evenodd" clip-rule="evenodd" d="M51.8542 66H18.709C18.2527 66 17.8793 65.6267 17.8793 65.1703V61.5613C17.8793 59.1553 19.8705 57.1641 22.318 57.1641H48.2451C50.6926 57.1641 52.6838 59.1553 52.6838 61.5613V65.1703C52.6838 65.6267 52.3105 66 51.8542 66ZM19.5387 61.5613C19.5387 63.0963 20.783 64.3407 22.318 64.3407H48.2451C49.7801 64.3407 51.0245 63.0963 51.0245 61.5613C51.0245 60.0679 49.78 58.8234 48.2451 58.8234H22.318C20.7832 58.8234 19.5387 60.0679 19.5387 61.5613Z" fill="url(#paint4_linear_0_12553)"/>
<path fill-rule="evenodd" clip-rule="evenodd" d="M29.5776 48.8259H26.1345C25.0145 48.8259 25.0145 47.1666 26.1345 47.1666H29.5776C30.6562 47.1666 30.6562 48.8259 29.5776 48.8259Z" fill="url(#paint5_linear_0_12553)"/>
<path fill-rule="evenodd" clip-rule="evenodd" d="M37.1276 48.8259H33.6845C32.5644 48.8259 32.5644 47.1666 33.6845 47.1666H37.1276C38.2062 47.1666 38.2062 48.8259 37.1276 48.8259Z" fill="url(#paint6_linear_0_12553)"/>
<path fill-rule="evenodd" clip-rule="evenodd" d="M44.6776 48.8259H41.2344C40.1559 48.8259 40.1559 47.1666 41.2344 47.1666H44.6776C45.7561 47.1666 45.7561 48.8259 44.6776 48.8259Z" fill="url(#paint7_linear_0_12553)"/>
<path fill-rule="evenodd" clip-rule="evenodd" d="M32.5644 22.3595C31.6103 22.3595 24.8485 22.401 24.5167 22.2766L21.3639 21.0321C20.3268 20.6172 20.9491 19.0823 21.9447 19.4972C23.9454 20.292 26.0787 20.7002 28.2315 20.7002H32.5644C33.2282 20.7002 33.2282 19.6631 32.5644 19.6631H29.7436C28.665 19.6631 28.665 18.0038 29.7436 18.0038H34.3482C35.0119 18.0038 35.0119 16.9667 34.3482 16.9667H30.7806C29.7021 16.9667 29.7021 15.3074 30.7806 15.3074H35.0119C35.6757 15.3074 35.6757 14.3118 35.0119 14.3118H32.1911C31.1125 14.3118 31.1125 12.6524 32.1911 12.6524H35.1364C35.8001 12.6524 35.8001 11.6153 35.1364 11.6153H28.4991C27.4205 11.6153 27.4205 9.956 28.4991 9.956H35.1364C36.393 9.956 37.2549 10.9523 37.3044 12.0338C37.3489 13.0059 37.293 14.1784 37.15 15.1409C37.0055 16.1135 36.7127 17.288 36.378 18.2126C35.9522 19.3886 34.935 20.9206 34.0243 21.7779C33.6446 22.1354 33.1351 22.3595 32.5644 22.3595Z" fill="url(#paint8_linear_0_12553)"/>
<path fill-rule="evenodd" clip-rule="evenodd" d="M21.6128 21.0735H18.3771C17.5475 21.0735 16.8422 20.4098 16.8422 19.5387V11.5324C16.8422 10.7027 17.5475 9.99749 18.3771 9.99749H21.6128C22.1106 9.99749 22.4425 10.3708 22.4425 10.8272V20.2439C22.4425 20.7002 22.1106 21.0735 21.6128 21.0735ZM18.5016 18.2734C18.5016 18.9035 19.0123 19.4142 19.6424 19.4142C20.2724 19.4142 20.7832 18.9035 20.7832 18.2734V12.7976C20.7832 12.1676 20.2724 11.6568 19.6424 11.6568C19.0123 11.6568 18.5016 12.1676 18.5016 12.7976V18.2734Z" fill="url(#paint9_linear_0_12553)"/>
<path fill-rule="evenodd" clip-rule="evenodd" d="M21.6128 11.6568C20.6172 11.6568 20.4928 10.1634 21.5299 10.039C27.0886 9.16782 23.9359 3.44312 27.1716 3.36015C28.8724 3.31867 29.951 4.39723 29.9925 6.09805C29.9925 6.13954 30.1999 8.4626 29.2872 11.0761C28.9554 12.0717 27.379 11.5324 27.7109 10.4953C28.5405 8.25519 28.3331 6.2225 28.3331 6.18102C28.3331 4.99793 27.0747 5.68494 26.8508 6.84665C26.5113 8.60821 25.5918 11.0505 21.8633 11.6378C21.7814 11.6507 21.6957 11.6568 21.6128 11.6568Z" fill="url(#paint10_linear_0_12553)"/>
<path fill-rule="evenodd" clip-rule="evenodd" d="M38.3721 33.3526C37.6254 33.3526 26.4249 25.9271 25.7612 25.7197H15.2244C12.7354 25.7197 10.7027 23.7285 10.7027 21.2395V4.4802C10.7027 1.9912 12.7354 0 15.2244 0H38.9529C41.4419 0 43.4331 1.9912 43.4331 4.4802V21.2395C43.4331 25.051 39.2018 28.7114 39.2018 32.5229C39.2018 33.0207 38.8284 33.3526 38.3721 33.3526ZM15.2244 1.65933C13.648 1.65933 12.362 2.90383 12.362 4.4802V21.2395C12.362 22.8158 13.648 24.0603 15.2244 24.0603H26.0101C26.176 24.0603 26.3004 24.1018 26.4249 24.1848L32.2878 27.8163C34.5809 29.2366 37.5424 27.5874 37.5424 24.89C37.5424 23.9774 38.4965 24.0603 38.9529 24.0603C40.5292 24.0603 41.7737 22.8158 41.7737 21.2395V4.4802C41.7737 2.90383 40.5292 1.65933 38.9529 1.65933H15.2244Z" fill="url(#paint11_linear_0_12553)"/>
<path fill-rule="evenodd" clip-rule="evenodd" d="M57.8693 24.2678H48.7844C47.7058 24.2678 47.7058 22.6084 48.7844 22.6084H57.8693C58.9478 22.6084 58.9478 24.2678 57.8693 24.2678Z" fill="url(#paint12_linear_0_12553)"/>
<path fill-rule="evenodd" clip-rule="evenodd" d="M57.8693 30.0339H44.2627C43.1427 30.0339 43.1427 28.3746 44.2627 28.3746H57.8693C58.9478 28.3746 58.9478 30.0339 57.8693 30.0339Z" fill="url(#paint13_linear_0_12553)"/>
<path fill-rule="evenodd" clip-rule="evenodd" d="M57.8693 35.8001H44.2627C43.1427 35.8001 43.1427 34.1408 44.2627 34.1408H57.8693C58.9478 34.1408 58.9478 35.8001 57.8693 35.8001Z" fill="url(#paint14_linear_0_12553)"/>
<path fill-rule="evenodd" clip-rule="evenodd" d="M21.9862 30.0339H12.9428C11.8228 30.0339 11.8228 28.3746 12.9428 28.3746H21.9862C23.1062 28.3746 23.1062 30.0339 21.9862 30.0339Z" fill="url(#paint15_linear_0_12553)"/>
<path fill-rule="evenodd" clip-rule="evenodd" d="M24.3092 35.8001H12.9428C11.8228 35.8001 11.8228 34.1408 12.9428 34.1408H24.3092C25.3878 34.1408 25.3878 35.8001 24.3092 35.8001Z" fill="url(#paint16_linear_0_12553)"/>
<defs>
<linearGradient id="paint0_linear_0_12553" x1="13.6796" y1="-51.2368" x2="77.8402" y2="-43.5907" gradientUnits="userSpaceOnUse">
<stop stop-color="#F93C3C"/>
<stop offset="1" stop-color="#CD0973"/>
</linearGradient>
<linearGradient id="paint1_linear_0_12553" x1="13.6796" y1="-51.2368" x2="77.8402" y2="-43.5907" gradientUnits="userSpaceOnUse">
<stop stop-color="#F93C3C"/>
<stop offset="1" stop-color="#CD0973"/>
</linearGradient>
<linearGradient id="paint2_linear_0_12553" x1="13.6796" y1="-51.2368" x2="77.8402" y2="-43.5907" gradientUnits="userSpaceOnUse">
<stop stop-color="#F93C3C"/>
<stop offset="1" stop-color="#CD0973"/>
</linearGradient>
<linearGradient id="paint3_linear_0_12553" x1="13.6796" y1="-51.2368" x2="77.8402" y2="-43.5907" gradientUnits="userSpaceOnUse">
<stop stop-color="#F93C3C"/>
<stop offset="1" stop-color="#CD0973"/>
</linearGradient>
<linearGradient id="paint4_linear_0_12553" x1="13.6796" y1="-51.2368" x2="77.8402" y2="-43.5907" gradientUnits="userSpaceOnUse">
<stop stop-color="#F93C3C"/>
<stop offset="1" stop-color="#CD0973"/>
</linearGradient>
<linearGradient id="paint5_linear_0_12553" x1="13.6796" y1="-51.2368" x2="77.8402" y2="-43.5907" gradientUnits="userSpaceOnUse">
<stop stop-color="#F93C3C"/>
<stop offset="1" stop-color="#CD0973"/>
</linearGradient>
<linearGradient id="paint6_linear_0_12553" x1="13.6796" y1="-51.2368" x2="77.8402" y2="-43.5907" gradientUnits="userSpaceOnUse">
<stop stop-color="#F93C3C"/>
<stop offset="1" stop-color="#CD0973"/>
</linearGradient>
<linearGradient id="paint7_linear_0_12553" x1="13.6796" y1="-51.2368" x2="77.8402" y2="-43.5907" gradientUnits="userSpaceOnUse">
<stop stop-color="#F93C3C"/>
<stop offset="1" stop-color="#CD0973"/>
</linearGradient>
<linearGradient id="paint8_linear_0_12553" x1="13.6796" y1="-51.2368" x2="77.8402" y2="-43.5907" gradientUnits="userSpaceOnUse">
<stop stop-color="#F93C3C"/>
<stop offset="1" stop-color="#CD0973"/>
</linearGradient>
<linearGradient id="paint9_linear_0_12553" x1="13.6796" y1="-51.2368" x2="77.8402" y2="-43.5907" gradientUnits="userSpaceOnUse">
<stop stop-color="#F93C3C"/>
<stop offset="1" stop-color="#CD0973"/>
</linearGradient>
<linearGradient id="paint10_linear_0_12553" x1="13.6796" y1="-51.2368" x2="77.8402" y2="-43.5907" gradientUnits="userSpaceOnUse">
<stop stop-color="#F93C3C"/>
<stop offset="1" stop-color="#CD0973"/>
</linearGradient>
<linearGradient id="paint11_linear_0_12553" x1="13.6796" y1="-51.2368" x2="77.8402" y2="-43.5907" gradientUnits="userSpaceOnUse">
<stop stop-color="#F93C3C"/>
<stop offset="1" stop-color="#CD0973"/>
</linearGradient>
<linearGradient id="paint12_linear_0_12553" x1="13.6796" y1="-51.2368" x2="77.8402" y2="-43.5907" gradientUnits="userSpaceOnUse">
<stop stop-color="#F93C3C"/>
<stop offset="1" stop-color="#CD0973"/>
</linearGradient>
<linearGradient id="paint13_linear_0_12553" x1="13.6796" y1="-51.2368" x2="77.8402" y2="-43.5907" gradientUnits="userSpaceOnUse">
<stop stop-color="#F93C3C"/>
<stop offset="1" stop-color="#CD0973"/>
</linearGradient>
<linearGradient id="paint14_linear_0_12553" x1="13.6796" y1="-51.2368" x2="77.8402" y2="-43.5907" gradientUnits="userSpaceOnUse">
<stop stop-color="#F93C3C"/>
<stop offset="1" stop-color="#CD0973"/>
</linearGradient>
<linearGradient id="paint15_linear_0_12553" x1="13.6796" y1="-51.2368" x2="77.8402" y2="-43.5907" gradientUnits="userSpaceOnUse">
<stop stop-color="#F93C3C"/>
<stop offset="1" stop-color="#CD0973"/>
</linearGradient>
<linearGradient id="paint16_linear_0_12553" x1="13.6796" y1="-51.2368" x2="77.8402" y2="-43.5907" gradientUnits="userSpaceOnUse">
<stop stop-color="#F93C3C"/>
<stop offset="1" stop-color="#CD0973"/>
</linearGradient>
</defs>
</svg>
