<svg width="66" height="66" viewBox="0 0 66 66" fill="none" xmlns="http://www.w3.org/2000/svg">
<path d="M12.1816 41.3789C12.1816 41.9128 12.6144 42.3457 13.1484 42.3457C13.6825 42.3457 14.1152 41.9128 14.1152 41.3789V39.7286C14.1152 34.5315 18.3283 30.3185 23.5254 30.3185C25.1246 30.3185 26.4258 29.0174 26.4258 27.4181V14.9241C26.4258 13.3248 25.1246 12.0237 23.5254 12.0237H20.3382C16.9013 12.0237 14.1152 9.23761 14.1152 5.80078C14.1152 3.66841 15.85 1.93359 17.9824 1.93359H48.0175C50.1499 1.93359 51.8847 3.66841 51.8847 5.80078V9.92577C51.8847 10.4597 52.3175 10.8926 52.8515 10.8926C53.3856 10.8926 53.8183 10.4597 53.8183 9.92577V5.80078C53.8183 2.60223 51.2161 0 48.0175 0H17.9824C14.7839 0 12.1816 2.60223 12.1816 5.80078C12.1816 9.23761 9.39552 12.0237 5.95869 12.0237H2.90039C1.30118 12.0237 0 13.3248 0 14.9241V27.4181C0 29.0174 1.30118 30.3185 2.90039 30.3185C8.02628 30.3185 12.1816 34.4738 12.1816 39.5997V41.3789ZM2.90039 13.9573H23.5254C24.0585 13.9573 24.4922 14.391 24.4922 14.9241C24.4922 16.3334 23.3497 17.4758 21.9405 17.4758H4.48529C3.07602 17.4758 1.93359 16.3334 1.93359 14.9241C1.93359 14.3911 2.36723 13.9573 2.90039 13.9573ZM1.93359 27.4181C1.93359 26.0088 3.07603 24.8664 4.48529 24.8664H6.96093C7.49499 24.8664 7.92773 24.4335 7.92773 23.8996C7.92773 23.3657 7.49499 22.9328 6.96093 22.9328H3.69529C2.72233 22.9328 1.93359 22.1441 1.93359 21.1711C1.93359 20.1981 2.72233 19.4094 3.69529 19.4094H22.7305C23.7034 19.4094 24.4922 20.1981 24.4922 21.1711C24.4922 22.1441 23.7034 22.9328 22.7305 22.9328H11.4726C10.9386 22.9328 10.5059 23.3657 10.5059 23.8996C10.5059 24.4335 10.9386 24.8664 11.4726 24.8664H21.9405C23.3497 24.8664 24.4922 26.0088 24.4922 27.4181C24.4922 27.9512 24.0585 28.3849 23.5254 28.3849H2.90039C2.36723 28.3849 1.93359 27.9512 1.93359 27.4181Z" fill="url(#paint0_linear_0_6521)"/>
<path d="M34.6758 5.80078C35.2098 5.80078 35.6426 5.36791 35.6426 4.83398C35.6426 4.30005 35.2098 3.86718 34.6758 3.86718H28.2304C27.6964 3.86718 27.2637 4.30005 27.2637 4.83398C27.2637 5.36791 27.6964 5.80078 28.2304 5.80078H34.6758Z" fill="url(#paint1_linear_0_6521)"/>
<path d="M63.0996 29.8808C57.9737 29.8808 53.8183 25.7254 53.8183 20.5995V14.655C53.8183 14.1211 53.3856 13.6882 52.8515 13.6882C52.3175 13.6882 51.8847 14.1211 51.8847 14.655V20.4706C51.8847 25.6677 47.6717 29.8808 42.4746 29.8808C40.8754 29.8808 39.5742 31.1818 39.5742 32.7811V45.2751C39.5742 46.8745 40.8754 48.1755 42.4746 48.1755C47.6717 48.1755 51.8847 52.3886 51.8847 57.5857V60.1992C51.8847 62.3316 50.1499 64.0664 48.0175 64.0664H17.9824C15.85 64.0664 14.1152 62.3316 14.1152 60.1992V45.8906C14.1152 45.3567 13.6825 44.9238 13.1484 44.9238C12.6144 44.9238 12.1816 45.3567 12.1816 45.8906V60.1992C12.1816 63.3978 14.7839 66 17.9824 66H48.0175C51.2161 66 53.8183 63.3978 53.8183 60.1992V57.4568C53.8183 52.3309 57.9737 48.1755 63.0996 48.1755C64.6988 48.1755 65.9999 46.8745 65.9999 45.2751V32.7811C65.9999 31.1818 64.6988 29.8808 63.0996 29.8808ZM41.5078 39.0281C41.5078 38.0552 42.2965 37.2664 43.2695 37.2664H62.3047C63.2776 37.2664 64.0664 38.0552 64.0664 39.0281C64.0664 40.0011 63.2776 40.7898 62.3047 40.7898H43.2695C42.2965 40.7898 41.5078 40.0011 41.5078 39.0281ZM42.4746 31.8143H63.0996C63.6327 31.8143 64.0664 32.248 64.0664 32.7811C64.0664 34.1904 62.9239 35.3328 61.5147 35.3328H44.0595C42.6502 35.3328 41.5078 34.1904 41.5078 32.7811C41.5078 32.248 41.9414 31.8143 42.4746 31.8143ZM63.0996 46.2419H42.4746C41.9414 46.2419 41.5078 45.8083 41.5078 45.2751C41.5078 43.8658 42.6502 42.7234 44.0595 42.7234H61.5147C62.9239 42.7234 64.0664 43.8658 64.0664 45.2751C64.0664 45.8081 63.6327 46.2419 63.0996 46.2419Z" fill="url(#paint2_linear_0_6521)"/>
<path d="M19.3359 35.0964C19.3359 35.6303 19.7687 36.0632 20.3027 36.0632H36.0293C36.5633 36.0632 36.9961 35.6303 36.9961 35.0964C36.9961 34.5625 36.5633 34.1296 36.0293 34.1296H20.3027C19.7687 34.1296 19.3359 34.5625 19.3359 35.0964Z" fill="url(#paint3_linear_0_6521)"/>
<path d="M16.7578 39.0925C16.7578 39.6264 17.1905 40.0593 17.7246 40.0593H36.0293C36.5633 40.0593 36.9961 39.6264 36.9961 39.0925C36.9961 38.5586 36.5633 38.1257 36.0293 38.1257H17.7246C17.1905 38.1257 16.7578 38.5586 16.7578 39.0925Z" fill="url(#paint4_linear_0_6521)"/>
<path d="M17.7246 43.9265H28.2949C28.829 43.9265 29.2617 43.4936 29.2617 42.9597C29.2617 42.4258 28.829 41.9929 28.2949 41.9929H17.7246C17.1905 41.9929 16.7578 42.4258 16.7578 42.9597C16.7578 43.4936 17.1905 43.9265 17.7246 43.9265Z" fill="url(#paint5_linear_0_6521)"/>
<path d="M48.2754 16.2727H32.5488C32.0147 16.2727 31.582 16.7056 31.582 17.2395C31.582 17.7734 32.0147 18.2063 32.5488 18.2063H48.2754C48.8094 18.2063 49.2421 17.7734 49.2421 17.2395C49.2421 16.7056 48.8094 16.2727 48.2754 16.2727Z" fill="url(#paint6_linear_0_6521)"/>
<path d="M49.2421 21.2356C49.2421 20.7016 48.8094 20.2688 48.2754 20.2688H29.9707C29.4366 20.2688 29.0039 20.7016 29.0039 21.2356C29.0039 21.7695 29.4366 22.2024 29.9707 22.2024H48.2754C48.8094 22.2024 49.2421 21.7695 49.2421 21.2356Z" fill="url(#paint7_linear_0_6521)"/>
<path d="M41.5078 25.1028C41.5078 24.5688 41.075 24.136 40.541 24.136H29.9707C29.4366 24.136 29.0039 24.5688 29.0039 25.1028C29.0039 25.6367 29.4366 26.0695 29.9707 26.0695H40.541C41.075 26.0695 41.5078 25.6367 41.5078 25.1028Z" fill="url(#paint8_linear_0_6521)"/>
<path d="M26.748 61.4882H39.123C40.3668 61.4882 41.3789 60.4762 41.3789 59.2324V56.6543C41.3789 55.4104 40.3668 54.3984 39.123 54.3984H35.3203C34.7862 54.3984 34.3535 54.8313 34.3535 55.3652C34.3535 55.8991 34.7862 56.332 35.3203 56.332H39.123C39.3008 56.332 39.4453 56.4766 39.4453 56.6543V59.2324C39.4453 59.41 39.3008 59.5546 39.123 59.5546H26.748C26.5703 59.5546 26.4258 59.41 26.4258 59.2324V56.6543C26.4258 56.4766 26.5703 56.332 26.748 56.332H30.8086C31.3426 56.332 31.7754 55.8991 31.7754 55.3652C31.7754 54.8313 31.3426 54.3984 30.8086 54.3984H26.748C25.5042 54.3984 24.4922 55.4104 24.4922 56.6543V59.2324C24.4922 60.4762 25.5042 61.4882 26.748 61.4882Z" fill="url(#paint9_linear_0_6521)"/>
<path d="M37.8984 5.80078C38.4324 5.80078 38.8652 5.36793 38.8652 4.83398C38.8652 4.30003 38.4324 3.86718 37.8984 3.86718C37.3645 3.86718 36.9316 4.30003 36.9316 4.83398C36.9316 5.36793 37.3645 5.80078 37.8984 5.80078Z" fill="url(#paint10_linear_0_6521)"/>
<defs>
<linearGradient id="paint0_linear_0_6521" x1="12.75" y1="-51.2368" x2="72.6606" y2="-44.5823" gradientUnits="userSpaceOnUse">
<stop stop-color="#F93C3C"/>
<stop offset="1" stop-color="#CD0973"/>
</linearGradient>
<linearGradient id="paint1_linear_0_6521" x1="12.75" y1="-51.2368" x2="72.6606" y2="-44.5823" gradientUnits="userSpaceOnUse">
<stop stop-color="#F93C3C"/>
<stop offset="1" stop-color="#CD0973"/>
</linearGradient>
<linearGradient id="paint2_linear_0_6521" x1="12.75" y1="-51.2368" x2="72.6606" y2="-44.5823" gradientUnits="userSpaceOnUse">
<stop stop-color="#F93C3C"/>
<stop offset="1" stop-color="#CD0973"/>
</linearGradient>
<linearGradient id="paint3_linear_0_6521" x1="12.75" y1="-51.2368" x2="72.6606" y2="-44.5823" gradientUnits="userSpaceOnUse">
<stop stop-color="#F93C3C"/>
<stop offset="1" stop-color="#CD0973"/>
</linearGradient>
<linearGradient id="paint4_linear_0_6521" x1="12.75" y1="-51.2368" x2="72.6606" y2="-44.5823" gradientUnits="userSpaceOnUse">
<stop stop-color="#F93C3C"/>
<stop offset="1" stop-color="#CD0973"/>
</linearGradient>
<linearGradient id="paint5_linear_0_6521" x1="12.75" y1="-51.2368" x2="72.6606" y2="-44.5823" gradientUnits="userSpaceOnUse">
<stop stop-color="#F93C3C"/>
<stop offset="1" stop-color="#CD0973"/>
</linearGradient>
<linearGradient id="paint6_linear_0_6521" x1="12.75" y1="-51.2368" x2="72.6606" y2="-44.5823" gradientUnits="userSpaceOnUse">
<stop stop-color="#F93C3C"/>
<stop offset="1" stop-color="#CD0973"/>
</linearGradient>
<linearGradient id="paint7_linear_0_6521" x1="12.75" y1="-51.2368" x2="72.6606" y2="-44.5823" gradientUnits="userSpaceOnUse">
<stop stop-color="#F93C3C"/>
<stop offset="1" stop-color="#CD0973"/>
</linearGradient>
<linearGradient id="paint8_linear_0_6521" x1="12.75" y1="-51.2368" x2="72.6606" y2="-44.5823" gradientUnits="userSpaceOnUse">
<stop stop-color="#F93C3C"/>
<stop offset="1" stop-color="#CD0973"/>
</linearGradient>
<linearGradient id="paint9_linear_0_6521" x1="12.75" y1="-51.2368" x2="72.6606" y2="-44.5823" gradientUnits="userSpaceOnUse">
<stop stop-color="#F93C3C"/>
<stop offset="1" stop-color="#CD0973"/>
</linearGradient>
<linearGradient id="paint10_linear_0_6521" x1="12.75" y1="-51.2368" x2="72.6606" y2="-44.5823" gradientUnits="userSpaceOnUse">
<stop stop-color="#F93C3C"/>
<stop offset="1" stop-color="#CD0973"/>
</linearGradient>
</defs>
</svg>
