<svg width="226" height="55" viewBox="0 0 226 55" fill="none" xmlns="http://www.w3.org/2000/svg">
<g filter="url(#filter0_i_2001_2)">
<path fill-rule="evenodd" clip-rule="evenodd" d="M39.0957 2.12988C46.8433 13.9855 16.3087 45.9916 3.55662 39.3799C-0.164654 37.4505 -0.293063 37.5559 0.216264 42.093C2.26477 60.3141 28.7325 51.6719 45.0887 27.4413C54.1376 14.0356 52.3184 0 41.5312 0H40.2482C39.1543 0 38.4973 1.21418 39.0957 2.12988ZM18.2711 3.69122C7.27789 9.58663 -1.04197 23.2568 4.02889 27.0923C6.8444 29.2213 10.47 28.4514 15.6788 24.6185C30.5552 13.6736 32.7537 -4.07486 18.2711 3.69122ZM53.7636 26.3717C51.8875 33.8673 40.2402 46.6086 31.099 51.1656C27.9681 52.726 25.2448 54.0999 25.0466 54.2191C22.8903 55.5169 27.0037 55.1151 31.2024 53.6186C43.9701 49.0676 56 34.9257 56 24.4682C56 23.1367 54.1876 24.679 53.7636 26.3717Z" fill="url(#paint0_linear_2001_2)"/>
</g>
<path d="M74.9566 41C74.6968 41 74.4724 40.9167 74.2834 40.75C74.0945 40.5595 74 40.3333 74 40.0714V16.9286C74 16.6667 74.0945 16.4524 74.2834 16.2857C74.4724 16.0952 74.6968 16 74.9566 16H79.6689C80.094 16 80.4129 16.119 80.6255 16.3571C80.8381 16.5952 80.9798 16.7619 81.0507 16.8571L86.7195 26.7857L92.3884 16.8571C92.4593 16.7619 92.601 16.5952 92.8136 16.3571C93.0262 16.119 93.345 16 93.7702 16H98.4825C98.7423 16 98.9549 16.0952 99.1202 16.2857C99.3092 16.4524 99.4036 16.6667 99.4036 16.9286V40.0714C99.4036 40.3333 99.3092 40.5595 99.1202 40.75C98.9549 40.9167 98.7423 41 98.4825 41H93.1679C92.9081 41 92.6837 40.9167 92.4947 40.75C92.3294 40.5595 92.2467 40.3333 92.2467 40.0714V28.5L89.0579 34.1429C88.9398 34.3333 88.7863 34.5238 88.5974 34.7143C88.4084 34.9048 88.1368 35 87.7825 35H85.6212C85.2905 35 85.0307 34.9048 84.8417 34.7143C84.6528 34.5238 84.4992 34.3333 84.3811 34.1429L81.1924 28.5V40.0714C81.1924 40.3333 81.0979 40.5595 80.9089 40.75C80.7436 40.9167 80.531 41 80.2712 41H74.9566Z" fill="#2D3030"/>
<path d="M104.746 41C104.51 41 104.298 40.9167 104.109 40.75C103.92 40.5595 103.825 40.3333 103.825 40.0714V16.9286C103.825 16.6667 103.92 16.4524 104.109 16.2857C104.298 16.0952 104.51 16 104.746 16H110.77C111.029 16 111.242 16.0952 111.407 16.2857C111.596 16.4524 111.691 16.6667 111.691 16.9286V40.0714C111.691 40.3333 111.596 40.5595 111.407 40.75C111.242 40.9167 111.029 41 110.77 41H104.746Z" fill="#2D3030"/>
<path d="M116.995 41C116.759 41 116.546 40.9167 116.357 40.75C116.168 40.5595 116.074 40.3333 116.074 40.0714V16.9286C116.074 16.6667 116.168 16.4524 116.357 16.2857C116.546 16.0952 116.759 16 116.995 16H127.093C130.305 16 132.82 16.7381 134.639 18.2143C136.482 19.6905 137.403 21.75 137.403 24.3929C137.403 26.0595 137.025 27.4762 136.269 28.6429C135.513 29.8095 134.521 30.7262 133.293 31.3929L137.899 39.8214C137.97 39.9643 138.005 40.0952 138.005 40.2143C138.005 40.4286 137.934 40.619 137.793 40.7857C137.651 40.9286 137.474 41 137.261 41H131.273C130.825 41 130.482 40.8929 130.246 40.6786C130.01 40.4405 129.856 40.2262 129.785 40.0357L126.242 32.6786H123.691V40.0714C123.691 40.3333 123.597 40.5595 123.408 40.75C123.242 40.9167 123.03 41 122.77 41H116.995ZM123.691 26.7857H127.057C127.884 26.7857 128.498 26.5595 128.9 26.1071C129.301 25.631 129.502 25.0476 129.502 24.3571C129.502 23.6429 129.301 23.0357 128.9 22.5357C128.522 22.0357 127.907 21.7857 127.057 21.7857H123.691V26.7857Z" fill="#2D3030"/>
<path d="M142.045 41C141.809 41 141.597 40.9167 141.408 40.75C141.219 40.5595 141.124 40.3333 141.124 40.0714V16.9286C141.124 16.6667 141.219 16.4524 141.408 16.2857C141.597 16.0952 141.809 16 142.045 16H148.068C148.328 16 148.541 16.0952 148.706 16.2857C148.895 16.4524 148.99 16.6667 148.99 16.9286V40.0714C148.99 40.3333 148.895 40.5595 148.706 40.75C148.541 40.9167 148.328 41 148.068 41H142.045Z" fill="#2D3030"/>
<path d="M154.294 41C154.058 41 153.845 40.9167 153.656 40.75C153.467 40.5595 153.373 40.3333 153.373 40.0714V16.9286C153.373 16.6667 153.467 16.4524 153.656 16.2857C153.845 16.0952 154.058 16 154.294 16H164.002C166.293 16 168.277 16.381 169.954 17.1429C171.631 17.881 172.954 18.9762 173.922 20.4286C174.891 21.881 175.41 23.6667 175.481 25.7857C175.528 26.8095 175.552 27.7143 175.552 28.5C175.552 29.2857 175.528 30.1786 175.481 31.1786C175.387 33.4167 174.879 35.2619 173.958 36.7143C173.06 38.1667 171.785 39.25 170.131 39.9643C168.478 40.6548 166.494 41 164.179 41H154.294ZM160.99 34.9286H164.002C164.781 34.9286 165.443 34.7976 165.986 34.5357C166.529 34.2738 166.954 33.869 167.261 33.3214C167.568 32.75 167.734 32.0238 167.757 31.1429C167.781 30.4524 167.793 29.8333 167.793 29.2857C167.816 28.7381 167.816 28.1905 167.793 27.6429C167.793 27.0952 167.781 26.4881 167.757 25.8214C167.71 24.5119 167.332 23.5595 166.624 22.9643C165.939 22.369 165.006 22.0714 163.825 22.0714H160.99V34.9286Z" fill="#2D3030"/>
<path d="M180.071 41C179.835 41 179.622 40.9167 179.433 40.75C179.244 40.5595 179.15 40.3333 179.15 40.0714V16.9286C179.15 16.6667 179.244 16.4524 179.433 16.2857C179.622 16.0952 179.835 16 180.071 16H197.432C197.692 16 197.916 16.0952 198.105 16.2857C198.294 16.4524 198.388 16.6667 198.388 16.9286V21.1429C198.388 21.381 198.294 21.5952 198.105 21.7857C197.916 21.9762 197.692 22.0714 197.432 22.0714H186.484V25.6071H196.652C196.912 25.6071 197.136 25.7024 197.325 25.8929C197.514 26.0595 197.609 26.2738 197.609 26.5357V30.3929C197.609 30.6548 197.514 30.881 197.325 31.0714C197.136 31.2381 196.912 31.3214 196.652 31.3214H186.484V34.9286H197.715C197.975 34.9286 198.199 35.0238 198.388 35.2143C198.577 35.4048 198.672 35.631 198.672 35.8929V40.0714C198.672 40.3333 198.577 40.5595 198.388 40.75C198.199 40.9167 197.975 41 197.715 41H180.071Z" fill="#2D3030"/>
<path d="M201.022 41C200.809 41 200.632 40.9286 200.49 40.7857C200.348 40.619 200.277 40.4286 200.277 40.2143C200.277 40.119 200.289 40.0357 200.313 39.9643L208.391 17.1071C208.486 16.8452 208.651 16.5952 208.887 16.3571C209.123 16.119 209.454 16 209.879 16H216.363C216.812 16 217.154 16.119 217.39 16.3571C217.627 16.5952 217.78 16.8452 217.851 17.1071L225.965 39.9643C225.988 40.0357 226 40.119 226 40.2143C226 40.4286 225.917 40.619 225.752 40.7857C225.61 40.9286 225.433 41 225.221 41H219.764C219.363 41 219.067 40.9048 218.878 40.7143C218.69 40.5238 218.56 40.3452 218.489 40.1786L217.39 37.1786H208.852L207.753 40.1786C207.682 40.3452 207.553 40.5238 207.364 40.7143C207.198 40.9048 206.903 41 206.478 41H201.022ZM210.481 31.1429H215.761L213.103 23.1071L210.481 31.1429Z" fill="#2D3030"/>
<defs>
<filter id="filter0_i_2001_2" x="0" y="0" width="56" height="59" filterUnits="userSpaceOnUse" color-interpolation-filters="sRGB">
<feFlood flood-opacity="0" result="BackgroundImageFix"/>
<feBlend mode="normal" in="SourceGraphic" in2="BackgroundImageFix" result="shape"/>
<feColorMatrix in="SourceAlpha" type="matrix" values="0 0 0 0 0 0 0 0 0 0 0 0 0 0 0 0 0 0 127 0" result="hardAlpha"/>
<feOffset dy="4"/>
<feGaussianBlur stdDeviation="2"/>
<feComposite in2="hardAlpha" operator="arithmetic" k2="-1" k3="1"/>
<feColorMatrix type="matrix" values="0 0 0 0 0.4375 0 0 0 0 0.0627086 0 0 0 0 0.107684 0 0 0 0.25 0"/>
<feBlend mode="normal" in2="shape" result="effect1_innerShadow_2001_2"/>
</filter>
<linearGradient id="paint0_linear_2001_2" x1="56.5256" y1="0.303596" x2="67.5696" y2="16.3453" gradientUnits="userSpaceOnUse">
<stop stop-color="#F93C3C"/>
<stop offset="1" stop-color="#CD0973"/>
</linearGradient>
</defs>
</svg>
