<svg width="361" height="72" viewBox="0 0 361 72" fill="none" xmlns="http://www.w3.org/2000/svg">
<mask id="mask0_0_91" style="mask-type:alpha" maskUnits="userSpaceOnUse" x="0" y="0" width="361" height="72">
<path d="M2.475 70.29C1.815 70.29 1.221 70.059 0.693001 69.597C0.231 69.069 0 68.475 0 67.815V3.465C0 2.739 0.231 2.145 0.693001 1.683C1.221 1.221 1.815 0.989999 2.475 0.989999H28.215C37.917 0.989999 45.441 3.3 50.787 7.92C56.133 12.54 58.938 19.239 59.202 28.017C59.268 29.931 59.301 32.472 59.301 35.64C59.301 38.808 59.268 41.316 59.202 43.164C58.872 52.338 56.133 59.169 50.985 63.657C45.903 68.079 38.478 70.29 28.71 70.29H2.475ZM28.215 56.034C32.571 56.034 35.772 55.011 37.818 52.965C39.864 50.853 40.953 47.52 41.085 42.966C41.217 41.052 41.283 38.577 41.283 35.541C41.283 32.505 41.217 30.063 41.085 28.215C40.953 23.793 39.765 20.526 37.521 18.414C35.343 16.302 32.076 15.246 27.72 15.246H17.82V56.034H28.215Z" fill="url(#paint0_linear_0_91)"/>
<path d="M73.3412 70.29C72.6812 70.29 72.0872 70.059 71.5592 69.597C71.0972 69.069 70.8662 68.475 70.8662 67.815V3.465C70.8662 2.739 71.0972 2.145 71.5592 1.683C72.0872 1.221 72.6812 0.989999 73.3412 0.989999H119.574C120.3 0.989999 120.894 1.221 121.356 1.683C121.818 2.145 122.049 2.739 122.049 3.465V12.771C122.049 13.431 121.818 14.025 121.356 14.553C120.894 15.015 120.3 15.246 119.574 15.246H87.9932V28.611H117.396C118.122 28.611 118.716 28.875 119.178 29.403C119.64 29.865 119.871 30.459 119.871 31.185V39.798C119.871 40.458 119.64 41.052 119.178 41.58C118.716 42.042 118.122 42.273 117.396 42.273H87.9932V56.034H120.366C121.092 56.034 121.686 56.265 122.148 56.727C122.61 57.189 122.841 57.783 122.841 58.509V67.815C122.841 68.475 122.61 69.069 122.148 69.597C121.686 70.059 121.092 70.29 120.366 70.29H73.3412Z" fill="url(#paint1_linear_0_91)"/>
<path d="M159.934 71.28C153.664 71.28 148.285 70.356 143.797 68.508C139.309 66.66 135.91 64.251 133.6 61.281C131.356 58.245 130.168 54.945 130.036 51.381C130.036 50.853 130.234 50.391 130.63 49.995C131.092 49.533 131.62 49.302 132.214 49.302H144.688C145.48 49.302 146.107 49.467 146.569 49.797C147.097 50.061 147.625 50.49 148.153 51.084C149.011 52.8 150.397 54.219 152.311 55.341C154.225 56.463 156.766 57.024 159.934 57.024C163.696 57.024 166.567 56.43 168.547 55.242C170.527 54.054 171.517 52.437 171.517 50.391C171.517 48.939 170.989 47.751 169.933 46.827C168.943 45.903 167.359 45.078 165.181 44.352C163.003 43.626 159.769 42.801 155.479 41.877C147.559 40.227 141.619 37.818 137.659 34.65C133.765 31.416 131.818 26.829 131.818 20.889C131.818 16.863 132.94 13.266 135.184 10.098C137.428 6.93 140.629 4.455 144.787 2.673C148.945 0.891 153.796 0 159.34 0C165.082 0 170.065 0.990001 174.289 2.97C178.513 4.95 181.714 7.458 183.892 10.494C186.136 13.464 187.324 16.401 187.456 19.305C187.456 19.899 187.258 20.394 186.862 20.79C186.466 21.186 185.971 21.384 185.377 21.384H172.309C171.517 21.384 170.857 21.252 170.329 20.988C169.867 20.724 169.438 20.295 169.042 19.701C168.646 18.183 167.557 16.896 165.775 15.84C164.059 14.784 161.914 14.256 159.34 14.256C156.37 14.256 154.093 14.784 152.509 15.84C150.925 16.896 150.133 18.447 150.133 20.493C150.133 21.879 150.562 23.034 151.42 23.958C152.344 24.882 153.796 25.74 155.776 26.532C157.822 27.258 160.726 28.017 164.488 28.809C170.626 29.931 175.51 31.35 179.14 33.066C182.836 34.716 185.542 36.894 187.258 39.6C188.974 42.24 189.832 45.573 189.832 49.599C189.832 54.021 188.545 57.882 185.971 61.182C183.463 64.416 179.932 66.924 175.378 68.706C170.89 70.422 165.742 71.28 159.934 71.28Z" fill="url(#paint2_linear_0_91)"/>
<path d="M202.215 70.29C201.555 70.29 200.961 70.059 200.433 69.597C199.971 69.069 199.74 68.475 199.74 67.815V3.465C199.74 2.739 199.971 2.145 200.433 1.683C200.961 1.221 201.555 0.989999 202.215 0.989999H215.481C216.207 0.989999 216.801 1.221 217.263 1.683C217.791 2.145 218.055 2.739 218.055 3.465V67.815C218.055 68.541 217.791 69.135 217.263 69.597C216.801 70.059 216.207 70.29 215.481 70.29H202.215Z" fill="url(#paint3_linear_0_91)"/>
<path d="M260.449 71.28C250.945 71.28 243.52 68.97 238.174 64.35C232.828 59.664 229.99 53.031 229.66 44.451C229.594 42.537 229.561 39.501 229.561 35.343C229.561 31.185 229.594 28.149 229.66 26.235C229.99 17.853 232.861 11.385 238.273 6.831C243.751 2.277 251.143 0 260.449 0C266.719 0 272.164 1.023 276.784 3.069C281.47 5.115 285.034 7.722 287.476 10.89C289.984 14.058 291.304 17.325 291.436 20.691C291.436 21.285 291.205 21.78 290.743 22.176C290.347 22.572 289.852 22.77 289.258 22.77H274.804C274.144 22.77 273.616 22.671 273.22 22.473C272.824 22.275 272.494 21.912 272.23 21.384C271.372 19.47 270.019 17.82 268.171 16.434C266.323 14.982 263.749 14.256 260.449 14.256C252.595 14.256 248.47 18.414 248.074 26.73C248.008 28.578 247.975 31.449 247.975 35.343C247.975 39.171 248.008 42.042 248.074 43.956C248.47 52.668 252.694 57.024 260.746 57.024C264.64 57.024 267.742 56.034 270.052 54.054C272.428 52.008 273.616 48.906 273.616 44.748V42.867H264.31C263.584 42.867 262.99 42.636 262.528 42.174C262.066 41.646 261.835 41.019 261.835 40.293V32.967C261.835 32.241 262.066 31.647 262.528 31.185C262.99 30.657 263.584 30.393 264.31 30.393H289.258C289.984 30.393 290.578 30.657 291.04 31.185C291.502 31.647 291.733 32.241 291.733 32.967V44.253C291.733 49.863 290.446 54.714 287.872 58.806C285.298 62.832 281.635 65.934 276.883 68.112C272.197 70.224 266.719 71.28 260.449 71.28Z" fill="url(#paint4_linear_0_91)"/>
<path d="M305.566 70.29C304.906 70.29 304.312 70.059 303.784 69.597C303.322 69.069 303.091 68.475 303.091 67.815V3.465C303.091 2.739 303.322 2.145 303.784 1.683C304.312 1.221 304.906 0.989999 305.566 0.989999H316.06C317.71 0.989999 318.832 1.617 319.426 2.871L343.582 40.887V3.465C343.582 2.739 343.813 2.145 344.275 1.683C344.803 1.221 345.397 0.989999 346.057 0.989999H357.937C358.663 0.989999 359.257 1.221 359.719 1.683C360.181 2.145 360.412 2.739 360.412 3.465V67.716C360.412 68.442 360.181 69.069 359.719 69.597C359.257 70.059 358.663 70.29 357.937 70.29H347.344C345.892 70.29 344.803 69.663 344.077 68.409L319.921 31.779V67.815C319.921 68.475 319.69 69.069 319.228 69.597C318.766 70.059 318.172 70.29 317.446 70.29H305.566Z" fill="url(#paint5_linear_0_91)"/>
</mask>
<g mask="url(#mask0_0_91)">
<g filter="url(#filter0_i_0_91)">
<path d="M2.47507 70.29C1.81507 70.29 1.22107 70.059 0.693069 69.597C0.231069 69.069 6.83889e-05 68.475 6.83889e-05 67.815V3.46504C6.83889e-05 2.73904 0.231069 2.14504 0.693069 1.68304C1.22107 1.22104 1.81507 0.990034 2.47507 0.990034H28.2151C37.9171 0.990034 45.4411 3.30003 50.7871 7.92003C56.1331 12.54 58.9381 19.239 59.2021 28.017C59.2681 29.931 59.3011 32.472 59.3011 35.64C59.3011 38.808 59.2681 41.316 59.2021 43.164C58.8721 52.338 56.1331 59.169 50.9851 63.657C45.9031 68.079 38.4781 70.29 28.7101 70.29H2.47507ZM28.2151 56.034C32.5711 56.034 35.7721 55.011 37.8181 52.965C39.8641 50.853 40.9531 47.52 41.0851 42.966C41.2171 41.052 41.2831 38.577 41.2831 35.541C41.2831 32.505 41.2171 30.063 41.0851 28.215C40.9531 23.793 39.7651 20.526 37.5211 18.414C35.3431 16.302 32.0761 15.246 27.7201 15.246H17.8201V56.034H28.2151ZM73.3413 70.29C72.6813 70.29 72.0873 70.059 71.5593 69.597C71.0973 69.069 70.8663 68.475 70.8663 67.815V3.46504C70.8663 2.73904 71.0973 2.14504 71.5593 1.68304C72.0873 1.22104 72.6813 0.990034 73.3413 0.990034H119.574C120.3 0.990034 120.894 1.22104 121.356 1.68304C121.818 2.14504 122.049 2.73904 122.049 3.46504V12.771C122.049 13.431 121.818 14.025 121.356 14.553C120.894 15.015 120.3 15.246 119.574 15.246H87.9933V28.611H117.396C118.122 28.611 118.716 28.875 119.178 29.403C119.64 29.865 119.871 30.459 119.871 31.185V39.798C119.871 40.458 119.64 41.052 119.178 41.58C118.716 42.042 118.122 42.273 117.396 42.273H87.9933V56.034H120.366C121.092 56.034 121.686 56.265 122.148 56.727C122.61 57.189 122.841 57.783 122.841 58.509V67.815C122.841 68.475 122.61 69.069 122.148 69.597C121.686 70.059 121.092 70.29 120.366 70.29H73.3413ZM159.934 71.28C153.664 71.28 148.285 70.356 143.797 68.508C139.309 66.66 135.91 64.251 133.6 61.281C131.356 58.245 130.168 54.945 130.036 51.381C130.036 50.853 130.234 50.391 130.63 49.995C131.092 49.533 131.62 49.302 132.214 49.302H144.688C145.48 49.302 146.107 49.467 146.569 49.797C147.097 50.061 147.625 50.49 148.153 51.084C149.011 52.8 150.397 54.219 152.311 55.341C154.225 56.463 156.766 57.024 159.934 57.024C163.696 57.024 166.567 56.43 168.547 55.242C170.527 54.054 171.517 52.437 171.517 50.391C171.517 48.939 170.989 47.751 169.933 46.827C168.943 45.903 167.359 45.078 165.181 44.352C163.003 43.626 159.769 42.801 155.479 41.877C147.559 40.227 141.619 37.818 137.659 34.65C133.765 31.416 131.818 26.829 131.818 20.889C131.818 16.863 132.94 13.266 135.184 10.098C137.428 6.93004 140.629 4.45504 144.787 2.67304C148.945 0.891036 153.796 3.52859e-05 159.34 3.52859e-05C165.082 3.52859e-05 170.065 0.990036 174.289 2.97004C178.513 4.95004 181.714 7.45804 183.892 10.494C186.136 13.464 187.324 16.401 187.456 19.305C187.456 19.899 187.258 20.394 186.862 20.79C186.466 21.186 185.971 21.384 185.377 21.384H172.309C171.517 21.384 170.857 21.252 170.329 20.988C169.867 20.724 169.438 20.295 169.042 19.701C168.646 18.183 167.557 16.896 165.775 15.84C164.059 14.784 161.914 14.256 159.34 14.256C156.37 14.256 154.093 14.784 152.509 15.84C150.925 16.896 150.133 18.447 150.133 20.493C150.133 21.879 150.562 23.034 151.42 23.958C152.344 24.882 153.796 25.74 155.776 26.532C157.822 27.258 160.726 28.017 164.488 28.809C170.626 29.931 175.51 31.35 179.14 33.066C182.836 34.716 185.542 36.894 187.258 39.6C188.974 42.24 189.832 45.573 189.832 49.599C189.832 54.021 188.545 57.882 185.971 61.182C183.463 64.416 179.932 66.924 175.378 68.706C170.89 70.422 165.742 71.28 159.934 71.28ZM202.215 70.29C201.555 70.29 200.961 70.059 200.433 69.597C199.971 69.069 199.74 68.475 199.74 67.815V3.46504C199.74 2.73904 199.971 2.14504 200.433 1.68304C200.961 1.22104 201.555 0.990034 202.215 0.990034H215.481C216.207 0.990034 216.801 1.22104 217.263 1.68304C217.791 2.14504 218.055 2.73904 218.055 3.46504V67.815C218.055 68.541 217.791 69.135 217.263 69.597C216.801 70.059 216.207 70.29 215.481 70.29H202.215ZM260.449 71.28C250.945 71.28 243.52 68.97 238.174 64.35C232.828 59.664 229.99 53.031 229.66 44.451C229.594 42.537 229.561 39.501 229.561 35.343C229.561 31.185 229.594 28.149 229.66 26.235C229.99 17.853 232.861 11.385 238.273 6.83104C243.751 2.27704 251.143 3.52859e-05 260.449 3.52859e-05C266.719 3.52859e-05 272.164 1.02304 276.784 3.06904C281.47 5.11504 285.034 7.72204 287.476 10.89C289.984 14.058 291.304 17.325 291.436 20.691C291.436 21.285 291.205 21.78 290.743 22.176C290.347 22.572 289.852 22.77 289.258 22.77H274.804C274.144 22.77 273.616 22.671 273.22 22.473C272.824 22.275 272.494 21.912 272.23 21.384C271.372 19.47 270.019 17.82 268.171 16.434C266.323 14.982 263.749 14.256 260.449 14.256C252.595 14.256 248.47 18.414 248.074 26.73C248.008 28.578 247.975 31.449 247.975 35.343C247.975 39.171 248.008 42.042 248.074 43.956C248.47 52.668 252.694 57.024 260.746 57.024C264.64 57.024 267.742 56.034 270.052 54.054C272.428 52.008 273.616 48.906 273.616 44.748V42.867H264.31C263.584 42.867 262.99 42.636 262.528 42.174C262.066 41.646 261.835 41.019 261.835 40.293V32.967C261.835 32.241 262.066 31.647 262.528 31.185C262.99 30.657 263.584 30.393 264.31 30.393H289.258C289.984 30.393 290.578 30.657 291.04 31.185C291.502 31.647 291.733 32.241 291.733 32.967V44.253C291.733 49.863 290.446 54.714 287.872 58.806C285.298 62.832 281.635 65.934 276.883 68.112C272.197 70.224 266.719 71.28 260.449 71.28ZM305.566 70.29C304.906 70.29 304.312 70.059 303.784 69.597C303.322 69.069 303.091 68.475 303.091 67.815V3.46504C303.091 2.73904 303.322 2.14504 303.784 1.68304C304.312 1.22104 304.906 0.990034 305.566 0.990034H316.06C317.71 0.990034 318.832 1.61703 319.426 2.87103L343.582 40.887V3.46504C343.582 2.73904 343.813 2.14504 344.275 1.68304C344.803 1.22104 345.397 0.990034 346.057 0.990034H357.937C358.663 0.990034 359.257 1.22104 359.719 1.68304C360.181 2.14504 360.412 2.73904 360.412 3.46504V67.716C360.412 68.442 360.181 69.069 359.719 69.597C359.257 70.059 358.663 70.29 357.937 70.29H347.344C345.892 70.29 344.803 69.663 344.077 68.409L319.921 31.779V67.815C319.921 68.475 319.69 69.069 319.228 69.597C318.766 70.059 318.172 70.29 317.446 70.29H305.566Z" fill="url(#paint6_linear_0_91)"/>
</g>
<path d="M141.07 -102.71H319.07L199.571 147.29H141.07V-102.71Z" fill="url(#paint7_linear_0_91)"/>
<path d="M60.0701 -129.71H238.07L118.571 120.29H60.0701V-129.71Z" fill="url(#paint8_linear_0_91)"/>
<path d="M203.07 -95.71H381.07L261.571 154.29H203.07V-95.71Z" fill="url(#paint9_linear_0_91)"/>
<path d="M160.07 185.29L-17.9299 185.29L101.569 -64.71L160.07 -64.71L160.07 185.29Z" fill="url(#paint10_linear_0_91)"/>
</g>
<defs>
<filter id="filter0_i_0_91" x="0" y="6.10352e-05" width="360.412" height="75.28" filterUnits="userSpaceOnUse" color-interpolation-filters="sRGB">
<feFlood flood-opacity="0" result="BackgroundImageFix"/>
<feBlend mode="normal" in="SourceGraphic" in2="BackgroundImageFix" result="shape"/>
<feColorMatrix in="SourceAlpha" type="matrix" values="0 0 0 0 0 0 0 0 0 0 0 0 0 0 0 0 0 0 127 0" result="hardAlpha"/>
<feOffset dy="4"/>
<feGaussianBlur stdDeviation="2"/>
<feComposite in2="hardAlpha" operator="arithmetic" k2="-1" k3="1"/>
<feColorMatrix type="matrix" values="0 0 0 0 0.479167 0 0 0 0 0.0786635 0 0 0 0 0.198815 0 0 0 0.25 0"/>
<feBlend mode="normal" in2="shape" result="effect1_innerShadow_0_91"/>
</filter>
<linearGradient id="paint0_linear_0_91" x1="65.5132" y1="-112.539" x2="371.353" y2="-3.65863" gradientUnits="userSpaceOnUse">
<stop stop-color="#E4C627"/>
<stop offset="0.435416" stop-color="#E7CC77"/>
<stop offset="1" stop-color="#CD8A09"/>
</linearGradient>
<linearGradient id="paint1_linear_0_91" x1="65.5132" y1="-112.539" x2="371.353" y2="-3.65863" gradientUnits="userSpaceOnUse">
<stop stop-color="#E4C627"/>
<stop offset="0.435416" stop-color="#E7CC77"/>
<stop offset="1" stop-color="#CD8A09"/>
</linearGradient>
<linearGradient id="paint2_linear_0_91" x1="65.5132" y1="-112.539" x2="371.353" y2="-3.65863" gradientUnits="userSpaceOnUse">
<stop stop-color="#E4C627"/>
<stop offset="0.435416" stop-color="#E7CC77"/>
<stop offset="1" stop-color="#CD8A09"/>
</linearGradient>
<linearGradient id="paint3_linear_0_91" x1="65.5132" y1="-112.539" x2="371.353" y2="-3.65863" gradientUnits="userSpaceOnUse">
<stop stop-color="#E4C627"/>
<stop offset="0.435416" stop-color="#E7CC77"/>
<stop offset="1" stop-color="#CD8A09"/>
</linearGradient>
<linearGradient id="paint4_linear_0_91" x1="65.5132" y1="-112.539" x2="371.353" y2="-3.65863" gradientUnits="userSpaceOnUse">
<stop stop-color="#E4C627"/>
<stop offset="0.435416" stop-color="#E7CC77"/>
<stop offset="1" stop-color="#CD8A09"/>
</linearGradient>
<linearGradient id="paint5_linear_0_91" x1="65.5132" y1="-112.539" x2="371.353" y2="-3.65863" gradientUnits="userSpaceOnUse">
<stop stop-color="#E4C627"/>
<stop offset="0.435416" stop-color="#E7CC77"/>
<stop offset="1" stop-color="#CD8A09"/>
</linearGradient>
<linearGradient id="paint6_linear_0_91" x1="65.5132" y1="-112.539" x2="371.353" y2="-3.65854" gradientUnits="userSpaceOnUse">
<stop stop-color="#F93C3C"/>
<stop offset="1" stop-color="#CD0973"/>
</linearGradient>
<linearGradient id="paint7_linear_0_91" x1="484.254" y1="95.9578" x2="222.224" y2="72.3538" gradientUnits="userSpaceOnUse">
<stop stop-color="white"/>
<stop offset="1" stop-color="white" stop-opacity="0"/>
</linearGradient>
<linearGradient id="paint8_linear_0_91" x1="403.254" y1="68.9578" x2="141.224" y2="45.3538" gradientUnits="userSpaceOnUse">
<stop stop-color="white"/>
<stop offset="1" stop-color="white" stop-opacity="0"/>
</linearGradient>
<linearGradient id="paint9_linear_0_91" x1="546.254" y1="102.958" x2="284.224" y2="79.3538" gradientUnits="userSpaceOnUse">
<stop stop-color="white"/>
<stop offset="1" stop-color="white" stop-opacity="0"/>
</linearGradient>
<linearGradient id="paint10_linear_0_91" x1="-183.114" y1="-13.3777" x2="78.9157" y2="10.2263" gradientUnits="userSpaceOnUse">
<stop stop-color="white"/>
<stop offset="1" stop-color="white" stop-opacity="0"/>
</linearGradient>
</defs>
</svg>
