<svg width="107" height="99" viewBox="0 0 107 99" fill="none" xmlns="http://www.w3.org/2000/svg">
<path d="M99.2011 0H60.8657C60.0031 0 59.3042 0.698919 59.3042 1.56148C59.3042 2.42404 60.0031 3.12296 60.8657 3.12296H99.2011C101.56 3.12296 103.48 5.04234 103.48 7.40142V47.6108C103.48 49.9699 101.56 51.8893 99.2011 51.8893H93.078C92.7491 51.8893 92.4284 51.9932 92.1621 52.1862L86.7362 56.1161C84.5603 57.6921 81.5147 56.1375 81.5147 53.4508C81.5147 52.5882 80.8158 51.8893 79.9532 51.8893H46.0608C43.7015 51.8893 41.7823 49.9699 41.7823 47.6108V7.40142C41.7823 5.04234 43.7017 3.12296 46.0608 3.12296H54.0618C54.9243 3.12296 55.6233 2.42404 55.6233 1.56148C55.6233 0.698919 54.9243 0 54.0618 0H46.0608C41.9795 0 38.6593 3.32013 38.6593 7.40142V47.6108C38.6593 51.6921 41.9797 55.0122 46.0608 55.0122H70.4469C74.8347 55.0122 78.3918 58.5693 78.3918 62.9571C78.3918 63.5438 78.7207 64.0809 79.2433 64.3478C79.7971 64.6118 80.339 64.5698 80.8693 64.2219L89.0351 58.3074C91.9921 56.1656 95.5499 55.0124 99.2011 55.0124C103.282 55.0124 106.603 51.6923 106.603 47.611V7.40142C106.603 3.32033 103.282 0 99.2011 0Z" fill="url(#paint0_linear_0_6474)"/>
<path d="M90.6898 82.5347C90.3642 80.2075 88.9944 78.229 86.9277 77.1028L79.9838 73.3197C79.2266 72.9064 78.2783 73.1862 77.8656 73.9441C77.4534 74.7013 77.7328 75.6496 78.4902 76.062L85.4332 79.845C86.6212 80.4921 87.4084 81.6284 87.5966 82.9648C87.5976 82.9734 87.5987 82.9819 87.5999 82.9902C87.7821 84.3402 87.3226 85.657 86.3399 86.6018C85.7322 87.1853 84.8141 87.3019 84.0798 86.8887L63.1786 75.1279C61.4698 74.1664 61.2223 71.8055 62.6945 70.5105C63.9797 69.3797 65.8506 69.1709 67.3515 69.9908L71.6841 72.352C72.4413 72.7644 73.3896 72.4854 73.8025 71.728C74.2149 70.9708 73.9359 70.0224 73.1785 69.6096L68.8469 67.249C66.1999 65.8037 62.8981 66.1716 60.6321 68.1653L53.6115 74.3407C52.1734 75.6055 50.0746 75.7229 48.5079 74.6255C37.9331 67.2172 30.2538 59.0671 25.0309 49.7105C24.1503 48.1307 24.3964 46.1824 25.6428 44.8626L31.2 38.985C33.2722 36.791 33.758 33.5042 32.4088 30.8059L23.057 12.1023C22.0152 10.016 20.1019 8.57878 17.8077 8.15905C15.5121 7.73849 13.2126 8.40618 11.4979 9.98952L7.94604 13.2709C4.01985 16.8977 1.42154 21.588 0.43219 26.8342C-0.559039 32.0891 0.162366 37.39 2.51812 42.1656C2.52853 42.1877 2.53832 42.2068 2.54644 42.2227C4.03921 45.2415 5.65337 48.1936 7.34102 50.9919C7.62271 51.4629 7.92647 51.9605 8.24334 52.4712C8.69826 53.2036 9.66075 53.4289 10.3936 52.9742C11.1263 52.5193 11.3515 51.5566 10.8968 50.8239C10.5889 50.3278 10.2941 49.8448 10.0182 49.3838C8.3743 46.6579 6.80407 43.7864 5.35106 40.849C5.34294 40.8319 5.33462 40.8153 5.32608 40.7986C4.15983 38.4388 3.47298 35.9269 3.24109 33.3918C2.35669 23.7234 14.3035 24.3568 18.8777 32.9204L23.5212 41.6136C23.7144 41.9753 23.6547 42.42 23.3731 42.718C21.1851 45.034 20.7552 48.4555 22.3035 51.2322C27.7614 61.0102 35.7467 69.4988 46.7162 77.1836C47.9753 78.0653 49.4296 78.5005 50.8789 78.5005C52.5959 78.5005 54.3056 77.8892 55.6741 76.6856C56.5865 75.883 57.9065 75.7446 58.9656 76.3405L82.9321 89.826C82.9478 89.8348 82.9505 89.8562 82.9375 89.8687C76.296 96.2495 66.3469 97.7017 58.181 93.4819C40.4809 84.3329 26.0919 72.2387 15.4137 57.5362C14.9067 56.8383 13.9303 56.6832 13.2326 57.1904C12.5347 57.6974 12.38 58.6736 12.8868 59.3715C23.8538 74.4716 38.6104 86.8817 56.7467 96.2568C60.3167 98.1014 64.1825 99 68.0229 99C74.2449 99 80.398 96.6397 85.1005 92.1216L88.5033 88.8541C90.2005 87.2221 91 84.9538 90.7012 82.6232C90.6983 82.5934 90.6944 82.5643 90.6898 82.5347ZM13.0834 15.4445C12.5213 14.3922 12.7406 13.0931 13.6169 12.2837C14.6029 11.3732 15.925 10.9899 17.2456 11.231C18.5643 11.4723 19.6642 12.2984 20.2634 13.4985L29.6157 32.203C30.3806 33.7328 30.1049 35.5966 28.9303 36.8401C27.5419 38.3085 25.1228 37.9839 24.1707 36.2014L13.0834 15.4445Z" fill="url(#paint1_linear_0_6474)"/>
<path d="M94.0153 28.9861C94.0153 25.9785 91.5684 23.5315 88.5607 23.5315C85.5533 23.5315 83.1064 25.9785 83.1064 28.9861C83.1064 31.9935 85.5533 34.4404 88.5607 34.4404C91.5684 34.4404 94.0153 31.9935 94.0153 28.9861ZM86.2291 28.9861C86.2291 27.7005 87.2749 26.6545 88.5605 26.6545C89.8462 26.6545 90.8921 27.7005 90.8921 28.9861C90.8921 30.2717 89.8462 31.3175 88.5605 31.3175C87.2749 31.3175 86.2291 30.2717 86.2291 28.9861Z" fill="url(#paint2_linear_0_6474)"/>
<path d="M78.0857 28.9861C78.0857 25.9785 75.6387 23.5315 72.6313 23.5315C69.6237 23.5315 67.1768 25.9785 67.1768 28.9861C67.1768 31.9935 69.6237 34.4404 72.6313 34.4404C75.6387 34.4404 78.0857 31.9935 78.0857 28.9861ZM70.2995 28.9861C70.2995 27.7005 71.3455 26.6545 72.6311 26.6545C73.9167 26.6545 74.9625 27.7005 74.9625 28.9861C74.9625 30.2717 73.9167 31.3175 72.6311 31.3175C71.3455 31.3175 70.2995 30.2717 70.2995 28.9861Z" fill="url(#paint3_linear_0_6474)"/>
<path d="M51.2472 28.9861C51.2472 31.9935 53.6939 34.4404 56.7017 34.4404C59.7096 34.4404 62.1563 31.9935 62.1563 28.9861C62.1563 25.9785 59.7094 23.5315 56.7017 23.5315C53.6941 23.5315 51.2472 25.9785 51.2472 28.9861ZM56.7017 26.6545C57.9874 26.6545 59.0333 27.7005 59.0333 28.9861C59.0333 30.2717 57.9874 31.3175 56.7017 31.3175C55.4161 31.3175 54.3703 30.2717 54.3703 28.9861C54.3703 27.7005 55.4161 26.6545 56.7017 26.6545Z" fill="url(#paint4_linear_0_6474)"/>
<defs>
<linearGradient id="paint0_linear_0_6474" x1="38.9709" y1="-1.5978" x2="115.099" y2="63.1374" gradientUnits="userSpaceOnUse">
<stop stop-color="#A068F8"/>
<stop offset="0.6891" stop-color="#3F55C3"/>
<stop offset="1" stop-color="#184EAE"/>
</linearGradient>
<linearGradient id="paint1_linear_0_6474" x1="38.9709" y1="-1.5978" x2="115.099" y2="63.1374" gradientUnits="userSpaceOnUse">
<stop stop-color="#A068F8"/>
<stop offset="0.6891" stop-color="#3F55C3"/>
<stop offset="1" stop-color="#184EAE"/>
</linearGradient>
<linearGradient id="paint2_linear_0_6474" x1="38.9709" y1="-1.5978" x2="115.099" y2="63.1374" gradientUnits="userSpaceOnUse">
<stop stop-color="#A068F8"/>
<stop offset="0.6891" stop-color="#3F55C3"/>
<stop offset="1" stop-color="#184EAE"/>
</linearGradient>
<linearGradient id="paint3_linear_0_6474" x1="38.9709" y1="-1.5978" x2="115.099" y2="63.1374" gradientUnits="userSpaceOnUse">
<stop stop-color="#A068F8"/>
<stop offset="0.6891" stop-color="#3F55C3"/>
<stop offset="1" stop-color="#184EAE"/>
</linearGradient>
<linearGradient id="paint4_linear_0_6474" x1="38.9709" y1="-1.5978" x2="115.099" y2="63.1374" gradientUnits="userSpaceOnUse">
<stop stop-color="#A068F8"/>
<stop offset="0.6891" stop-color="#3F55C3"/>
<stop offset="1" stop-color="#184EAE"/>
</linearGradient>
</defs>
</svg>
