<svg width="31" height="30" viewBox="0 0 31 30" fill="none" xmlns="http://www.w3.org/2000/svg">
<path d="M29.2674 22.5231L24.9119 18.1657C24.327 17.5838 23.5437 17.2631 22.7067 17.2631C21.8357 17.2631 21.0133 17.6061 20.3915 18.2283L18.6961 19.9233C17.3786 19.1911 15.6276 18.1839 13.8096 16.3659C11.9938 14.5495 10.9865 12.8036 10.2505 11.479L11.9475 9.78321C13.2092 8.51887 13.2351 6.49048 12.0052 5.26179L7.65063 0.907051C7.06733 0.32213 6.28407 0 5.44496 0C4.59339 0 3.78781 0.327865 3.1696 0.924629C2.79561 1.22582 0.918807 2.88259 0.219321 6.29937C-0.760035 11.0818 1.49014 15.6833 7.9861 22.1819C15.2426 29.4361 21.4375 30 23.1634 30C23.5226 30 23.7394 29.9778 23.7973 29.9711C27.1815 29.5744 28.3932 28.0715 29.278 26.974C30.4244 25.5518 30.4204 23.6803 29.2674 22.5231ZM27.8222 25.8003C26.9905 26.8318 26.2052 27.8059 23.5797 28.1137C23.5784 28.1138 23.4348 28.1299 23.1634 28.1299C21.6193 28.1299 16.0566 27.6056 9.3084 20.8596C3.31795 14.8666 1.21538 10.7568 2.05125 6.67435C2.66135 3.69415 4.2811 2.42745 4.34406 2.37933L4.39991 2.33806L4.4489 2.28894C4.7193 2.0188 5.07297 1.86995 5.44484 1.86995C5.78342 1.86995 6.09658 1.99686 6.32745 2.22848L10.6831 6.58422C11.1842 7.08487 11.1575 7.92735 10.6244 8.46165L8.70516 10.3792L8.67362 10.4123C8.17347 10.9632 8.23231 11.7076 8.50782 12.1925C9.30279 13.6271 10.3917 15.5919 12.4871 17.6879C14.5754 19.7762 16.5374 20.8643 17.968 21.6578C18.1113 21.7382 18.407 21.8731 18.7771 21.8731C19.2142 21.8731 19.6154 21.6881 19.9125 21.3509L21.7137 19.5502C21.9826 19.2812 22.3351 19.133 22.7065 19.133C23.0458 19.133 23.3606 19.2602 23.591 19.4894L27.9436 23.8439C28.4965 24.3987 28.2682 25.2471 27.8222 25.8003Z" fill="#333331"/>
<path d="M18.2566 4.58149C19.8631 4.76637 21.7548 5.73949 23.0757 7.06055C24.409 8.39383 25.3845 10.3047 25.5606 11.9287C25.6126 12.4077 26.0178 12.7628 26.489 12.7628C26.5227 12.7628 26.5568 12.7609 26.591 12.7573C27.1043 12.7016 27.4753 12.2403 27.4196 11.727C27.1968 9.67412 26.039 7.37944 24.398 5.73837C22.7724 4.11264 20.5012 2.95763 18.4704 2.72389C17.9577 2.66442 17.4938 3.03293 17.4347 3.54579C17.3756 4.05866 17.7435 4.5224 18.2566 4.58149Z" fill="#333331"/>
<path d="M17.3832 8.49817C18.2521 8.59828 19.4546 9.24279 20.2423 10.0305C21.0368 10.8251 21.6826 12.0391 21.7777 12.9174C21.8297 13.3966 22.2348 13.7516 22.706 13.7516C22.7397 13.7516 22.7737 13.7497 22.8079 13.7461C23.3213 13.6904 23.6924 13.2291 23.6367 12.7158C23.4741 11.2163 22.4787 9.62251 21.5644 8.70823C20.6583 7.80205 19.0801 6.81135 17.597 6.64044C17.0835 6.58072 16.6202 6.94935 16.5611 7.46222C16.5022 7.97521 16.8702 8.43908 17.3832 8.49817Z" fill="#333331"/>
</svg>
