<svg width="19" height="21" viewBox="0 0 19 21" fill="none" xmlns="http://www.w3.org/2000/svg">
<path d="M11.6111 0H7.38891C3.31461 0 0 3.29757 0 7.35093V10.5013C0 13.347 1.64968 15.9295 4.22223 17.1443V20.6526C4.22223 20.9572 4.60527 21.1165 4.82287 20.9001L7.88644 17.8523H11.6111C15.6854 17.8523 19 14.5547 19 10.5013V7.35093C19 3.29757 15.6854 0 11.6111 0Z" fill="url(#paint0_linear_0_5564)"/>
<path d="M10.2265 6.67529C10.0314 6.67529 9.87329 6.83345 9.87329 7.02853C9.87329 7.22361 10.0314 7.38176 10.2265 7.38176C11.0057 7.38176 11.6396 8.01563 11.6396 8.79479C11.6396 8.98726 11.8003 9.14803 11.9928 9.14803C12.1853 9.14803 12.346 8.98726 12.346 8.79479C12.3461 7.62606 11.3953 6.67529 10.2265 6.67529Z" fill="white"/>
<path d="M10.2266 5.26221C10.0959 5.26221 9.96404 5.26945 9.83456 5.28373C9.64064 5.30513 9.50078 5.47968 9.52218 5.67364C9.54358 5.8676 9.7185 6.00709 9.91209 5.98602C10.0159 5.97456 10.1217 5.96872 10.2266 5.96872C11.7849 5.96872 13.0526 7.23646 13.0526 8.79473C13.0526 8.89966 13.0468 9.00545 13.0353 9.10926C13.0142 9.30054 13.1563 9.47811 13.3477 9.49917C13.539 9.52024 13.7164 9.37814 13.7376 9.18679C13.7519 9.05732 13.7591 8.92544 13.7591 8.79473C13.7591 6.84693 12.1744 5.26221 10.2266 5.26221Z" fill="white"/>
<path d="M10.2266 3.84912C10.1003 3.84912 9.97246 3.85392 9.84663 3.86348C9.65209 3.87822 9.50631 4.04792 9.52105 4.24242C9.53574 4.43696 9.70602 4.58275 9.89999 4.56801C10.0081 4.55977 10.118 4.55563 10.2266 4.55563C12.564 4.55563 14.4656 6.45725 14.4656 8.79467C14.4656 9.12539 14.4274 9.45462 14.3522 9.77317C14.309 9.9557 14.4214 10.1454 14.6024 10.195C14.7929 10.2472 14.9944 10.1278 15.0397 9.93567C15.1276 9.56393 15.1721 9.18007 15.1721 8.79467C15.1721 6.06767 12.9536 3.84912 10.2266 3.84912Z" fill="white"/>
<path d="M14.9943 13.0387L14.6863 11.3704C14.6608 11.2325 14.5541 11.1241 14.4167 11.0966L11.9945 10.6122C11.882 10.5898 11.7661 10.6249 11.685 10.7059L10.701 11.69C9.04302 10.9471 8.12283 10.0249 7.31319 8.29576L8.29406 7.31493C8.37501 7.23394 8.41017 7.11778 8.38774 7.00548L7.90332 4.58329C7.87583 4.4459 7.76742 4.33906 7.62959 4.31361L5.96125 4.00568C5.91557 3.99729 5.86853 3.99817 5.82318 4.00849C5.38267 4.10855 4.98074 4.33051 4.6608 4.65052C4.10683 5.20449 3.89511 6.01285 4.04859 6.98822C4.30623 8.62605 5.10866 10.9053 6.58911 12.3917L6.60934 12.4118C8.09458 13.8912 10.3739 14.6937 12.0118 14.9514C12.2182 14.9839 12.4169 15 12.6075 15C13.3177 15 13.9127 14.776 14.3496 14.3391C14.6696 14.0192 14.8916 13.6172 14.9916 13.1768C15.0018 13.1314 15.0027 13.0845 14.9943 13.0387Z" fill="white"/>
<defs>
<linearGradient id="paint0_linear_0_5564" x1="3.67045" y1="-16.3026" x2="20.9557" y2="-14.5655" gradientUnits="userSpaceOnUse">
<stop stop-color="#F93C3C"/>
<stop offset="1" stop-color="#CD0973"/>
</linearGradient>
</defs>
</svg>
