<svg width="190" height="40" viewBox="0 0 190 40" fill="none" xmlns="http://www.w3.org/2000/svg">
<g clip-path="url(#clip0_8006_5427)">
<path fill-rule="evenodd" clip-rule="evenodd" d="M2.60987 24.666C3.51805 24.9534 8.31403 24.7761 9.63244 24.7748C10.0782 23.3931 13.3505 17.5665 14.4597 15.201C14.7564 14.5684 14.8135 14.2402 15.286 13.7863L16.4376 24.7706L23.1862 24.7742C23.6624 24.6576 26.084 19.5264 26.4604 18.7707C27.5071 16.6691 28.5267 14.686 29.6408 12.5007C30.7015 10.4204 31.7634 8.38607 32.7723 6.36197C33.2754 5.35245 33.7357 4.31858 34.3111 3.2503C34.7877 2.36508 35.6452 0.875789 35.9058 0.0269661L27.5727 0.00124179C26.9743 1.57611 25.7473 3.78488 24.891 5.4188L22.0859 10.8073L20.9858 0.0599234L13.7268 0.000581642C13.4787 0.936882 9.80184 7.86303 8.76008 9.97563C8.7453 10.0057 8.58987 10.3002 8.58259 10.3113C8.25878 10.8014 8.46502 10.5118 8.23745 10.7157L7.1635 0L0 0.00240864L2.60987 24.666Z" fill="white"/>
<path fill-rule="evenodd" clip-rule="evenodd" d="M32.5957 24.7724L57.6947 24.7693L58.8597 18.0741L42.115 18.0362L44.0631 6.76464L60.8427 6.75207L62.0043 0.00504209L36.8885 0L32.5957 24.7724Z" fill="white"/>
<path fill-rule="evenodd" clip-rule="evenodd" d="M45.1816 15.7376L59.2025 15.7528L60.4372 9.00392L46.3223 8.99121L45.1816 15.7376Z" fill="#F43939"/>
<path fill-rule="evenodd" clip-rule="evenodd" d="M87.0469 24.7723L112.146 24.7693L113.311 18.074L96.5663 18.0361L98.5143 6.76464L115.294 6.75207L116.456 0.00496715L91.3398 0L87.0469 24.7723Z" fill="#F43939"/>
<path fill-rule="evenodd" clip-rule="evenodd" d="M99.6309 15.7376L113.652 15.7528L114.887 9.004L100.772 8.99121L99.6309 15.7376Z" fill="#F43939"/>
<path fill-rule="evenodd" clip-rule="evenodd" d="M59.7402 24.7386L68.0708 24.7367L69.6128 15.7885L77.8524 15.725L76.3129 24.6831L84.6297 24.7324L88.9205 0.00650154L80.8976 0C80.4909 0.207035 80.7621 -0.04648 80.5639 0.378845L79.0315 8.9528L70.8493 8.9767L72.3531 0.00606264L64.0134 7.13671e-05L59.7402 24.7386Z" fill="#F43939"/>
<path fill-rule="evenodd" clip-rule="evenodd" d="M114.088 24.7332L122.413 24.7359C122.698 23.8324 125.727 18.2294 126.453 16.7262C127.165 15.2504 129.886 9.49863 130.606 8.6702L132.21 24.6578L140.525 24.7351L138.058 0.00189836L126.503 0C125.498 2.91019 115.026 22.0783 114.088 24.7332Z" fill="#F43939"/>
<path fill-rule="evenodd" clip-rule="evenodd" d="M167.489 0.00277618L159.164 0C158.879 0.90356 155.85 6.50652 155.124 8.0097C154.412 9.48555 151.69 15.2373 150.971 16.0657L149.367 0.078122L141.051 0.000874247L143.518 24.734L155.074 24.7359C156.079 21.8257 166.551 2.65762 167.489 0.00277618Z" fill="#F43939"/>
<path fill-rule="evenodd" clip-rule="evenodd" d="M170.543 24.4063L178.742 24.402L180.263 17.1011L190 0.0511559L181.919 0L177.416 8.94812L176.218 0.0388023L168.164 0.00606264L171.503 18.0943L170.543 24.4063Z" fill="#F43939"/>
<path fill-rule="evenodd" clip-rule="evenodd" d="M130.548 37.1618C130.881 37.2673 132.641 37.2022 133.125 37.2018C133.289 36.6946 134.49 34.5562 134.897 33.688C135.006 33.4558 135.027 33.3354 135.2 33.1688L135.623 37.2002L138.1 37.2016C138.274 37.1588 139.163 35.2755 139.301 34.9981C139.686 34.2268 140.06 33.499 140.469 32.6969C140.858 31.9334 141.248 31.1868 141.618 30.4439C141.803 30.0734 141.972 29.6939 142.183 29.3019C142.358 28.9769 142.672 28.4304 142.768 28.1188L139.71 28.1093C139.49 28.6874 139.04 29.4981 138.725 30.0977L137.696 32.0755L137.292 28.1309L134.628 28.1091C134.537 28.4527 133.187 30.9948 132.805 31.7702C132.8 31.7812 132.743 31.8893 132.74 31.8933C132.621 32.0732 132.697 31.9669 132.613 32.0418L132.219 28.1089L129.59 28.1098L130.548 37.1618Z" fill="white"/>
<path fill-rule="evenodd" clip-rule="evenodd" d="M165.725 37.2023L168.787 37.2016L169.354 33.9128L172.382 33.8895L171.816 37.1819L174.873 37.2L176.45 28.1123L173.501 28.1099C173.352 28.186 173.452 28.0928 173.379 28.2491L172.816 31.4004L169.808 31.4091L170.361 28.1121L167.296 28.1099L165.725 37.2023Z" fill="white"/>
<path fill-rule="evenodd" clip-rule="evenodd" d="M141.553 37.2018L150.765 37.2007L151.193 34.7434L145.047 34.7295L145.762 30.5927L151.921 30.588L152.347 28.1117L143.129 28.1099L141.553 37.2018Z" fill="white"/>
<path fill-rule="evenodd" clip-rule="evenodd" d="M164.682 37.1873L165.103 34.741L159.405 34.7296L160.111 30.6011L165.728 30.5876C165.895 30.485 165.793 30.6521 165.874 30.3439C165.889 30.2883 165.912 30.1056 165.926 30.0265L166.251 28.1101C163.931 28.104 161.611 28.1098 159.292 28.1098C157.598 28.1098 157.52 27.8994 157.237 29.5461L156.202 35.5062C155.922 37.1425 156.063 37.2016 157.713 37.2015C159.003 37.2015 163.821 37.2672 164.682 37.1873Z" fill="white"/>
<path fill-rule="evenodd" clip-rule="evenodd" d="M175.248 37.2008L178.307 37.2018C178.412 36.8697 179.525 34.8104 179.792 34.2579C180.054 33.7155 181.054 31.6015 181.318 31.297L181.908 37.1731L184.964 37.2015L184.058 28.1111L179.81 28.1104C179.441 29.18 175.592 36.225 175.248 37.2008Z" fill="white"/>
<path fill-rule="evenodd" clip-rule="evenodd" d="M185.369 37.2027L188.423 37.2001L190 28.1111L186.981 28.1108C186.856 28.3419 185.474 36.3415 185.369 37.2027Z" fill="white"/>
<path fill-rule="evenodd" clip-rule="evenodd" d="M151.809 37.2003L154.87 37.2014L156.447 28.1094L153.38 28.1099L151.809 37.2003Z" fill="white"/>
<path fill-rule="evenodd" clip-rule="evenodd" d="M146.172 33.8858L151.318 33.8914L151.771 31.4144L146.591 31.4097L146.172 33.8858Z" fill="#F43939"/>
<path d="M60.3881 32.0338C61.1995 31.2607 62.0783 30.8741 63.0242 30.8741C63.8864 30.8741 64.552 31.1767 65.021 31.7817C65.4899 32.3867 65.6461 33.143 65.4893 34.0506C65.3327 34.9581 64.9154 35.7143 64.2376 36.3193C63.5597 36.9243 62.7897 37.2269 61.9275 37.2269C60.9732 37.2269 60.2556 36.8739 59.7748 36.1681L59.1393 39.8486H58.1348L59.6581 31.0254H60.5622L60.3881 32.0338ZM63.5951 35.6765C64.0722 35.2648 64.3687 34.7227 64.4848 34.0506C64.6009 33.3783 64.4915 32.8363 64.1565 32.4245C63.8217 32.0128 63.3529 31.8069 62.7502 31.8069C62.2396 31.8069 61.7629 31.9497 61.3201 32.2355C60.8773 32.5211 60.5276 32.8741 60.2709 33.2942L60.0098 34.8068C60.1215 35.2269 60.3493 35.5799 60.6934 35.8656C61.0375 36.1513 61.4649 36.2941 61.9755 36.2941C62.5782 36.2941 63.1181 36.0882 63.5951 35.6765ZM67.0717 36.3761C66.5335 35.8089 66.3493 35.0337 66.519 34.0506C66.6887 33.0673 67.1406 32.2922 67.8747 31.725C68.6089 31.1577 69.4112 30.8741 70.2818 30.8741C71.1607 30.8741 71.8672 31.1577 72.4013 31.725C72.9353 32.2922 73.1175 33.0673 72.9478 34.0506C72.7781 35.0337 72.3282 35.8089 71.5983 36.3761C70.8683 36.9433 70.0639 37.2269 69.185 37.2269C68.3144 37.2269 67.61 36.9433 67.0717 36.3761ZM71.0358 35.6702C71.5233 35.2711 71.8258 34.7311 71.9433 34.0506C72.0608 33.3699 71.9447 32.83 71.5951 32.4308C71.2455 32.0316 70.7526 31.8321 70.1164 31.8321C69.4802 31.8321 68.9184 32.0316 68.431 32.4308C67.9434 32.83 67.641 33.3699 67.5234 34.0506C67.4059 34.7311 67.522 35.2711 67.8716 35.6702C68.2213 36.0694 68.7142 36.2689 69.3504 36.2689C69.9866 36.2689 70.5484 36.0694 71.0358 35.6702ZM82.5985 31.0254H83.6532L80.5494 37.0756H79.457L78.632 32.3993L76.1924 37.0756H75.1L74.0853 31.0254H75.1401L75.844 35.9664L78.4172 31.0254H79.3212L80.1885 35.9664L82.5985 31.0254ZM83.7462 34.0506C83.9175 33.0589 84.3551 32.2816 85.0591 31.7186C85.7633 31.1556 86.5087 30.8741 87.2956 30.8741C88.0322 30.8741 88.6093 31.059 89.0268 31.4287C89.4443 31.7985 89.6815 32.2544 89.7387 32.7964C89.7958 33.3384 89.7066 33.9034 89.4711 34.4917H84.6746C84.6302 35.0883 84.8162 35.5379 85.2328 35.8403C85.6493 36.1429 86.1882 36.2941 86.8495 36.2941C87.5862 36.2941 88.2758 36.1303 88.9183 35.8026L88.7486 36.7857C88.137 37.0798 87.4001 37.2269 86.5378 37.2269C85.5836 37.2269 84.8355 36.9538 84.2936 36.4076C83.7517 35.8614 83.5693 35.0757 83.7462 34.0506ZM88.7319 33.6094C88.7875 33.4329 88.8069 33.248 88.79 33.0548C88.7731 32.8615 88.7165 32.6682 88.6201 32.4749C88.5237 32.2816 88.3525 32.122 88.1064 31.996C87.8603 31.8699 87.5572 31.8069 87.1973 31.8069C86.6532 31.8069 86.1548 31.9665 85.702 32.2859C85.2493 32.6052 84.9576 33.0464 84.827 33.6094H88.7319ZM92.2828 32.0968C92.5853 31.7018 92.9987 31.3931 93.5226 31.1704C94.0465 30.9476 94.5685 30.8573 95.0886 30.8993L94.9145 31.9077C94.3401 31.8405 93.807 31.935 93.3148 32.1913C92.8228 32.4476 92.4426 32.8194 92.1743 33.3068L91.5236 37.0756H90.5191L91.5636 31.0254H92.4677L92.2828 32.0968ZM94.9967 34.0506C95.1679 33.0589 95.6055 32.2816 96.3095 31.7186C97.0137 31.1556 97.7591 30.8741 98.546 30.8741C99.2826 30.8741 99.8597 31.059 100.277 31.4287C100.695 31.7985 100.932 32.2544 100.989 32.7964C101.046 33.3384 100.957 33.9034 100.721 34.4917H95.925C95.8806 35.0883 96.0667 35.5379 96.4832 35.8403C96.8997 36.1429 97.4386 36.2941 98.1 36.2941C98.8366 36.2941 99.5262 36.1303 100.169 35.8026L99.999 36.7857C99.3874 37.0798 98.6505 37.2269 97.7882 37.2269C96.834 37.2269 96.0859 36.9538 95.544 36.4076C95.0021 35.8614 94.8197 35.0757 94.9967 34.0506ZM99.9824 33.6094C100.038 33.4329 100.057 33.248 100.04 33.0548C100.023 32.8615 99.9669 32.6682 99.8705 32.4749C99.7741 32.2816 99.6029 32.122 99.3569 31.996C99.1107 31.8699 98.8077 31.8069 98.4477 31.8069C97.9036 31.8069 97.4052 31.9665 96.9524 32.2859C96.4997 32.6052 96.208 33.0464 96.0774 33.6094H99.9824ZM108.227 28.2524H109.232L107.709 37.0756H106.805L106.979 36.0673C106.167 36.8403 105.288 37.2269 104.343 37.2269C103.48 37.2269 102.815 36.9243 102.346 36.3193C101.877 35.7143 101.721 34.9581 101.877 34.0506C102.034 33.143 102.451 32.3867 103.129 31.7817C103.807 31.1767 104.577 30.8741 105.439 30.8741C106.394 30.8741 107.111 31.2271 107.592 31.9329L108.227 28.2524ZM107.357 33.2942C107.245 32.8741 107.017 32.5211 106.673 32.2355C106.329 31.9497 105.902 31.8069 105.391 31.8069C104.788 31.8069 104.249 32.0128 103.772 32.4245C103.294 32.8363 102.998 33.3783 102.882 34.0506C102.766 34.7227 102.875 35.2648 103.21 35.6765C103.545 36.0882 104.014 36.2941 104.617 36.2941C105.127 36.2941 105.604 36.1513 106.047 35.8656C106.489 35.5799 106.839 35.2269 107.096 34.8068L107.357 33.2942ZM114.217 28.2524H115.221L114.586 31.9329C115.31 31.2271 116.15 30.8741 117.104 30.8741C117.966 30.8741 118.632 31.1767 119.101 31.7817C119.57 32.3867 119.726 33.143 119.569 34.0506C119.413 34.9581 118.995 35.7143 118.317 36.3193C117.64 36.9243 116.87 37.2269 116.007 37.2269C115.061 37.2269 114.316 36.8403 113.772 36.0673L113.597 37.0756H112.693L114.217 28.2524ZM117.675 35.6765C118.152 35.2648 118.449 34.7227 118.565 34.0506C118.681 33.3783 118.571 32.8363 118.236 32.4245C117.902 32.0128 117.433 31.8069 116.83 31.8069C116.319 31.8069 115.843 31.9497 115.4 32.2355C114.957 32.5211 114.607 32.8741 114.351 33.2942L114.09 34.8068C114.201 35.2269 114.429 35.5799 114.773 35.8656C115.117 36.1513 115.545 36.2941 116.055 36.2941C116.658 36.2941 117.198 36.0882 117.675 35.6765ZM123.012 35.9286L125.892 31.0254H126.96L122.795 37.9831C121.986 39.3277 121.112 39.9999 120.174 39.9999C119.948 39.9999 119.736 39.9705 119.537 39.9116L119.687 39.0419C119.854 39.0923 120.025 39.1175 120.201 39.1175C120.846 39.1175 121.45 38.626 122.013 37.6428L122.335 37.0882L120.518 31.0254H121.586L123.012 35.9286Z" fill="white"/>
</g>
<defs>
<clipPath id="clip0_8006_5427">
<rect width="190" height="40" fill="white"/>
</clipPath>
</defs>
</svg>
